%TF.GenerationSoftware,KiCad,Pcbnew,(5.1.6-0-10_14)*%
%TF.CreationDate,2021-01-11T12:54:44+11:00*%
%TF.ProjectId,esp32lcd,65737033-326c-4636-942e-6b696361645f,rev?*%
%TF.SameCoordinates,PX47868c0PY93d1cc0*%
%TF.FileFunction,Legend,Top*%
%TF.FilePolarity,Positive*%
%FSLAX46Y46*%
G04 Gerber Fmt 4.6, Leading zero omitted, Abs format (unit mm)*
G04 Created by KiCad (PCBNEW (5.1.6-0-10_14)) date 2021-01-11 12:54:44*
%MOMM*%
%LPD*%
G01*
G04 APERTURE LIST*
%ADD10C,0.037500*%
%TA.AperFunction,Profile*%
%ADD11C,0.150000*%
%TD*%
%TA.AperFunction,Profile*%
%ADD12C,0.050000*%
%TD*%
%ADD13C,0.120000*%
%ADD14C,0.127000*%
%ADD15C,0.400000*%
%ADD16C,0.150000*%
%ADD17C,0.250000*%
%ADD18C,0.015000*%
G04 APERTURE END LIST*
D10*
X13414285Y38188096D02*
X13414285Y37616667D01*
X13400000Y37502381D01*
X13371428Y37426191D01*
X13328571Y37388096D01*
X13300000Y37388096D01*
X13700000Y37388096D02*
X13557142Y37388096D01*
X13557142Y38188096D01*
X13971428Y37464286D02*
X13957142Y37426191D01*
X13914285Y37388096D01*
X13885714Y37388096D01*
X13842857Y37426191D01*
X13814285Y37502381D01*
X13800000Y37578572D01*
X13785714Y37730953D01*
X13785714Y37845239D01*
X13800000Y37997620D01*
X13814285Y38073810D01*
X13842857Y38150000D01*
X13885714Y38188096D01*
X13914285Y38188096D01*
X13957142Y38150000D01*
X13971428Y38111905D01*
X14185714Y38188096D02*
X14185714Y37616667D01*
X14171428Y37502381D01*
X14142857Y37426191D01*
X14100000Y37388096D01*
X14071428Y37388096D01*
X14471428Y37388096D02*
X14328571Y37388096D01*
X14328571Y38188096D01*
X14742857Y37464286D02*
X14728571Y37426191D01*
X14685714Y37388096D01*
X14657142Y37388096D01*
X14614285Y37426191D01*
X14585714Y37502381D01*
X14571428Y37578572D01*
X14557142Y37730953D01*
X14557142Y37845239D01*
X14571428Y37997620D01*
X14585714Y38073810D01*
X14614285Y38150000D01*
X14657142Y38188096D01*
X14685714Y38188096D01*
X14728571Y38150000D01*
X14742857Y38111905D01*
X14957142Y38188096D02*
X14957142Y37616667D01*
X14942857Y37502381D01*
X14914285Y37426191D01*
X14871428Y37388096D01*
X14842857Y37388096D01*
X15242857Y37388096D02*
X15100000Y37388096D01*
X15100000Y38188096D01*
X15514285Y37464286D02*
X15500000Y37426191D01*
X15457142Y37388096D01*
X15428571Y37388096D01*
X15385714Y37426191D01*
X15357142Y37502381D01*
X15342857Y37578572D01*
X15328571Y37730953D01*
X15328571Y37845239D01*
X15342857Y37997620D01*
X15357142Y38073810D01*
X15385714Y38150000D01*
X15428571Y38188096D01*
X15457142Y38188096D01*
X15500000Y38150000D01*
X15514285Y38111905D01*
X15728571Y38188096D02*
X15728571Y37616667D01*
X15714285Y37502381D01*
X15685714Y37426191D01*
X15642857Y37388096D01*
X15614285Y37388096D01*
X16014285Y37388096D02*
X15871428Y37388096D01*
X15871428Y38188096D01*
X16285714Y37464286D02*
X16271428Y37426191D01*
X16228571Y37388096D01*
X16200000Y37388096D01*
X16157142Y37426191D01*
X16128571Y37502381D01*
X16114285Y37578572D01*
X16100000Y37730953D01*
X16100000Y37845239D01*
X16114285Y37997620D01*
X16128571Y38073810D01*
X16157142Y38150000D01*
X16200000Y38188096D01*
X16228571Y38188096D01*
X16271428Y38150000D01*
X16285714Y38111905D01*
D11*
X78000000Y44000000D02*
X64400000Y44000000D01*
X64400000Y30800000D02*
X64400000Y44000000D01*
X35600000Y30800000D02*
X64400000Y30800000D01*
X35600000Y44000000D02*
X35600000Y30800000D01*
D12*
X77166666Y2400000D02*
G75*
G03*
X77166666Y2400000I-1666666J0D01*
G01*
X73000000Y2400000D02*
X78000000Y2400000D01*
X75500000Y4900000D02*
X75500000Y-100000D01*
X5166666Y34500000D02*
G75*
G03*
X5166666Y34500000I-1666666J0D01*
G01*
X1000000Y34500000D02*
X6000000Y34500000D01*
X3500000Y37000000D02*
X3500000Y32000000D01*
D11*
X35600000Y44000000D02*
X0Y44000000D01*
X0Y0D02*
X0Y44000000D01*
X78000000Y0D02*
X0Y0D01*
X78000000Y44000000D02*
X78000000Y0D01*
D13*
%TO.C,FB102*%
X22660000Y38787221D02*
X22660000Y39112779D01*
X21640000Y38787221D02*
X21640000Y39112779D01*
%TO.C,C109*%
X21690000Y33558578D02*
X21690000Y33041422D01*
X23110000Y33558578D02*
X23110000Y33041422D01*
D14*
%TO.C,J102*%
X6700000Y43950000D02*
X9100000Y43950000D01*
X14700000Y43950000D02*
X19150000Y43950000D01*
X6700000Y31450000D02*
X6700000Y43950000D01*
X19200000Y31450000D02*
X6700000Y31450000D01*
X19200000Y43950000D02*
X19200000Y31450000D01*
D15*
X12100000Y43450000D02*
G75*
G03*
X12100000Y43450000I-200000J0D01*
G01*
D13*
%TO.C,U101*%
X40950000Y4640000D02*
X43400000Y4640000D01*
X42750000Y7860000D02*
X40950000Y7860000D01*
%TO.C,C111*%
X35210000Y32090000D02*
X35210000Y36300000D01*
X32190000Y32090000D02*
X35210000Y32090000D01*
X32190000Y36300000D02*
X32190000Y32090000D01*
%TO.C,U102*%
X64250000Y1190000D02*
X66200000Y1190000D01*
X64250000Y1190000D02*
X62300000Y1190000D01*
X64250000Y11310000D02*
X66200000Y11310000D01*
X64250000Y11310000D02*
X60800000Y11310000D01*
%TO.C,U105*%
X31360000Y39700000D02*
X31360000Y33690000D01*
X24540000Y37450000D02*
X24540000Y33690000D01*
X31360000Y33690000D02*
X30100000Y33690000D01*
X24540000Y33690000D02*
X25800000Y33690000D01*
%TO.C,Q107*%
X71210000Y27020000D02*
X69750000Y27020000D01*
X71210000Y30180000D02*
X69050000Y30180000D01*
X71210000Y30180000D02*
X71210000Y29250000D01*
X71210000Y27020000D02*
X71210000Y27950000D01*
%TO.C,Q103*%
X69990000Y17580000D02*
X71450000Y17580000D01*
X69990000Y14420000D02*
X72150000Y14420000D01*
X69990000Y14420000D02*
X69990000Y15350000D01*
X69990000Y17580000D02*
X69990000Y16650000D01*
%TO.C,Q102*%
X69990000Y22530000D02*
X71450000Y22530000D01*
X69990000Y19370000D02*
X72150000Y19370000D01*
X69990000Y19370000D02*
X69990000Y20300000D01*
X69990000Y22530000D02*
X69990000Y21600000D01*
%TO.C,J101*%
X46500000Y-10000D02*
X46500000Y490000D01*
X46500000Y490000D02*
X45870000Y490000D01*
X52500000Y490000D02*
X53130000Y490000D01*
X52500000Y-10000D02*
X52500000Y490000D01*
D16*
X47125000Y5410000D02*
X47125000Y6070000D01*
X51875000Y5410000D02*
X47125000Y5410000D01*
D17*
X52500000Y-10000D02*
X46500000Y-10000D01*
X45875000Y6620000D02*
X45875000Y410000D01*
X53125000Y410000D02*
X53125000Y6620000D01*
D16*
X51875000Y5410000D02*
X51875000Y6065000D01*
D17*
X45710000Y20000D02*
G75*
G03*
X45871091Y408909I-388909J388909D01*
G01*
X53290000Y20000D02*
G75*
G02*
X53128909Y408909I388909J388909D01*
G01*
D16*
X47120000Y6060000D02*
G75*
G03*
X46580000Y6620000I-550000J10000D01*
G01*
X51875000Y6065000D02*
G75*
G02*
X52420000Y6620000I550000J5000D01*
G01*
D13*
%TO.C,U106*%
X40880000Y30695000D02*
X40500000Y30695000D01*
X40880000Y37115000D02*
X40880000Y30695000D01*
X59120000Y37115000D02*
X59120000Y30695000D01*
X40880000Y37115000D02*
X59120000Y37115000D01*
X59120000Y11370000D02*
X58120000Y11370000D01*
X59120000Y12150000D02*
X59120000Y11370000D01*
X40880000Y11370000D02*
X41880000Y11370000D01*
X40880000Y12150000D02*
X40880000Y11370000D01*
%TO.C,D101*%
X54850000Y700000D02*
X54850000Y6100000D01*
X58150000Y700000D02*
X58150000Y6100000D01*
X54850000Y700000D02*
X58150000Y700000D01*
%TO.C,D105*%
X61350000Y14100000D02*
X64650000Y14100000D01*
X64650000Y14100000D02*
X64650000Y19500000D01*
X61350000Y14100000D02*
X61350000Y19500000D01*
%TO.C,D106*%
X65100000Y14100000D02*
X68400000Y14100000D01*
X68400000Y14100000D02*
X68400000Y19500000D01*
X65100000Y14100000D02*
X65100000Y19500000D01*
%TO.C,R109*%
X70491422Y9710000D02*
X71008578Y9710000D01*
X70491422Y8290000D02*
X71008578Y8290000D01*
%TO.C,R110*%
X70491422Y11790000D02*
X71008578Y11790000D01*
X70491422Y13210000D02*
X71008578Y13210000D01*
%TO.C,R113*%
X67258578Y12040000D02*
X66741422Y12040000D01*
X67258578Y13460000D02*
X66741422Y13460000D01*
%TO.C,C112*%
X37340000Y28241422D02*
X37340000Y28758578D01*
X38760000Y28241422D02*
X38760000Y28758578D01*
%TO.C,C114*%
X34460000Y27241422D02*
X34460000Y27758578D01*
X33040000Y27241422D02*
X33040000Y27758578D01*
%TO.C,R116*%
X36460000Y27241422D02*
X36460000Y27758578D01*
X35040000Y27241422D02*
X35040000Y27758578D01*
%TO.C,C115*%
X71890000Y36608578D02*
X71890000Y36091422D01*
X73310000Y36608578D02*
X73310000Y36091422D01*
%TO.C,C116*%
X57691422Y8490000D02*
X58208578Y8490000D01*
X57691422Y9910000D02*
X58208578Y9910000D01*
%TO.C,R118*%
X39110000Y15621078D02*
X39110000Y15103922D01*
X37690000Y15621078D02*
X37690000Y15103922D01*
%TO.C,R120*%
X68260000Y28391422D02*
X68260000Y28908578D01*
X66840000Y28391422D02*
X66840000Y28908578D01*
%TD*%
%TO.C,FB102*%
D16*
X20478571Y36364286D02*
X20478571Y36030953D01*
X21002380Y36030953D02*
X20002380Y36030953D01*
X20002380Y36507143D01*
X20478571Y37221429D02*
X20526190Y37364286D01*
X20573809Y37411905D01*
X20669047Y37459524D01*
X20811904Y37459524D01*
X20907142Y37411905D01*
X20954761Y37364286D01*
X21002380Y37269048D01*
X21002380Y36888096D01*
X20002380Y36888096D01*
X20002380Y37221429D01*
X20050000Y37316667D01*
X20097619Y37364286D01*
X20192857Y37411905D01*
X20288095Y37411905D01*
X20383333Y37364286D01*
X20430952Y37316667D01*
X20478571Y37221429D01*
X20478571Y36888096D01*
X21002380Y38411905D02*
X21002380Y37840477D01*
X21002380Y38126191D02*
X20002380Y38126191D01*
X20145238Y38030953D01*
X20240476Y37935715D01*
X20288095Y37840477D01*
X20002380Y39030953D02*
X20002380Y39126191D01*
X20050000Y39221429D01*
X20097619Y39269048D01*
X20192857Y39316667D01*
X20383333Y39364286D01*
X20621428Y39364286D01*
X20811904Y39316667D01*
X20907142Y39269048D01*
X20954761Y39221429D01*
X21002380Y39126191D01*
X21002380Y39030953D01*
X20954761Y38935715D01*
X20907142Y38888096D01*
X20811904Y38840477D01*
X20621428Y38792858D01*
X20383333Y38792858D01*
X20192857Y38840477D01*
X20097619Y38888096D01*
X20050000Y38935715D01*
X20002380Y39030953D01*
X20097619Y39745239D02*
X20050000Y39792858D01*
X20002380Y39888096D01*
X20002380Y40126191D01*
X20050000Y40221429D01*
X20097619Y40269048D01*
X20192857Y40316667D01*
X20288095Y40316667D01*
X20430952Y40269048D01*
X21002380Y39697620D01*
X21002380Y40316667D01*
%TO.C,C109*%
X24407142Y32180953D02*
X24454761Y32133334D01*
X24502380Y31990477D01*
X24502380Y31895239D01*
X24454761Y31752381D01*
X24359523Y31657143D01*
X24264285Y31609524D01*
X24073809Y31561905D01*
X23930952Y31561905D01*
X23740476Y31609524D01*
X23645238Y31657143D01*
X23550000Y31752381D01*
X23502380Y31895239D01*
X23502380Y31990477D01*
X23550000Y32133334D01*
X23597619Y32180953D01*
X24502380Y33133334D02*
X24502380Y32561905D01*
X24502380Y32847620D02*
X23502380Y32847620D01*
X23645238Y32752381D01*
X23740476Y32657143D01*
X23788095Y32561905D01*
X23502380Y33752381D02*
X23502380Y33847620D01*
X23550000Y33942858D01*
X23597619Y33990477D01*
X23692857Y34038096D01*
X23883333Y34085715D01*
X24121428Y34085715D01*
X24311904Y34038096D01*
X24407142Y33990477D01*
X24454761Y33942858D01*
X24502380Y33847620D01*
X24502380Y33752381D01*
X24454761Y33657143D01*
X24407142Y33609524D01*
X24311904Y33561905D01*
X24121428Y33514286D01*
X23883333Y33514286D01*
X23692857Y33561905D01*
X23597619Y33609524D01*
X23550000Y33657143D01*
X23502380Y33752381D01*
X24502380Y34561905D02*
X24502380Y34752381D01*
X24454761Y34847620D01*
X24407142Y34895239D01*
X24264285Y34990477D01*
X24073809Y35038096D01*
X23692857Y35038096D01*
X23597619Y34990477D01*
X23550000Y34942858D01*
X23502380Y34847620D01*
X23502380Y34657143D01*
X23550000Y34561905D01*
X23597619Y34514286D01*
X23692857Y34466667D01*
X23930952Y34466667D01*
X24026190Y34514286D01*
X24073809Y34561905D01*
X24121428Y34657143D01*
X24121428Y34847620D01*
X24073809Y34942858D01*
X24026190Y34990477D01*
X23930952Y35038096D01*
%TO.C,J102*%
D18*
X3112088Y31898555D02*
X3112088Y31183049D01*
X3064388Y31039948D01*
X2968987Y30944547D01*
X2825885Y30896846D01*
X2730485Y30896846D01*
X4113797Y30896846D02*
X3541392Y30896846D01*
X3827594Y30896846D02*
X3827594Y31898555D01*
X3732194Y31755454D01*
X3636793Y31660053D01*
X3541392Y31612353D01*
X4733903Y31898555D02*
X4829303Y31898555D01*
X4924704Y31850855D01*
X4972405Y31803155D01*
X5020105Y31707754D01*
X5067806Y31516952D01*
X5067806Y31278450D01*
X5020105Y31087648D01*
X4972405Y30992247D01*
X4924704Y30944547D01*
X4829303Y30896846D01*
X4733903Y30896846D01*
X4638502Y30944547D01*
X4590801Y30992247D01*
X4543101Y31087648D01*
X4495400Y31278450D01*
X4495400Y31516952D01*
X4543101Y31707754D01*
X4590801Y31803155D01*
X4638502Y31850855D01*
X4733903Y31898555D01*
X5449409Y31803155D02*
X5497109Y31850855D01*
X5592510Y31898555D01*
X5831012Y31898555D01*
X5926413Y31850855D01*
X5974114Y31803155D01*
X6021814Y31707754D01*
X6021814Y31612353D01*
X5974114Y31469252D01*
X5401709Y30896846D01*
X6021814Y30896846D01*
%TO.C,U101*%
D16*
X40185714Y4247620D02*
X40185714Y3438096D01*
X40233333Y3342858D01*
X40280952Y3295239D01*
X40376190Y3247620D01*
X40566666Y3247620D01*
X40661904Y3295239D01*
X40709523Y3342858D01*
X40757142Y3438096D01*
X40757142Y4247620D01*
X41757142Y3247620D02*
X41185714Y3247620D01*
X41471428Y3247620D02*
X41471428Y4247620D01*
X41376190Y4104762D01*
X41280952Y4009524D01*
X41185714Y3961905D01*
X42376190Y4247620D02*
X42471428Y4247620D01*
X42566666Y4200000D01*
X42614285Y4152381D01*
X42661904Y4057143D01*
X42709523Y3866667D01*
X42709523Y3628572D01*
X42661904Y3438096D01*
X42614285Y3342858D01*
X42566666Y3295239D01*
X42471428Y3247620D01*
X42376190Y3247620D01*
X42280952Y3295239D01*
X42233333Y3342858D01*
X42185714Y3438096D01*
X42138095Y3628572D01*
X42138095Y3866667D01*
X42185714Y4057143D01*
X42233333Y4152381D01*
X42280952Y4200000D01*
X42376190Y4247620D01*
X43661904Y3247620D02*
X43090476Y3247620D01*
X43376190Y3247620D02*
X43376190Y4247620D01*
X43280952Y4104762D01*
X43185714Y4009524D01*
X43090476Y3961905D01*
%TO.C,C111*%
X35107142Y37680953D02*
X35154761Y37633334D01*
X35202380Y37490477D01*
X35202380Y37395239D01*
X35154761Y37252381D01*
X35059523Y37157143D01*
X34964285Y37109524D01*
X34773809Y37061905D01*
X34630952Y37061905D01*
X34440476Y37109524D01*
X34345238Y37157143D01*
X34250000Y37252381D01*
X34202380Y37395239D01*
X34202380Y37490477D01*
X34250000Y37633334D01*
X34297619Y37680953D01*
X35202380Y38633334D02*
X35202380Y38061905D01*
X35202380Y38347620D02*
X34202380Y38347620D01*
X34345238Y38252381D01*
X34440476Y38157143D01*
X34488095Y38061905D01*
X35202380Y39585715D02*
X35202380Y39014286D01*
X35202380Y39300000D02*
X34202380Y39300000D01*
X34345238Y39204762D01*
X34440476Y39109524D01*
X34488095Y39014286D01*
X35202380Y40538096D02*
X35202380Y39966667D01*
X35202380Y40252381D02*
X34202380Y40252381D01*
X34345238Y40157143D01*
X34440476Y40061905D01*
X34488095Y39966667D01*
%TO.C,U102*%
X68092380Y4565715D02*
X68901904Y4565715D01*
X68997142Y4613334D01*
X69044761Y4660953D01*
X69092380Y4756191D01*
X69092380Y4946667D01*
X69044761Y5041905D01*
X68997142Y5089524D01*
X68901904Y5137143D01*
X68092380Y5137143D01*
X69092380Y6137143D02*
X69092380Y5565715D01*
X69092380Y5851429D02*
X68092380Y5851429D01*
X68235238Y5756191D01*
X68330476Y5660953D01*
X68378095Y5565715D01*
X68092380Y6756191D02*
X68092380Y6851429D01*
X68140000Y6946667D01*
X68187619Y6994286D01*
X68282857Y7041905D01*
X68473333Y7089524D01*
X68711428Y7089524D01*
X68901904Y7041905D01*
X68997142Y6994286D01*
X69044761Y6946667D01*
X69092380Y6851429D01*
X69092380Y6756191D01*
X69044761Y6660953D01*
X68997142Y6613334D01*
X68901904Y6565715D01*
X68711428Y6518096D01*
X68473333Y6518096D01*
X68282857Y6565715D01*
X68187619Y6613334D01*
X68140000Y6660953D01*
X68092380Y6756191D01*
X68187619Y7470477D02*
X68140000Y7518096D01*
X68092380Y7613334D01*
X68092380Y7851429D01*
X68140000Y7946667D01*
X68187619Y7994286D01*
X68282857Y8041905D01*
X68378095Y8041905D01*
X68520952Y7994286D01*
X69092380Y7422858D01*
X69092380Y8041905D01*
%TO.C,U105*%
X26385714Y30847620D02*
X26385714Y30038096D01*
X26433333Y29942858D01*
X26480952Y29895239D01*
X26576190Y29847620D01*
X26766666Y29847620D01*
X26861904Y29895239D01*
X26909523Y29942858D01*
X26957142Y30038096D01*
X26957142Y30847620D01*
X27957142Y29847620D02*
X27385714Y29847620D01*
X27671428Y29847620D02*
X27671428Y30847620D01*
X27576190Y30704762D01*
X27480952Y30609524D01*
X27385714Y30561905D01*
X28576190Y30847620D02*
X28671428Y30847620D01*
X28766666Y30800000D01*
X28814285Y30752381D01*
X28861904Y30657143D01*
X28909523Y30466667D01*
X28909523Y30228572D01*
X28861904Y30038096D01*
X28814285Y29942858D01*
X28766666Y29895239D01*
X28671428Y29847620D01*
X28576190Y29847620D01*
X28480952Y29895239D01*
X28433333Y29942858D01*
X28385714Y30038096D01*
X28338095Y30228572D01*
X28338095Y30466667D01*
X28385714Y30657143D01*
X28433333Y30752381D01*
X28480952Y30800000D01*
X28576190Y30847620D01*
X29814285Y30847620D02*
X29338095Y30847620D01*
X29290476Y30371429D01*
X29338095Y30419048D01*
X29433333Y30466667D01*
X29671428Y30466667D01*
X29766666Y30419048D01*
X29814285Y30371429D01*
X29861904Y30276191D01*
X29861904Y30038096D01*
X29814285Y29942858D01*
X29766666Y29895239D01*
X29671428Y29847620D01*
X29433333Y29847620D01*
X29338095Y29895239D01*
X29290476Y29942858D01*
%TO.C,Q107*%
X73497619Y28052381D02*
X73450000Y27957143D01*
X73354761Y27861905D01*
X73211904Y27719048D01*
X73164285Y27623810D01*
X73164285Y27528572D01*
X73402380Y27576191D02*
X73354761Y27480953D01*
X73259523Y27385715D01*
X73069047Y27338096D01*
X72735714Y27338096D01*
X72545238Y27385715D01*
X72450000Y27480953D01*
X72402380Y27576191D01*
X72402380Y27766667D01*
X72450000Y27861905D01*
X72545238Y27957143D01*
X72735714Y28004762D01*
X73069047Y28004762D01*
X73259523Y27957143D01*
X73354761Y27861905D01*
X73402380Y27766667D01*
X73402380Y27576191D01*
X73402380Y28957143D02*
X73402380Y28385715D01*
X73402380Y28671429D02*
X72402380Y28671429D01*
X72545238Y28576191D01*
X72640476Y28480953D01*
X72688095Y28385715D01*
X72402380Y29576191D02*
X72402380Y29671429D01*
X72450000Y29766667D01*
X72497619Y29814286D01*
X72592857Y29861905D01*
X72783333Y29909524D01*
X73021428Y29909524D01*
X73211904Y29861905D01*
X73307142Y29814286D01*
X73354761Y29766667D01*
X73402380Y29671429D01*
X73402380Y29576191D01*
X73354761Y29480953D01*
X73307142Y29433334D01*
X73211904Y29385715D01*
X73021428Y29338096D01*
X72783333Y29338096D01*
X72592857Y29385715D01*
X72497619Y29433334D01*
X72450000Y29480953D01*
X72402380Y29576191D01*
X72402380Y30242858D02*
X72402380Y30909524D01*
X73402380Y30480953D01*
%TO.C,Q103*%
X73797619Y15102381D02*
X73750000Y15007143D01*
X73654761Y14911905D01*
X73511904Y14769048D01*
X73464285Y14673810D01*
X73464285Y14578572D01*
X73702380Y14626191D02*
X73654761Y14530953D01*
X73559523Y14435715D01*
X73369047Y14388096D01*
X73035714Y14388096D01*
X72845238Y14435715D01*
X72750000Y14530953D01*
X72702380Y14626191D01*
X72702380Y14816667D01*
X72750000Y14911905D01*
X72845238Y15007143D01*
X73035714Y15054762D01*
X73369047Y15054762D01*
X73559523Y15007143D01*
X73654761Y14911905D01*
X73702380Y14816667D01*
X73702380Y14626191D01*
X73702380Y16007143D02*
X73702380Y15435715D01*
X73702380Y15721429D02*
X72702380Y15721429D01*
X72845238Y15626191D01*
X72940476Y15530953D01*
X72988095Y15435715D01*
X72702380Y16626191D02*
X72702380Y16721429D01*
X72750000Y16816667D01*
X72797619Y16864286D01*
X72892857Y16911905D01*
X73083333Y16959524D01*
X73321428Y16959524D01*
X73511904Y16911905D01*
X73607142Y16864286D01*
X73654761Y16816667D01*
X73702380Y16721429D01*
X73702380Y16626191D01*
X73654761Y16530953D01*
X73607142Y16483334D01*
X73511904Y16435715D01*
X73321428Y16388096D01*
X73083333Y16388096D01*
X72892857Y16435715D01*
X72797619Y16483334D01*
X72750000Y16530953D01*
X72702380Y16626191D01*
X72702380Y17292858D02*
X72702380Y17911905D01*
X73083333Y17578572D01*
X73083333Y17721429D01*
X73130952Y17816667D01*
X73178571Y17864286D01*
X73273809Y17911905D01*
X73511904Y17911905D01*
X73607142Y17864286D01*
X73654761Y17816667D01*
X73702380Y17721429D01*
X73702380Y17435715D01*
X73654761Y17340477D01*
X73607142Y17292858D01*
%TO.C,Q102*%
X73897619Y20052381D02*
X73850000Y19957143D01*
X73754761Y19861905D01*
X73611904Y19719048D01*
X73564285Y19623810D01*
X73564285Y19528572D01*
X73802380Y19576191D02*
X73754761Y19480953D01*
X73659523Y19385715D01*
X73469047Y19338096D01*
X73135714Y19338096D01*
X72945238Y19385715D01*
X72850000Y19480953D01*
X72802380Y19576191D01*
X72802380Y19766667D01*
X72850000Y19861905D01*
X72945238Y19957143D01*
X73135714Y20004762D01*
X73469047Y20004762D01*
X73659523Y19957143D01*
X73754761Y19861905D01*
X73802380Y19766667D01*
X73802380Y19576191D01*
X73802380Y20957143D02*
X73802380Y20385715D01*
X73802380Y20671429D02*
X72802380Y20671429D01*
X72945238Y20576191D01*
X73040476Y20480953D01*
X73088095Y20385715D01*
X72802380Y21576191D02*
X72802380Y21671429D01*
X72850000Y21766667D01*
X72897619Y21814286D01*
X72992857Y21861905D01*
X73183333Y21909524D01*
X73421428Y21909524D01*
X73611904Y21861905D01*
X73707142Y21814286D01*
X73754761Y21766667D01*
X73802380Y21671429D01*
X73802380Y21576191D01*
X73754761Y21480953D01*
X73707142Y21433334D01*
X73611904Y21385715D01*
X73421428Y21338096D01*
X73183333Y21338096D01*
X72992857Y21385715D01*
X72897619Y21433334D01*
X72850000Y21480953D01*
X72802380Y21576191D01*
X72897619Y22290477D02*
X72850000Y22338096D01*
X72802380Y22433334D01*
X72802380Y22671429D01*
X72850000Y22766667D01*
X72897619Y22814286D01*
X72992857Y22861905D01*
X73088095Y22861905D01*
X73230952Y22814286D01*
X73802380Y22242858D01*
X73802380Y22861905D01*
%TO.C,J101*%
X48214285Y10547620D02*
X48214285Y9833334D01*
X48166666Y9690477D01*
X48071428Y9595239D01*
X47928571Y9547620D01*
X47833333Y9547620D01*
X49214285Y9547620D02*
X48642857Y9547620D01*
X48928571Y9547620D02*
X48928571Y10547620D01*
X48833333Y10404762D01*
X48738095Y10309524D01*
X48642857Y10261905D01*
X49833333Y10547620D02*
X49928571Y10547620D01*
X50023809Y10500000D01*
X50071428Y10452381D01*
X50119047Y10357143D01*
X50166666Y10166667D01*
X50166666Y9928572D01*
X50119047Y9738096D01*
X50071428Y9642858D01*
X50023809Y9595239D01*
X49928571Y9547620D01*
X49833333Y9547620D01*
X49738095Y9595239D01*
X49690476Y9642858D01*
X49642857Y9738096D01*
X49595238Y9928572D01*
X49595238Y10166667D01*
X49642857Y10357143D01*
X49690476Y10452381D01*
X49738095Y10500000D01*
X49833333Y10547620D01*
X51119047Y9547620D02*
X50547619Y9547620D01*
X50833333Y9547620D02*
X50833333Y10547620D01*
X50738095Y10404762D01*
X50642857Y10309524D01*
X50547619Y10261905D01*
%TO.C,U106*%
X48335714Y15497620D02*
X48335714Y14688096D01*
X48383333Y14592858D01*
X48430952Y14545239D01*
X48526190Y14497620D01*
X48716666Y14497620D01*
X48811904Y14545239D01*
X48859523Y14592858D01*
X48907142Y14688096D01*
X48907142Y15497620D01*
X49907142Y14497620D02*
X49335714Y14497620D01*
X49621428Y14497620D02*
X49621428Y15497620D01*
X49526190Y15354762D01*
X49430952Y15259524D01*
X49335714Y15211905D01*
X50526190Y15497620D02*
X50621428Y15497620D01*
X50716666Y15450000D01*
X50764285Y15402381D01*
X50811904Y15307143D01*
X50859523Y15116667D01*
X50859523Y14878572D01*
X50811904Y14688096D01*
X50764285Y14592858D01*
X50716666Y14545239D01*
X50621428Y14497620D01*
X50526190Y14497620D01*
X50430952Y14545239D01*
X50383333Y14592858D01*
X50335714Y14688096D01*
X50288095Y14878572D01*
X50288095Y15116667D01*
X50335714Y15307143D01*
X50383333Y15402381D01*
X50430952Y15450000D01*
X50526190Y15497620D01*
X51716666Y15497620D02*
X51526190Y15497620D01*
X51430952Y15450000D01*
X51383333Y15402381D01*
X51288095Y15259524D01*
X51240476Y15069048D01*
X51240476Y14688096D01*
X51288095Y14592858D01*
X51335714Y14545239D01*
X51430952Y14497620D01*
X51621428Y14497620D01*
X51716666Y14545239D01*
X51764285Y14592858D01*
X51811904Y14688096D01*
X51811904Y14926191D01*
X51764285Y15021429D01*
X51716666Y15069048D01*
X51621428Y15116667D01*
X51430952Y15116667D01*
X51335714Y15069048D01*
X51288095Y15021429D01*
X51240476Y14926191D01*
%TO.C,D101*%
X54452380Y2409524D02*
X53452380Y2409524D01*
X53452380Y2647620D01*
X53500000Y2790477D01*
X53595238Y2885715D01*
X53690476Y2933334D01*
X53880952Y2980953D01*
X54023809Y2980953D01*
X54214285Y2933334D01*
X54309523Y2885715D01*
X54404761Y2790477D01*
X54452380Y2647620D01*
X54452380Y2409524D01*
X54452380Y3933334D02*
X54452380Y3361905D01*
X54452380Y3647620D02*
X53452380Y3647620D01*
X53595238Y3552381D01*
X53690476Y3457143D01*
X53738095Y3361905D01*
X53452380Y4552381D02*
X53452380Y4647620D01*
X53500000Y4742858D01*
X53547619Y4790477D01*
X53642857Y4838096D01*
X53833333Y4885715D01*
X54071428Y4885715D01*
X54261904Y4838096D01*
X54357142Y4790477D01*
X54404761Y4742858D01*
X54452380Y4647620D01*
X54452380Y4552381D01*
X54404761Y4457143D01*
X54357142Y4409524D01*
X54261904Y4361905D01*
X54071428Y4314286D01*
X53833333Y4314286D01*
X53642857Y4361905D01*
X53547619Y4409524D01*
X53500000Y4457143D01*
X53452380Y4552381D01*
X54452380Y5838096D02*
X54452380Y5266667D01*
X54452380Y5552381D02*
X53452380Y5552381D01*
X53595238Y5457143D01*
X53690476Y5361905D01*
X53738095Y5266667D01*
%TO.C,D105*%
X62202380Y21309524D02*
X61202380Y21309524D01*
X61202380Y21547620D01*
X61250000Y21690477D01*
X61345238Y21785715D01*
X61440476Y21833334D01*
X61630952Y21880953D01*
X61773809Y21880953D01*
X61964285Y21833334D01*
X62059523Y21785715D01*
X62154761Y21690477D01*
X62202380Y21547620D01*
X62202380Y21309524D01*
X62202380Y22833334D02*
X62202380Y22261905D01*
X62202380Y22547620D02*
X61202380Y22547620D01*
X61345238Y22452381D01*
X61440476Y22357143D01*
X61488095Y22261905D01*
X61202380Y23452381D02*
X61202380Y23547620D01*
X61250000Y23642858D01*
X61297619Y23690477D01*
X61392857Y23738096D01*
X61583333Y23785715D01*
X61821428Y23785715D01*
X62011904Y23738096D01*
X62107142Y23690477D01*
X62154761Y23642858D01*
X62202380Y23547620D01*
X62202380Y23452381D01*
X62154761Y23357143D01*
X62107142Y23309524D01*
X62011904Y23261905D01*
X61821428Y23214286D01*
X61583333Y23214286D01*
X61392857Y23261905D01*
X61297619Y23309524D01*
X61250000Y23357143D01*
X61202380Y23452381D01*
X61202380Y24690477D02*
X61202380Y24214286D01*
X61678571Y24166667D01*
X61630952Y24214286D01*
X61583333Y24309524D01*
X61583333Y24547620D01*
X61630952Y24642858D01*
X61678571Y24690477D01*
X61773809Y24738096D01*
X62011904Y24738096D01*
X62107142Y24690477D01*
X62154761Y24642858D01*
X62202380Y24547620D01*
X62202380Y24309524D01*
X62154761Y24214286D01*
X62107142Y24166667D01*
%TO.C,D106*%
X66052380Y21259524D02*
X65052380Y21259524D01*
X65052380Y21497620D01*
X65100000Y21640477D01*
X65195238Y21735715D01*
X65290476Y21783334D01*
X65480952Y21830953D01*
X65623809Y21830953D01*
X65814285Y21783334D01*
X65909523Y21735715D01*
X66004761Y21640477D01*
X66052380Y21497620D01*
X66052380Y21259524D01*
X66052380Y22783334D02*
X66052380Y22211905D01*
X66052380Y22497620D02*
X65052380Y22497620D01*
X65195238Y22402381D01*
X65290476Y22307143D01*
X65338095Y22211905D01*
X65052380Y23402381D02*
X65052380Y23497620D01*
X65100000Y23592858D01*
X65147619Y23640477D01*
X65242857Y23688096D01*
X65433333Y23735715D01*
X65671428Y23735715D01*
X65861904Y23688096D01*
X65957142Y23640477D01*
X66004761Y23592858D01*
X66052380Y23497620D01*
X66052380Y23402381D01*
X66004761Y23307143D01*
X65957142Y23259524D01*
X65861904Y23211905D01*
X65671428Y23164286D01*
X65433333Y23164286D01*
X65242857Y23211905D01*
X65147619Y23259524D01*
X65100000Y23307143D01*
X65052380Y23402381D01*
X65052380Y24592858D02*
X65052380Y24402381D01*
X65100000Y24307143D01*
X65147619Y24259524D01*
X65290476Y24164286D01*
X65480952Y24116667D01*
X65861904Y24116667D01*
X65957142Y24164286D01*
X66004761Y24211905D01*
X66052380Y24307143D01*
X66052380Y24497620D01*
X66004761Y24592858D01*
X65957142Y24640477D01*
X65861904Y24688096D01*
X65623809Y24688096D01*
X65528571Y24640477D01*
X65480952Y24592858D01*
X65433333Y24497620D01*
X65433333Y24307143D01*
X65480952Y24211905D01*
X65528571Y24164286D01*
X65623809Y24116667D01*
%TO.C,R109*%
X69430952Y10197620D02*
X69097619Y10673810D01*
X68859523Y10197620D02*
X68859523Y11197620D01*
X69240476Y11197620D01*
X69335714Y11150000D01*
X69383333Y11102381D01*
X69430952Y11007143D01*
X69430952Y10864286D01*
X69383333Y10769048D01*
X69335714Y10721429D01*
X69240476Y10673810D01*
X68859523Y10673810D01*
X70383333Y10197620D02*
X69811904Y10197620D01*
X70097619Y10197620D02*
X70097619Y11197620D01*
X70002380Y11054762D01*
X69907142Y10959524D01*
X69811904Y10911905D01*
X71002380Y11197620D02*
X71097619Y11197620D01*
X71192857Y11150000D01*
X71240476Y11102381D01*
X71288095Y11007143D01*
X71335714Y10816667D01*
X71335714Y10578572D01*
X71288095Y10388096D01*
X71240476Y10292858D01*
X71192857Y10245239D01*
X71097619Y10197620D01*
X71002380Y10197620D01*
X70907142Y10245239D01*
X70859523Y10292858D01*
X70811904Y10388096D01*
X70764285Y10578572D01*
X70764285Y10816667D01*
X70811904Y11007143D01*
X70859523Y11102381D01*
X70907142Y11150000D01*
X71002380Y11197620D01*
X71811904Y10197620D02*
X72002380Y10197620D01*
X72097619Y10245239D01*
X72145238Y10292858D01*
X72240476Y10435715D01*
X72288095Y10626191D01*
X72288095Y11007143D01*
X72240476Y11102381D01*
X72192857Y11150000D01*
X72097619Y11197620D01*
X71907142Y11197620D01*
X71811904Y11150000D01*
X71764285Y11102381D01*
X71716666Y11007143D01*
X71716666Y10769048D01*
X71764285Y10673810D01*
X71811904Y10626191D01*
X71907142Y10578572D01*
X72097619Y10578572D01*
X72192857Y10626191D01*
X72240476Y10673810D01*
X72288095Y10769048D01*
%TO.C,R110*%
X73652380Y11030953D02*
X73176190Y10697620D01*
X73652380Y10459524D02*
X72652380Y10459524D01*
X72652380Y10840477D01*
X72700000Y10935715D01*
X72747619Y10983334D01*
X72842857Y11030953D01*
X72985714Y11030953D01*
X73080952Y10983334D01*
X73128571Y10935715D01*
X73176190Y10840477D01*
X73176190Y10459524D01*
X73652380Y11983334D02*
X73652380Y11411905D01*
X73652380Y11697620D02*
X72652380Y11697620D01*
X72795238Y11602381D01*
X72890476Y11507143D01*
X72938095Y11411905D01*
X73652380Y12935715D02*
X73652380Y12364286D01*
X73652380Y12650000D02*
X72652380Y12650000D01*
X72795238Y12554762D01*
X72890476Y12459524D01*
X72938095Y12364286D01*
X72652380Y13554762D02*
X72652380Y13650000D01*
X72700000Y13745239D01*
X72747619Y13792858D01*
X72842857Y13840477D01*
X73033333Y13888096D01*
X73271428Y13888096D01*
X73461904Y13840477D01*
X73557142Y13792858D01*
X73604761Y13745239D01*
X73652380Y13650000D01*
X73652380Y13554762D01*
X73604761Y13459524D01*
X73557142Y13411905D01*
X73461904Y13364286D01*
X73271428Y13316667D01*
X73033333Y13316667D01*
X72842857Y13364286D01*
X72747619Y13411905D01*
X72700000Y13459524D01*
X72652380Y13554762D01*
%TO.C,R113*%
X62130952Y12297620D02*
X61797619Y12773810D01*
X61559523Y12297620D02*
X61559523Y13297620D01*
X61940476Y13297620D01*
X62035714Y13250000D01*
X62083333Y13202381D01*
X62130952Y13107143D01*
X62130952Y12964286D01*
X62083333Y12869048D01*
X62035714Y12821429D01*
X61940476Y12773810D01*
X61559523Y12773810D01*
X63083333Y12297620D02*
X62511904Y12297620D01*
X62797619Y12297620D02*
X62797619Y13297620D01*
X62702380Y13154762D01*
X62607142Y13059524D01*
X62511904Y13011905D01*
X64035714Y12297620D02*
X63464285Y12297620D01*
X63750000Y12297620D02*
X63750000Y13297620D01*
X63654761Y13154762D01*
X63559523Y13059524D01*
X63464285Y13011905D01*
X64369047Y13297620D02*
X64988095Y13297620D01*
X64654761Y12916667D01*
X64797619Y12916667D01*
X64892857Y12869048D01*
X64940476Y12821429D01*
X64988095Y12726191D01*
X64988095Y12488096D01*
X64940476Y12392858D01*
X64892857Y12345239D01*
X64797619Y12297620D01*
X64511904Y12297620D01*
X64416666Y12345239D01*
X64369047Y12392858D01*
%TO.C,C112*%
X40057142Y27380953D02*
X40104761Y27333334D01*
X40152380Y27190477D01*
X40152380Y27095239D01*
X40104761Y26952381D01*
X40009523Y26857143D01*
X39914285Y26809524D01*
X39723809Y26761905D01*
X39580952Y26761905D01*
X39390476Y26809524D01*
X39295238Y26857143D01*
X39200000Y26952381D01*
X39152380Y27095239D01*
X39152380Y27190477D01*
X39200000Y27333334D01*
X39247619Y27380953D01*
X40152380Y28333334D02*
X40152380Y27761905D01*
X40152380Y28047620D02*
X39152380Y28047620D01*
X39295238Y27952381D01*
X39390476Y27857143D01*
X39438095Y27761905D01*
X40152380Y29285715D02*
X40152380Y28714286D01*
X40152380Y29000000D02*
X39152380Y29000000D01*
X39295238Y28904762D01*
X39390476Y28809524D01*
X39438095Y28714286D01*
X39247619Y29666667D02*
X39200000Y29714286D01*
X39152380Y29809524D01*
X39152380Y30047620D01*
X39200000Y30142858D01*
X39247619Y30190477D01*
X39342857Y30238096D01*
X39438095Y30238096D01*
X39580952Y30190477D01*
X40152380Y29619048D01*
X40152380Y30238096D01*
%TO.C,C114*%
X33957142Y29880953D02*
X34004761Y29833334D01*
X34052380Y29690477D01*
X34052380Y29595239D01*
X34004761Y29452381D01*
X33909523Y29357143D01*
X33814285Y29309524D01*
X33623809Y29261905D01*
X33480952Y29261905D01*
X33290476Y29309524D01*
X33195238Y29357143D01*
X33100000Y29452381D01*
X33052380Y29595239D01*
X33052380Y29690477D01*
X33100000Y29833334D01*
X33147619Y29880953D01*
X34052380Y30833334D02*
X34052380Y30261905D01*
X34052380Y30547620D02*
X33052380Y30547620D01*
X33195238Y30452381D01*
X33290476Y30357143D01*
X33338095Y30261905D01*
X34052380Y31785715D02*
X34052380Y31214286D01*
X34052380Y31500000D02*
X33052380Y31500000D01*
X33195238Y31404762D01*
X33290476Y31309524D01*
X33338095Y31214286D01*
X33385714Y32642858D02*
X34052380Y32642858D01*
X33004761Y32404762D02*
X33719047Y32166667D01*
X33719047Y32785715D01*
%TO.C,R116*%
X35402380Y29930953D02*
X34926190Y29597620D01*
X35402380Y29359524D02*
X34402380Y29359524D01*
X34402380Y29740477D01*
X34450000Y29835715D01*
X34497619Y29883334D01*
X34592857Y29930953D01*
X34735714Y29930953D01*
X34830952Y29883334D01*
X34878571Y29835715D01*
X34926190Y29740477D01*
X34926190Y29359524D01*
X35402380Y30883334D02*
X35402380Y30311905D01*
X35402380Y30597620D02*
X34402380Y30597620D01*
X34545238Y30502381D01*
X34640476Y30407143D01*
X34688095Y30311905D01*
X35402380Y31835715D02*
X35402380Y31264286D01*
X35402380Y31550000D02*
X34402380Y31550000D01*
X34545238Y31454762D01*
X34640476Y31359524D01*
X34688095Y31264286D01*
X34402380Y32692858D02*
X34402380Y32502381D01*
X34450000Y32407143D01*
X34497619Y32359524D01*
X34640476Y32264286D01*
X34830952Y32216667D01*
X35211904Y32216667D01*
X35307142Y32264286D01*
X35354761Y32311905D01*
X35402380Y32407143D01*
X35402380Y32597620D01*
X35354761Y32692858D01*
X35307142Y32740477D01*
X35211904Y32788096D01*
X34973809Y32788096D01*
X34878571Y32740477D01*
X34830952Y32692858D01*
X34783333Y32597620D01*
X34783333Y32407143D01*
X34830952Y32311905D01*
X34878571Y32264286D01*
X34973809Y32216667D01*
%TO.C,C115*%
X71207142Y35180953D02*
X71254761Y35133334D01*
X71302380Y34990477D01*
X71302380Y34895239D01*
X71254761Y34752381D01*
X71159523Y34657143D01*
X71064285Y34609524D01*
X70873809Y34561905D01*
X70730952Y34561905D01*
X70540476Y34609524D01*
X70445238Y34657143D01*
X70350000Y34752381D01*
X70302380Y34895239D01*
X70302380Y34990477D01*
X70350000Y35133334D01*
X70397619Y35180953D01*
X71302380Y36133334D02*
X71302380Y35561905D01*
X71302380Y35847620D02*
X70302380Y35847620D01*
X70445238Y35752381D01*
X70540476Y35657143D01*
X70588095Y35561905D01*
X71302380Y37085715D02*
X71302380Y36514286D01*
X71302380Y36800000D02*
X70302380Y36800000D01*
X70445238Y36704762D01*
X70540476Y36609524D01*
X70588095Y36514286D01*
X70302380Y37990477D02*
X70302380Y37514286D01*
X70778571Y37466667D01*
X70730952Y37514286D01*
X70683333Y37609524D01*
X70683333Y37847620D01*
X70730952Y37942858D01*
X70778571Y37990477D01*
X70873809Y38038096D01*
X71111904Y38038096D01*
X71207142Y37990477D01*
X71254761Y37942858D01*
X71302380Y37847620D01*
X71302380Y37609524D01*
X71254761Y37514286D01*
X71207142Y37466667D01*
%TO.C,C116*%
X53230952Y8592858D02*
X53183333Y8545239D01*
X53040476Y8497620D01*
X52945238Y8497620D01*
X52802380Y8545239D01*
X52707142Y8640477D01*
X52659523Y8735715D01*
X52611904Y8926191D01*
X52611904Y9069048D01*
X52659523Y9259524D01*
X52707142Y9354762D01*
X52802380Y9450000D01*
X52945238Y9497620D01*
X53040476Y9497620D01*
X53183333Y9450000D01*
X53230952Y9402381D01*
X54183333Y8497620D02*
X53611904Y8497620D01*
X53897619Y8497620D02*
X53897619Y9497620D01*
X53802380Y9354762D01*
X53707142Y9259524D01*
X53611904Y9211905D01*
X55135714Y8497620D02*
X54564285Y8497620D01*
X54850000Y8497620D02*
X54850000Y9497620D01*
X54754761Y9354762D01*
X54659523Y9259524D01*
X54564285Y9211905D01*
X55992857Y9497620D02*
X55802380Y9497620D01*
X55707142Y9450000D01*
X55659523Y9402381D01*
X55564285Y9259524D01*
X55516666Y9069048D01*
X55516666Y8688096D01*
X55564285Y8592858D01*
X55611904Y8545239D01*
X55707142Y8497620D01*
X55897619Y8497620D01*
X55992857Y8545239D01*
X56040476Y8592858D01*
X56088095Y8688096D01*
X56088095Y8926191D01*
X56040476Y9021429D01*
X55992857Y9069048D01*
X55897619Y9116667D01*
X55707142Y9116667D01*
X55611904Y9069048D01*
X55564285Y9021429D01*
X55516666Y8926191D01*
%TO.C,R118*%
X39352380Y10530953D02*
X38876190Y10197620D01*
X39352380Y9959524D02*
X38352380Y9959524D01*
X38352380Y10340477D01*
X38400000Y10435715D01*
X38447619Y10483334D01*
X38542857Y10530953D01*
X38685714Y10530953D01*
X38780952Y10483334D01*
X38828571Y10435715D01*
X38876190Y10340477D01*
X38876190Y9959524D01*
X39352380Y11483334D02*
X39352380Y10911905D01*
X39352380Y11197620D02*
X38352380Y11197620D01*
X38495238Y11102381D01*
X38590476Y11007143D01*
X38638095Y10911905D01*
X39352380Y12435715D02*
X39352380Y11864286D01*
X39352380Y12150000D02*
X38352380Y12150000D01*
X38495238Y12054762D01*
X38590476Y11959524D01*
X38638095Y11864286D01*
X38780952Y13007143D02*
X38733333Y12911905D01*
X38685714Y12864286D01*
X38590476Y12816667D01*
X38542857Y12816667D01*
X38447619Y12864286D01*
X38400000Y12911905D01*
X38352380Y13007143D01*
X38352380Y13197620D01*
X38400000Y13292858D01*
X38447619Y13340477D01*
X38542857Y13388096D01*
X38590476Y13388096D01*
X38685714Y13340477D01*
X38733333Y13292858D01*
X38780952Y13197620D01*
X38780952Y13007143D01*
X38828571Y12911905D01*
X38876190Y12864286D01*
X38971428Y12816667D01*
X39161904Y12816667D01*
X39257142Y12864286D01*
X39304761Y12911905D01*
X39352380Y13007143D01*
X39352380Y13197620D01*
X39304761Y13292858D01*
X39257142Y13340477D01*
X39161904Y13388096D01*
X38971428Y13388096D01*
X38876190Y13340477D01*
X38828571Y13292858D01*
X38780952Y13197620D01*
%TO.C,R120*%
X65630952Y25847620D02*
X65297619Y26323810D01*
X65059523Y25847620D02*
X65059523Y26847620D01*
X65440476Y26847620D01*
X65535714Y26800000D01*
X65583333Y26752381D01*
X65630952Y26657143D01*
X65630952Y26514286D01*
X65583333Y26419048D01*
X65535714Y26371429D01*
X65440476Y26323810D01*
X65059523Y26323810D01*
X66583333Y25847620D02*
X66011904Y25847620D01*
X66297619Y25847620D02*
X66297619Y26847620D01*
X66202380Y26704762D01*
X66107142Y26609524D01*
X66011904Y26561905D01*
X66964285Y26752381D02*
X67011904Y26800000D01*
X67107142Y26847620D01*
X67345238Y26847620D01*
X67440476Y26800000D01*
X67488095Y26752381D01*
X67535714Y26657143D01*
X67535714Y26561905D01*
X67488095Y26419048D01*
X66916666Y25847620D01*
X67535714Y25847620D01*
X68154761Y26847620D02*
X68250000Y26847620D01*
X68345238Y26800000D01*
X68392857Y26752381D01*
X68440476Y26657143D01*
X68488095Y26466667D01*
X68488095Y26228572D01*
X68440476Y26038096D01*
X68392857Y25942858D01*
X68345238Y25895239D01*
X68250000Y25847620D01*
X68154761Y25847620D01*
X68059523Y25895239D01*
X68011904Y25942858D01*
X67964285Y26038096D01*
X67916666Y26228572D01*
X67916666Y26466667D01*
X67964285Y26657143D01*
X68011904Y26752381D01*
X68059523Y26800000D01*
X68154761Y26847620D01*
%TD*%
M02*
