M48
METRIC
T1C0.400
T2C0.450
T3C0.500
T4C0.650
T5C1.016
T6C3.000
T7C4.000
T8C0.650
%
G90
G05
T1
X16.0Y31.2
X20.7Y36.15
X22.4Y31.2
X28.2Y26.25
X31.7Y30.4
X33.2Y30.2
X33.5Y38.6
X38.1Y14.5
X39.4Y14.5
X39.5Y26.4
X43.8Y8.9
X44.2Y4.1
X44.35Y6.65
X44.4Y29.475
X44.4Y22.3
X44.4Y15.3
X45.6Y13.7
X47.75Y6.85
X49.8Y9.9
X50.8Y7.15
X51.8Y9.6
X52.6Y29.475
X52.6Y22.3
X52.6Y15.175
X54.2Y28.25
X54.603Y18.7
X55.199Y20.742
X55.2Y27.3
X55.5Y10.1
X55.6Y29.5
X55.9Y19.6
X56.613Y18.413
X56.776Y27.38
X58.75Y5.2
X58.9Y7.85
X58.9Y3.0
X60.055Y8.155
X60.4Y25.7
X60.9Y18.8
X61.3Y24.374
X62.8Y23.6
X62.8Y22.2
X63.0Y26.5
X63.4Y11.7
X64.7Y26.1
X65.0Y17.2
X68.8Y27.5
X70.7Y13.4
T4
X37.2Y3.27
X37.2Y2.0
X38.47Y3.27
X38.47Y2.0
X39.74Y3.27
X39.74Y2.0
X41.01Y3.27
X41.01Y2.0
X42.28Y3.27
X42.28Y2.0
T5
X2.57Y26.19
X2.57Y23.65
X2.57Y21.11
X2.57Y18.57
X75.5Y38.5
X75.5Y35.96
X75.5Y33.42
X75.5Y30.88
X75.5Y28.34
X75.5Y25.8
X75.5Y23.26
X75.5Y20.72
X75.5Y18.18
X75.5Y15.64
X75.5Y13.1
X75.5Y10.56
X75.5Y8.02
X75.5Y5.48
T6
X3.5Y40.5
X3.5Y3.5
X70.5Y40.5
X70.5Y3.5
T7
X49.0Y22.0
T8
X47.5Y4.9
X51.5Y4.9
T2
G00X45.925Y6.62
M15
G01X45.925Y5.82
M16
G05
G00X45.925Y3.17
M15
G01X45.925Y2.37
M16
G05
G00X53.075Y6.62
M15
G01X53.075Y5.82
M16
G05
G00X53.075Y3.17
M15
G01X53.075Y2.37
M16
G05
T3
G00X12.225Y33.9
M15
G01X9.975Y33.9
M16
G05
G00X13.025Y31.5
M15
G01X10.775Y31.5
M16
G05
G00X18.2Y36.075
M15
G01X18.2Y33.825
M16
G05
T0
M30
