%TF.GenerationSoftware,KiCad,Pcbnew,(5.1.6-0-10_14)*%
%TF.CreationDate,2021-01-11T12:54:44+11:00*%
%TF.ProjectId,esp32lcd,65737033-326c-4636-942e-6b696361645f,rev?*%
%TF.SameCoordinates,PX47868c0PY93d1cc0*%
%TF.FileFunction,Copper,L1,Top*%
%TF.FilePolarity,Positive*%
%FSLAX46Y46*%
G04 Gerber Fmt 4.6, Leading zero omitted, Abs format (unit mm)*
G04 Created by KiCad (PCBNEW (5.1.6-0-10_14)) date 2021-01-11 12:54:44*
%MOMM*%
%LPD*%
G01*
G04 APERTURE LIST*
%TA.AperFunction,NonConductor*%
%ADD10C,0.150000*%
%TD*%
%TA.AperFunction,Profile*%
%ADD11C,0.150000*%
%TD*%
%TA.AperFunction,Profile*%
%ADD12C,0.050000*%
%TD*%
%TA.AperFunction,ComponentPad*%
%ADD13O,5.000000X2.500000*%
%TD*%
%TA.AperFunction,ComponentPad*%
%ADD14O,3.500000X5.000000*%
%TD*%
%TA.AperFunction,SMDPad,CuDef*%
%ADD15R,1.060000X0.650000*%
%TD*%
%TA.AperFunction,SMDPad,CuDef*%
%ADD16R,3.800000X2.000000*%
%TD*%
%TA.AperFunction,SMDPad,CuDef*%
%ADD17R,1.500000X2.000000*%
%TD*%
%TA.AperFunction,SMDPad,CuDef*%
%ADD18R,0.900000X0.800000*%
%TD*%
%TA.AperFunction,ComponentPad*%
%ADD19O,1.050000X1.850000*%
%TD*%
%TA.AperFunction,ComponentPad*%
%ADD20R,2.250000X1.727200*%
%TD*%
%TA.AperFunction,ComponentPad*%
%ADD21O,2.250000X1.727200*%
%TD*%
%TA.AperFunction,SMDPad,CuDef*%
%ADD22R,5.000000X5.000000*%
%TD*%
%TA.AperFunction,SMDPad,CuDef*%
%ADD23R,2.000000X0.900000*%
%TD*%
%TA.AperFunction,SMDPad,CuDef*%
%ADD24R,0.900000X2.000000*%
%TD*%
%TA.AperFunction,SMDPad,CuDef*%
%ADD25R,1.800000X2.500000*%
%TD*%
%TA.AperFunction,ViaPad*%
%ADD26C,6.000000*%
%TD*%
%TA.AperFunction,ViaPad*%
%ADD27C,0.800000*%
%TD*%
%TA.AperFunction,ViaPad*%
%ADD28C,5.000000*%
%TD*%
%TA.AperFunction,ViaPad*%
%ADD29C,3.500000*%
%TD*%
%TA.AperFunction,Conductor*%
%ADD30C,0.350000*%
%TD*%
%TA.AperFunction,Conductor*%
%ADD31C,1.000000*%
%TD*%
%TA.AperFunction,Conductor*%
%ADD32C,0.254000*%
%TD*%
G04 APERTURE END LIST*
D10*
X20319047Y42582143D02*
X20585714Y42582143D01*
X20700000Y42163096D02*
X20319047Y42163096D01*
X20319047Y42963096D01*
X20700000Y42963096D01*
X21004761Y42201191D02*
X21119047Y42163096D01*
X21309523Y42163096D01*
X21385714Y42201191D01*
X21423809Y42239286D01*
X21461904Y42315477D01*
X21461904Y42391667D01*
X21423809Y42467858D01*
X21385714Y42505953D01*
X21309523Y42544048D01*
X21157142Y42582143D01*
X21080952Y42620239D01*
X21042857Y42658334D01*
X21004761Y42734524D01*
X21004761Y42810715D01*
X21042857Y42886905D01*
X21080952Y42925000D01*
X21157142Y42963096D01*
X21347619Y42963096D01*
X21461904Y42925000D01*
X21804761Y42163096D02*
X21804761Y42963096D01*
X22109523Y42963096D01*
X22185714Y42925000D01*
X22223809Y42886905D01*
X22261904Y42810715D01*
X22261904Y42696429D01*
X22223809Y42620239D01*
X22185714Y42582143D01*
X22109523Y42544048D01*
X21804761Y42544048D01*
X22528571Y42963096D02*
X23023809Y42963096D01*
X22757142Y42658334D01*
X22871428Y42658334D01*
X22947619Y42620239D01*
X22985714Y42582143D01*
X23023809Y42505953D01*
X23023809Y42315477D01*
X22985714Y42239286D01*
X22947619Y42201191D01*
X22871428Y42163096D01*
X22642857Y42163096D01*
X22566666Y42201191D01*
X22528571Y42239286D01*
X23328571Y42886905D02*
X23366666Y42925000D01*
X23442857Y42963096D01*
X23633333Y42963096D01*
X23709523Y42925000D01*
X23747619Y42886905D01*
X23785714Y42810715D01*
X23785714Y42734524D01*
X23747619Y42620239D01*
X23290476Y42163096D01*
X23785714Y42163096D01*
X24509523Y42163096D02*
X24128571Y42163096D01*
X24128571Y42963096D01*
X25233333Y42239286D02*
X25195238Y42201191D01*
X25080952Y42163096D01*
X25004761Y42163096D01*
X24890476Y42201191D01*
X24814285Y42277381D01*
X24776190Y42353572D01*
X24738095Y42505953D01*
X24738095Y42620239D01*
X24776190Y42772620D01*
X24814285Y42848810D01*
X24890476Y42925000D01*
X25004761Y42963096D01*
X25080952Y42963096D01*
X25195238Y42925000D01*
X25233333Y42886905D01*
X25576190Y42163096D02*
X25576190Y42963096D01*
X25766666Y42963096D01*
X25880952Y42925000D01*
X25957142Y42848810D01*
X25995238Y42772620D01*
X26033333Y42620239D01*
X26033333Y42505953D01*
X25995238Y42353572D01*
X25957142Y42277381D01*
X25880952Y42201191D01*
X25766666Y42163096D01*
X25576190Y42163096D01*
X26947619Y42886905D02*
X26985714Y42925000D01*
X27061904Y42963096D01*
X27252380Y42963096D01*
X27328571Y42925000D01*
X27366666Y42886905D01*
X27404761Y42810715D01*
X27404761Y42734524D01*
X27366666Y42620239D01*
X26909523Y42163096D01*
X27404761Y42163096D01*
X27900000Y42963096D02*
X27976190Y42963096D01*
X28052380Y42925000D01*
X28090476Y42886905D01*
X28128571Y42810715D01*
X28166666Y42658334D01*
X28166666Y42467858D01*
X28128571Y42315477D01*
X28090476Y42239286D01*
X28052380Y42201191D01*
X27976190Y42163096D01*
X27900000Y42163096D01*
X27823809Y42201191D01*
X27785714Y42239286D01*
X27747619Y42315477D01*
X27709523Y42467858D01*
X27709523Y42658334D01*
X27747619Y42810715D01*
X27785714Y42886905D01*
X27823809Y42925000D01*
X27900000Y42963096D01*
X28471428Y42886905D02*
X28509523Y42925000D01*
X28585714Y42963096D01*
X28776190Y42963096D01*
X28852380Y42925000D01*
X28890476Y42886905D01*
X28928571Y42810715D01*
X28928571Y42734524D01*
X28890476Y42620239D01*
X28433333Y42163096D01*
X28928571Y42163096D01*
X29690476Y42163096D02*
X29233333Y42163096D01*
X29461904Y42163096D02*
X29461904Y42963096D01*
X29385714Y42848810D01*
X29309523Y42772620D01*
X29233333Y42734524D01*
X30033333Y42467858D02*
X30642857Y42467858D01*
X31176190Y42963096D02*
X31252380Y42963096D01*
X31328571Y42925000D01*
X31366666Y42886905D01*
X31404761Y42810715D01*
X31442857Y42658334D01*
X31442857Y42467858D01*
X31404761Y42315477D01*
X31366666Y42239286D01*
X31328571Y42201191D01*
X31252380Y42163096D01*
X31176190Y42163096D01*
X31100000Y42201191D01*
X31061904Y42239286D01*
X31023809Y42315477D01*
X30985714Y42467858D01*
X30985714Y42658334D01*
X31023809Y42810715D01*
X31061904Y42886905D01*
X31100000Y42925000D01*
X31176190Y42963096D01*
X32204761Y42163096D02*
X31747619Y42163096D01*
X31976190Y42163096D02*
X31976190Y42963096D01*
X31900000Y42848810D01*
X31823809Y42772620D01*
X31747619Y42734524D01*
X32547619Y42467858D02*
X33157142Y42467858D01*
X33957142Y42163096D02*
X33500000Y42163096D01*
X33728571Y42163096D02*
X33728571Y42963096D01*
X33652380Y42848810D01*
X33576190Y42772620D01*
X33500000Y42734524D01*
X34719047Y42163096D02*
X34261904Y42163096D01*
X34490476Y42163096D02*
X34490476Y42963096D01*
X34414285Y42848810D01*
X34338095Y42772620D01*
X34261904Y42734524D01*
X20661904Y40508334D02*
X20623809Y40546429D01*
X20547619Y40660715D01*
X20509523Y40736905D01*
X20471428Y40851191D01*
X20433333Y41041667D01*
X20433333Y41194048D01*
X20471428Y41384524D01*
X20509523Y41498810D01*
X20547619Y41575000D01*
X20623809Y41689286D01*
X20661904Y41727381D01*
X21309523Y40851191D02*
X21233333Y40813096D01*
X21080952Y40813096D01*
X21004761Y40851191D01*
X20966666Y40889286D01*
X20928571Y40965477D01*
X20928571Y41194048D01*
X20966666Y41270239D01*
X21004761Y41308334D01*
X21080952Y41346429D01*
X21233333Y41346429D01*
X21309523Y41308334D01*
X21576190Y40508334D02*
X21614285Y40546429D01*
X21690476Y40660715D01*
X21728571Y40736905D01*
X21766666Y40851191D01*
X21804761Y41041667D01*
X21804761Y41194048D01*
X21766666Y41384524D01*
X21728571Y41498810D01*
X21690476Y41575000D01*
X21614285Y41689286D01*
X21576190Y41727381D01*
X23252380Y40889286D02*
X23214285Y40851191D01*
X23100000Y40813096D01*
X23023809Y40813096D01*
X22909523Y40851191D01*
X22833333Y40927381D01*
X22795238Y41003572D01*
X22757142Y41155953D01*
X22757142Y41270239D01*
X22795238Y41422620D01*
X22833333Y41498810D01*
X22909523Y41575000D01*
X23023809Y41613096D01*
X23100000Y41613096D01*
X23214285Y41575000D01*
X23252380Y41536905D01*
X23709523Y40813096D02*
X23633333Y40851191D01*
X23595238Y40927381D01*
X23595238Y41613096D01*
X24014285Y40813096D02*
X24014285Y41346429D01*
X24014285Y41613096D02*
X23976190Y41575000D01*
X24014285Y41536905D01*
X24052380Y41575000D01*
X24014285Y41613096D01*
X24014285Y41536905D01*
X24280952Y41346429D02*
X24585714Y41346429D01*
X24395238Y40813096D02*
X24395238Y41498810D01*
X24433333Y41575000D01*
X24509523Y41613096D01*
X24585714Y41613096D01*
X24738095Y41346429D02*
X25042857Y41346429D01*
X24852380Y40813096D02*
X24852380Y41498810D01*
X24890476Y41575000D01*
X24966666Y41613096D01*
X25042857Y41613096D01*
X25423809Y40813096D02*
X25347619Y40851191D01*
X25309523Y40889286D01*
X25271428Y40965477D01*
X25271428Y41194048D01*
X25309523Y41270239D01*
X25347619Y41308334D01*
X25423809Y41346429D01*
X25538095Y41346429D01*
X25614285Y41308334D01*
X25652380Y41270239D01*
X25690476Y41194048D01*
X25690476Y40965477D01*
X25652380Y40889286D01*
X25614285Y40851191D01*
X25538095Y40813096D01*
X25423809Y40813096D01*
X26033333Y40813096D02*
X26033333Y41346429D01*
X26033333Y41194048D02*
X26071428Y41270239D01*
X26109523Y41308334D01*
X26185714Y41346429D01*
X26261904Y41346429D01*
X26871428Y40813096D02*
X26871428Y41613096D01*
X26871428Y40851191D02*
X26795238Y40813096D01*
X26642857Y40813096D01*
X26566666Y40851191D01*
X26528571Y40889286D01*
X26490476Y40965477D01*
X26490476Y41194048D01*
X26528571Y41270239D01*
X26566666Y41308334D01*
X26642857Y41346429D01*
X26795238Y41346429D01*
X26871428Y41308334D01*
X27861904Y40813096D02*
X27861904Y41613096D01*
X27861904Y41232143D02*
X28319047Y41232143D01*
X28319047Y40813096D02*
X28319047Y41613096D01*
X29004761Y40851191D02*
X28928571Y40813096D01*
X28776190Y40813096D01*
X28700000Y40851191D01*
X28661904Y40927381D01*
X28661904Y41232143D01*
X28700000Y41308334D01*
X28776190Y41346429D01*
X28928571Y41346429D01*
X29004761Y41308334D01*
X29042857Y41232143D01*
X29042857Y41155953D01*
X28661904Y41079762D01*
X29728571Y40813096D02*
X29728571Y41232143D01*
X29690476Y41308334D01*
X29614285Y41346429D01*
X29461904Y41346429D01*
X29385714Y41308334D01*
X29728571Y40851191D02*
X29652380Y40813096D01*
X29461904Y40813096D01*
X29385714Y40851191D01*
X29347619Y40927381D01*
X29347619Y41003572D01*
X29385714Y41079762D01*
X29461904Y41117858D01*
X29652380Y41117858D01*
X29728571Y41155953D01*
X29995238Y41346429D02*
X30300000Y41346429D01*
X30109523Y41613096D02*
X30109523Y40927381D01*
X30147619Y40851191D01*
X30223809Y40813096D01*
X30300000Y40813096D01*
X30566666Y40813096D02*
X30566666Y41613096D01*
X30909523Y40813096D02*
X30909523Y41232143D01*
X30871428Y41308334D01*
X30795238Y41346429D01*
X30680952Y41346429D01*
X30604761Y41308334D01*
X30566666Y41270239D01*
X31861904Y41536905D02*
X31900000Y41575000D01*
X31976190Y41613096D01*
X32166666Y41613096D01*
X32242857Y41575000D01*
X32280952Y41536905D01*
X32319047Y41460715D01*
X32319047Y41384524D01*
X32280952Y41270239D01*
X31823809Y40813096D01*
X32319047Y40813096D01*
X32814285Y41613096D02*
X32890476Y41613096D01*
X32966666Y41575000D01*
X33004761Y41536905D01*
X33042857Y41460715D01*
X33080952Y41308334D01*
X33080952Y41117858D01*
X33042857Y40965477D01*
X33004761Y40889286D01*
X32966666Y40851191D01*
X32890476Y40813096D01*
X32814285Y40813096D01*
X32738095Y40851191D01*
X32700000Y40889286D01*
X32661904Y40965477D01*
X32623809Y41117858D01*
X32623809Y41308334D01*
X32661904Y41460715D01*
X32700000Y41536905D01*
X32738095Y41575000D01*
X32814285Y41613096D01*
X33385714Y41536905D02*
X33423809Y41575000D01*
X33500000Y41613096D01*
X33690476Y41613096D01*
X33766666Y41575000D01*
X33804761Y41536905D01*
X33842857Y41460715D01*
X33842857Y41384524D01*
X33804761Y41270239D01*
X33347619Y40813096D01*
X33842857Y40813096D01*
X34604761Y40813096D02*
X34147619Y40813096D01*
X34376190Y40813096D02*
X34376190Y41613096D01*
X34300000Y41498810D01*
X34223809Y41422620D01*
X34147619Y41384524D01*
D11*
X78000000Y44000000D02*
X64400000Y44000000D01*
X64400000Y30800000D02*
X64400000Y44000000D01*
X35600000Y30800000D02*
X64400000Y30800000D01*
X35600000Y44000000D02*
X35600000Y30800000D01*
D12*
X77166666Y2400000D02*
G75*
G03*
X77166666Y2400000I-1666666J0D01*
G01*
X73000000Y2400000D02*
X78000000Y2400000D01*
X75500000Y4900000D02*
X75500000Y-100000D01*
X5166666Y34500000D02*
G75*
G03*
X5166666Y34500000I-1666666J0D01*
G01*
X1000000Y34500000D02*
X6000000Y34500000D01*
X3500000Y37000000D02*
X3500000Y32000000D01*
D11*
X35600000Y44000000D02*
X0Y44000000D01*
X0Y0D02*
X0Y44000000D01*
X78000000Y0D02*
X0Y0D01*
X78000000Y44000000D02*
X78000000Y0D01*
%TO.P,FB102,2*%
%TO.N,Net-(FB102-Pad2)*%
%TA.AperFunction,SMDPad,CuDef*%
G36*
G01*
X22406250Y39300000D02*
X21893750Y39300000D01*
G75*
G02*
X21675000Y39518750I0J218750D01*
G01*
X21675000Y39956250D01*
G75*
G02*
X21893750Y40175000I218750J0D01*
G01*
X22406250Y40175000D01*
G75*
G02*
X22625000Y39956250I0J-218750D01*
G01*
X22625000Y39518750D01*
G75*
G02*
X22406250Y39300000I-218750J0D01*
G01*
G37*
%TD.AperFunction*%
%TO.P,FB102,1*%
%TO.N,+5V*%
%TA.AperFunction,SMDPad,CuDef*%
G36*
G01*
X22406250Y37725000D02*
X21893750Y37725000D01*
G75*
G02*
X21675000Y37943750I0J218750D01*
G01*
X21675000Y38381250D01*
G75*
G02*
X21893750Y38600000I218750J0D01*
G01*
X22406250Y38600000D01*
G75*
G02*
X22625000Y38381250I0J-218750D01*
G01*
X22625000Y37943750D01*
G75*
G02*
X22406250Y37725000I-218750J0D01*
G01*
G37*
%TD.AperFunction*%
%TD*%
%TO.P,C109,2*%
%TO.N,GND*%
%TA.AperFunction,SMDPad,CuDef*%
G36*
G01*
X21943750Y32850000D02*
X22856250Y32850000D01*
G75*
G02*
X23100000Y32606250I0J-243750D01*
G01*
X23100000Y32118750D01*
G75*
G02*
X22856250Y31875000I-243750J0D01*
G01*
X21943750Y31875000D01*
G75*
G02*
X21700000Y32118750I0J243750D01*
G01*
X21700000Y32606250D01*
G75*
G02*
X21943750Y32850000I243750J0D01*
G01*
G37*
%TD.AperFunction*%
%TO.P,C109,1*%
%TO.N,+5V*%
%TA.AperFunction,SMDPad,CuDef*%
G36*
G01*
X21943750Y34725000D02*
X22856250Y34725000D01*
G75*
G02*
X23100000Y34481250I0J-243750D01*
G01*
X23100000Y33993750D01*
G75*
G02*
X22856250Y33750000I-243750J0D01*
G01*
X21943750Y33750000D01*
G75*
G02*
X21700000Y33993750I0J243750D01*
G01*
X21700000Y34481250D01*
G75*
G02*
X21943750Y34725000I243750J0D01*
G01*
G37*
%TD.AperFunction*%
%TD*%
D13*
%TO.P,J102,3*%
%TO.N,Net-(J102-Pad3)*%
X11100000Y34400000D03*
D14*
%TO.P,J102,2*%
%TO.N,Net-(FB102-Pad2)*%
X18200000Y34950000D03*
D13*
%TO.P,J102,1*%
%TO.N,GND*%
X11900000Y31000000D03*
%TD*%
D15*
%TO.P,U101,5*%
%TO.N,+5V*%
X40750000Y6250000D03*
%TO.P,U101,6*%
%TO.N,Net-(U101-Pad6)*%
X40750000Y5300000D03*
%TO.P,U101,4*%
%TO.N,Net-(U101-Pad4)*%
X40750000Y7200000D03*
%TO.P,U101,3*%
%TO.N,/D+*%
X42950000Y7200000D03*
%TO.P,U101,2*%
%TO.N,GND*%
X42950000Y6250000D03*
%TO.P,U101,1*%
%TO.N,/D-*%
X42950000Y5300000D03*
%TD*%
%TO.P,C111,1*%
%TO.N,+3V3*%
%TA.AperFunction,SMDPad,CuDef*%
G36*
G01*
X34625001Y32350000D02*
X32774999Y32350000D01*
G75*
G02*
X32525000Y32599999I0J249999D01*
G01*
X32525000Y33425001D01*
G75*
G02*
X32774999Y33675000I249999J0D01*
G01*
X34625001Y33675000D01*
G75*
G02*
X34875000Y33425001I0J-249999D01*
G01*
X34875000Y32599999D01*
G75*
G02*
X34625001Y32350000I-249999J0D01*
G01*
G37*
%TD.AperFunction*%
%TO.P,C111,2*%
%TO.N,GND*%
%TA.AperFunction,SMDPad,CuDef*%
G36*
G01*
X34625001Y35425000D02*
X32774999Y35425000D01*
G75*
G02*
X32525000Y35674999I0J249999D01*
G01*
X32525000Y36500001D01*
G75*
G02*
X32774999Y36750000I249999J0D01*
G01*
X34625001Y36750000D01*
G75*
G02*
X34875000Y36500001I0J-249999D01*
G01*
X34875000Y35674999D01*
G75*
G02*
X34625001Y35425000I-249999J0D01*
G01*
G37*
%TD.AperFunction*%
%TD*%
%TO.P,U102,16*%
%TO.N,+3V3*%
%TA.AperFunction,SMDPad,CuDef*%
G36*
G01*
X65750000Y10545000D02*
X65750000Y10845000D01*
G75*
G02*
X65900000Y10995000I150000J0D01*
G01*
X67550000Y10995000D01*
G75*
G02*
X67700000Y10845000I0J-150000D01*
G01*
X67700000Y10545000D01*
G75*
G02*
X67550000Y10395000I-150000J0D01*
G01*
X65900000Y10395000D01*
G75*
G02*
X65750000Y10545000I0J150000D01*
G01*
G37*
%TD.AperFunction*%
%TO.P,U102,15*%
%TO.N,Net-(U102-Pad15)*%
%TA.AperFunction,SMDPad,CuDef*%
G36*
G01*
X65750000Y9275000D02*
X65750000Y9575000D01*
G75*
G02*
X65900000Y9725000I150000J0D01*
G01*
X67550000Y9725000D01*
G75*
G02*
X67700000Y9575000I0J-150000D01*
G01*
X67700000Y9275000D01*
G75*
G02*
X67550000Y9125000I-150000J0D01*
G01*
X65900000Y9125000D01*
G75*
G02*
X65750000Y9275000I0J150000D01*
G01*
G37*
%TD.AperFunction*%
%TO.P,U102,14*%
%TO.N,Net-(Q102-Pad2)*%
%TA.AperFunction,SMDPad,CuDef*%
G36*
G01*
X65750000Y8005000D02*
X65750000Y8305000D01*
G75*
G02*
X65900000Y8455000I150000J0D01*
G01*
X67550000Y8455000D01*
G75*
G02*
X67700000Y8305000I0J-150000D01*
G01*
X67700000Y8005000D01*
G75*
G02*
X67550000Y7855000I-150000J0D01*
G01*
X65900000Y7855000D01*
G75*
G02*
X65750000Y8005000I0J150000D01*
G01*
G37*
%TD.AperFunction*%
%TO.P,U102,13*%
%TO.N,Net-(Q103-Pad2)*%
%TA.AperFunction,SMDPad,CuDef*%
G36*
G01*
X65750000Y6735000D02*
X65750000Y7035000D01*
G75*
G02*
X65900000Y7185000I150000J0D01*
G01*
X67550000Y7185000D01*
G75*
G02*
X67700000Y7035000I0J-150000D01*
G01*
X67700000Y6735000D01*
G75*
G02*
X67550000Y6585000I-150000J0D01*
G01*
X65900000Y6585000D01*
G75*
G02*
X65750000Y6735000I0J150000D01*
G01*
G37*
%TD.AperFunction*%
%TO.P,U102,12*%
%TO.N,Net-(U102-Pad12)*%
%TA.AperFunction,SMDPad,CuDef*%
G36*
G01*
X65750000Y5465000D02*
X65750000Y5765000D01*
G75*
G02*
X65900000Y5915000I150000J0D01*
G01*
X67550000Y5915000D01*
G75*
G02*
X67700000Y5765000I0J-150000D01*
G01*
X67700000Y5465000D01*
G75*
G02*
X67550000Y5315000I-150000J0D01*
G01*
X65900000Y5315000D01*
G75*
G02*
X65750000Y5465000I0J150000D01*
G01*
G37*
%TD.AperFunction*%
%TO.P,U102,11*%
%TO.N,Net-(U102-Pad11)*%
%TA.AperFunction,SMDPad,CuDef*%
G36*
G01*
X65750000Y4195000D02*
X65750000Y4495000D01*
G75*
G02*
X65900000Y4645000I150000J0D01*
G01*
X67550000Y4645000D01*
G75*
G02*
X67700000Y4495000I0J-150000D01*
G01*
X67700000Y4195000D01*
G75*
G02*
X67550000Y4045000I-150000J0D01*
G01*
X65900000Y4045000D01*
G75*
G02*
X65750000Y4195000I0J150000D01*
G01*
G37*
%TD.AperFunction*%
%TO.P,U102,10*%
%TO.N,Net-(U102-Pad10)*%
%TA.AperFunction,SMDPad,CuDef*%
G36*
G01*
X65750000Y2925000D02*
X65750000Y3225000D01*
G75*
G02*
X65900000Y3375000I150000J0D01*
G01*
X67550000Y3375000D01*
G75*
G02*
X67700000Y3225000I0J-150000D01*
G01*
X67700000Y2925000D01*
G75*
G02*
X67550000Y2775000I-150000J0D01*
G01*
X65900000Y2775000D01*
G75*
G02*
X65750000Y2925000I0J150000D01*
G01*
G37*
%TD.AperFunction*%
%TO.P,U102,9*%
%TO.N,Net-(U102-Pad9)*%
%TA.AperFunction,SMDPad,CuDef*%
G36*
G01*
X65750000Y1655000D02*
X65750000Y1955000D01*
G75*
G02*
X65900000Y2105000I150000J0D01*
G01*
X67550000Y2105000D01*
G75*
G02*
X67700000Y1955000I0J-150000D01*
G01*
X67700000Y1655000D01*
G75*
G02*
X67550000Y1505000I-150000J0D01*
G01*
X65900000Y1505000D01*
G75*
G02*
X65750000Y1655000I0J150000D01*
G01*
G37*
%TD.AperFunction*%
%TO.P,U102,8*%
%TO.N,Net-(U102-Pad8)*%
%TA.AperFunction,SMDPad,CuDef*%
G36*
G01*
X60800000Y1655000D02*
X60800000Y1955000D01*
G75*
G02*
X60950000Y2105000I150000J0D01*
G01*
X62600000Y2105000D01*
G75*
G02*
X62750000Y1955000I0J-150000D01*
G01*
X62750000Y1655000D01*
G75*
G02*
X62600000Y1505000I-150000J0D01*
G01*
X60950000Y1505000D01*
G75*
G02*
X60800000Y1655000I0J150000D01*
G01*
G37*
%TD.AperFunction*%
%TO.P,U102,7*%
%TO.N,Net-(U102-Pad7)*%
%TA.AperFunction,SMDPad,CuDef*%
G36*
G01*
X60800000Y2925000D02*
X60800000Y3225000D01*
G75*
G02*
X60950000Y3375000I150000J0D01*
G01*
X62600000Y3375000D01*
G75*
G02*
X62750000Y3225000I0J-150000D01*
G01*
X62750000Y2925000D01*
G75*
G02*
X62600000Y2775000I-150000J0D01*
G01*
X60950000Y2775000D01*
G75*
G02*
X60800000Y2925000I0J150000D01*
G01*
G37*
%TD.AperFunction*%
%TO.P,U102,6*%
%TO.N,/D-*%
%TA.AperFunction,SMDPad,CuDef*%
G36*
G01*
X60800000Y4195000D02*
X60800000Y4495000D01*
G75*
G02*
X60950000Y4645000I150000J0D01*
G01*
X62600000Y4645000D01*
G75*
G02*
X62750000Y4495000I0J-150000D01*
G01*
X62750000Y4195000D01*
G75*
G02*
X62600000Y4045000I-150000J0D01*
G01*
X60950000Y4045000D01*
G75*
G02*
X60800000Y4195000I0J150000D01*
G01*
G37*
%TD.AperFunction*%
%TO.P,U102,5*%
%TO.N,/D+*%
%TA.AperFunction,SMDPad,CuDef*%
G36*
G01*
X60800000Y5465000D02*
X60800000Y5765000D01*
G75*
G02*
X60950000Y5915000I150000J0D01*
G01*
X62600000Y5915000D01*
G75*
G02*
X62750000Y5765000I0J-150000D01*
G01*
X62750000Y5465000D01*
G75*
G02*
X62600000Y5315000I-150000J0D01*
G01*
X60950000Y5315000D01*
G75*
G02*
X60800000Y5465000I0J150000D01*
G01*
G37*
%TD.AperFunction*%
%TO.P,U102,4*%
%TO.N,+3V3*%
%TA.AperFunction,SMDPad,CuDef*%
G36*
G01*
X60800000Y6735000D02*
X60800000Y7035000D01*
G75*
G02*
X60950000Y7185000I150000J0D01*
G01*
X62600000Y7185000D01*
G75*
G02*
X62750000Y7035000I0J-150000D01*
G01*
X62750000Y6735000D01*
G75*
G02*
X62600000Y6585000I-150000J0D01*
G01*
X60950000Y6585000D01*
G75*
G02*
X60800000Y6735000I0J150000D01*
G01*
G37*
%TD.AperFunction*%
%TO.P,U102,3*%
%TO.N,/RXD0*%
%TA.AperFunction,SMDPad,CuDef*%
G36*
G01*
X60800000Y8005000D02*
X60800000Y8305000D01*
G75*
G02*
X60950000Y8455000I150000J0D01*
G01*
X62600000Y8455000D01*
G75*
G02*
X62750000Y8305000I0J-150000D01*
G01*
X62750000Y8005000D01*
G75*
G02*
X62600000Y7855000I-150000J0D01*
G01*
X60950000Y7855000D01*
G75*
G02*
X60800000Y8005000I0J150000D01*
G01*
G37*
%TD.AperFunction*%
%TO.P,U102,2*%
%TO.N,/TXD0*%
%TA.AperFunction,SMDPad,CuDef*%
G36*
G01*
X60800000Y9275000D02*
X60800000Y9575000D01*
G75*
G02*
X60950000Y9725000I150000J0D01*
G01*
X62600000Y9725000D01*
G75*
G02*
X62750000Y9575000I0J-150000D01*
G01*
X62750000Y9275000D01*
G75*
G02*
X62600000Y9125000I-150000J0D01*
G01*
X60950000Y9125000D01*
G75*
G02*
X60800000Y9275000I0J150000D01*
G01*
G37*
%TD.AperFunction*%
%TO.P,U102,1*%
%TO.N,GND*%
%TA.AperFunction,SMDPad,CuDef*%
G36*
G01*
X60800000Y10545000D02*
X60800000Y10845000D01*
G75*
G02*
X60950000Y10995000I150000J0D01*
G01*
X62600000Y10995000D01*
G75*
G02*
X62750000Y10845000I0J-150000D01*
G01*
X62750000Y10545000D01*
G75*
G02*
X62600000Y10395000I-150000J0D01*
G01*
X60950000Y10395000D01*
G75*
G02*
X60800000Y10545000I0J150000D01*
G01*
G37*
%TD.AperFunction*%
%TD*%
D16*
%TO.P,U105,2*%
%TO.N,+3V3*%
X27950000Y32450000D03*
D17*
X27950000Y38750000D03*
%TO.P,U105,3*%
%TO.N,+5V*%
X25650000Y38750000D03*
%TO.P,U105,1*%
%TO.N,GND*%
X30250000Y38750000D03*
%TD*%
D18*
%TO.P,Q107,1*%
%TO.N,Net-(Q107-Pad1)*%
X69450000Y29550000D03*
%TO.P,Q107,2*%
%TO.N,Net-(Q107-Pad2)*%
X69450000Y27650000D03*
%TO.P,Q107,3*%
%TO.N,BACKLIGHT*%
X71450000Y28600000D03*
%TD*%
%TO.P,Q103,1*%
%TO.N,Net-(Q103-Pad1)*%
X71750000Y15050000D03*
%TO.P,Q103,2*%
%TO.N,Net-(Q103-Pad2)*%
X71750000Y16950000D03*
%TO.P,Q103,3*%
%TO.N,Net-(Q103-Pad3)*%
X69750000Y16000000D03*
%TD*%
%TO.P,Q102,1*%
%TO.N,Net-(Q102-Pad1)*%
X71750000Y20000000D03*
%TO.P,Q102,2*%
%TO.N,Net-(Q102-Pad2)*%
X71750000Y21900000D03*
%TO.P,Q102,3*%
%TO.N,ESP_EN*%
X69750000Y20950000D03*
%TD*%
D19*
%TO.P,J101,6*%
%TO.N,GND*%
X53075000Y2770000D03*
X45925000Y2770000D03*
X53075000Y6220000D03*
X45925000Y6220000D03*
%TO.P,J101,5*%
%TA.AperFunction,SMDPad,CuDef*%
G36*
G01*
X50600000Y5120000D02*
X50600000Y6320000D01*
G75*
G02*
X50700000Y6420000I100000J0D01*
G01*
X50900000Y6420000D01*
G75*
G02*
X51000000Y6320000I0J-100000D01*
G01*
X51000000Y5120000D01*
G75*
G02*
X50900000Y5020000I-100000J0D01*
G01*
X50700000Y5020000D01*
G75*
G02*
X50600000Y5120000I0J100000D01*
G01*
G37*
%TD.AperFunction*%
%TO.P,J101,4*%
%TO.N,Net-(J101-Pad4)*%
%TA.AperFunction,SMDPad,CuDef*%
G36*
G01*
X49950000Y5120000D02*
X49950000Y6320000D01*
G75*
G02*
X50050000Y6420000I100000J0D01*
G01*
X50250000Y6420000D01*
G75*
G02*
X50350000Y6320000I0J-100000D01*
G01*
X50350000Y5120000D01*
G75*
G02*
X50250000Y5020000I-100000J0D01*
G01*
X50050000Y5020000D01*
G75*
G02*
X49950000Y5120000I0J100000D01*
G01*
G37*
%TD.AperFunction*%
%TO.P,J101,3*%
%TO.N,/D+*%
%TA.AperFunction,SMDPad,CuDef*%
G36*
G01*
X49300000Y5120000D02*
X49300000Y6320000D01*
G75*
G02*
X49400000Y6420000I100000J0D01*
G01*
X49600000Y6420000D01*
G75*
G02*
X49700000Y6320000I0J-100000D01*
G01*
X49700000Y5120000D01*
G75*
G02*
X49600000Y5020000I-100000J0D01*
G01*
X49400000Y5020000D01*
G75*
G02*
X49300000Y5120000I0J100000D01*
G01*
G37*
%TD.AperFunction*%
%TO.P,J101,2*%
%TO.N,/D-*%
%TA.AperFunction,SMDPad,CuDef*%
G36*
G01*
X48650000Y5120000D02*
X48650000Y6320000D01*
G75*
G02*
X48750000Y6420000I100000J0D01*
G01*
X48950000Y6420000D01*
G75*
G02*
X49050000Y6320000I0J-100000D01*
G01*
X49050000Y5120000D01*
G75*
G02*
X48950000Y5020000I-100000J0D01*
G01*
X48750000Y5020000D01*
G75*
G02*
X48650000Y5120000I0J100000D01*
G01*
G37*
%TD.AperFunction*%
%TO.P,J101,1*%
%TO.N,Net-(D101-Pad2)*%
%TA.AperFunction,SMDPad,CuDef*%
G36*
G01*
X48000000Y5120000D02*
X48000000Y6320000D01*
G75*
G02*
X48100000Y6420000I100000J0D01*
G01*
X48300000Y6420000D01*
G75*
G02*
X48400000Y6320000I0J-100000D01*
G01*
X48400000Y5120000D01*
G75*
G02*
X48300000Y5020000I-100000J0D01*
G01*
X48100000Y5020000D01*
G75*
G02*
X48000000Y5120000I0J100000D01*
G01*
G37*
%TD.AperFunction*%
%TD*%
D20*
%TO.P,U107,15*%
%TO.N,VSPICLK*%
X2570000Y26190000D03*
D21*
%TO.P,U107,16*%
%TO.N,VSPIDIN*%
X2570000Y23650000D03*
%TO.P,U107,17*%
%TO.N,VSPIDATA*%
X2570000Y21110000D03*
%TO.P,U107,18*%
%TO.N,VSPICS1*%
X2570000Y18570000D03*
%TO.P,U107,14*%
%TO.N,Net-(U107-Pad14)*%
X75500000Y5480000D03*
%TO.P,U107,13*%
%TO.N,VSPIDIN*%
X75500000Y8020000D03*
%TO.P,U107,12*%
%TO.N,VSPIDATA*%
X75500000Y10560000D03*
%TO.P,U107,11*%
%TO.N,VSPICS2*%
X75500000Y13100000D03*
%TO.P,U107,10*%
%TO.N,VSPICLK*%
X75500000Y15640000D03*
%TO.P,U107,9*%
%TO.N,VSPIDIN*%
X75500000Y18180000D03*
%TO.P,U107,8*%
%TO.N,BACKLIGHT*%
X75500000Y20720000D03*
%TO.P,U107,7*%
%TO.N,VSPICLK*%
X75500000Y23260000D03*
%TO.P,U107,6*%
%TO.N,VSPIDATA*%
X75500000Y25800000D03*
%TO.P,U107,5*%
%TO.N,LCDDC*%
X75500000Y28340000D03*
%TO.P,U107,4*%
%TO.N,LCDRST*%
X75500000Y30880000D03*
%TO.P,U107,3*%
%TO.N,VSPICS0*%
X75500000Y33420000D03*
%TO.P,U107,2*%
%TO.N,GND*%
X75500000Y35960000D03*
D20*
%TO.P,U107,1*%
%TO.N,+3V3*%
X75500000Y38500000D03*
%TD*%
D22*
%TO.P,U106,39*%
%TO.N,GND*%
X49000000Y22005000D03*
D23*
%TO.P,U106,1*%
X41500000Y29505000D03*
%TO.P,U106,2*%
%TO.N,+3V3*%
X41500000Y28235000D03*
%TO.P,U106,3*%
%TO.N,ESP_EN*%
X41500000Y26965000D03*
%TO.P,U106,4*%
%TO.N,Net-(U106-Pad4)*%
X41500000Y25695000D03*
%TO.P,U106,5*%
%TO.N,Net-(U106-Pad5)*%
X41500000Y24425000D03*
%TO.P,U106,6*%
%TO.N,Net-(U106-Pad6)*%
X41500000Y23155000D03*
%TO.P,U106,7*%
%TO.N,Net-(U106-Pad7)*%
X41500000Y21885000D03*
%TO.P,U106,8*%
%TO.N,Net-(U106-Pad8)*%
X41500000Y20615000D03*
%TO.P,U106,9*%
%TO.N,Net-(U106-Pad9)*%
X41500000Y19345000D03*
%TO.P,U106,10*%
%TO.N,Net-(U106-Pad10)*%
X41500000Y18075000D03*
%TO.P,U106,11*%
%TO.N,Net-(R118-Pad1)*%
X41500000Y16805000D03*
%TO.P,U106,12*%
%TO.N,Net-(U106-Pad12)*%
X41500000Y15535000D03*
%TO.P,U106,13*%
%TO.N,Net-(U106-Pad13)*%
X41500000Y14265000D03*
%TO.P,U106,14*%
%TO.N,Net-(U106-Pad14)*%
X41500000Y12995000D03*
D24*
%TO.P,U106,15*%
%TO.N,GND*%
X44285000Y11995000D03*
%TO.P,U106,16*%
%TO.N,VSPICS2*%
X45555000Y11995000D03*
%TO.P,U106,17*%
%TO.N,Net-(U106-Pad17)*%
X46825000Y11995000D03*
%TO.P,U106,18*%
%TO.N,Net-(U106-Pad18)*%
X48095000Y11995000D03*
%TO.P,U106,19*%
%TO.N,Net-(U106-Pad19)*%
X49365000Y11995000D03*
%TO.P,U106,20*%
%TO.N,Net-(U106-Pad20)*%
X50635000Y11995000D03*
%TO.P,U106,21*%
%TO.N,Net-(U106-Pad21)*%
X51905000Y11995000D03*
%TO.P,U106,22*%
%TO.N,Net-(U106-Pad22)*%
X53175000Y11995000D03*
%TO.P,U106,23*%
%TO.N,Net-(U106-Pad23)*%
X54445000Y11995000D03*
%TO.P,U106,24*%
%TO.N,Net-(D106-Pad2)*%
X55715000Y11995000D03*
D23*
%TO.P,U106,25*%
%TO.N,Net-(D105-Pad2)*%
X58500000Y12995000D03*
%TO.P,U106,26*%
%TO.N,VSPICS1*%
X58500000Y14265000D03*
%TO.P,U106,27*%
%TO.N,Net-(U106-Pad27)*%
X58500000Y15535000D03*
%TO.P,U106,28*%
%TO.N,Net-(U106-Pad28)*%
X58500000Y16805000D03*
%TO.P,U106,29*%
%TO.N,VSPICS0*%
X58500000Y18075000D03*
%TO.P,U106,30*%
%TO.N,VSPICLK*%
X58500000Y19345000D03*
%TO.P,U106,31*%
%TO.N,VSPIDIN*%
X58500000Y20615000D03*
%TO.P,U106,32*%
%TO.N,Net-(U106-Pad32)*%
X58500000Y21885000D03*
%TO.P,U106,33*%
%TO.N,LCDRST*%
X58500000Y23155000D03*
%TO.P,U106,34*%
%TO.N,/RXD0*%
X58500000Y24425000D03*
%TO.P,U106,35*%
%TO.N,/TXD0*%
X58500000Y25695000D03*
%TO.P,U106,36*%
%TO.N,LCDDC*%
X58500000Y26965000D03*
%TO.P,U106,37*%
%TO.N,VSPIDATA*%
X58500000Y28235000D03*
%TO.P,U106,38*%
%TO.N,GND*%
X58500000Y29505000D03*
%TD*%
D25*
%TO.P,D101,2*%
%TO.N,Net-(D101-Pad2)*%
X56500000Y6100000D03*
%TO.P,D101,1*%
%TO.N,+5V*%
X56500000Y2100000D03*
%TD*%
%TO.P,D105,1*%
%TO.N,Net-(D105-Pad1)*%
X63000000Y15500000D03*
%TO.P,D105,2*%
%TO.N,Net-(D105-Pad2)*%
X63000000Y19500000D03*
%TD*%
%TO.P,D106,1*%
%TO.N,Net-(D105-Pad1)*%
X66750000Y15500000D03*
%TO.P,D106,2*%
%TO.N,Net-(D106-Pad2)*%
X66750000Y19500000D03*
%TD*%
%TO.P,R109,1*%
%TO.N,Net-(Q103-Pad2)*%
%TA.AperFunction,SMDPad,CuDef*%
G36*
G01*
X69325000Y8543750D02*
X69325000Y9456250D01*
G75*
G02*
X69568750Y9700000I243750J0D01*
G01*
X70056250Y9700000D01*
G75*
G02*
X70300000Y9456250I0J-243750D01*
G01*
X70300000Y8543750D01*
G75*
G02*
X70056250Y8300000I-243750J0D01*
G01*
X69568750Y8300000D01*
G75*
G02*
X69325000Y8543750I0J243750D01*
G01*
G37*
%TD.AperFunction*%
%TO.P,R109,2*%
%TO.N,Net-(Q102-Pad1)*%
%TA.AperFunction,SMDPad,CuDef*%
G36*
G01*
X71200000Y8543750D02*
X71200000Y9456250D01*
G75*
G02*
X71443750Y9700000I243750J0D01*
G01*
X71931250Y9700000D01*
G75*
G02*
X72175000Y9456250I0J-243750D01*
G01*
X72175000Y8543750D01*
G75*
G02*
X71931250Y8300000I-243750J0D01*
G01*
X71443750Y8300000D01*
G75*
G02*
X71200000Y8543750I0J243750D01*
G01*
G37*
%TD.AperFunction*%
%TD*%
%TO.P,R110,2*%
%TO.N,Net-(Q103-Pad1)*%
%TA.AperFunction,SMDPad,CuDef*%
G36*
G01*
X71200000Y12043750D02*
X71200000Y12956250D01*
G75*
G02*
X71443750Y13200000I243750J0D01*
G01*
X71931250Y13200000D01*
G75*
G02*
X72175000Y12956250I0J-243750D01*
G01*
X72175000Y12043750D01*
G75*
G02*
X71931250Y11800000I-243750J0D01*
G01*
X71443750Y11800000D01*
G75*
G02*
X71200000Y12043750I0J243750D01*
G01*
G37*
%TD.AperFunction*%
%TO.P,R110,1*%
%TO.N,Net-(Q102-Pad2)*%
%TA.AperFunction,SMDPad,CuDef*%
G36*
G01*
X69325000Y12043750D02*
X69325000Y12956250D01*
G75*
G02*
X69568750Y13200000I243750J0D01*
G01*
X70056250Y13200000D01*
G75*
G02*
X70300000Y12956250I0J-243750D01*
G01*
X70300000Y12043750D01*
G75*
G02*
X70056250Y11800000I-243750J0D01*
G01*
X69568750Y11800000D01*
G75*
G02*
X69325000Y12043750I0J243750D01*
G01*
G37*
%TD.AperFunction*%
%TD*%
%TO.P,R113,1*%
%TO.N,Net-(Q103-Pad3)*%
%TA.AperFunction,SMDPad,CuDef*%
G36*
G01*
X68425000Y13206250D02*
X68425000Y12293750D01*
G75*
G02*
X68181250Y12050000I-243750J0D01*
G01*
X67693750Y12050000D01*
G75*
G02*
X67450000Y12293750I0J243750D01*
G01*
X67450000Y13206250D01*
G75*
G02*
X67693750Y13450000I243750J0D01*
G01*
X68181250Y13450000D01*
G75*
G02*
X68425000Y13206250I0J-243750D01*
G01*
G37*
%TD.AperFunction*%
%TO.P,R113,2*%
%TO.N,Net-(D105-Pad1)*%
%TA.AperFunction,SMDPad,CuDef*%
G36*
G01*
X66550000Y13206250D02*
X66550000Y12293750D01*
G75*
G02*
X66306250Y12050000I-243750J0D01*
G01*
X65818750Y12050000D01*
G75*
G02*
X65575000Y12293750I0J243750D01*
G01*
X65575000Y13206250D01*
G75*
G02*
X65818750Y13450000I243750J0D01*
G01*
X66306250Y13450000D01*
G75*
G02*
X66550000Y13206250I0J-243750D01*
G01*
G37*
%TD.AperFunction*%
%TD*%
%TO.P,C112,2*%
%TO.N,GND*%
%TA.AperFunction,SMDPad,CuDef*%
G36*
G01*
X38506250Y28950000D02*
X37593750Y28950000D01*
G75*
G02*
X37350000Y29193750I0J243750D01*
G01*
X37350000Y29681250D01*
G75*
G02*
X37593750Y29925000I243750J0D01*
G01*
X38506250Y29925000D01*
G75*
G02*
X38750000Y29681250I0J-243750D01*
G01*
X38750000Y29193750D01*
G75*
G02*
X38506250Y28950000I-243750J0D01*
G01*
G37*
%TD.AperFunction*%
%TO.P,C112,1*%
%TO.N,+3V3*%
%TA.AperFunction,SMDPad,CuDef*%
G36*
G01*
X38506250Y27075000D02*
X37593750Y27075000D01*
G75*
G02*
X37350000Y27318750I0J243750D01*
G01*
X37350000Y27806250D01*
G75*
G02*
X37593750Y28050000I243750J0D01*
G01*
X38506250Y28050000D01*
G75*
G02*
X38750000Y27806250I0J-243750D01*
G01*
X38750000Y27318750D01*
G75*
G02*
X38506250Y27075000I-243750J0D01*
G01*
G37*
%TD.AperFunction*%
%TD*%
%TO.P,C114,1*%
%TO.N,ESP_EN*%
%TA.AperFunction,SMDPad,CuDef*%
G36*
G01*
X34206250Y26075000D02*
X33293750Y26075000D01*
G75*
G02*
X33050000Y26318750I0J243750D01*
G01*
X33050000Y26806250D01*
G75*
G02*
X33293750Y27050000I243750J0D01*
G01*
X34206250Y27050000D01*
G75*
G02*
X34450000Y26806250I0J-243750D01*
G01*
X34450000Y26318750D01*
G75*
G02*
X34206250Y26075000I-243750J0D01*
G01*
G37*
%TD.AperFunction*%
%TO.P,C114,2*%
%TO.N,GND*%
%TA.AperFunction,SMDPad,CuDef*%
G36*
G01*
X34206250Y27950000D02*
X33293750Y27950000D01*
G75*
G02*
X33050000Y28193750I0J243750D01*
G01*
X33050000Y28681250D01*
G75*
G02*
X33293750Y28925000I243750J0D01*
G01*
X34206250Y28925000D01*
G75*
G02*
X34450000Y28681250I0J-243750D01*
G01*
X34450000Y28193750D01*
G75*
G02*
X34206250Y27950000I-243750J0D01*
G01*
G37*
%TD.AperFunction*%
%TD*%
%TO.P,R116,1*%
%TO.N,ESP_EN*%
%TA.AperFunction,SMDPad,CuDef*%
G36*
G01*
X36206250Y26075000D02*
X35293750Y26075000D01*
G75*
G02*
X35050000Y26318750I0J243750D01*
G01*
X35050000Y26806250D01*
G75*
G02*
X35293750Y27050000I243750J0D01*
G01*
X36206250Y27050000D01*
G75*
G02*
X36450000Y26806250I0J-243750D01*
G01*
X36450000Y26318750D01*
G75*
G02*
X36206250Y26075000I-243750J0D01*
G01*
G37*
%TD.AperFunction*%
%TO.P,R116,2*%
%TO.N,+3V3*%
%TA.AperFunction,SMDPad,CuDef*%
G36*
G01*
X36206250Y27950000D02*
X35293750Y27950000D01*
G75*
G02*
X35050000Y28193750I0J243750D01*
G01*
X35050000Y28681250D01*
G75*
G02*
X35293750Y28925000I243750J0D01*
G01*
X36206250Y28925000D01*
G75*
G02*
X36450000Y28681250I0J-243750D01*
G01*
X36450000Y28193750D01*
G75*
G02*
X36206250Y27950000I-243750J0D01*
G01*
G37*
%TD.AperFunction*%
%TD*%
%TO.P,C115,1*%
%TO.N,+3V3*%
%TA.AperFunction,SMDPad,CuDef*%
G36*
G01*
X72143750Y37775000D02*
X73056250Y37775000D01*
G75*
G02*
X73300000Y37531250I0J-243750D01*
G01*
X73300000Y37043750D01*
G75*
G02*
X73056250Y36800000I-243750J0D01*
G01*
X72143750Y36800000D01*
G75*
G02*
X71900000Y37043750I0J243750D01*
G01*
X71900000Y37531250D01*
G75*
G02*
X72143750Y37775000I243750J0D01*
G01*
G37*
%TD.AperFunction*%
%TO.P,C115,2*%
%TO.N,GND*%
%TA.AperFunction,SMDPad,CuDef*%
G36*
G01*
X72143750Y35900000D02*
X73056250Y35900000D01*
G75*
G02*
X73300000Y35656250I0J-243750D01*
G01*
X73300000Y35168750D01*
G75*
G02*
X73056250Y34925000I-243750J0D01*
G01*
X72143750Y34925000D01*
G75*
G02*
X71900000Y35168750I0J243750D01*
G01*
X71900000Y35656250D01*
G75*
G02*
X72143750Y35900000I243750J0D01*
G01*
G37*
%TD.AperFunction*%
%TD*%
%TO.P,C116,1*%
%TO.N,+3V3*%
%TA.AperFunction,SMDPad,CuDef*%
G36*
G01*
X56525000Y8743750D02*
X56525000Y9656250D01*
G75*
G02*
X56768750Y9900000I243750J0D01*
G01*
X57256250Y9900000D01*
G75*
G02*
X57500000Y9656250I0J-243750D01*
G01*
X57500000Y8743750D01*
G75*
G02*
X57256250Y8500000I-243750J0D01*
G01*
X56768750Y8500000D01*
G75*
G02*
X56525000Y8743750I0J243750D01*
G01*
G37*
%TD.AperFunction*%
%TO.P,C116,2*%
%TO.N,GND*%
%TA.AperFunction,SMDPad,CuDef*%
G36*
G01*
X58400000Y8743750D02*
X58400000Y9656250D01*
G75*
G02*
X58643750Y9900000I243750J0D01*
G01*
X59131250Y9900000D01*
G75*
G02*
X59375000Y9656250I0J-243750D01*
G01*
X59375000Y8743750D01*
G75*
G02*
X59131250Y8500000I-243750J0D01*
G01*
X58643750Y8500000D01*
G75*
G02*
X58400000Y8743750I0J243750D01*
G01*
G37*
%TD.AperFunction*%
%TD*%
%TO.P,R118,2*%
%TO.N,Net-(Q107-Pad1)*%
%TA.AperFunction,SMDPad,CuDef*%
G36*
G01*
X37943750Y14912500D02*
X38856250Y14912500D01*
G75*
G02*
X39100000Y14668750I0J-243750D01*
G01*
X39100000Y14181250D01*
G75*
G02*
X38856250Y13937500I-243750J0D01*
G01*
X37943750Y13937500D01*
G75*
G02*
X37700000Y14181250I0J243750D01*
G01*
X37700000Y14668750D01*
G75*
G02*
X37943750Y14912500I243750J0D01*
G01*
G37*
%TD.AperFunction*%
%TO.P,R118,1*%
%TO.N,Net-(R118-Pad1)*%
%TA.AperFunction,SMDPad,CuDef*%
G36*
G01*
X37943750Y16787500D02*
X38856250Y16787500D01*
G75*
G02*
X39100000Y16543750I0J-243750D01*
G01*
X39100000Y16056250D01*
G75*
G02*
X38856250Y15812500I-243750J0D01*
G01*
X37943750Y15812500D01*
G75*
G02*
X37700000Y16056250I0J243750D01*
G01*
X37700000Y16543750D01*
G75*
G02*
X37943750Y16787500I243750J0D01*
G01*
G37*
%TD.AperFunction*%
%TD*%
%TO.P,R120,1*%
%TO.N,Net-(Q107-Pad2)*%
%TA.AperFunction,SMDPad,CuDef*%
G36*
G01*
X68006250Y27225000D02*
X67093750Y27225000D01*
G75*
G02*
X66850000Y27468750I0J243750D01*
G01*
X66850000Y27956250D01*
G75*
G02*
X67093750Y28200000I243750J0D01*
G01*
X68006250Y28200000D01*
G75*
G02*
X68250000Y27956250I0J-243750D01*
G01*
X68250000Y27468750D01*
G75*
G02*
X68006250Y27225000I-243750J0D01*
G01*
G37*
%TD.AperFunction*%
%TO.P,R120,2*%
%TO.N,+3V3*%
%TA.AperFunction,SMDPad,CuDef*%
G36*
G01*
X68006250Y29100000D02*
X67093750Y29100000D01*
G75*
G02*
X66850000Y29343750I0J243750D01*
G01*
X66850000Y29831250D01*
G75*
G02*
X67093750Y30075000I243750J0D01*
G01*
X68006250Y30075000D01*
G75*
G02*
X68250000Y29831250I0J-243750D01*
G01*
X68250000Y29343750D01*
G75*
G02*
X68006250Y29100000I-243750J0D01*
G01*
G37*
%TD.AperFunction*%
%TD*%
D26*
%TO.N,GND*%
X49000000Y22000000D03*
D27*
X44400000Y15300000D03*
X44400000Y22300000D03*
X52600000Y22300000D03*
D28*
X70500000Y40500000D03*
X3500000Y3500000D03*
D29*
X70500000Y3500000D03*
D28*
X3500000Y40500000D03*
D27*
X58900000Y7850000D03*
X52600000Y15174990D03*
X52600000Y29475010D03*
X44399998Y29475010D03*
X56400006Y29500006D03*
X33250000Y30050000D03*
X33125000Y38225000D03*
X50800000Y7150000D03*
X16000000Y31200000D03*
X44350002Y6250000D03*
X22400000Y31199996D03*
X28200004Y26250000D03*
%TO.N,+5V*%
X58900000Y3000000D03*
X41850001Y3749999D03*
%TO.N,+3V3*%
X51749998Y10100020D03*
X37700000Y24650000D03*
%TO.N,/TXD0*%
X61900000Y24400000D03*
X63700000Y12100002D03*
%TO.N,/RXD0*%
X60293856Y24386175D03*
X60054998Y8154998D03*
%TO.N,Net-(D101-Pad2)*%
X58750000Y5550000D03*
X47750000Y6850000D03*
%TO.N,Net-(D106-Pad2)*%
X55715000Y10115000D03*
X65400004Y21750000D03*
%TO.N,VSPICS0*%
X56612653Y18412667D03*
X73000000Y26750000D03*
%TO.N,VSPICLK*%
X55673860Y19399670D03*
X67239996Y23260002D03*
%TO.N,VSPIDIN*%
X63579342Y24320658D03*
X55150000Y20750000D03*
%TO.N,VSPIDATA*%
X54200000Y28250000D03*
%TO.N,Net-(FB102-Pad2)*%
X20700000Y36150000D03*
%TO.N,VSPICS1*%
X54200006Y22100000D03*
%TO.N,LCDRST*%
X55200000Y27300000D03*
%TO.N,LCDDC*%
X56775998Y27379968D03*
%TO.N,VSPICS2*%
X45564009Y10459017D03*
%TO.N,Net-(Q107-Pad1)*%
X38700002Y12900000D03*
X67100003Y25800003D03*
%TO.N,BACKLIGHT*%
X71450002Y25850000D03*
%TO.N,ESP_EN*%
X60824990Y18250000D03*
X39550000Y25800000D03*
%TD*%
D30*
%TO.N,GND*%
X48995000Y22005000D02*
X47000000Y24000000D01*
X49000000Y22005000D02*
X48995000Y22005000D01*
X49005000Y22005000D02*
X51100000Y24100000D01*
X49000000Y22005000D02*
X49005000Y22005000D01*
X49000000Y23255000D02*
X49000000Y22005000D01*
X60195000Y10695000D02*
X59000000Y9500000D01*
X60195000Y10695000D02*
X61775000Y10695000D01*
X74952500Y35412500D02*
X75500000Y35960000D01*
X72600000Y35412500D02*
X74952500Y35412500D01*
X53075000Y7225000D02*
X53075000Y6200000D01*
X52800000Y7500000D02*
X53075000Y7225000D01*
X50800000Y7500000D02*
X52800000Y7500000D01*
X45925000Y3600000D02*
X45625000Y3300000D01*
X50800000Y5700000D02*
X50800000Y7150000D01*
X56800000Y13350000D02*
X56500000Y13650000D01*
X54124990Y13650000D02*
X52600000Y15174990D01*
X58900000Y9700000D02*
X56800000Y11800000D01*
X58900000Y7850000D02*
X58900000Y9700000D01*
X56800000Y11800000D02*
X56800000Y13350000D01*
X56500000Y13650000D02*
X54124990Y13650000D01*
X41432500Y29437500D02*
X41500000Y29505000D01*
X38050000Y29437500D02*
X41432500Y29437500D01*
X44370008Y29505000D02*
X44399998Y29475010D01*
X41500000Y29505000D02*
X44370008Y29505000D01*
X44285000Y9889998D02*
X44285000Y11995000D01*
X44500000Y9674998D02*
X44285000Y9889998D01*
X48652835Y9674998D02*
X44500000Y9674998D01*
X50800000Y7527833D02*
X48652835Y9674998D01*
X50800000Y7500000D02*
X50800000Y7527833D01*
D31*
X56400000Y29500000D02*
X52624990Y29500000D01*
X52624990Y29500000D02*
X52600000Y29475010D01*
D30*
X56405000Y29505000D02*
X56400006Y29500006D01*
X58500000Y29505000D02*
X56405000Y29505000D01*
X33500000Y29800000D02*
X33250000Y30050000D01*
X33500000Y28437500D02*
X33500000Y29800000D01*
D31*
X33700000Y37650000D02*
X33700000Y36087500D01*
X32600000Y38750000D02*
X33125000Y38225000D01*
X30250000Y38750000D02*
X32600000Y38750000D01*
X33125000Y38225000D02*
X33700000Y37650000D01*
D30*
X50800000Y7150000D02*
X50800000Y7500000D01*
D31*
X12200000Y31200000D02*
X16000000Y31200000D01*
X11900000Y31500000D02*
X12200000Y31200000D01*
D30*
X42950000Y6250000D02*
X44350002Y6250000D01*
X45925000Y6200000D02*
X45875000Y6250000D01*
X45875000Y6250000D02*
X44350002Y6250000D01*
D31*
X28200004Y26250000D02*
X27349996Y26250000D01*
X27349996Y26250000D02*
X22400000Y31199996D01*
X22400000Y31199996D02*
X22400000Y32362500D01*
D30*
%TO.N,+5V*%
X56750000Y3000000D02*
X58900000Y3000000D01*
D31*
X24400000Y38750000D02*
X25650000Y38750000D01*
X23812500Y38162500D02*
X24400000Y38750000D01*
X22150000Y38162500D02*
X23812500Y38162500D01*
D30*
X41850001Y6029999D02*
X41850001Y3749999D01*
X41630000Y6250000D02*
X41850001Y6029999D01*
X40750000Y6250000D02*
X41630000Y6250000D01*
D31*
X22350000Y38162500D02*
X22150000Y38162500D01*
X22350000Y34287500D02*
X22350000Y38162500D01*
X30550000Y28350000D02*
X30550000Y26300000D01*
X29506250Y29393750D02*
X30550000Y28350000D01*
X26553321Y29393750D02*
X29506250Y29393750D01*
X24500000Y33150000D02*
X24500000Y31447071D01*
X23387500Y34237500D02*
X23400000Y34250000D01*
X24500000Y31447071D02*
X26553321Y29393750D01*
X23400000Y34250000D02*
X24500000Y33150000D01*
X22400000Y34237500D02*
X23387500Y34237500D01*
D30*
X36700000Y9420000D02*
X36700000Y20400000D01*
X30800000Y26300000D02*
X30550000Y26300000D01*
X36700000Y20400000D02*
X30800000Y26300000D01*
X39870000Y6250000D02*
X36700000Y9420000D01*
X40750000Y6250000D02*
X39870000Y6250000D01*
%TO.N,+3V3*%
X74500000Y38500000D02*
X73100000Y37100000D01*
X75500000Y38500000D02*
X74500000Y38500000D01*
X36625000Y27562500D02*
X35750000Y28437500D01*
X38050000Y27562500D02*
X36625000Y27562500D01*
X38722500Y28235000D02*
X38050000Y27562500D01*
X41500000Y28235000D02*
X38722500Y28235000D01*
X58641996Y6885000D02*
X61775000Y6885000D01*
X57062500Y8464496D02*
X58641996Y6885000D01*
X57062500Y9150000D02*
X57012500Y9200000D01*
X57062500Y8464496D02*
X57062500Y9150000D01*
X52650018Y9200000D02*
X51749998Y10100020D01*
X57012500Y9200000D02*
X52650018Y9200000D01*
X71087500Y37287500D02*
X72600000Y37287500D01*
X70450000Y36650000D02*
X71087500Y37287500D01*
X70450000Y32800000D02*
X70450000Y36650000D01*
X67550000Y29900000D02*
X70450000Y32800000D01*
X67550000Y29587500D02*
X67550000Y29900000D01*
X35750000Y30084301D02*
X35750000Y28437500D01*
X66612500Y29587500D02*
X67550000Y29587500D01*
X65824990Y30375010D02*
X66612500Y29587500D01*
X36040709Y30375010D02*
X65824990Y30375010D01*
X35750000Y30084301D02*
X36040709Y30375010D01*
X66895000Y10695000D02*
X67225000Y10695000D01*
X65345000Y10695000D02*
X66895000Y10695000D01*
X64800000Y10150000D02*
X65345000Y10695000D01*
X64800000Y8650000D02*
X64800000Y10150000D01*
X63035000Y6885000D02*
X64800000Y8650000D01*
X61775000Y6885000D02*
X63035000Y6885000D01*
D31*
X27950000Y32450000D02*
X27900000Y32500000D01*
X27950000Y38750000D02*
X27950000Y32450000D01*
D30*
X35415699Y30084301D02*
X35750000Y30084301D01*
X33700000Y31800000D02*
X35415699Y30084301D01*
X33700000Y33012500D02*
X33700000Y31800000D01*
D31*
X33487500Y32800000D02*
X33700000Y33012500D01*
X28300000Y32800000D02*
X33487500Y32800000D01*
X27950000Y32450000D02*
X28300000Y32800000D01*
D30*
X32000000Y30650000D02*
X32000000Y25877832D01*
X30200000Y32450000D02*
X32000000Y30650000D01*
X33227832Y24650000D02*
X37134315Y24650000D01*
X27950000Y32450000D02*
X30200000Y32450000D01*
X32000000Y25877832D02*
X33227832Y24650000D01*
X37134315Y24650000D02*
X37700000Y24650000D01*
%TO.N,Net-(Q103-Pad3)*%
X69750000Y14562500D02*
X69750000Y16000000D01*
X67937500Y12750000D02*
X69750000Y14562500D01*
%TO.N,Net-(Q103-Pad2)*%
X69812500Y8712500D02*
X69812500Y9000000D01*
X67985000Y6885000D02*
X69812500Y8712500D01*
X66725000Y6885000D02*
X67985000Y6885000D01*
X72400000Y16950000D02*
X71750000Y16950000D01*
X73000000Y16350000D02*
X72400000Y16950000D01*
X73000000Y7600000D02*
X73000000Y16350000D01*
X70650000Y7600000D02*
X73000000Y7600000D01*
X69812500Y8437500D02*
X70650000Y7600000D01*
X69812500Y9000000D02*
X69812500Y8437500D01*
%TO.N,Net-(Q103-Pad1)*%
X71687500Y14987500D02*
X71750000Y15050000D01*
X71687500Y12500000D02*
X71687500Y14987500D01*
%TO.N,/TXD0*%
X60605000Y25695000D02*
X61900000Y24400000D01*
X58500000Y25695000D02*
X60605000Y25695000D01*
X63700000Y9875000D02*
X63700000Y12100002D01*
X63250000Y9425000D02*
X63700000Y9875000D01*
X61775000Y9425000D02*
X63250000Y9425000D01*
%TO.N,/RXD0*%
X60255031Y24425000D02*
X60293856Y24386175D01*
X58500000Y24425000D02*
X60255031Y24425000D01*
X61775000Y8155000D02*
X60055000Y8155000D01*
X60055000Y8155000D02*
X60054998Y8154998D01*
%TO.N,/D+*%
X44050000Y7200000D02*
X42950000Y7200000D01*
X44850000Y8000000D02*
X44050000Y7200000D01*
X48850000Y8000000D02*
X44850000Y8000000D01*
X49500000Y7350000D02*
X48850000Y8000000D01*
X49500000Y4527832D02*
X49500000Y7350000D01*
X50077821Y3950011D02*
X49500000Y4527832D01*
X52326576Y4667999D02*
X51608588Y3950011D01*
X61775000Y5615000D02*
X60265000Y5615000D01*
X54914234Y4400002D02*
X54646237Y4667999D01*
X54646237Y4667999D02*
X52326576Y4667999D01*
X51608588Y3950011D02*
X50077821Y3950011D01*
X60265000Y5615000D02*
X59050002Y4400002D01*
X59050002Y4400002D02*
X54914234Y4400002D01*
%TO.N,/D-*%
X48850000Y4400000D02*
X48850000Y5720000D01*
X49850000Y3400000D02*
X48850000Y4400000D01*
X51836410Y3400000D02*
X49850000Y3400000D01*
X52554398Y4117988D02*
X51836410Y3400000D01*
X54418415Y4117988D02*
X52554398Y4117988D01*
X54686412Y3849991D02*
X54418415Y4117988D01*
X59499991Y3849991D02*
X54686412Y3849991D01*
X59995000Y4345000D02*
X59499991Y3849991D01*
X61775000Y4345000D02*
X59995000Y4345000D01*
X46950000Y3900000D02*
X48350000Y3900000D01*
X46450000Y4400000D02*
X46950000Y3900000D01*
X44000000Y5300000D02*
X44900000Y4400000D01*
X48350000Y3900000D02*
X48850000Y4400000D01*
X44900000Y4400000D02*
X46450000Y4400000D01*
X42950000Y5300000D02*
X44000000Y5300000D01*
%TO.N,Net-(D101-Pad2)*%
X56750000Y6350000D02*
X56500000Y6100000D01*
X57050000Y5550000D02*
X58750000Y5550000D01*
X56500000Y6100000D02*
X57050000Y5550000D01*
X47900000Y6850000D02*
X47750000Y6850000D01*
X48200000Y6850000D02*
X47750000Y6850000D01*
X48200000Y5700000D02*
X48200000Y6850000D01*
%TO.N,Net-(D105-Pad1)*%
X66062500Y14812500D02*
X66750000Y15500000D01*
X66062500Y12750000D02*
X66062500Y14812500D01*
X66424999Y15825001D02*
X63325001Y15825001D01*
X66750000Y15500000D02*
X66424999Y15825001D01*
X63325001Y15825001D02*
X63000000Y15500000D01*
%TO.N,Net-(D105-Pad2)*%
X60295000Y12995000D02*
X60300000Y13000000D01*
X58500000Y12995000D02*
X60295000Y12995000D01*
X61050000Y16285002D02*
X61050000Y13750000D01*
X63000000Y18235002D02*
X61050000Y16285002D01*
X61050000Y13750000D02*
X60295000Y12995000D01*
X63000000Y19500000D02*
X63000000Y18235002D01*
%TO.N,Net-(D106-Pad2)*%
X55715000Y11995000D02*
X55715000Y10115000D01*
X66750000Y19500000D02*
X66750000Y20400004D01*
X66750000Y20400004D02*
X65400004Y21750000D01*
%TO.N,Net-(Q102-Pad2)*%
X73550011Y20099989D02*
X71750000Y21900000D01*
X73550011Y7372178D02*
X73550011Y20099989D01*
X73450010Y7272177D02*
X73550011Y7372178D01*
X73450010Y2313600D02*
X73450010Y7272177D01*
X71936410Y800000D02*
X73450010Y2313600D01*
X65525000Y800000D02*
X71936410Y800000D01*
X64750000Y1575000D02*
X65525000Y800000D01*
X64750000Y7155000D02*
X64750000Y1575000D01*
X65750000Y8155000D02*
X64750000Y7155000D01*
X66725000Y8155000D02*
X65750000Y8155000D01*
X68155000Y8155000D02*
X66725000Y8155000D01*
X68550000Y8550000D02*
X68155000Y8155000D01*
X68550000Y10050000D02*
X68550000Y8550000D01*
X69812500Y11312500D02*
X68550000Y10050000D01*
X69812500Y12500000D02*
X69812500Y11312500D01*
%TO.N,Net-(Q102-Pad1)*%
X70750000Y11500000D02*
X70750000Y19000000D01*
X70750000Y19000000D02*
X71750000Y20000000D01*
X71687500Y10562500D02*
X70750000Y11500000D01*
X71687500Y9000000D02*
X71687500Y10562500D01*
%TO.N,VSPICS0*%
X58500000Y18075000D02*
X56950320Y18075000D01*
X56950320Y18075000D02*
X56612653Y18412667D01*
X75500000Y33420000D02*
X74125000Y33420000D01*
X73000000Y32295000D02*
X73000000Y26750000D01*
X74125000Y33420000D02*
X73000000Y32295000D01*
%TO.N,VSPICLK*%
X58500000Y19345000D02*
X55728530Y19345000D01*
X55728530Y19345000D02*
X55673860Y19399670D01*
X67239998Y23260000D02*
X67239996Y23260002D01*
X75500000Y23260000D02*
X67239998Y23260000D01*
X63247167Y23260002D02*
X67239996Y23260002D01*
X58500000Y19345000D02*
X59332165Y19345000D01*
X59332165Y19345000D02*
X63247167Y23260002D01*
%TO.N,VSPIDIN*%
X63013657Y24320658D02*
X63579342Y24320658D01*
X59307999Y20615000D02*
X63013657Y24320658D01*
X58500000Y20615000D02*
X59307999Y20615000D01*
X77000000Y16680000D02*
X75500000Y18180000D01*
X77000000Y9520000D02*
X77000000Y16680000D01*
X75500000Y8020000D02*
X77000000Y9520000D01*
X55285000Y20615000D02*
X55150000Y20750000D01*
X58500000Y20615000D02*
X55285000Y20615000D01*
%TO.N,VSPIDATA*%
X74238600Y24800000D02*
X75238600Y25800000D01*
X61565000Y28235000D02*
X65000000Y24800000D01*
X75238600Y25800000D02*
X75500000Y25800000D01*
X65000000Y24800000D02*
X74238600Y24800000D01*
X58500000Y28235000D02*
X61565000Y28235000D01*
X54799996Y28250000D02*
X54815000Y28234996D01*
X54200000Y28250000D02*
X54799996Y28250000D01*
X54215000Y28235000D02*
X54200000Y28250000D01*
X58500000Y28235000D02*
X54215000Y28235000D01*
D31*
%TO.N,Net-(FB102-Pad2)*%
X18200000Y35650000D02*
X18200000Y34950000D01*
X20700000Y35500000D02*
X20700000Y36150000D01*
X20150000Y34950000D02*
X20700000Y35500000D01*
X18200000Y34950000D02*
X20150000Y34950000D01*
X20700000Y39466652D02*
X20700000Y36150000D01*
X20966674Y39733326D02*
X20700000Y39466652D01*
X21897210Y39733326D02*
X20966674Y39733326D01*
X21901384Y39737500D02*
X21897210Y39733326D01*
X22150000Y39737500D02*
X21901384Y39737500D01*
D30*
%TO.N,VSPICS1*%
X58500000Y14265000D02*
X55835000Y14265000D01*
X55835000Y14265000D02*
X54200006Y15899994D01*
X54200006Y15899994D02*
X54200006Y22100000D01*
%TO.N,LCDRST*%
X55200000Y25105000D02*
X55200000Y27300000D01*
X57150000Y23155000D02*
X55200000Y25105000D01*
X58500000Y23155000D02*
X57150000Y23155000D01*
%TO.N,LCDDC*%
X57190966Y26965000D02*
X56775998Y27379968D01*
X58500000Y26965000D02*
X57190966Y26965000D01*
%TO.N,VSPICS2*%
X45555000Y11995000D02*
X45555000Y10468026D01*
X45555000Y10468026D02*
X45564009Y10459017D01*
%TO.N,Net-(Q107-Pad1)*%
X38800000Y14425000D02*
X38800000Y12999998D01*
X38800000Y12999998D02*
X38700002Y12900000D01*
X70400000Y28600000D02*
X69450000Y29550000D01*
X70400000Y26750000D02*
X70400000Y28600000D01*
X69450003Y25800003D02*
X70400000Y26750000D01*
X67100003Y25800003D02*
X69450003Y25800003D01*
%TO.N,Net-(Q107-Pad2)*%
X69387500Y27712500D02*
X69450000Y27650000D01*
X67550000Y27712500D02*
X69387500Y27712500D01*
%TO.N,BACKLIGHT*%
X71450000Y25850002D02*
X71450002Y25850000D01*
X71450000Y28600000D02*
X71450000Y25850002D01*
%TO.N,Net-(R118-Pad1)*%
X39700000Y16700000D02*
X39805000Y16805000D01*
X39200000Y16700000D02*
X39700000Y16700000D01*
X39805000Y16805000D02*
X41500000Y16805000D01*
X38800000Y16300000D02*
X39200000Y16700000D01*
%TO.N,ESP_EN*%
X33500000Y26562500D02*
X35750000Y26562500D01*
X69750000Y20950000D02*
X68225001Y22474999D01*
X63289999Y22525001D02*
X60824990Y20059992D01*
X68225001Y22474999D02*
X65822003Y22474999D01*
X60824990Y20059992D02*
X60824990Y18250000D01*
X65822003Y22474999D02*
X65772001Y22525001D01*
X65772001Y22525001D02*
X63289999Y22525001D01*
X38787500Y26562500D02*
X39550000Y25800000D01*
X35750000Y26562500D02*
X38787500Y26562500D01*
X39550000Y26800000D02*
X39550000Y25800000D01*
X39715000Y26965000D02*
X39550000Y26800000D01*
X41500000Y26965000D02*
X39715000Y26965000D01*
%TO.N,Net-(U101-Pad4)*%
X40750000Y7200000D02*
X40700000Y7150000D01*
%TD*%
D32*
%TO.N,GND*%
G36*
X53473000Y28986711D02*
G01*
X53396063Y28909774D01*
X53282795Y28740256D01*
X53204774Y28551898D01*
X53165000Y28351939D01*
X53165000Y28148061D01*
X53204774Y27948102D01*
X53282795Y27759744D01*
X53396063Y27590226D01*
X53473000Y27513289D01*
X53473000Y22836705D01*
X53396069Y22759774D01*
X53282801Y22590256D01*
X53204780Y22401898D01*
X53165006Y22201939D01*
X53165006Y21998061D01*
X53204780Y21798102D01*
X53282801Y21609744D01*
X53390007Y21449299D01*
X53390006Y15939782D01*
X53386087Y15899994D01*
X53390006Y15860206D01*
X53390006Y15860204D01*
X53401726Y15741207D01*
X53448043Y15588522D01*
X53448044Y15588521D01*
X53473000Y15541831D01*
X53473000Y14527000D01*
X43827000Y14527000D01*
X43827000Y29565010D01*
X53473000Y29565010D01*
X53473000Y28986711D01*
G37*
X53473000Y28986711D02*
X53396063Y28909774D01*
X53282795Y28740256D01*
X53204774Y28551898D01*
X53165000Y28351939D01*
X53165000Y28148061D01*
X53204774Y27948102D01*
X53282795Y27759744D01*
X53396063Y27590226D01*
X53473000Y27513289D01*
X53473000Y22836705D01*
X53396069Y22759774D01*
X53282801Y22590256D01*
X53204780Y22401898D01*
X53165006Y22201939D01*
X53165006Y21998061D01*
X53204780Y21798102D01*
X53282801Y21609744D01*
X53390007Y21449299D01*
X53390006Y15939782D01*
X53386087Y15899994D01*
X53390006Y15860206D01*
X53390006Y15860204D01*
X53401726Y15741207D01*
X53448043Y15588522D01*
X53448044Y15588521D01*
X53473000Y15541831D01*
X53473000Y14527000D01*
X43827000Y14527000D01*
X43827000Y29565010D01*
X53473000Y29565010D01*
X53473000Y28986711D01*
%TD*%
M02*
