%TF.GenerationSoftware,KiCad,Pcbnew,(5.1.6-0-10_14)*%
%TF.CreationDate,2021-09-25T22:28:50+10:00*%
%TF.ProjectId,esp32lcd,65737033-326c-4636-942e-6b696361645f,rev?*%
%TF.SameCoordinates,PX47868c0PY93d1cc0*%
%TF.FileFunction,Copper,L2,Bot*%
%TF.FilePolarity,Positive*%
%FSLAX46Y46*%
G04 Gerber Fmt 4.6, Leading zero omitted, Abs format (unit mm)*
G04 Created by KiCad (PCBNEW (5.1.6-0-10_14)) date 2021-09-25 22:28:50*
%MOMM*%
%LPD*%
G01*
G04 APERTURE LIST*
%TA.AperFunction,Profile*%
%ADD10C,0.150000*%
%TD*%
%TA.AperFunction,Profile*%
%ADD11C,0.050000*%
%TD*%
%TA.AperFunction,ComponentPad*%
%ADD12R,2.250000X1.727200*%
%TD*%
%TA.AperFunction,ComponentPad*%
%ADD13O,2.250000X1.727200*%
%TD*%
%TA.AperFunction,ComponentPad*%
%ADD14O,1.000000X1.000000*%
%TD*%
%TA.AperFunction,ComponentPad*%
%ADD15R,1.000000X1.000000*%
%TD*%
%TA.AperFunction,ComponentPad*%
%ADD16O,5.000000X2.500000*%
%TD*%
%TA.AperFunction,ComponentPad*%
%ADD17O,3.500000X5.000000*%
%TD*%
%TA.AperFunction,ComponentPad*%
%ADD18O,1.050000X1.850000*%
%TD*%
%TA.AperFunction,ViaPad*%
%ADD19C,6.000000*%
%TD*%
%TA.AperFunction,ViaPad*%
%ADD20C,0.800000*%
%TD*%
%TA.AperFunction,ViaPad*%
%ADD21C,5.000000*%
%TD*%
%TA.AperFunction,ViaPad*%
%ADD22C,3.500000*%
%TD*%
%TA.AperFunction,Conductor*%
%ADD23C,1.000000*%
%TD*%
%TA.AperFunction,Conductor*%
%ADD24C,0.350000*%
%TD*%
%TA.AperFunction,Conductor*%
%ADD25C,1.500000*%
%TD*%
%TA.AperFunction,Conductor*%
%ADD26C,0.254000*%
%TD*%
G04 APERTURE END LIST*
D10*
X78000000Y44000000D02*
X64400000Y44000000D01*
X64400000Y30800000D02*
X64400000Y44000000D01*
X35600000Y30800000D02*
X64400000Y30800000D01*
X35600000Y44000000D02*
X35600000Y30800000D01*
D11*
X77166666Y2400000D02*
G75*
G03*
X77166666Y2400000I-1666666J0D01*
G01*
X73000000Y2400000D02*
X78000000Y2400000D01*
X75500000Y4900000D02*
X75500000Y-100000D01*
X5166666Y34500000D02*
G75*
G03*
X5166666Y34500000I-1666666J0D01*
G01*
X1000000Y34500000D02*
X6000000Y34500000D01*
X3500000Y37000000D02*
X3500000Y32000000D01*
D10*
X35600000Y44000000D02*
X0Y44000000D01*
X0Y0D02*
X0Y44000000D01*
X78000000Y0D02*
X0Y0D01*
X78000000Y44000000D02*
X78000000Y0D01*
D12*
%TO.P,U15,15*%
%TO.N,VSPICLK*%
X2570000Y26190000D03*
D13*
%TO.P,U15,16*%
%TO.N,VSPIDIN*%
X2570000Y23650000D03*
%TO.P,U15,17*%
%TO.N,VSPIDATA*%
X2570000Y21110000D03*
%TO.P,U15,18*%
%TO.N,VSPICS1*%
X2570000Y18570000D03*
%TO.P,U15,14*%
%TO.N,Net-(U15-Pad14)*%
X75500000Y5480000D03*
%TO.P,U15,13*%
%TO.N,VSPIDIN*%
X75500000Y8020000D03*
%TO.P,U15,12*%
%TO.N,VSPIDATA*%
X75500000Y10560000D03*
%TO.P,U15,11*%
%TO.N,VSPICS2*%
X75500000Y13100000D03*
%TO.P,U15,10*%
%TO.N,VSPICLK*%
X75500000Y15640000D03*
%TO.P,U15,9*%
%TO.N,VSPIDIN*%
X75500000Y18180000D03*
%TO.P,U15,8*%
%TO.N,BACKLIGHT*%
X75500000Y20720000D03*
%TO.P,U15,7*%
%TO.N,VSPICLK*%
X75500000Y23260000D03*
%TO.P,U15,6*%
%TO.N,VSPIDATA*%
X75500000Y25800000D03*
%TO.P,U15,5*%
%TO.N,LCDDC*%
X75500000Y28340000D03*
%TO.P,U15,4*%
%TO.N,LCDRST*%
X75500000Y30880000D03*
%TO.P,U15,3*%
%TO.N,VSPICS0*%
X75500000Y33420000D03*
%TO.P,U15,2*%
%TO.N,GND*%
X75500000Y35960000D03*
D12*
%TO.P,U15,1*%
%TO.N,+3V3*%
X75500000Y38500000D03*
%TD*%
D14*
%TO.P,J1,10*%
%TO.N,Net-(J1-Pad10)*%
X42280000Y3270000D03*
%TO.P,J1,9*%
%TO.N,GND*%
X42280000Y2000000D03*
%TO.P,J1,8*%
%TO.N,Net-(J1-Pad8)*%
X41010000Y3270000D03*
%TO.P,J1,7*%
%TO.N,GND*%
X41010000Y2000000D03*
%TO.P,J1,6*%
%TO.N,Net-(J1-Pad6)*%
X39740000Y3270000D03*
%TO.P,J1,5*%
%TO.N,GND*%
X39740000Y2000000D03*
%TO.P,J1,4*%
%TO.N,Net-(J1-Pad4)*%
X38470000Y3270000D03*
%TO.P,J1,3*%
%TO.N,GND*%
X38470000Y2000000D03*
%TO.P,J1,2*%
%TO.N,Net-(J1-Pad2)*%
X37200000Y3270000D03*
D15*
%TO.P,J1,1*%
%TO.N,+3V3*%
X37200000Y2000000D03*
%TD*%
D16*
%TO.P,J12,3*%
%TO.N,Net-(J12-Pad3)*%
X11100000Y34400000D03*
D17*
%TO.P,J12,2*%
%TO.N,Net-(FB11-Pad2)*%
X18200000Y34950000D03*
D16*
%TO.P,J12,1*%
%TO.N,GND*%
X11900000Y31000000D03*
%TD*%
D18*
%TO.P,J11,6*%
%TO.N,GND*%
X53075000Y2770000D03*
X45925000Y2770000D03*
X53075000Y6220000D03*
X45925000Y6220000D03*
%TD*%
D19*
%TO.N,GND*%
X49000000Y22000000D03*
D20*
X44400000Y15300000D03*
X44400000Y22300000D03*
X52600000Y22300000D03*
D21*
X70500000Y40500000D03*
X3500000Y3500000D03*
D22*
X70500000Y3500000D03*
D21*
X3500000Y40500000D03*
D20*
X58900000Y7850000D03*
X52600000Y15174990D03*
X52600000Y29475010D03*
X44399998Y29475010D03*
X50800000Y7150000D03*
X16000000Y31200000D03*
X44350002Y6650000D03*
X22400000Y31199996D03*
X28200004Y26250000D03*
X33200000Y30200000D03*
X33500005Y38600005D03*
X55600000Y29500000D03*
%TO.N,+5V*%
X58900000Y3000000D03*
X44200000Y4100000D03*
X38100000Y14500000D03*
%TO.N,+3V3*%
X39400000Y14500000D03*
X51800000Y9600000D03*
%TO.N,/TXD0*%
X60054998Y8154998D03*
X60399992Y25700000D03*
%TO.N,/RXD0*%
X63400000Y11700000D03*
X61300330Y24373860D03*
%TO.N,VSPICS0*%
X56612653Y18412667D03*
X68800000Y27499998D03*
%TO.N,VSPICLK*%
X55900000Y19600000D03*
X62800004Y22200000D03*
%TO.N,VSPIDIN*%
X55199151Y20741645D03*
X62799998Y23600000D03*
%TO.N,VSPIDATA*%
X54200000Y28250000D03*
%TO.N,VSPICS1*%
X54603013Y18700000D03*
%TO.N,LCDRST*%
X55200000Y27300000D03*
%TO.N,LCDDC*%
X56775998Y27379968D03*
%TO.N,VSPICS2*%
X55500000Y10100000D03*
%TO.N,BACKLIGHT*%
X64699990Y26100000D03*
%TO.N,ESP_EN*%
X31700000Y30400000D03*
X39500000Y26400000D03*
X60900000Y18800000D03*
%TO.N,Net-(D11-Pad2)*%
X47750000Y6850000D03*
X58750000Y5200000D03*
%TO.N,Net-(FB11-Pad2)*%
X20700000Y36150000D03*
%TO.N,Net-(Q13-Pad1)*%
X43800001Y8900000D03*
X63000000Y26500000D03*
%TO.N,Net-(Q1-Pad2)*%
X70700008Y13400000D03*
X65000000Y17200000D03*
%TO.N,Net-(J1-Pad4)*%
X45600000Y13700000D03*
%TO.N,Net-(J1-Pad6)*%
X49800000Y9900000D03*
%TD*%
D23*
%TO.N,GND*%
X12200000Y31200000D02*
X16000000Y31200000D01*
X11900000Y31500000D02*
X12200000Y31200000D01*
X16000000Y31200000D02*
X22399996Y31200000D01*
X22399996Y31200000D02*
X22400000Y31199996D01*
D24*
%TO.N,+5V*%
X54800000Y4100000D02*
X44200000Y4100000D01*
X55900000Y3000000D02*
X54800000Y4100000D01*
X58900000Y3000000D02*
X55900000Y3000000D01*
X35700000Y5600000D02*
X38100000Y8000000D01*
X44200000Y2000000D02*
X43100000Y900000D01*
X35700000Y1824998D02*
X35700000Y5600000D01*
X44200000Y4100000D02*
X44200000Y2000000D01*
X36624998Y900000D02*
X35700000Y1824998D01*
X43100000Y900000D02*
X36624998Y900000D01*
X38100000Y8000000D02*
X38100000Y14500000D01*
%TO.N,+3V3*%
X39400000Y14500000D02*
X46900000Y14500000D01*
X46900000Y14500000D02*
X51800000Y9600000D01*
%TO.N,/TXD0*%
X60399992Y22400008D02*
X60399992Y25700000D01*
X62400000Y20400000D02*
X60399992Y22400008D01*
X62400000Y10500000D02*
X62400000Y20400000D01*
X60054998Y8154998D02*
X62400000Y10500000D01*
%TO.N,/RXD0*%
X63400000Y11700000D02*
X63400000Y20352996D01*
X61300330Y22452666D02*
X61300330Y24373860D01*
X63400000Y20352996D02*
X61300330Y22452666D01*
%TO.N,VSPICS0*%
X75500000Y33420000D02*
X74420000Y33420000D01*
X56612653Y18412667D02*
X57012652Y18812666D01*
X57012652Y18812666D02*
X57012652Y24912652D01*
X57012652Y24912652D02*
X59599998Y27499998D01*
X59599998Y27499998D02*
X68800000Y27499998D01*
%TO.N,VSPICLK*%
X56000000Y19700000D02*
X55900000Y19600000D01*
X56000000Y24700000D02*
X56000000Y19700000D01*
X4930000Y28550000D02*
X52150000Y28550000D01*
X52150000Y28550000D02*
X56000000Y24700000D01*
X2570000Y26190000D02*
X4930000Y28550000D01*
X69360004Y15640000D02*
X62800004Y22200000D01*
X75500000Y15640000D02*
X69360004Y15640000D01*
%TO.N,VSPIDIN*%
X55199151Y24500849D02*
X55199151Y20741645D01*
X51800000Y27900000D02*
X55199151Y24500849D01*
X2570000Y23650000D02*
X3650000Y23650000D01*
X4700000Y27000000D02*
X5600000Y27900000D01*
X3650000Y23650000D02*
X4700000Y24700000D01*
X5600000Y27900000D02*
X51800000Y27900000D01*
X4700000Y24700000D02*
X4700000Y27000000D01*
X68219998Y18180000D02*
X62799998Y23600000D01*
X75500000Y18180000D02*
X68219998Y18180000D01*
%TO.N,VSPIDATA*%
X77000000Y12060000D02*
X75500000Y10560000D01*
X77000000Y24300000D02*
X77000000Y12060000D01*
X75500000Y25800000D02*
X77000000Y24300000D01*
X34675036Y29175036D02*
X35900000Y30400000D01*
X53215681Y30400000D02*
X54200000Y29415681D01*
X2570000Y21110000D02*
X900000Y22780000D01*
X23919497Y29150000D02*
X23944533Y29175036D01*
X900000Y27800000D02*
X2250000Y29150000D01*
X35900000Y30400000D02*
X53215681Y30400000D01*
X23944533Y29175036D02*
X34675036Y29175036D01*
X900000Y22780000D02*
X900000Y27800000D01*
X54200000Y29415681D02*
X54200000Y28250000D01*
X2250000Y29150000D02*
X23919497Y29150000D01*
%TO.N,VSPICS1*%
X54400000Y18903013D02*
X54603013Y18700000D01*
X5800000Y26300000D02*
X6750000Y27250000D01*
X5800000Y20325000D02*
X5800000Y26300000D01*
X51450000Y27250000D02*
X54400000Y24300000D01*
X6750000Y27250000D02*
X51450000Y27250000D01*
X54400000Y24300000D02*
X54400000Y18903013D01*
X4045000Y18570000D02*
X5800000Y20325000D01*
X2570000Y18570000D02*
X4045000Y18570000D01*
%TO.N,LCDRST*%
X55599999Y27699999D02*
X55200000Y27300000D01*
X56925013Y29025013D02*
X55599999Y27699999D01*
X69955163Y30880000D02*
X68100176Y29025013D01*
X75500000Y30880000D02*
X69955163Y30880000D01*
X68100176Y29025013D02*
X56925013Y29025013D01*
%TO.N,LCDDC*%
X57736030Y28340000D02*
X57175997Y27779967D01*
X57175997Y27779967D02*
X56775998Y27379968D01*
X75500000Y28340000D02*
X57736030Y28340000D01*
%TO.N,VSPICS2*%
X67600000Y12600000D02*
X61100000Y6100000D01*
X55500000Y8386084D02*
X55500000Y10100000D01*
X61100000Y6100000D02*
X57786084Y6100000D01*
X74650000Y13100000D02*
X74150000Y12600000D01*
X57786084Y6100000D02*
X55500000Y8386084D01*
X74150000Y12600000D02*
X67600000Y12600000D01*
X75500000Y13100000D02*
X74650000Y13100000D01*
%TO.N,BACKLIGHT*%
X75500000Y20720000D02*
X74580000Y20720000D01*
X67180000Y20720000D02*
X64699990Y23200010D01*
X64699990Y23200010D02*
X64699990Y26100000D01*
X75500000Y20720000D02*
X67180000Y20720000D01*
D25*
%TO.N,ESP_EN*%
X31700000Y30400000D02*
X31700000Y42000000D01*
D24*
X53700000Y24000000D02*
X53700000Y17652996D01*
X53700000Y17652996D02*
X53828005Y17524991D01*
X59624991Y17524991D02*
X60900000Y18800000D01*
X39550000Y26350000D02*
X39700000Y26500000D01*
X39700000Y26500000D02*
X51200000Y26500000D01*
X53828005Y17524991D02*
X59624991Y17524991D01*
X51200000Y26500000D02*
X53700000Y24000000D01*
%TO.N,Net-(D11-Pad2)*%
X57400000Y5200000D02*
X58750000Y5200000D01*
X54400000Y8200000D02*
X57400000Y5200000D01*
X49100000Y8200000D02*
X54400000Y8200000D01*
X47750000Y6850000D02*
X49100000Y8200000D01*
D23*
%TO.N,Net-(FB11-Pad2)*%
X20700000Y35500000D02*
X20700000Y36150000D01*
X20150000Y34950000D02*
X20700000Y35500000D01*
X18200000Y34950000D02*
X20150000Y34950000D01*
D24*
%TO.N,Net-(Q13-Pad1)*%
X59100000Y22850000D02*
X59100000Y25647002D01*
X61775002Y17902000D02*
X61775002Y20174998D01*
X52673002Y8800000D02*
X61775002Y17902000D01*
X43800001Y8900000D02*
X43900001Y8800000D01*
X59952998Y26500000D02*
X63000000Y26500000D01*
X43900001Y8800000D02*
X52673002Y8800000D01*
X59100000Y25647002D02*
X59952998Y26500000D01*
X61775002Y20174998D02*
X59100000Y22850000D01*
%TO.N,Net-(Q1-Pad2)*%
X70700008Y13400000D02*
X68800000Y13400000D01*
X68800000Y13400000D02*
X65000000Y17200000D01*
%TO.N,Net-(J1-Pad4)*%
X38470000Y6630000D02*
X38470000Y3270000D01*
X45540000Y13700000D02*
X38470000Y6630000D01*
X45600000Y13700000D02*
X45540000Y13700000D01*
%TO.N,Net-(J1-Pad6)*%
X42577830Y9900000D02*
X49800000Y9900000D01*
X39740000Y7062170D02*
X42577830Y9900000D01*
X39740000Y3270000D02*
X39740000Y7062170D01*
%TD*%
D26*
%TO.N,GND*%
G36*
X74546025Y12063488D02*
G01*
X74761546Y11948290D01*
X74995400Y11877351D01*
X75177660Y11859400D01*
X75822340Y11859400D01*
X76004600Y11877351D01*
X76050686Y11891331D01*
X75947616Y11788261D01*
X75822340Y11800600D01*
X75177660Y11800600D01*
X74995400Y11782649D01*
X74761546Y11711710D01*
X74546025Y11596512D01*
X74357119Y11441481D01*
X74202088Y11252575D01*
X74086890Y11037054D01*
X74015951Y10803200D01*
X73991998Y10560000D01*
X74015951Y10316800D01*
X74086890Y10082946D01*
X74202088Y9867425D01*
X74357119Y9678519D01*
X74546025Y9523488D01*
X74761546Y9408290D01*
X74995400Y9337351D01*
X75177660Y9319400D01*
X75822340Y9319400D01*
X76004600Y9337351D01*
X76238454Y9408290D01*
X76453975Y9523488D01*
X76642881Y9678519D01*
X76797912Y9867425D01*
X76913110Y10082946D01*
X76984049Y10316800D01*
X77008002Y10560000D01*
X76984049Y10803200D01*
X76913110Y11037054D01*
X76858976Y11138331D01*
X77371154Y11650508D01*
X77392211Y11667789D01*
X77428256Y11711710D01*
X77461191Y11751841D01*
X77512447Y11847736D01*
X77512448Y11847737D01*
X77544012Y11951789D01*
X77548001Y11992286D01*
X77548001Y452000D01*
X43424231Y452000D01*
X43492211Y507789D01*
X43509500Y528856D01*
X44571149Y1590504D01*
X44592211Y1607789D01*
X44661191Y1691842D01*
X44712448Y1787737D01*
X44744012Y1891789D01*
X44752000Y1972891D01*
X44752000Y1972894D01*
X44754670Y2000000D01*
X44752000Y2027106D01*
X44752000Y2643000D01*
X44765000Y2643000D01*
X44765000Y2243000D01*
X44812066Y2019135D01*
X44901901Y1808754D01*
X45031053Y1619941D01*
X45194559Y1459953D01*
X45386136Y1334937D01*
X45619190Y1251036D01*
X45798000Y1376837D01*
X45798000Y2643000D01*
X46052000Y2643000D01*
X46052000Y1376837D01*
X46230810Y1251036D01*
X46463864Y1334937D01*
X46655441Y1459953D01*
X46818947Y1619941D01*
X46948099Y1808754D01*
X47037934Y2019135D01*
X47085000Y2243000D01*
X47085000Y2643000D01*
X51915000Y2643000D01*
X51915000Y2243000D01*
X51962066Y2019135D01*
X52051901Y1808754D01*
X52181053Y1619941D01*
X52344559Y1459953D01*
X52536136Y1334937D01*
X52769190Y1251036D01*
X52948000Y1376837D01*
X52948000Y2643000D01*
X53202000Y2643000D01*
X53202000Y1376837D01*
X53380810Y1251036D01*
X53613864Y1334937D01*
X53805441Y1459953D01*
X53968947Y1619941D01*
X54098099Y1808754D01*
X54187934Y2019135D01*
X54235000Y2243000D01*
X54235000Y2643000D01*
X53202000Y2643000D01*
X52948000Y2643000D01*
X51915000Y2643000D01*
X47085000Y2643000D01*
X46052000Y2643000D01*
X45798000Y2643000D01*
X44765000Y2643000D01*
X44752000Y2643000D01*
X44752000Y3548000D01*
X44823653Y3548000D01*
X44812066Y3520865D01*
X44765000Y3297000D01*
X44765000Y2897000D01*
X45798000Y2897000D01*
X45798000Y2917000D01*
X46052000Y2917000D01*
X46052000Y2897000D01*
X47085000Y2897000D01*
X47085000Y3297000D01*
X47037934Y3520865D01*
X47026347Y3548000D01*
X51973653Y3548000D01*
X51962066Y3520865D01*
X51915000Y3297000D01*
X51915000Y2897000D01*
X52948000Y2897000D01*
X52948000Y2917000D01*
X53202000Y2917000D01*
X53202000Y2897000D01*
X54235000Y2897000D01*
X54235000Y3297000D01*
X54187934Y3520865D01*
X54176347Y3548000D01*
X54571356Y3548000D01*
X55490504Y2628851D01*
X55507789Y2607789D01*
X55591842Y2538809D01*
X55687737Y2487552D01*
X55791789Y2455988D01*
X55872891Y2448000D01*
X55872894Y2448000D01*
X55900000Y2445330D01*
X55927106Y2448000D01*
X58353155Y2448000D01*
X58404691Y2396464D01*
X58531952Y2311431D01*
X58673357Y2252859D01*
X58823472Y2223000D01*
X58976528Y2223000D01*
X59126643Y2252859D01*
X59268048Y2311431D01*
X59395309Y2396464D01*
X59503536Y2504691D01*
X59588569Y2631952D01*
X59647141Y2773357D01*
X59677000Y2923472D01*
X59677000Y3076528D01*
X59647141Y3226643D01*
X59588569Y3368048D01*
X59503536Y3495309D01*
X59395309Y3603536D01*
X59268048Y3688569D01*
X59126643Y3747141D01*
X58976528Y3777000D01*
X58823472Y3777000D01*
X58673357Y3747141D01*
X58531952Y3688569D01*
X58404691Y3603536D01*
X58353155Y3552000D01*
X56128645Y3552000D01*
X55209500Y4471144D01*
X55192211Y4492211D01*
X55108158Y4561191D01*
X55012263Y4612448D01*
X54908211Y4644012D01*
X54827109Y4652000D01*
X54827106Y4652000D01*
X54800000Y4654670D01*
X54772894Y4652000D01*
X52157115Y4652000D01*
X52175023Y4695234D01*
X52202000Y4830859D01*
X52202000Y4969141D01*
X52182167Y5068851D01*
X52344559Y4909953D01*
X52536136Y4784937D01*
X52769190Y4701036D01*
X52948000Y4826837D01*
X52948000Y6093000D01*
X53202000Y6093000D01*
X53202000Y4826837D01*
X53380810Y4701036D01*
X53613864Y4784937D01*
X53805441Y4909953D01*
X53968947Y5069941D01*
X54098099Y5258754D01*
X54187934Y5469135D01*
X54235000Y5693000D01*
X54235000Y6093000D01*
X53202000Y6093000D01*
X52948000Y6093000D01*
X51915000Y6093000D01*
X51915000Y5693000D01*
X51962066Y5469135D01*
X51990700Y5402078D01*
X51947499Y5445279D01*
X51832522Y5522105D01*
X51704766Y5575023D01*
X51569141Y5602000D01*
X51430859Y5602000D01*
X51295234Y5575023D01*
X51167478Y5522105D01*
X51052501Y5445279D01*
X50954721Y5347499D01*
X50877895Y5232522D01*
X50824977Y5104766D01*
X50798000Y4969141D01*
X50798000Y4830859D01*
X50824977Y4695234D01*
X50842885Y4652000D01*
X48157115Y4652000D01*
X48175023Y4695234D01*
X48202000Y4830859D01*
X48202000Y4969141D01*
X48175023Y5104766D01*
X48122105Y5232522D01*
X48045279Y5347499D01*
X47947499Y5445279D01*
X47832522Y5522105D01*
X47704766Y5575023D01*
X47569141Y5602000D01*
X47430859Y5602000D01*
X47295234Y5575023D01*
X47167478Y5522105D01*
X47052501Y5445279D01*
X47009300Y5402078D01*
X47037934Y5469135D01*
X47085000Y5693000D01*
X47085000Y6093000D01*
X46052000Y6093000D01*
X46052000Y4826837D01*
X46230810Y4701036D01*
X46463864Y4784937D01*
X46655441Y4909953D01*
X46817833Y5068851D01*
X46798000Y4969141D01*
X46798000Y4830859D01*
X46824977Y4695234D01*
X46842885Y4652000D01*
X44746845Y4652000D01*
X44695309Y4703536D01*
X44568048Y4788569D01*
X44426643Y4847141D01*
X44276528Y4877000D01*
X44123472Y4877000D01*
X43973357Y4847141D01*
X43831952Y4788569D01*
X43704691Y4703536D01*
X43596464Y4595309D01*
X43511431Y4468048D01*
X43452859Y4326643D01*
X43423000Y4176528D01*
X43423000Y4023472D01*
X43452859Y3873357D01*
X43511431Y3731952D01*
X43596464Y3604691D01*
X43648000Y3553155D01*
X43648001Y2228646D01*
X43267147Y1847792D01*
X43249129Y1873000D01*
X42407000Y1873000D01*
X42407000Y1853000D01*
X42153000Y1853000D01*
X42153000Y1873000D01*
X41137000Y1873000D01*
X41137000Y1853000D01*
X40883000Y1853000D01*
X40883000Y1873000D01*
X39867000Y1873000D01*
X39867000Y1853000D01*
X39613000Y1853000D01*
X39613000Y1873000D01*
X38597000Y1873000D01*
X38597000Y1853000D01*
X38343000Y1853000D01*
X38343000Y1873000D01*
X38323000Y1873000D01*
X38323000Y2127000D01*
X38343000Y2127000D01*
X38343000Y2147000D01*
X38597000Y2147000D01*
X38597000Y2127000D01*
X39613000Y2127000D01*
X39613000Y2147000D01*
X39867000Y2147000D01*
X39867000Y2127000D01*
X40883000Y2127000D01*
X40883000Y2147000D01*
X41137000Y2147000D01*
X41137000Y2127000D01*
X42153000Y2127000D01*
X42153000Y2147000D01*
X42407000Y2147000D01*
X42407000Y2127000D01*
X43249129Y2127000D01*
X43374126Y2301876D01*
X43294210Y2509529D01*
X43175318Y2697601D01*
X43044351Y2835374D01*
X43057187Y2854585D01*
X43123297Y3014189D01*
X43157000Y3183623D01*
X43157000Y3356377D01*
X43123297Y3525811D01*
X43057187Y3685415D01*
X42961210Y3829055D01*
X42839055Y3951210D01*
X42695415Y4047187D01*
X42535811Y4113297D01*
X42366377Y4147000D01*
X42193623Y4147000D01*
X42024189Y4113297D01*
X41864585Y4047187D01*
X41720945Y3951210D01*
X41645000Y3875265D01*
X41569055Y3951210D01*
X41425415Y4047187D01*
X41265811Y4113297D01*
X41096377Y4147000D01*
X40923623Y4147000D01*
X40754189Y4113297D01*
X40594585Y4047187D01*
X40450945Y3951210D01*
X40375000Y3875265D01*
X40299055Y3951210D01*
X40292000Y3955924D01*
X40292000Y6093000D01*
X44765000Y6093000D01*
X44765000Y5693000D01*
X44812066Y5469135D01*
X44901901Y5258754D01*
X45031053Y5069941D01*
X45194559Y4909953D01*
X45386136Y4784937D01*
X45619190Y4701036D01*
X45798000Y4826837D01*
X45798000Y6093000D01*
X44765000Y6093000D01*
X40292000Y6093000D01*
X40292000Y6747000D01*
X44765000Y6747000D01*
X44765000Y6347000D01*
X45798000Y6347000D01*
X45798000Y7613163D01*
X45619190Y7738964D01*
X45386136Y7655063D01*
X45194559Y7530047D01*
X45031053Y7370059D01*
X44901901Y7181246D01*
X44812066Y6970865D01*
X44765000Y6747000D01*
X40292000Y6747000D01*
X40292000Y6833526D01*
X42806476Y9348000D01*
X43164854Y9348000D01*
X43111432Y9268048D01*
X43052860Y9126643D01*
X43023001Y8976528D01*
X43023001Y8823472D01*
X43052860Y8673357D01*
X43111432Y8531952D01*
X43196465Y8404691D01*
X43304692Y8296464D01*
X43431953Y8211431D01*
X43573358Y8152859D01*
X43723473Y8123000D01*
X43876529Y8123000D01*
X44026644Y8152859D01*
X44168049Y8211431D01*
X44222778Y8248000D01*
X48367355Y8248000D01*
X47746355Y7627000D01*
X47673472Y7627000D01*
X47523357Y7597141D01*
X47381952Y7538569D01*
X47254691Y7453536D01*
X47146464Y7345309D01*
X47061431Y7218048D01*
X47002859Y7076643D01*
X46999651Y7060517D01*
X46948099Y7181246D01*
X46818947Y7370059D01*
X46655441Y7530047D01*
X46463864Y7655063D01*
X46230810Y7738964D01*
X46052000Y7613163D01*
X46052000Y6347000D01*
X47085000Y6347000D01*
X47085000Y6446678D01*
X47146464Y6354691D01*
X47254691Y6246464D01*
X47381952Y6161431D01*
X47523357Y6102859D01*
X47673472Y6073000D01*
X47826528Y6073000D01*
X47976643Y6102859D01*
X48118048Y6161431D01*
X48245309Y6246464D01*
X48353536Y6354691D01*
X48438569Y6481952D01*
X48497141Y6623357D01*
X48527000Y6773472D01*
X48527000Y6846355D01*
X49328646Y7648000D01*
X52525313Y7648000D01*
X52344559Y7530047D01*
X52181053Y7370059D01*
X52051901Y7181246D01*
X51962066Y6970865D01*
X51915000Y6747000D01*
X51915000Y6347000D01*
X52948000Y6347000D01*
X52948000Y6367000D01*
X53202000Y6367000D01*
X53202000Y6347000D01*
X54235000Y6347000D01*
X54235000Y6747000D01*
X54187934Y6970865D01*
X54098099Y7181246D01*
X53968947Y7370059D01*
X53805441Y7530047D01*
X53624687Y7648000D01*
X54171356Y7648000D01*
X56990508Y4828846D01*
X57007789Y4807789D01*
X57028845Y4790509D01*
X57028846Y4790508D01*
X57091842Y4738809D01*
X57187737Y4687552D01*
X57291789Y4655988D01*
X57400000Y4645330D01*
X57427108Y4648000D01*
X58203155Y4648000D01*
X58254691Y4596464D01*
X58381952Y4511431D01*
X58523357Y4452859D01*
X58673472Y4423000D01*
X58826528Y4423000D01*
X58976643Y4452859D01*
X59118048Y4511431D01*
X59245309Y4596464D01*
X59353536Y4704691D01*
X59438569Y4831952D01*
X59497141Y4973357D01*
X59527000Y5123472D01*
X59527000Y5276528D01*
X59497141Y5426643D01*
X59475040Y5480000D01*
X73991998Y5480000D01*
X74015951Y5236800D01*
X74086890Y5002946D01*
X74202088Y4787425D01*
X74357119Y4598519D01*
X74546025Y4443488D01*
X74761546Y4328290D01*
X74995400Y4257351D01*
X75177660Y4239400D01*
X75822340Y4239400D01*
X76004600Y4257351D01*
X76238454Y4328290D01*
X76453975Y4443488D01*
X76642881Y4598519D01*
X76797912Y4787425D01*
X76913110Y5002946D01*
X76984049Y5236800D01*
X77008002Y5480000D01*
X76984049Y5723200D01*
X76913110Y5957054D01*
X76797912Y6172575D01*
X76642881Y6361481D01*
X76453975Y6516512D01*
X76238454Y6631710D01*
X76004600Y6702649D01*
X75822340Y6720600D01*
X75177660Y6720600D01*
X74995400Y6702649D01*
X74761546Y6631710D01*
X74546025Y6516512D01*
X74357119Y6361481D01*
X74202088Y6172575D01*
X74086890Y5957054D01*
X74015951Y5723200D01*
X73991998Y5480000D01*
X59475040Y5480000D01*
X59446873Y5548000D01*
X61072894Y5548000D01*
X61100000Y5545330D01*
X61127106Y5548000D01*
X61127109Y5548000D01*
X61208211Y5555988D01*
X61312263Y5587552D01*
X61408158Y5638809D01*
X61492211Y5707789D01*
X61509501Y5728857D01*
X63800644Y8020000D01*
X73991998Y8020000D01*
X74015951Y7776800D01*
X74086890Y7542946D01*
X74202088Y7327425D01*
X74357119Y7138519D01*
X74546025Y6983488D01*
X74761546Y6868290D01*
X74995400Y6797351D01*
X75177660Y6779400D01*
X75822340Y6779400D01*
X76004600Y6797351D01*
X76238454Y6868290D01*
X76453975Y6983488D01*
X76642881Y7138519D01*
X76797912Y7327425D01*
X76913110Y7542946D01*
X76984049Y7776800D01*
X77008002Y8020000D01*
X76984049Y8263200D01*
X76913110Y8497054D01*
X76797912Y8712575D01*
X76642881Y8901481D01*
X76453975Y9056512D01*
X76238454Y9171710D01*
X76004600Y9242649D01*
X75822340Y9260600D01*
X75177660Y9260600D01*
X74995400Y9242649D01*
X74761546Y9171710D01*
X74546025Y9056512D01*
X74357119Y8901481D01*
X74202088Y8712575D01*
X74086890Y8497054D01*
X74015951Y8263200D01*
X73991998Y8020000D01*
X63800644Y8020000D01*
X67828646Y12048000D01*
X74122894Y12048000D01*
X74150000Y12045330D01*
X74177106Y12048000D01*
X74177109Y12048000D01*
X74258211Y12055988D01*
X74362263Y12087552D01*
X74455789Y12137543D01*
X74546025Y12063488D01*
G37*
X74546025Y12063488D02*
X74761546Y11948290D01*
X74995400Y11877351D01*
X75177660Y11859400D01*
X75822340Y11859400D01*
X76004600Y11877351D01*
X76050686Y11891331D01*
X75947616Y11788261D01*
X75822340Y11800600D01*
X75177660Y11800600D01*
X74995400Y11782649D01*
X74761546Y11711710D01*
X74546025Y11596512D01*
X74357119Y11441481D01*
X74202088Y11252575D01*
X74086890Y11037054D01*
X74015951Y10803200D01*
X73991998Y10560000D01*
X74015951Y10316800D01*
X74086890Y10082946D01*
X74202088Y9867425D01*
X74357119Y9678519D01*
X74546025Y9523488D01*
X74761546Y9408290D01*
X74995400Y9337351D01*
X75177660Y9319400D01*
X75822340Y9319400D01*
X76004600Y9337351D01*
X76238454Y9408290D01*
X76453975Y9523488D01*
X76642881Y9678519D01*
X76797912Y9867425D01*
X76913110Y10082946D01*
X76984049Y10316800D01*
X77008002Y10560000D01*
X76984049Y10803200D01*
X76913110Y11037054D01*
X76858976Y11138331D01*
X77371154Y11650508D01*
X77392211Y11667789D01*
X77428256Y11711710D01*
X77461191Y11751841D01*
X77512447Y11847736D01*
X77512448Y11847737D01*
X77544012Y11951789D01*
X77548001Y11992286D01*
X77548001Y452000D01*
X43424231Y452000D01*
X43492211Y507789D01*
X43509500Y528856D01*
X44571149Y1590504D01*
X44592211Y1607789D01*
X44661191Y1691842D01*
X44712448Y1787737D01*
X44744012Y1891789D01*
X44752000Y1972891D01*
X44752000Y1972894D01*
X44754670Y2000000D01*
X44752000Y2027106D01*
X44752000Y2643000D01*
X44765000Y2643000D01*
X44765000Y2243000D01*
X44812066Y2019135D01*
X44901901Y1808754D01*
X45031053Y1619941D01*
X45194559Y1459953D01*
X45386136Y1334937D01*
X45619190Y1251036D01*
X45798000Y1376837D01*
X45798000Y2643000D01*
X46052000Y2643000D01*
X46052000Y1376837D01*
X46230810Y1251036D01*
X46463864Y1334937D01*
X46655441Y1459953D01*
X46818947Y1619941D01*
X46948099Y1808754D01*
X47037934Y2019135D01*
X47085000Y2243000D01*
X47085000Y2643000D01*
X51915000Y2643000D01*
X51915000Y2243000D01*
X51962066Y2019135D01*
X52051901Y1808754D01*
X52181053Y1619941D01*
X52344559Y1459953D01*
X52536136Y1334937D01*
X52769190Y1251036D01*
X52948000Y1376837D01*
X52948000Y2643000D01*
X53202000Y2643000D01*
X53202000Y1376837D01*
X53380810Y1251036D01*
X53613864Y1334937D01*
X53805441Y1459953D01*
X53968947Y1619941D01*
X54098099Y1808754D01*
X54187934Y2019135D01*
X54235000Y2243000D01*
X54235000Y2643000D01*
X53202000Y2643000D01*
X52948000Y2643000D01*
X51915000Y2643000D01*
X47085000Y2643000D01*
X46052000Y2643000D01*
X45798000Y2643000D01*
X44765000Y2643000D01*
X44752000Y2643000D01*
X44752000Y3548000D01*
X44823653Y3548000D01*
X44812066Y3520865D01*
X44765000Y3297000D01*
X44765000Y2897000D01*
X45798000Y2897000D01*
X45798000Y2917000D01*
X46052000Y2917000D01*
X46052000Y2897000D01*
X47085000Y2897000D01*
X47085000Y3297000D01*
X47037934Y3520865D01*
X47026347Y3548000D01*
X51973653Y3548000D01*
X51962066Y3520865D01*
X51915000Y3297000D01*
X51915000Y2897000D01*
X52948000Y2897000D01*
X52948000Y2917000D01*
X53202000Y2917000D01*
X53202000Y2897000D01*
X54235000Y2897000D01*
X54235000Y3297000D01*
X54187934Y3520865D01*
X54176347Y3548000D01*
X54571356Y3548000D01*
X55490504Y2628851D01*
X55507789Y2607789D01*
X55591842Y2538809D01*
X55687737Y2487552D01*
X55791789Y2455988D01*
X55872891Y2448000D01*
X55872894Y2448000D01*
X55900000Y2445330D01*
X55927106Y2448000D01*
X58353155Y2448000D01*
X58404691Y2396464D01*
X58531952Y2311431D01*
X58673357Y2252859D01*
X58823472Y2223000D01*
X58976528Y2223000D01*
X59126643Y2252859D01*
X59268048Y2311431D01*
X59395309Y2396464D01*
X59503536Y2504691D01*
X59588569Y2631952D01*
X59647141Y2773357D01*
X59677000Y2923472D01*
X59677000Y3076528D01*
X59647141Y3226643D01*
X59588569Y3368048D01*
X59503536Y3495309D01*
X59395309Y3603536D01*
X59268048Y3688569D01*
X59126643Y3747141D01*
X58976528Y3777000D01*
X58823472Y3777000D01*
X58673357Y3747141D01*
X58531952Y3688569D01*
X58404691Y3603536D01*
X58353155Y3552000D01*
X56128645Y3552000D01*
X55209500Y4471144D01*
X55192211Y4492211D01*
X55108158Y4561191D01*
X55012263Y4612448D01*
X54908211Y4644012D01*
X54827109Y4652000D01*
X54827106Y4652000D01*
X54800000Y4654670D01*
X54772894Y4652000D01*
X52157115Y4652000D01*
X52175023Y4695234D01*
X52202000Y4830859D01*
X52202000Y4969141D01*
X52182167Y5068851D01*
X52344559Y4909953D01*
X52536136Y4784937D01*
X52769190Y4701036D01*
X52948000Y4826837D01*
X52948000Y6093000D01*
X53202000Y6093000D01*
X53202000Y4826837D01*
X53380810Y4701036D01*
X53613864Y4784937D01*
X53805441Y4909953D01*
X53968947Y5069941D01*
X54098099Y5258754D01*
X54187934Y5469135D01*
X54235000Y5693000D01*
X54235000Y6093000D01*
X53202000Y6093000D01*
X52948000Y6093000D01*
X51915000Y6093000D01*
X51915000Y5693000D01*
X51962066Y5469135D01*
X51990700Y5402078D01*
X51947499Y5445279D01*
X51832522Y5522105D01*
X51704766Y5575023D01*
X51569141Y5602000D01*
X51430859Y5602000D01*
X51295234Y5575023D01*
X51167478Y5522105D01*
X51052501Y5445279D01*
X50954721Y5347499D01*
X50877895Y5232522D01*
X50824977Y5104766D01*
X50798000Y4969141D01*
X50798000Y4830859D01*
X50824977Y4695234D01*
X50842885Y4652000D01*
X48157115Y4652000D01*
X48175023Y4695234D01*
X48202000Y4830859D01*
X48202000Y4969141D01*
X48175023Y5104766D01*
X48122105Y5232522D01*
X48045279Y5347499D01*
X47947499Y5445279D01*
X47832522Y5522105D01*
X47704766Y5575023D01*
X47569141Y5602000D01*
X47430859Y5602000D01*
X47295234Y5575023D01*
X47167478Y5522105D01*
X47052501Y5445279D01*
X47009300Y5402078D01*
X47037934Y5469135D01*
X47085000Y5693000D01*
X47085000Y6093000D01*
X46052000Y6093000D01*
X46052000Y4826837D01*
X46230810Y4701036D01*
X46463864Y4784937D01*
X46655441Y4909953D01*
X46817833Y5068851D01*
X46798000Y4969141D01*
X46798000Y4830859D01*
X46824977Y4695234D01*
X46842885Y4652000D01*
X44746845Y4652000D01*
X44695309Y4703536D01*
X44568048Y4788569D01*
X44426643Y4847141D01*
X44276528Y4877000D01*
X44123472Y4877000D01*
X43973357Y4847141D01*
X43831952Y4788569D01*
X43704691Y4703536D01*
X43596464Y4595309D01*
X43511431Y4468048D01*
X43452859Y4326643D01*
X43423000Y4176528D01*
X43423000Y4023472D01*
X43452859Y3873357D01*
X43511431Y3731952D01*
X43596464Y3604691D01*
X43648000Y3553155D01*
X43648001Y2228646D01*
X43267147Y1847792D01*
X43249129Y1873000D01*
X42407000Y1873000D01*
X42407000Y1853000D01*
X42153000Y1853000D01*
X42153000Y1873000D01*
X41137000Y1873000D01*
X41137000Y1853000D01*
X40883000Y1853000D01*
X40883000Y1873000D01*
X39867000Y1873000D01*
X39867000Y1853000D01*
X39613000Y1853000D01*
X39613000Y1873000D01*
X38597000Y1873000D01*
X38597000Y1853000D01*
X38343000Y1853000D01*
X38343000Y1873000D01*
X38323000Y1873000D01*
X38323000Y2127000D01*
X38343000Y2127000D01*
X38343000Y2147000D01*
X38597000Y2147000D01*
X38597000Y2127000D01*
X39613000Y2127000D01*
X39613000Y2147000D01*
X39867000Y2147000D01*
X39867000Y2127000D01*
X40883000Y2127000D01*
X40883000Y2147000D01*
X41137000Y2147000D01*
X41137000Y2127000D01*
X42153000Y2127000D01*
X42153000Y2147000D01*
X42407000Y2147000D01*
X42407000Y2127000D01*
X43249129Y2127000D01*
X43374126Y2301876D01*
X43294210Y2509529D01*
X43175318Y2697601D01*
X43044351Y2835374D01*
X43057187Y2854585D01*
X43123297Y3014189D01*
X43157000Y3183623D01*
X43157000Y3356377D01*
X43123297Y3525811D01*
X43057187Y3685415D01*
X42961210Y3829055D01*
X42839055Y3951210D01*
X42695415Y4047187D01*
X42535811Y4113297D01*
X42366377Y4147000D01*
X42193623Y4147000D01*
X42024189Y4113297D01*
X41864585Y4047187D01*
X41720945Y3951210D01*
X41645000Y3875265D01*
X41569055Y3951210D01*
X41425415Y4047187D01*
X41265811Y4113297D01*
X41096377Y4147000D01*
X40923623Y4147000D01*
X40754189Y4113297D01*
X40594585Y4047187D01*
X40450945Y3951210D01*
X40375000Y3875265D01*
X40299055Y3951210D01*
X40292000Y3955924D01*
X40292000Y6093000D01*
X44765000Y6093000D01*
X44765000Y5693000D01*
X44812066Y5469135D01*
X44901901Y5258754D01*
X45031053Y5069941D01*
X45194559Y4909953D01*
X45386136Y4784937D01*
X45619190Y4701036D01*
X45798000Y4826837D01*
X45798000Y6093000D01*
X44765000Y6093000D01*
X40292000Y6093000D01*
X40292000Y6747000D01*
X44765000Y6747000D01*
X44765000Y6347000D01*
X45798000Y6347000D01*
X45798000Y7613163D01*
X45619190Y7738964D01*
X45386136Y7655063D01*
X45194559Y7530047D01*
X45031053Y7370059D01*
X44901901Y7181246D01*
X44812066Y6970865D01*
X44765000Y6747000D01*
X40292000Y6747000D01*
X40292000Y6833526D01*
X42806476Y9348000D01*
X43164854Y9348000D01*
X43111432Y9268048D01*
X43052860Y9126643D01*
X43023001Y8976528D01*
X43023001Y8823472D01*
X43052860Y8673357D01*
X43111432Y8531952D01*
X43196465Y8404691D01*
X43304692Y8296464D01*
X43431953Y8211431D01*
X43573358Y8152859D01*
X43723473Y8123000D01*
X43876529Y8123000D01*
X44026644Y8152859D01*
X44168049Y8211431D01*
X44222778Y8248000D01*
X48367355Y8248000D01*
X47746355Y7627000D01*
X47673472Y7627000D01*
X47523357Y7597141D01*
X47381952Y7538569D01*
X47254691Y7453536D01*
X47146464Y7345309D01*
X47061431Y7218048D01*
X47002859Y7076643D01*
X46999651Y7060517D01*
X46948099Y7181246D01*
X46818947Y7370059D01*
X46655441Y7530047D01*
X46463864Y7655063D01*
X46230810Y7738964D01*
X46052000Y7613163D01*
X46052000Y6347000D01*
X47085000Y6347000D01*
X47085000Y6446678D01*
X47146464Y6354691D01*
X47254691Y6246464D01*
X47381952Y6161431D01*
X47523357Y6102859D01*
X47673472Y6073000D01*
X47826528Y6073000D01*
X47976643Y6102859D01*
X48118048Y6161431D01*
X48245309Y6246464D01*
X48353536Y6354691D01*
X48438569Y6481952D01*
X48497141Y6623357D01*
X48527000Y6773472D01*
X48527000Y6846355D01*
X49328646Y7648000D01*
X52525313Y7648000D01*
X52344559Y7530047D01*
X52181053Y7370059D01*
X52051901Y7181246D01*
X51962066Y6970865D01*
X51915000Y6747000D01*
X51915000Y6347000D01*
X52948000Y6347000D01*
X52948000Y6367000D01*
X53202000Y6367000D01*
X53202000Y6347000D01*
X54235000Y6347000D01*
X54235000Y6747000D01*
X54187934Y6970865D01*
X54098099Y7181246D01*
X53968947Y7370059D01*
X53805441Y7530047D01*
X53624687Y7648000D01*
X54171356Y7648000D01*
X56990508Y4828846D01*
X57007789Y4807789D01*
X57028845Y4790509D01*
X57028846Y4790508D01*
X57091842Y4738809D01*
X57187737Y4687552D01*
X57291789Y4655988D01*
X57400000Y4645330D01*
X57427108Y4648000D01*
X58203155Y4648000D01*
X58254691Y4596464D01*
X58381952Y4511431D01*
X58523357Y4452859D01*
X58673472Y4423000D01*
X58826528Y4423000D01*
X58976643Y4452859D01*
X59118048Y4511431D01*
X59245309Y4596464D01*
X59353536Y4704691D01*
X59438569Y4831952D01*
X59497141Y4973357D01*
X59527000Y5123472D01*
X59527000Y5276528D01*
X59497141Y5426643D01*
X59475040Y5480000D01*
X73991998Y5480000D01*
X74015951Y5236800D01*
X74086890Y5002946D01*
X74202088Y4787425D01*
X74357119Y4598519D01*
X74546025Y4443488D01*
X74761546Y4328290D01*
X74995400Y4257351D01*
X75177660Y4239400D01*
X75822340Y4239400D01*
X76004600Y4257351D01*
X76238454Y4328290D01*
X76453975Y4443488D01*
X76642881Y4598519D01*
X76797912Y4787425D01*
X76913110Y5002946D01*
X76984049Y5236800D01*
X77008002Y5480000D01*
X76984049Y5723200D01*
X76913110Y5957054D01*
X76797912Y6172575D01*
X76642881Y6361481D01*
X76453975Y6516512D01*
X76238454Y6631710D01*
X76004600Y6702649D01*
X75822340Y6720600D01*
X75177660Y6720600D01*
X74995400Y6702649D01*
X74761546Y6631710D01*
X74546025Y6516512D01*
X74357119Y6361481D01*
X74202088Y6172575D01*
X74086890Y5957054D01*
X74015951Y5723200D01*
X73991998Y5480000D01*
X59475040Y5480000D01*
X59446873Y5548000D01*
X61072894Y5548000D01*
X61100000Y5545330D01*
X61127106Y5548000D01*
X61127109Y5548000D01*
X61208211Y5555988D01*
X61312263Y5587552D01*
X61408158Y5638809D01*
X61492211Y5707789D01*
X61509501Y5728857D01*
X63800644Y8020000D01*
X73991998Y8020000D01*
X74015951Y7776800D01*
X74086890Y7542946D01*
X74202088Y7327425D01*
X74357119Y7138519D01*
X74546025Y6983488D01*
X74761546Y6868290D01*
X74995400Y6797351D01*
X75177660Y6779400D01*
X75822340Y6779400D01*
X76004600Y6797351D01*
X76238454Y6868290D01*
X76453975Y6983488D01*
X76642881Y7138519D01*
X76797912Y7327425D01*
X76913110Y7542946D01*
X76984049Y7776800D01*
X77008002Y8020000D01*
X76984049Y8263200D01*
X76913110Y8497054D01*
X76797912Y8712575D01*
X76642881Y8901481D01*
X76453975Y9056512D01*
X76238454Y9171710D01*
X76004600Y9242649D01*
X75822340Y9260600D01*
X75177660Y9260600D01*
X74995400Y9242649D01*
X74761546Y9171710D01*
X74546025Y9056512D01*
X74357119Y8901481D01*
X74202088Y8712575D01*
X74086890Y8497054D01*
X74015951Y8263200D01*
X73991998Y8020000D01*
X63800644Y8020000D01*
X67828646Y12048000D01*
X74122894Y12048000D01*
X74150000Y12045330D01*
X74177106Y12048000D01*
X74177109Y12048000D01*
X74258211Y12055988D01*
X74362263Y12087552D01*
X74455789Y12137543D01*
X74546025Y12063488D01*
G36*
X38752859Y26626643D02*
G01*
X38723000Y26476528D01*
X38723000Y26323472D01*
X38752859Y26173357D01*
X38811431Y26031952D01*
X38896464Y25904691D01*
X39004691Y25796464D01*
X39131952Y25711431D01*
X39273357Y25652859D01*
X39423472Y25623000D01*
X39576528Y25623000D01*
X39726643Y25652859D01*
X39868048Y25711431D01*
X39995309Y25796464D01*
X40103536Y25904691D01*
X40132474Y25948000D01*
X50971356Y25948000D01*
X53148000Y23771355D01*
X53148001Y17680112D01*
X53145330Y17652996D01*
X53151157Y17593842D01*
X53155989Y17544785D01*
X53165564Y17513222D01*
X53187552Y17440734D01*
X53237478Y17347330D01*
X53238810Y17344838D01*
X53307790Y17260785D01*
X53328851Y17243501D01*
X53418508Y17153843D01*
X53435794Y17132780D01*
X53519847Y17063800D01*
X53615742Y17012543D01*
X53719794Y16980979D01*
X53800896Y16972991D01*
X53800906Y16972991D01*
X53828004Y16970322D01*
X53855102Y16972991D01*
X59597885Y16972991D01*
X59624991Y16970321D01*
X59652097Y16972991D01*
X59652100Y16972991D01*
X59733202Y16980979D01*
X59837254Y17012543D01*
X59933149Y17063800D01*
X60017202Y17132780D01*
X60034491Y17153847D01*
X60903645Y18023000D01*
X60976528Y18023000D01*
X61126643Y18052859D01*
X61158348Y18065991D01*
X52567359Y9475001D01*
X52577000Y9523472D01*
X52577000Y9676528D01*
X52547141Y9826643D01*
X52488569Y9968048D01*
X52403536Y10095309D01*
X52295309Y10203536D01*
X52168048Y10288569D01*
X52026643Y10347141D01*
X51876528Y10377000D01*
X51803646Y10377000D01*
X47309501Y14871143D01*
X47292211Y14892211D01*
X47208158Y14961191D01*
X47112263Y15012448D01*
X47008211Y15044012D01*
X46927109Y15052000D01*
X46927106Y15052000D01*
X46900000Y15054670D01*
X46872894Y15052000D01*
X39946845Y15052000D01*
X39895309Y15103536D01*
X39768048Y15188569D01*
X39626643Y15247141D01*
X39476528Y15277000D01*
X39323472Y15277000D01*
X39173357Y15247141D01*
X39031952Y15188569D01*
X38904691Y15103536D01*
X38796464Y14995309D01*
X38750000Y14925771D01*
X38703536Y14995309D01*
X38595309Y15103536D01*
X38468048Y15188569D01*
X38326643Y15247141D01*
X38176528Y15277000D01*
X38023472Y15277000D01*
X37873357Y15247141D01*
X37731952Y15188569D01*
X37604691Y15103536D01*
X37496464Y14995309D01*
X37411431Y14868048D01*
X37352859Y14726643D01*
X37323000Y14576528D01*
X37323000Y14423472D01*
X37352859Y14273357D01*
X37411431Y14131952D01*
X37496464Y14004691D01*
X37548001Y13953154D01*
X37548000Y8228646D01*
X35328852Y6009496D01*
X35307790Y5992211D01*
X35249060Y5920648D01*
X35238809Y5908157D01*
X35187552Y5812262D01*
X35181358Y5791842D01*
X35155989Y5708211D01*
X35154984Y5698009D01*
X35145330Y5600000D01*
X35148001Y5572884D01*
X35148000Y1852104D01*
X35145330Y1824998D01*
X35148000Y1797892D01*
X35148000Y1797890D01*
X35155988Y1716788D01*
X35187552Y1612736D01*
X35238809Y1516840D01*
X35307789Y1432787D01*
X35328856Y1415498D01*
X36215506Y528846D01*
X36232787Y507789D01*
X36253843Y490509D01*
X36253844Y490508D01*
X36300767Y452000D01*
X452000Y452000D01*
X452000Y22455769D01*
X507789Y22387789D01*
X528856Y22370500D01*
X1211024Y21688331D01*
X1156890Y21587054D01*
X1085951Y21353200D01*
X1061998Y21110000D01*
X1085951Y20866800D01*
X1156890Y20632946D01*
X1272088Y20417425D01*
X1427119Y20228519D01*
X1616025Y20073488D01*
X1831546Y19958290D01*
X2065400Y19887351D01*
X2247660Y19869400D01*
X2892340Y19869400D01*
X3074600Y19887351D01*
X3308454Y19958290D01*
X3523975Y20073488D01*
X3712881Y20228519D01*
X3867912Y20417425D01*
X3983110Y20632946D01*
X4054049Y20866800D01*
X4078002Y21110000D01*
X4054049Y21353200D01*
X3983110Y21587054D01*
X3867912Y21802575D01*
X3712881Y21991481D01*
X3523975Y22146512D01*
X3308454Y22261710D01*
X3074600Y22332649D01*
X2892340Y22350600D01*
X2247660Y22350600D01*
X2122384Y22338261D01*
X2019314Y22441331D01*
X2065400Y22427351D01*
X2247660Y22409400D01*
X2892340Y22409400D01*
X3074600Y22427351D01*
X3308454Y22498290D01*
X3523975Y22613488D01*
X3712881Y22768519D01*
X3867912Y22957425D01*
X3983110Y23172946D01*
X3997788Y23221332D01*
X4042211Y23257789D01*
X4059500Y23278856D01*
X5071155Y24290509D01*
X5092211Y24307789D01*
X5149011Y24377000D01*
X5161191Y24391841D01*
X5188588Y24443098D01*
X5212448Y24487737D01*
X5244012Y24591789D01*
X5248001Y24632286D01*
X5248000Y20553646D01*
X3898920Y19204564D01*
X3867912Y19262575D01*
X3712881Y19451481D01*
X3523975Y19606512D01*
X3308454Y19721710D01*
X3074600Y19792649D01*
X2892340Y19810600D01*
X2247660Y19810600D01*
X2065400Y19792649D01*
X1831546Y19721710D01*
X1616025Y19606512D01*
X1427119Y19451481D01*
X1272088Y19262575D01*
X1156890Y19047054D01*
X1085951Y18813200D01*
X1061998Y18570000D01*
X1085951Y18326800D01*
X1156890Y18092946D01*
X1272088Y17877425D01*
X1427119Y17688519D01*
X1616025Y17533488D01*
X1831546Y17418290D01*
X2065400Y17347351D01*
X2247660Y17329400D01*
X2892340Y17329400D01*
X3074600Y17347351D01*
X3308454Y17418290D01*
X3523975Y17533488D01*
X3712881Y17688519D01*
X3867912Y17877425D01*
X3943051Y18018000D01*
X4017894Y18018000D01*
X4045000Y18015330D01*
X4072106Y18018000D01*
X4072109Y18018000D01*
X4153211Y18025988D01*
X4257263Y18057552D01*
X4353158Y18108809D01*
X4437211Y18177789D01*
X4454500Y18198856D01*
X6171154Y19915508D01*
X6192211Y19932789D01*
X6261191Y20016842D01*
X6312448Y20112737D01*
X6344012Y20216789D01*
X6352000Y20297891D01*
X6352000Y20297892D01*
X6354670Y20325000D01*
X6352000Y20352108D01*
X6352000Y26071356D01*
X6978645Y26698000D01*
X38782416Y26698000D01*
X38752859Y26626643D01*
G37*
X38752859Y26626643D02*
X38723000Y26476528D01*
X38723000Y26323472D01*
X38752859Y26173357D01*
X38811431Y26031952D01*
X38896464Y25904691D01*
X39004691Y25796464D01*
X39131952Y25711431D01*
X39273357Y25652859D01*
X39423472Y25623000D01*
X39576528Y25623000D01*
X39726643Y25652859D01*
X39868048Y25711431D01*
X39995309Y25796464D01*
X40103536Y25904691D01*
X40132474Y25948000D01*
X50971356Y25948000D01*
X53148000Y23771355D01*
X53148001Y17680112D01*
X53145330Y17652996D01*
X53151157Y17593842D01*
X53155989Y17544785D01*
X53165564Y17513222D01*
X53187552Y17440734D01*
X53237478Y17347330D01*
X53238810Y17344838D01*
X53307790Y17260785D01*
X53328851Y17243501D01*
X53418508Y17153843D01*
X53435794Y17132780D01*
X53519847Y17063800D01*
X53615742Y17012543D01*
X53719794Y16980979D01*
X53800896Y16972991D01*
X53800906Y16972991D01*
X53828004Y16970322D01*
X53855102Y16972991D01*
X59597885Y16972991D01*
X59624991Y16970321D01*
X59652097Y16972991D01*
X59652100Y16972991D01*
X59733202Y16980979D01*
X59837254Y17012543D01*
X59933149Y17063800D01*
X60017202Y17132780D01*
X60034491Y17153847D01*
X60903645Y18023000D01*
X60976528Y18023000D01*
X61126643Y18052859D01*
X61158348Y18065991D01*
X52567359Y9475001D01*
X52577000Y9523472D01*
X52577000Y9676528D01*
X52547141Y9826643D01*
X52488569Y9968048D01*
X52403536Y10095309D01*
X52295309Y10203536D01*
X52168048Y10288569D01*
X52026643Y10347141D01*
X51876528Y10377000D01*
X51803646Y10377000D01*
X47309501Y14871143D01*
X47292211Y14892211D01*
X47208158Y14961191D01*
X47112263Y15012448D01*
X47008211Y15044012D01*
X46927109Y15052000D01*
X46927106Y15052000D01*
X46900000Y15054670D01*
X46872894Y15052000D01*
X39946845Y15052000D01*
X39895309Y15103536D01*
X39768048Y15188569D01*
X39626643Y15247141D01*
X39476528Y15277000D01*
X39323472Y15277000D01*
X39173357Y15247141D01*
X39031952Y15188569D01*
X38904691Y15103536D01*
X38796464Y14995309D01*
X38750000Y14925771D01*
X38703536Y14995309D01*
X38595309Y15103536D01*
X38468048Y15188569D01*
X38326643Y15247141D01*
X38176528Y15277000D01*
X38023472Y15277000D01*
X37873357Y15247141D01*
X37731952Y15188569D01*
X37604691Y15103536D01*
X37496464Y14995309D01*
X37411431Y14868048D01*
X37352859Y14726643D01*
X37323000Y14576528D01*
X37323000Y14423472D01*
X37352859Y14273357D01*
X37411431Y14131952D01*
X37496464Y14004691D01*
X37548001Y13953154D01*
X37548000Y8228646D01*
X35328852Y6009496D01*
X35307790Y5992211D01*
X35249060Y5920648D01*
X35238809Y5908157D01*
X35187552Y5812262D01*
X35181358Y5791842D01*
X35155989Y5708211D01*
X35154984Y5698009D01*
X35145330Y5600000D01*
X35148001Y5572884D01*
X35148000Y1852104D01*
X35145330Y1824998D01*
X35148000Y1797892D01*
X35148000Y1797890D01*
X35155988Y1716788D01*
X35187552Y1612736D01*
X35238809Y1516840D01*
X35307789Y1432787D01*
X35328856Y1415498D01*
X36215506Y528846D01*
X36232787Y507789D01*
X36253843Y490509D01*
X36253844Y490508D01*
X36300767Y452000D01*
X452000Y452000D01*
X452000Y22455769D01*
X507789Y22387789D01*
X528856Y22370500D01*
X1211024Y21688331D01*
X1156890Y21587054D01*
X1085951Y21353200D01*
X1061998Y21110000D01*
X1085951Y20866800D01*
X1156890Y20632946D01*
X1272088Y20417425D01*
X1427119Y20228519D01*
X1616025Y20073488D01*
X1831546Y19958290D01*
X2065400Y19887351D01*
X2247660Y19869400D01*
X2892340Y19869400D01*
X3074600Y19887351D01*
X3308454Y19958290D01*
X3523975Y20073488D01*
X3712881Y20228519D01*
X3867912Y20417425D01*
X3983110Y20632946D01*
X4054049Y20866800D01*
X4078002Y21110000D01*
X4054049Y21353200D01*
X3983110Y21587054D01*
X3867912Y21802575D01*
X3712881Y21991481D01*
X3523975Y22146512D01*
X3308454Y22261710D01*
X3074600Y22332649D01*
X2892340Y22350600D01*
X2247660Y22350600D01*
X2122384Y22338261D01*
X2019314Y22441331D01*
X2065400Y22427351D01*
X2247660Y22409400D01*
X2892340Y22409400D01*
X3074600Y22427351D01*
X3308454Y22498290D01*
X3523975Y22613488D01*
X3712881Y22768519D01*
X3867912Y22957425D01*
X3983110Y23172946D01*
X3997788Y23221332D01*
X4042211Y23257789D01*
X4059500Y23278856D01*
X5071155Y24290509D01*
X5092211Y24307789D01*
X5149011Y24377000D01*
X5161191Y24391841D01*
X5188588Y24443098D01*
X5212448Y24487737D01*
X5244012Y24591789D01*
X5248001Y24632286D01*
X5248000Y20553646D01*
X3898920Y19204564D01*
X3867912Y19262575D01*
X3712881Y19451481D01*
X3523975Y19606512D01*
X3308454Y19721710D01*
X3074600Y19792649D01*
X2892340Y19810600D01*
X2247660Y19810600D01*
X2065400Y19792649D01*
X1831546Y19721710D01*
X1616025Y19606512D01*
X1427119Y19451481D01*
X1272088Y19262575D01*
X1156890Y19047054D01*
X1085951Y18813200D01*
X1061998Y18570000D01*
X1085951Y18326800D01*
X1156890Y18092946D01*
X1272088Y17877425D01*
X1427119Y17688519D01*
X1616025Y17533488D01*
X1831546Y17418290D01*
X2065400Y17347351D01*
X2247660Y17329400D01*
X2892340Y17329400D01*
X3074600Y17347351D01*
X3308454Y17418290D01*
X3523975Y17533488D01*
X3712881Y17688519D01*
X3867912Y17877425D01*
X3943051Y18018000D01*
X4017894Y18018000D01*
X4045000Y18015330D01*
X4072106Y18018000D01*
X4072109Y18018000D01*
X4153211Y18025988D01*
X4257263Y18057552D01*
X4353158Y18108809D01*
X4437211Y18177789D01*
X4454500Y18198856D01*
X6171154Y19915508D01*
X6192211Y19932789D01*
X6261191Y20016842D01*
X6312448Y20112737D01*
X6344012Y20216789D01*
X6352000Y20297891D01*
X6352000Y20297892D01*
X6354670Y20325000D01*
X6352000Y20352108D01*
X6352000Y26071356D01*
X6978645Y26698000D01*
X38782416Y26698000D01*
X38752859Y26626643D01*
G36*
X68950508Y15268851D02*
G01*
X68967793Y15247789D01*
X69051846Y15178809D01*
X69147741Y15127552D01*
X69251793Y15095988D01*
X69332895Y15088000D01*
X69332898Y15088000D01*
X69360004Y15085330D01*
X69387110Y15088000D01*
X74126949Y15088000D01*
X74202088Y14947425D01*
X74357119Y14758519D01*
X74546025Y14603488D01*
X74761546Y14488290D01*
X74995400Y14417351D01*
X75177660Y14399400D01*
X75822340Y14399400D01*
X76004600Y14417351D01*
X76238454Y14488290D01*
X76448001Y14600295D01*
X76448001Y14139705D01*
X76238454Y14251710D01*
X76004600Y14322649D01*
X75822340Y14340600D01*
X75177660Y14340600D01*
X74995400Y14322649D01*
X74761546Y14251710D01*
X74546025Y14136512D01*
X74357119Y13981481D01*
X74202088Y13792575D01*
X74086890Y13577054D01*
X74015951Y13343200D01*
X74005397Y13236042D01*
X73921355Y13152000D01*
X71438303Y13152000D01*
X71447149Y13173357D01*
X71477008Y13323472D01*
X71477008Y13476528D01*
X71447149Y13626643D01*
X71388577Y13768048D01*
X71303544Y13895309D01*
X71195317Y14003536D01*
X71068056Y14088569D01*
X70926651Y14147141D01*
X70776536Y14177000D01*
X70623480Y14177000D01*
X70473365Y14147141D01*
X70331960Y14088569D01*
X70204699Y14003536D01*
X70153163Y13952000D01*
X69028646Y13952000D01*
X65777000Y17203644D01*
X65777000Y17276528D01*
X65747141Y17426643D01*
X65688569Y17568048D01*
X65603536Y17695309D01*
X65495309Y17803536D01*
X65368048Y17888569D01*
X65226643Y17947141D01*
X65076528Y17977000D01*
X64923472Y17977000D01*
X64773357Y17947141D01*
X64631952Y17888569D01*
X64504691Y17803536D01*
X64396464Y17695309D01*
X64311431Y17568048D01*
X64252859Y17426643D01*
X64223000Y17276528D01*
X64223000Y17123472D01*
X64252859Y16973357D01*
X64311431Y16831952D01*
X64396464Y16704691D01*
X64504691Y16596464D01*
X64631952Y16511431D01*
X64773357Y16452859D01*
X64923472Y16423000D01*
X64996356Y16423000D01*
X68267354Y13152000D01*
X67627105Y13152000D01*
X67599999Y13154670D01*
X67572893Y13152000D01*
X67572891Y13152000D01*
X67491789Y13144012D01*
X67387737Y13112448D01*
X67291842Y13061191D01*
X67207789Y12992211D01*
X67190508Y12971154D01*
X60871356Y6652000D01*
X58014729Y6652000D01*
X56052000Y8614728D01*
X56052000Y9553155D01*
X56103536Y9604691D01*
X56188569Y9731952D01*
X56247141Y9873357D01*
X56277000Y10023472D01*
X56277000Y10176528D01*
X56247141Y10326643D01*
X56188569Y10468048D01*
X56103536Y10595309D01*
X55995309Y10703536D01*
X55868048Y10788569D01*
X55726643Y10847141D01*
X55576528Y10877000D01*
X55530647Y10877000D01*
X61848001Y17194353D01*
X61848000Y10728646D01*
X60051354Y8931998D01*
X59978470Y8931998D01*
X59828355Y8902139D01*
X59686950Y8843567D01*
X59559689Y8758534D01*
X59451462Y8650307D01*
X59366429Y8523046D01*
X59307857Y8381641D01*
X59277998Y8231526D01*
X59277998Y8078470D01*
X59307857Y7928355D01*
X59366429Y7786950D01*
X59451462Y7659689D01*
X59559689Y7551462D01*
X59686950Y7466429D01*
X59828355Y7407857D01*
X59978470Y7377998D01*
X60131526Y7377998D01*
X60281641Y7407857D01*
X60423046Y7466429D01*
X60550307Y7551462D01*
X60658534Y7659689D01*
X60743567Y7786950D01*
X60802139Y7928355D01*
X60831998Y8078470D01*
X60831998Y8151354D01*
X62771154Y10090508D01*
X62792211Y10107789D01*
X62861191Y10191842D01*
X62912448Y10287737D01*
X62944012Y10391789D01*
X62952000Y10472891D01*
X62952000Y10472892D01*
X62954670Y10500000D01*
X62952000Y10527108D01*
X62952000Y11064853D01*
X63031952Y11011431D01*
X63173357Y10952859D01*
X63323472Y10923000D01*
X63476528Y10923000D01*
X63626643Y10952859D01*
X63768048Y11011431D01*
X63895309Y11096464D01*
X64003536Y11204691D01*
X64088569Y11331952D01*
X64147141Y11473357D01*
X64177000Y11623472D01*
X64177000Y11776528D01*
X64147141Y11926643D01*
X64088569Y12068048D01*
X64003536Y12195309D01*
X63952000Y12246845D01*
X63952000Y20267360D01*
X68950508Y15268851D01*
G37*
X68950508Y15268851D02*
X68967793Y15247789D01*
X69051846Y15178809D01*
X69147741Y15127552D01*
X69251793Y15095988D01*
X69332895Y15088000D01*
X69332898Y15088000D01*
X69360004Y15085330D01*
X69387110Y15088000D01*
X74126949Y15088000D01*
X74202088Y14947425D01*
X74357119Y14758519D01*
X74546025Y14603488D01*
X74761546Y14488290D01*
X74995400Y14417351D01*
X75177660Y14399400D01*
X75822340Y14399400D01*
X76004600Y14417351D01*
X76238454Y14488290D01*
X76448001Y14600295D01*
X76448001Y14139705D01*
X76238454Y14251710D01*
X76004600Y14322649D01*
X75822340Y14340600D01*
X75177660Y14340600D01*
X74995400Y14322649D01*
X74761546Y14251710D01*
X74546025Y14136512D01*
X74357119Y13981481D01*
X74202088Y13792575D01*
X74086890Y13577054D01*
X74015951Y13343200D01*
X74005397Y13236042D01*
X73921355Y13152000D01*
X71438303Y13152000D01*
X71447149Y13173357D01*
X71477008Y13323472D01*
X71477008Y13476528D01*
X71447149Y13626643D01*
X71388577Y13768048D01*
X71303544Y13895309D01*
X71195317Y14003536D01*
X71068056Y14088569D01*
X70926651Y14147141D01*
X70776536Y14177000D01*
X70623480Y14177000D01*
X70473365Y14147141D01*
X70331960Y14088569D01*
X70204699Y14003536D01*
X70153163Y13952000D01*
X69028646Y13952000D01*
X65777000Y17203644D01*
X65777000Y17276528D01*
X65747141Y17426643D01*
X65688569Y17568048D01*
X65603536Y17695309D01*
X65495309Y17803536D01*
X65368048Y17888569D01*
X65226643Y17947141D01*
X65076528Y17977000D01*
X64923472Y17977000D01*
X64773357Y17947141D01*
X64631952Y17888569D01*
X64504691Y17803536D01*
X64396464Y17695309D01*
X64311431Y17568048D01*
X64252859Y17426643D01*
X64223000Y17276528D01*
X64223000Y17123472D01*
X64252859Y16973357D01*
X64311431Y16831952D01*
X64396464Y16704691D01*
X64504691Y16596464D01*
X64631952Y16511431D01*
X64773357Y16452859D01*
X64923472Y16423000D01*
X64996356Y16423000D01*
X68267354Y13152000D01*
X67627105Y13152000D01*
X67599999Y13154670D01*
X67572893Y13152000D01*
X67572891Y13152000D01*
X67491789Y13144012D01*
X67387737Y13112448D01*
X67291842Y13061191D01*
X67207789Y12992211D01*
X67190508Y12971154D01*
X60871356Y6652000D01*
X58014729Y6652000D01*
X56052000Y8614728D01*
X56052000Y9553155D01*
X56103536Y9604691D01*
X56188569Y9731952D01*
X56247141Y9873357D01*
X56277000Y10023472D01*
X56277000Y10176528D01*
X56247141Y10326643D01*
X56188569Y10468048D01*
X56103536Y10595309D01*
X55995309Y10703536D01*
X55868048Y10788569D01*
X55726643Y10847141D01*
X55576528Y10877000D01*
X55530647Y10877000D01*
X61848001Y17194353D01*
X61848000Y10728646D01*
X60051354Y8931998D01*
X59978470Y8931998D01*
X59828355Y8902139D01*
X59686950Y8843567D01*
X59559689Y8758534D01*
X59451462Y8650307D01*
X59366429Y8523046D01*
X59307857Y8381641D01*
X59277998Y8231526D01*
X59277998Y8078470D01*
X59307857Y7928355D01*
X59366429Y7786950D01*
X59451462Y7659689D01*
X59559689Y7551462D01*
X59686950Y7466429D01*
X59828355Y7407857D01*
X59978470Y7377998D01*
X60131526Y7377998D01*
X60281641Y7407857D01*
X60423046Y7466429D01*
X60550307Y7551462D01*
X60658534Y7659689D01*
X60743567Y7786950D01*
X60802139Y7928355D01*
X60831998Y8078470D01*
X60831998Y8151354D01*
X62771154Y10090508D01*
X62792211Y10107789D01*
X62861191Y10191842D01*
X62912448Y10287737D01*
X62944012Y10391789D01*
X62952000Y10472891D01*
X62952000Y10472892D01*
X62954670Y10500000D01*
X62952000Y10527108D01*
X62952000Y11064853D01*
X63031952Y11011431D01*
X63173357Y10952859D01*
X63323472Y10923000D01*
X63476528Y10923000D01*
X63626643Y10952859D01*
X63768048Y11011431D01*
X63895309Y11096464D01*
X64003536Y11204691D01*
X64088569Y11331952D01*
X64147141Y11473357D01*
X64177000Y11623472D01*
X64177000Y11776528D01*
X64147141Y11926643D01*
X64088569Y12068048D01*
X64003536Y12195309D01*
X63952000Y12246845D01*
X63952000Y20267360D01*
X68950508Y15268851D01*
G36*
X77548000Y24367716D02*
G01*
X77544012Y24408211D01*
X77512448Y24512263D01*
X77472969Y24586123D01*
X77461191Y24608159D01*
X77409491Y24671155D01*
X77392211Y24692211D01*
X77371154Y24709492D01*
X76858976Y25221669D01*
X76913110Y25322946D01*
X76984049Y25556800D01*
X77008002Y25800000D01*
X76984049Y26043200D01*
X76913110Y26277054D01*
X76797912Y26492575D01*
X76642881Y26681481D01*
X76453975Y26836512D01*
X76238454Y26951710D01*
X76004600Y27022649D01*
X75822340Y27040600D01*
X75177660Y27040600D01*
X74995400Y27022649D01*
X74761546Y26951710D01*
X74546025Y26836512D01*
X74357119Y26681481D01*
X74202088Y26492575D01*
X74086890Y26277054D01*
X74015951Y26043200D01*
X73991998Y25800000D01*
X74015951Y25556800D01*
X74086890Y25322946D01*
X74202088Y25107425D01*
X74357119Y24918519D01*
X74546025Y24763488D01*
X74761546Y24648290D01*
X74995400Y24577351D01*
X75177660Y24559400D01*
X75822340Y24559400D01*
X75947616Y24571739D01*
X76050686Y24468669D01*
X76004600Y24482649D01*
X75822340Y24500600D01*
X75177660Y24500600D01*
X74995400Y24482649D01*
X74761546Y24411710D01*
X74546025Y24296512D01*
X74357119Y24141481D01*
X74202088Y23952575D01*
X74086890Y23737054D01*
X74015951Y23503200D01*
X73991998Y23260000D01*
X74015951Y23016800D01*
X74086890Y22782946D01*
X74202088Y22567425D01*
X74357119Y22378519D01*
X74546025Y22223488D01*
X74761546Y22108290D01*
X74995400Y22037351D01*
X75177660Y22019400D01*
X75822340Y22019400D01*
X76004600Y22037351D01*
X76238454Y22108290D01*
X76448000Y22220294D01*
X76448000Y21759706D01*
X76238454Y21871710D01*
X76004600Y21942649D01*
X75822340Y21960600D01*
X75177660Y21960600D01*
X74995400Y21942649D01*
X74761546Y21871710D01*
X74546025Y21756512D01*
X74357119Y21601481D01*
X74202088Y21412575D01*
X74126949Y21272000D01*
X67408646Y21272000D01*
X65251990Y23428654D01*
X65251990Y25553155D01*
X65303526Y25604691D01*
X65388559Y25731952D01*
X65447131Y25873357D01*
X65476990Y26023472D01*
X65476990Y26176528D01*
X65447131Y26326643D01*
X65388559Y26468048D01*
X65303526Y26595309D01*
X65195299Y26703536D01*
X65068038Y26788569D01*
X64926633Y26847141D01*
X64776518Y26877000D01*
X64623462Y26877000D01*
X64473347Y26847141D01*
X64331942Y26788569D01*
X64204681Y26703536D01*
X64096454Y26595309D01*
X64011421Y26468048D01*
X63952849Y26326643D01*
X63922990Y26176528D01*
X63922990Y26023472D01*
X63952849Y25873357D01*
X64011421Y25731952D01*
X64096454Y25604691D01*
X64147991Y25553154D01*
X64147990Y23227116D01*
X64145320Y23200010D01*
X64147990Y23172904D01*
X64147990Y23172902D01*
X64155978Y23091800D01*
X64185211Y22995431D01*
X63576998Y23603644D01*
X63576998Y23676528D01*
X63547139Y23826643D01*
X63488567Y23968048D01*
X63403534Y24095309D01*
X63295307Y24203536D01*
X63168046Y24288569D01*
X63026641Y24347141D01*
X62876526Y24377000D01*
X62723470Y24377000D01*
X62573355Y24347141D01*
X62431950Y24288569D01*
X62304689Y24203536D01*
X62196462Y24095309D01*
X62111429Y23968048D01*
X62052857Y23826643D01*
X62022998Y23676528D01*
X62022998Y23523472D01*
X62052857Y23373357D01*
X62111429Y23231952D01*
X62196462Y23104691D01*
X62304689Y22996464D01*
X62431950Y22911431D01*
X62459550Y22899999D01*
X62431956Y22888569D01*
X62304695Y22803536D01*
X62196468Y22695309D01*
X62111435Y22568048D01*
X62068719Y22464922D01*
X61852330Y22681310D01*
X61852330Y23827015D01*
X61903866Y23878551D01*
X61988899Y24005812D01*
X62047471Y24147217D01*
X62077330Y24297332D01*
X62077330Y24450388D01*
X62047471Y24600503D01*
X61988899Y24741908D01*
X61903866Y24869169D01*
X61795639Y24977396D01*
X61668378Y25062429D01*
X61526973Y25121001D01*
X61376858Y25150860D01*
X61223802Y25150860D01*
X61073687Y25121001D01*
X60951992Y25070593D01*
X60951992Y25153155D01*
X61003528Y25204691D01*
X61088561Y25331952D01*
X61147133Y25473357D01*
X61176992Y25623472D01*
X61176992Y25776528D01*
X61147133Y25926643D01*
X61138287Y25948000D01*
X62453155Y25948000D01*
X62504691Y25896464D01*
X62631952Y25811431D01*
X62773357Y25752859D01*
X62923472Y25723000D01*
X63076528Y25723000D01*
X63226643Y25752859D01*
X63368048Y25811431D01*
X63495309Y25896464D01*
X63603536Y26004691D01*
X63688569Y26131952D01*
X63747141Y26273357D01*
X63777000Y26423472D01*
X63777000Y26576528D01*
X63747141Y26726643D01*
X63688569Y26868048D01*
X63635148Y26947998D01*
X68253155Y26947998D01*
X68304691Y26896462D01*
X68431952Y26811429D01*
X68573357Y26752857D01*
X68723472Y26722998D01*
X68876528Y26722998D01*
X69026643Y26752857D01*
X69168048Y26811429D01*
X69295309Y26896462D01*
X69403536Y27004689D01*
X69488569Y27131950D01*
X69547141Y27273355D01*
X69577000Y27423470D01*
X69577000Y27576526D01*
X69547141Y27726641D01*
X69521725Y27788000D01*
X74126949Y27788000D01*
X74202088Y27647425D01*
X74357119Y27458519D01*
X74546025Y27303488D01*
X74761546Y27188290D01*
X74995400Y27117351D01*
X75177660Y27099400D01*
X75822340Y27099400D01*
X76004600Y27117351D01*
X76238454Y27188290D01*
X76453975Y27303488D01*
X76642881Y27458519D01*
X76797912Y27647425D01*
X76913110Y27862946D01*
X76984049Y28096800D01*
X77008002Y28340000D01*
X76984049Y28583200D01*
X76913110Y28817054D01*
X76797912Y29032575D01*
X76642881Y29221481D01*
X76453975Y29376512D01*
X76238454Y29491710D01*
X76004600Y29562649D01*
X75822340Y29580600D01*
X75177660Y29580600D01*
X74995400Y29562649D01*
X74761546Y29491710D01*
X74546025Y29376512D01*
X74357119Y29221481D01*
X74202088Y29032575D01*
X74126949Y28892000D01*
X68747807Y28892000D01*
X70183809Y30328000D01*
X74126949Y30328000D01*
X74202088Y30187425D01*
X74357119Y29998519D01*
X74546025Y29843488D01*
X74761546Y29728290D01*
X74995400Y29657351D01*
X75177660Y29639400D01*
X75822340Y29639400D01*
X76004600Y29657351D01*
X76238454Y29728290D01*
X76453975Y29843488D01*
X76642881Y29998519D01*
X76797912Y30187425D01*
X76913110Y30402946D01*
X76984049Y30636800D01*
X77008002Y30880000D01*
X76984049Y31123200D01*
X76913110Y31357054D01*
X76797912Y31572575D01*
X76642881Y31761481D01*
X76453975Y31916512D01*
X76238454Y32031710D01*
X76004600Y32102649D01*
X75822340Y32120600D01*
X75177660Y32120600D01*
X74995400Y32102649D01*
X74761546Y32031710D01*
X74546025Y31916512D01*
X74357119Y31761481D01*
X74202088Y31572575D01*
X74126949Y31432000D01*
X69982271Y31432000D01*
X69955163Y31434670D01*
X69928054Y31432000D01*
X69846952Y31424012D01*
X69742900Y31392448D01*
X69647005Y31341191D01*
X69562952Y31272211D01*
X69545671Y31251154D01*
X67871532Y29577013D01*
X56952121Y29577013D01*
X56925013Y29579683D01*
X56897904Y29577013D01*
X56816802Y29569025D01*
X56712750Y29537461D01*
X56616855Y29486204D01*
X56532802Y29417224D01*
X56515521Y29396167D01*
X55228850Y28109494D01*
X55228845Y28109490D01*
X55196355Y28077000D01*
X55123472Y28077000D01*
X54973357Y28047141D01*
X54949943Y28037442D01*
X54977000Y28173472D01*
X54977000Y28326528D01*
X54947141Y28476643D01*
X54888569Y28618048D01*
X54803536Y28745309D01*
X54752000Y28796845D01*
X54752000Y29388584D01*
X54754669Y29415682D01*
X54752000Y29442780D01*
X54752000Y29442790D01*
X54744012Y29523892D01*
X54712448Y29627944D01*
X54680623Y29687484D01*
X54661191Y29723840D01*
X54609491Y29786836D01*
X54592211Y29807892D01*
X54571154Y29825173D01*
X54048326Y30348000D01*
X64377795Y30348000D01*
X64400000Y30345813D01*
X64422205Y30348000D01*
X64488607Y30354540D01*
X64573810Y30380386D01*
X64652333Y30422357D01*
X64721159Y30478841D01*
X64777643Y30547667D01*
X64819614Y30626190D01*
X64845460Y30711393D01*
X64854187Y30800000D01*
X64852000Y30822205D01*
X64852000Y35600974D01*
X73783642Y35600974D01*
X73805473Y35503843D01*
X73922002Y35233019D01*
X74089127Y34990132D01*
X74300426Y34784517D01*
X74547778Y34624075D01*
X74726400Y34552924D01*
X74546025Y34456512D01*
X74357119Y34301481D01*
X74202088Y34112575D01*
X74086890Y33897054D01*
X74072212Y33848668D01*
X74027789Y33812211D01*
X73958809Y33728158D01*
X73907552Y33632263D01*
X73875988Y33528211D01*
X73865330Y33420000D01*
X73875988Y33311789D01*
X73907552Y33207737D01*
X73958809Y33111842D01*
X74027789Y33027789D01*
X74072212Y32991332D01*
X74086890Y32942946D01*
X74202088Y32727425D01*
X74357119Y32538519D01*
X74546025Y32383488D01*
X74761546Y32268290D01*
X74995400Y32197351D01*
X75177660Y32179400D01*
X75822340Y32179400D01*
X76004600Y32197351D01*
X76238454Y32268290D01*
X76453975Y32383488D01*
X76642881Y32538519D01*
X76797912Y32727425D01*
X76913110Y32942946D01*
X76984049Y33176800D01*
X77008002Y33420000D01*
X76984049Y33663200D01*
X76913110Y33897054D01*
X76797912Y34112575D01*
X76642881Y34301481D01*
X76453975Y34456512D01*
X76273600Y34552924D01*
X76452222Y34624075D01*
X76699574Y34784517D01*
X76910873Y34990132D01*
X77077998Y35233019D01*
X77194527Y35503843D01*
X77216358Y35600974D01*
X77095217Y35833000D01*
X75627000Y35833000D01*
X75627000Y35813000D01*
X75373000Y35813000D01*
X75373000Y35833000D01*
X73904783Y35833000D01*
X73783642Y35600974D01*
X64852000Y35600974D01*
X64852000Y36319026D01*
X73783642Y36319026D01*
X73904783Y36087000D01*
X75373000Y36087000D01*
X75373000Y36107000D01*
X75627000Y36107000D01*
X75627000Y36087000D01*
X77095217Y36087000D01*
X77216358Y36319026D01*
X77194527Y36416157D01*
X77077998Y36686981D01*
X76910873Y36929868D01*
X76699574Y37135483D01*
X76511344Y37257576D01*
X76625000Y37257576D01*
X76698905Y37264855D01*
X76769970Y37286412D01*
X76835463Y37321419D01*
X76892869Y37368531D01*
X76939981Y37425937D01*
X76974988Y37491430D01*
X76996545Y37562495D01*
X77003824Y37636400D01*
X77003824Y39363600D01*
X76996545Y39437505D01*
X76974988Y39508570D01*
X76939981Y39574063D01*
X76892869Y39631469D01*
X76835463Y39678581D01*
X76769970Y39713588D01*
X76698905Y39735145D01*
X76625000Y39742424D01*
X74375000Y39742424D01*
X74301095Y39735145D01*
X74230030Y39713588D01*
X74164537Y39678581D01*
X74107131Y39631469D01*
X74060019Y39574063D01*
X74025012Y39508570D01*
X74003455Y39437505D01*
X73996176Y39363600D01*
X73996176Y37636400D01*
X74003455Y37562495D01*
X74025012Y37491430D01*
X74060019Y37425937D01*
X74107131Y37368531D01*
X74164537Y37321419D01*
X74230030Y37286412D01*
X74301095Y37264855D01*
X74375000Y37257576D01*
X74488656Y37257576D01*
X74300426Y37135483D01*
X74089127Y36929868D01*
X73922002Y36686981D01*
X73805473Y36416157D01*
X73783642Y36319026D01*
X64852000Y36319026D01*
X64852000Y43548000D01*
X77548000Y43548000D01*
X77548000Y24367716D01*
G37*
X77548000Y24367716D02*
X77544012Y24408211D01*
X77512448Y24512263D01*
X77472969Y24586123D01*
X77461191Y24608159D01*
X77409491Y24671155D01*
X77392211Y24692211D01*
X77371154Y24709492D01*
X76858976Y25221669D01*
X76913110Y25322946D01*
X76984049Y25556800D01*
X77008002Y25800000D01*
X76984049Y26043200D01*
X76913110Y26277054D01*
X76797912Y26492575D01*
X76642881Y26681481D01*
X76453975Y26836512D01*
X76238454Y26951710D01*
X76004600Y27022649D01*
X75822340Y27040600D01*
X75177660Y27040600D01*
X74995400Y27022649D01*
X74761546Y26951710D01*
X74546025Y26836512D01*
X74357119Y26681481D01*
X74202088Y26492575D01*
X74086890Y26277054D01*
X74015951Y26043200D01*
X73991998Y25800000D01*
X74015951Y25556800D01*
X74086890Y25322946D01*
X74202088Y25107425D01*
X74357119Y24918519D01*
X74546025Y24763488D01*
X74761546Y24648290D01*
X74995400Y24577351D01*
X75177660Y24559400D01*
X75822340Y24559400D01*
X75947616Y24571739D01*
X76050686Y24468669D01*
X76004600Y24482649D01*
X75822340Y24500600D01*
X75177660Y24500600D01*
X74995400Y24482649D01*
X74761546Y24411710D01*
X74546025Y24296512D01*
X74357119Y24141481D01*
X74202088Y23952575D01*
X74086890Y23737054D01*
X74015951Y23503200D01*
X73991998Y23260000D01*
X74015951Y23016800D01*
X74086890Y22782946D01*
X74202088Y22567425D01*
X74357119Y22378519D01*
X74546025Y22223488D01*
X74761546Y22108290D01*
X74995400Y22037351D01*
X75177660Y22019400D01*
X75822340Y22019400D01*
X76004600Y22037351D01*
X76238454Y22108290D01*
X76448000Y22220294D01*
X76448000Y21759706D01*
X76238454Y21871710D01*
X76004600Y21942649D01*
X75822340Y21960600D01*
X75177660Y21960600D01*
X74995400Y21942649D01*
X74761546Y21871710D01*
X74546025Y21756512D01*
X74357119Y21601481D01*
X74202088Y21412575D01*
X74126949Y21272000D01*
X67408646Y21272000D01*
X65251990Y23428654D01*
X65251990Y25553155D01*
X65303526Y25604691D01*
X65388559Y25731952D01*
X65447131Y25873357D01*
X65476990Y26023472D01*
X65476990Y26176528D01*
X65447131Y26326643D01*
X65388559Y26468048D01*
X65303526Y26595309D01*
X65195299Y26703536D01*
X65068038Y26788569D01*
X64926633Y26847141D01*
X64776518Y26877000D01*
X64623462Y26877000D01*
X64473347Y26847141D01*
X64331942Y26788569D01*
X64204681Y26703536D01*
X64096454Y26595309D01*
X64011421Y26468048D01*
X63952849Y26326643D01*
X63922990Y26176528D01*
X63922990Y26023472D01*
X63952849Y25873357D01*
X64011421Y25731952D01*
X64096454Y25604691D01*
X64147991Y25553154D01*
X64147990Y23227116D01*
X64145320Y23200010D01*
X64147990Y23172904D01*
X64147990Y23172902D01*
X64155978Y23091800D01*
X64185211Y22995431D01*
X63576998Y23603644D01*
X63576998Y23676528D01*
X63547139Y23826643D01*
X63488567Y23968048D01*
X63403534Y24095309D01*
X63295307Y24203536D01*
X63168046Y24288569D01*
X63026641Y24347141D01*
X62876526Y24377000D01*
X62723470Y24377000D01*
X62573355Y24347141D01*
X62431950Y24288569D01*
X62304689Y24203536D01*
X62196462Y24095309D01*
X62111429Y23968048D01*
X62052857Y23826643D01*
X62022998Y23676528D01*
X62022998Y23523472D01*
X62052857Y23373357D01*
X62111429Y23231952D01*
X62196462Y23104691D01*
X62304689Y22996464D01*
X62431950Y22911431D01*
X62459550Y22899999D01*
X62431956Y22888569D01*
X62304695Y22803536D01*
X62196468Y22695309D01*
X62111435Y22568048D01*
X62068719Y22464922D01*
X61852330Y22681310D01*
X61852330Y23827015D01*
X61903866Y23878551D01*
X61988899Y24005812D01*
X62047471Y24147217D01*
X62077330Y24297332D01*
X62077330Y24450388D01*
X62047471Y24600503D01*
X61988899Y24741908D01*
X61903866Y24869169D01*
X61795639Y24977396D01*
X61668378Y25062429D01*
X61526973Y25121001D01*
X61376858Y25150860D01*
X61223802Y25150860D01*
X61073687Y25121001D01*
X60951992Y25070593D01*
X60951992Y25153155D01*
X61003528Y25204691D01*
X61088561Y25331952D01*
X61147133Y25473357D01*
X61176992Y25623472D01*
X61176992Y25776528D01*
X61147133Y25926643D01*
X61138287Y25948000D01*
X62453155Y25948000D01*
X62504691Y25896464D01*
X62631952Y25811431D01*
X62773357Y25752859D01*
X62923472Y25723000D01*
X63076528Y25723000D01*
X63226643Y25752859D01*
X63368048Y25811431D01*
X63495309Y25896464D01*
X63603536Y26004691D01*
X63688569Y26131952D01*
X63747141Y26273357D01*
X63777000Y26423472D01*
X63777000Y26576528D01*
X63747141Y26726643D01*
X63688569Y26868048D01*
X63635148Y26947998D01*
X68253155Y26947998D01*
X68304691Y26896462D01*
X68431952Y26811429D01*
X68573357Y26752857D01*
X68723472Y26722998D01*
X68876528Y26722998D01*
X69026643Y26752857D01*
X69168048Y26811429D01*
X69295309Y26896462D01*
X69403536Y27004689D01*
X69488569Y27131950D01*
X69547141Y27273355D01*
X69577000Y27423470D01*
X69577000Y27576526D01*
X69547141Y27726641D01*
X69521725Y27788000D01*
X74126949Y27788000D01*
X74202088Y27647425D01*
X74357119Y27458519D01*
X74546025Y27303488D01*
X74761546Y27188290D01*
X74995400Y27117351D01*
X75177660Y27099400D01*
X75822340Y27099400D01*
X76004600Y27117351D01*
X76238454Y27188290D01*
X76453975Y27303488D01*
X76642881Y27458519D01*
X76797912Y27647425D01*
X76913110Y27862946D01*
X76984049Y28096800D01*
X77008002Y28340000D01*
X76984049Y28583200D01*
X76913110Y28817054D01*
X76797912Y29032575D01*
X76642881Y29221481D01*
X76453975Y29376512D01*
X76238454Y29491710D01*
X76004600Y29562649D01*
X75822340Y29580600D01*
X75177660Y29580600D01*
X74995400Y29562649D01*
X74761546Y29491710D01*
X74546025Y29376512D01*
X74357119Y29221481D01*
X74202088Y29032575D01*
X74126949Y28892000D01*
X68747807Y28892000D01*
X70183809Y30328000D01*
X74126949Y30328000D01*
X74202088Y30187425D01*
X74357119Y29998519D01*
X74546025Y29843488D01*
X74761546Y29728290D01*
X74995400Y29657351D01*
X75177660Y29639400D01*
X75822340Y29639400D01*
X76004600Y29657351D01*
X76238454Y29728290D01*
X76453975Y29843488D01*
X76642881Y29998519D01*
X76797912Y30187425D01*
X76913110Y30402946D01*
X76984049Y30636800D01*
X77008002Y30880000D01*
X76984049Y31123200D01*
X76913110Y31357054D01*
X76797912Y31572575D01*
X76642881Y31761481D01*
X76453975Y31916512D01*
X76238454Y32031710D01*
X76004600Y32102649D01*
X75822340Y32120600D01*
X75177660Y32120600D01*
X74995400Y32102649D01*
X74761546Y32031710D01*
X74546025Y31916512D01*
X74357119Y31761481D01*
X74202088Y31572575D01*
X74126949Y31432000D01*
X69982271Y31432000D01*
X69955163Y31434670D01*
X69928054Y31432000D01*
X69846952Y31424012D01*
X69742900Y31392448D01*
X69647005Y31341191D01*
X69562952Y31272211D01*
X69545671Y31251154D01*
X67871532Y29577013D01*
X56952121Y29577013D01*
X56925013Y29579683D01*
X56897904Y29577013D01*
X56816802Y29569025D01*
X56712750Y29537461D01*
X56616855Y29486204D01*
X56532802Y29417224D01*
X56515521Y29396167D01*
X55228850Y28109494D01*
X55228845Y28109490D01*
X55196355Y28077000D01*
X55123472Y28077000D01*
X54973357Y28047141D01*
X54949943Y28037442D01*
X54977000Y28173472D01*
X54977000Y28326528D01*
X54947141Y28476643D01*
X54888569Y28618048D01*
X54803536Y28745309D01*
X54752000Y28796845D01*
X54752000Y29388584D01*
X54754669Y29415682D01*
X54752000Y29442780D01*
X54752000Y29442790D01*
X54744012Y29523892D01*
X54712448Y29627944D01*
X54680623Y29687484D01*
X54661191Y29723840D01*
X54609491Y29786836D01*
X54592211Y29807892D01*
X54571154Y29825173D01*
X54048326Y30348000D01*
X64377795Y30348000D01*
X64400000Y30345813D01*
X64422205Y30348000D01*
X64488607Y30354540D01*
X64573810Y30380386D01*
X64652333Y30422357D01*
X64721159Y30478841D01*
X64777643Y30547667D01*
X64819614Y30626190D01*
X64845460Y30711393D01*
X64854187Y30800000D01*
X64852000Y30822205D01*
X64852000Y35600974D01*
X73783642Y35600974D01*
X73805473Y35503843D01*
X73922002Y35233019D01*
X74089127Y34990132D01*
X74300426Y34784517D01*
X74547778Y34624075D01*
X74726400Y34552924D01*
X74546025Y34456512D01*
X74357119Y34301481D01*
X74202088Y34112575D01*
X74086890Y33897054D01*
X74072212Y33848668D01*
X74027789Y33812211D01*
X73958809Y33728158D01*
X73907552Y33632263D01*
X73875988Y33528211D01*
X73865330Y33420000D01*
X73875988Y33311789D01*
X73907552Y33207737D01*
X73958809Y33111842D01*
X74027789Y33027789D01*
X74072212Y32991332D01*
X74086890Y32942946D01*
X74202088Y32727425D01*
X74357119Y32538519D01*
X74546025Y32383488D01*
X74761546Y32268290D01*
X74995400Y32197351D01*
X75177660Y32179400D01*
X75822340Y32179400D01*
X76004600Y32197351D01*
X76238454Y32268290D01*
X76453975Y32383488D01*
X76642881Y32538519D01*
X76797912Y32727425D01*
X76913110Y32942946D01*
X76984049Y33176800D01*
X77008002Y33420000D01*
X76984049Y33663200D01*
X76913110Y33897054D01*
X76797912Y34112575D01*
X76642881Y34301481D01*
X76453975Y34456512D01*
X76273600Y34552924D01*
X76452222Y34624075D01*
X76699574Y34784517D01*
X76910873Y34990132D01*
X77077998Y35233019D01*
X77194527Y35503843D01*
X77216358Y35600974D01*
X77095217Y35833000D01*
X75627000Y35833000D01*
X75627000Y35813000D01*
X75373000Y35813000D01*
X75373000Y35833000D01*
X73904783Y35833000D01*
X73783642Y35600974D01*
X64852000Y35600974D01*
X64852000Y36319026D01*
X73783642Y36319026D01*
X73904783Y36087000D01*
X75373000Y36087000D01*
X75373000Y36107000D01*
X75627000Y36107000D01*
X75627000Y36087000D01*
X77095217Y36087000D01*
X77216358Y36319026D01*
X77194527Y36416157D01*
X77077998Y36686981D01*
X76910873Y36929868D01*
X76699574Y37135483D01*
X76511344Y37257576D01*
X76625000Y37257576D01*
X76698905Y37264855D01*
X76769970Y37286412D01*
X76835463Y37321419D01*
X76892869Y37368531D01*
X76939981Y37425937D01*
X76974988Y37491430D01*
X76996545Y37562495D01*
X77003824Y37636400D01*
X77003824Y39363600D01*
X76996545Y39437505D01*
X76974988Y39508570D01*
X76939981Y39574063D01*
X76892869Y39631469D01*
X76835463Y39678581D01*
X76769970Y39713588D01*
X76698905Y39735145D01*
X76625000Y39742424D01*
X74375000Y39742424D01*
X74301095Y39735145D01*
X74230030Y39713588D01*
X74164537Y39678581D01*
X74107131Y39631469D01*
X74060019Y39574063D01*
X74025012Y39508570D01*
X74003455Y39437505D01*
X73996176Y39363600D01*
X73996176Y37636400D01*
X74003455Y37562495D01*
X74025012Y37491430D01*
X74060019Y37425937D01*
X74107131Y37368531D01*
X74164537Y37321419D01*
X74230030Y37286412D01*
X74301095Y37264855D01*
X74375000Y37257576D01*
X74488656Y37257576D01*
X74300426Y37135483D01*
X74089127Y36929868D01*
X73922002Y36686981D01*
X73805473Y36416157D01*
X73783642Y36319026D01*
X64852000Y36319026D01*
X64852000Y43548000D01*
X77548000Y43548000D01*
X77548000Y24367716D01*
G36*
X53648000Y29187035D02*
G01*
X53648001Y28796846D01*
X53596464Y28745309D01*
X53511431Y28618048D01*
X53452859Y28476643D01*
X53423000Y28326528D01*
X53423000Y28173472D01*
X53451759Y28028885D01*
X52559501Y28921143D01*
X52542211Y28942211D01*
X52458158Y29011191D01*
X52362263Y29062448D01*
X52258211Y29094012D01*
X52177109Y29102000D01*
X52177106Y29102000D01*
X52150000Y29104670D01*
X52122894Y29102000D01*
X35382645Y29102000D01*
X36128646Y29848000D01*
X52987037Y29848000D01*
X53648000Y29187035D01*
G37*
X53648000Y29187035D02*
X53648001Y28796846D01*
X53596464Y28745309D01*
X53511431Y28618048D01*
X53452859Y28476643D01*
X53423000Y28326528D01*
X53423000Y28173472D01*
X53451759Y28028885D01*
X52559501Y28921143D01*
X52542211Y28942211D01*
X52458158Y29011191D01*
X52362263Y29062448D01*
X52258211Y29094012D01*
X52177109Y29102000D01*
X52177106Y29102000D01*
X52150000Y29104670D01*
X52122894Y29102000D01*
X35382645Y29102000D01*
X36128646Y29848000D01*
X52987037Y29848000D01*
X53648000Y29187035D01*
G36*
X35148001Y30822215D02*
G01*
X35145813Y30800000D01*
X35154540Y30711393D01*
X35180386Y30626190D01*
X35222357Y30547667D01*
X35242490Y30523135D01*
X34446392Y29727036D01*
X32605649Y29727036D01*
X32641600Y29770843D01*
X32746250Y29966629D01*
X32810693Y30179069D01*
X32827000Y30344635D01*
X32827000Y42055365D01*
X32810693Y42220931D01*
X32746250Y42433371D01*
X32641600Y42629157D01*
X32500765Y42800765D01*
X32329157Y42941600D01*
X32133371Y43046250D01*
X31920931Y43110693D01*
X31700000Y43132453D01*
X31479070Y43110693D01*
X31266630Y43046250D01*
X31070844Y42941600D01*
X30899236Y42800765D01*
X30758401Y42629157D01*
X30653751Y42433371D01*
X30589308Y42220931D01*
X30573001Y42055365D01*
X30573000Y30344636D01*
X30589307Y30179070D01*
X30653750Y29966630D01*
X30758400Y29770843D01*
X30794351Y29727036D01*
X23971630Y29727036D01*
X23944532Y29729705D01*
X23917434Y29727036D01*
X23917424Y29727036D01*
X23836322Y29719048D01*
X23780123Y29702000D01*
X14514290Y29702000D01*
X14572699Y29756906D01*
X14787878Y30058347D01*
X14940114Y30395975D01*
X14987695Y30580355D01*
X14871572Y30873000D01*
X12027000Y30873000D01*
X12027000Y30853000D01*
X11773000Y30853000D01*
X11773000Y30873000D01*
X8928428Y30873000D01*
X8812305Y30580355D01*
X8859886Y30395975D01*
X9012122Y30058347D01*
X9227301Y29756906D01*
X9285710Y29702000D01*
X2277097Y29702000D01*
X2249999Y29704669D01*
X2222901Y29702000D01*
X2222891Y29702000D01*
X2141789Y29694012D01*
X2037737Y29662448D01*
X1994617Y29639400D01*
X1941841Y29611191D01*
X1890462Y29569025D01*
X1857789Y29542211D01*
X1840508Y29521154D01*
X528852Y28209496D01*
X507790Y28192211D01*
X474068Y28151120D01*
X452000Y28124230D01*
X452000Y34400000D01*
X8215128Y34400000D01*
X8246542Y34081052D01*
X8339575Y33774362D01*
X8490654Y33491714D01*
X8693971Y33243971D01*
X8941714Y33040654D01*
X9224362Y32889575D01*
X9531052Y32796542D01*
X9770075Y32773000D01*
X10022927Y32773000D01*
X9811309Y32692912D01*
X9497153Y32496763D01*
X9227301Y32243094D01*
X9012122Y31941653D01*
X8859886Y31604025D01*
X8812305Y31419645D01*
X8928428Y31127000D01*
X11773000Y31127000D01*
X11773000Y31147000D01*
X12027000Y31147000D01*
X12027000Y31127000D01*
X14871572Y31127000D01*
X14987695Y31419645D01*
X14940114Y31604025D01*
X14787878Y31941653D01*
X14572699Y32243094D01*
X14302847Y32496763D01*
X13988691Y32692912D01*
X13642305Y32824004D01*
X13277000Y32885000D01*
X12960556Y32885000D01*
X12975638Y32889575D01*
X13258286Y33040654D01*
X13506029Y33243971D01*
X13709346Y33491714D01*
X13860425Y33774362D01*
X13953458Y34081052D01*
X13984872Y34400000D01*
X13953458Y34718948D01*
X13860425Y35025638D01*
X13709346Y35308286D01*
X13506029Y35556029D01*
X13258286Y35759346D01*
X13173834Y35804487D01*
X16073000Y35804487D01*
X16073000Y34095514D01*
X16103776Y33783036D01*
X16225401Y33382095D01*
X16422907Y33012585D01*
X16688707Y32688707D01*
X17012585Y32422907D01*
X17382094Y32225401D01*
X17783035Y32103776D01*
X18200000Y32062709D01*
X18616964Y32103776D01*
X19017905Y32225401D01*
X19387415Y32422907D01*
X19711293Y32688707D01*
X19977093Y33012585D01*
X20174599Y33382094D01*
X20296224Y33783035D01*
X20326159Y34086975D01*
X20487237Y34135838D01*
X20639592Y34217273D01*
X20773133Y34326867D01*
X20800597Y34360332D01*
X21289664Y34849400D01*
X21323133Y34876867D01*
X21432727Y35010408D01*
X21514162Y35162763D01*
X21564310Y35328078D01*
X21577000Y35456921D01*
X21577000Y35456930D01*
X21581242Y35499999D01*
X21577000Y35543069D01*
X21577000Y36193079D01*
X21564310Y36321922D01*
X21514162Y36487237D01*
X21432727Y36639592D01*
X21323133Y36773133D01*
X21189592Y36882727D01*
X21037237Y36964162D01*
X20871922Y37014310D01*
X20700000Y37031243D01*
X20528079Y37014310D01*
X20362764Y36964162D01*
X20210409Y36882727D01*
X20076868Y36773133D01*
X20053438Y36744583D01*
X19977093Y36887415D01*
X19711293Y37211293D01*
X19387415Y37477093D01*
X19017906Y37674599D01*
X18616965Y37796224D01*
X18200000Y37837291D01*
X17783036Y37796224D01*
X17382095Y37674599D01*
X17012586Y37477093D01*
X16688708Y37211293D01*
X16422908Y36887415D01*
X16225402Y36517906D01*
X16103777Y36116965D01*
X16073000Y35804487D01*
X13173834Y35804487D01*
X12975638Y35910425D01*
X12668948Y36003458D01*
X12429925Y36027000D01*
X9770075Y36027000D01*
X9531052Y36003458D01*
X9224362Y35910425D01*
X8941714Y35759346D01*
X8693971Y35556029D01*
X8490654Y35308286D01*
X8339575Y35025638D01*
X8246542Y34718948D01*
X8215128Y34400000D01*
X452000Y34400000D01*
X452000Y43548000D01*
X35148000Y43548000D01*
X35148001Y30822215D01*
G37*
X35148001Y30822215D02*
X35145813Y30800000D01*
X35154540Y30711393D01*
X35180386Y30626190D01*
X35222357Y30547667D01*
X35242490Y30523135D01*
X34446392Y29727036D01*
X32605649Y29727036D01*
X32641600Y29770843D01*
X32746250Y29966629D01*
X32810693Y30179069D01*
X32827000Y30344635D01*
X32827000Y42055365D01*
X32810693Y42220931D01*
X32746250Y42433371D01*
X32641600Y42629157D01*
X32500765Y42800765D01*
X32329157Y42941600D01*
X32133371Y43046250D01*
X31920931Y43110693D01*
X31700000Y43132453D01*
X31479070Y43110693D01*
X31266630Y43046250D01*
X31070844Y42941600D01*
X30899236Y42800765D01*
X30758401Y42629157D01*
X30653751Y42433371D01*
X30589308Y42220931D01*
X30573001Y42055365D01*
X30573000Y30344636D01*
X30589307Y30179070D01*
X30653750Y29966630D01*
X30758400Y29770843D01*
X30794351Y29727036D01*
X23971630Y29727036D01*
X23944532Y29729705D01*
X23917434Y29727036D01*
X23917424Y29727036D01*
X23836322Y29719048D01*
X23780123Y29702000D01*
X14514290Y29702000D01*
X14572699Y29756906D01*
X14787878Y30058347D01*
X14940114Y30395975D01*
X14987695Y30580355D01*
X14871572Y30873000D01*
X12027000Y30873000D01*
X12027000Y30853000D01*
X11773000Y30853000D01*
X11773000Y30873000D01*
X8928428Y30873000D01*
X8812305Y30580355D01*
X8859886Y30395975D01*
X9012122Y30058347D01*
X9227301Y29756906D01*
X9285710Y29702000D01*
X2277097Y29702000D01*
X2249999Y29704669D01*
X2222901Y29702000D01*
X2222891Y29702000D01*
X2141789Y29694012D01*
X2037737Y29662448D01*
X1994617Y29639400D01*
X1941841Y29611191D01*
X1890462Y29569025D01*
X1857789Y29542211D01*
X1840508Y29521154D01*
X528852Y28209496D01*
X507790Y28192211D01*
X474068Y28151120D01*
X452000Y28124230D01*
X452000Y34400000D01*
X8215128Y34400000D01*
X8246542Y34081052D01*
X8339575Y33774362D01*
X8490654Y33491714D01*
X8693971Y33243971D01*
X8941714Y33040654D01*
X9224362Y32889575D01*
X9531052Y32796542D01*
X9770075Y32773000D01*
X10022927Y32773000D01*
X9811309Y32692912D01*
X9497153Y32496763D01*
X9227301Y32243094D01*
X9012122Y31941653D01*
X8859886Y31604025D01*
X8812305Y31419645D01*
X8928428Y31127000D01*
X11773000Y31127000D01*
X11773000Y31147000D01*
X12027000Y31147000D01*
X12027000Y31127000D01*
X14871572Y31127000D01*
X14987695Y31419645D01*
X14940114Y31604025D01*
X14787878Y31941653D01*
X14572699Y32243094D01*
X14302847Y32496763D01*
X13988691Y32692912D01*
X13642305Y32824004D01*
X13277000Y32885000D01*
X12960556Y32885000D01*
X12975638Y32889575D01*
X13258286Y33040654D01*
X13506029Y33243971D01*
X13709346Y33491714D01*
X13860425Y33774362D01*
X13953458Y34081052D01*
X13984872Y34400000D01*
X13953458Y34718948D01*
X13860425Y35025638D01*
X13709346Y35308286D01*
X13506029Y35556029D01*
X13258286Y35759346D01*
X13173834Y35804487D01*
X16073000Y35804487D01*
X16073000Y34095514D01*
X16103776Y33783036D01*
X16225401Y33382095D01*
X16422907Y33012585D01*
X16688707Y32688707D01*
X17012585Y32422907D01*
X17382094Y32225401D01*
X17783035Y32103776D01*
X18200000Y32062709D01*
X18616964Y32103776D01*
X19017905Y32225401D01*
X19387415Y32422907D01*
X19711293Y32688707D01*
X19977093Y33012585D01*
X20174599Y33382094D01*
X20296224Y33783035D01*
X20326159Y34086975D01*
X20487237Y34135838D01*
X20639592Y34217273D01*
X20773133Y34326867D01*
X20800597Y34360332D01*
X21289664Y34849400D01*
X21323133Y34876867D01*
X21432727Y35010408D01*
X21514162Y35162763D01*
X21564310Y35328078D01*
X21577000Y35456921D01*
X21577000Y35456930D01*
X21581242Y35499999D01*
X21577000Y35543069D01*
X21577000Y36193079D01*
X21564310Y36321922D01*
X21514162Y36487237D01*
X21432727Y36639592D01*
X21323133Y36773133D01*
X21189592Y36882727D01*
X21037237Y36964162D01*
X20871922Y37014310D01*
X20700000Y37031243D01*
X20528079Y37014310D01*
X20362764Y36964162D01*
X20210409Y36882727D01*
X20076868Y36773133D01*
X20053438Y36744583D01*
X19977093Y36887415D01*
X19711293Y37211293D01*
X19387415Y37477093D01*
X19017906Y37674599D01*
X18616965Y37796224D01*
X18200000Y37837291D01*
X17783036Y37796224D01*
X17382095Y37674599D01*
X17012586Y37477093D01*
X16688708Y37211293D01*
X16422908Y36887415D01*
X16225402Y36517906D01*
X16103777Y36116965D01*
X16073000Y35804487D01*
X13173834Y35804487D01*
X12975638Y35910425D01*
X12668948Y36003458D01*
X12429925Y36027000D01*
X9770075Y36027000D01*
X9531052Y36003458D01*
X9224362Y35910425D01*
X8941714Y35759346D01*
X8693971Y35556029D01*
X8490654Y35308286D01*
X8339575Y35025638D01*
X8246542Y34718948D01*
X8215128Y34400000D01*
X452000Y34400000D01*
X452000Y43548000D01*
X35148000Y43548000D01*
X35148001Y30822215D01*
%TD*%
M02*
