%TF.GenerationSoftware,KiCad,Pcbnew,(5.1.6-0-10_14)*%
%TF.CreationDate,2021-01-12T14:39:33+11:00*%
%TF.ProjectId,esp32lcd,65737033-326c-4636-942e-6b696361645f,rev?*%
%TF.SameCoordinates,PX47868c0PY93d1cc0*%
%TF.FileFunction,Legend,Top*%
%TF.FilePolarity,Positive*%
%FSLAX46Y46*%
G04 Gerber Fmt 4.6, Leading zero omitted, Abs format (unit mm)*
G04 Created by KiCad (PCBNEW (5.1.6-0-10_14)) date 2021-01-12 14:39:33*
%MOMM*%
%LPD*%
G01*
G04 APERTURE LIST*
%ADD10C,0.037500*%
%TA.AperFunction,Profile*%
%ADD11C,0.150000*%
%TD*%
%TA.AperFunction,Profile*%
%ADD12C,0.050000*%
%TD*%
%ADD13C,0.120000*%
%ADD14C,0.127000*%
%ADD15C,0.400000*%
%ADD16C,0.150000*%
%ADD17C,0.250000*%
%ADD18C,0.015000*%
G04 APERTURE END LIST*
D10*
X13414285Y38188096D02*
X13414285Y37616667D01*
X13400000Y37502381D01*
X13371428Y37426191D01*
X13328571Y37388096D01*
X13300000Y37388096D01*
X13700000Y37388096D02*
X13557142Y37388096D01*
X13557142Y38188096D01*
X13971428Y37464286D02*
X13957142Y37426191D01*
X13914285Y37388096D01*
X13885714Y37388096D01*
X13842857Y37426191D01*
X13814285Y37502381D01*
X13800000Y37578572D01*
X13785714Y37730953D01*
X13785714Y37845239D01*
X13800000Y37997620D01*
X13814285Y38073810D01*
X13842857Y38150000D01*
X13885714Y38188096D01*
X13914285Y38188096D01*
X13957142Y38150000D01*
X13971428Y38111905D01*
X14185714Y38188096D02*
X14185714Y37616667D01*
X14171428Y37502381D01*
X14142857Y37426191D01*
X14100000Y37388096D01*
X14071428Y37388096D01*
X14471428Y37388096D02*
X14328571Y37388096D01*
X14328571Y38188096D01*
X14742857Y37464286D02*
X14728571Y37426191D01*
X14685714Y37388096D01*
X14657142Y37388096D01*
X14614285Y37426191D01*
X14585714Y37502381D01*
X14571428Y37578572D01*
X14557142Y37730953D01*
X14557142Y37845239D01*
X14571428Y37997620D01*
X14585714Y38073810D01*
X14614285Y38150000D01*
X14657142Y38188096D01*
X14685714Y38188096D01*
X14728571Y38150000D01*
X14742857Y38111905D01*
X14957142Y38188096D02*
X14957142Y37616667D01*
X14942857Y37502381D01*
X14914285Y37426191D01*
X14871428Y37388096D01*
X14842857Y37388096D01*
X15242857Y37388096D02*
X15100000Y37388096D01*
X15100000Y38188096D01*
X15514285Y37464286D02*
X15500000Y37426191D01*
X15457142Y37388096D01*
X15428571Y37388096D01*
X15385714Y37426191D01*
X15357142Y37502381D01*
X15342857Y37578572D01*
X15328571Y37730953D01*
X15328571Y37845239D01*
X15342857Y37997620D01*
X15357142Y38073810D01*
X15385714Y38150000D01*
X15428571Y38188096D01*
X15457142Y38188096D01*
X15500000Y38150000D01*
X15514285Y38111905D01*
X15728571Y38188096D02*
X15728571Y37616667D01*
X15714285Y37502381D01*
X15685714Y37426191D01*
X15642857Y37388096D01*
X15614285Y37388096D01*
X16014285Y37388096D02*
X15871428Y37388096D01*
X15871428Y38188096D01*
X16285714Y37464286D02*
X16271428Y37426191D01*
X16228571Y37388096D01*
X16200000Y37388096D01*
X16157142Y37426191D01*
X16128571Y37502381D01*
X16114285Y37578572D01*
X16100000Y37730953D01*
X16100000Y37845239D01*
X16114285Y37997620D01*
X16128571Y38073810D01*
X16157142Y38150000D01*
X16200000Y38188096D01*
X16228571Y38188096D01*
X16271428Y38150000D01*
X16285714Y38111905D01*
D11*
X78000000Y44000000D02*
X64400000Y44000000D01*
X64400000Y30800000D02*
X64400000Y44000000D01*
X35600000Y30800000D02*
X64400000Y30800000D01*
X35600000Y44000000D02*
X35600000Y30800000D01*
D12*
X77166666Y2400000D02*
G75*
G03*
X77166666Y2400000I-1666666J0D01*
G01*
X73000000Y2400000D02*
X78000000Y2400000D01*
X75500000Y4900000D02*
X75500000Y-100000D01*
X5166666Y34500000D02*
G75*
G03*
X5166666Y34500000I-1666666J0D01*
G01*
X1000000Y34500000D02*
X6000000Y34500000D01*
X3500000Y37000000D02*
X3500000Y32000000D01*
D11*
X35600000Y44000000D02*
X0Y44000000D01*
X0Y0D02*
X0Y44000000D01*
X78000000Y0D02*
X0Y0D01*
X78000000Y44000000D02*
X78000000Y0D01*
D13*
%TO.C,R1*%
X68958578Y14190000D02*
X68441422Y14190000D01*
X68958578Y15610000D02*
X68441422Y15610000D01*
%TO.C,Q1*%
X62540000Y17980000D02*
X64000000Y17980000D01*
X62540000Y14820000D02*
X64700000Y14820000D01*
X62540000Y14820000D02*
X62540000Y15750000D01*
X62540000Y17980000D02*
X62540000Y17050000D01*
%TO.C,R14*%
X62658578Y12090000D02*
X62141422Y12090000D01*
X62658578Y13510000D02*
X62141422Y13510000D01*
%TO.C,FB11*%
X22660000Y38787221D02*
X22660000Y39112779D01*
X21640000Y38787221D02*
X21640000Y39112779D01*
%TO.C,C12*%
X21690000Y33558578D02*
X21690000Y33041422D01*
X23110000Y33558578D02*
X23110000Y33041422D01*
D14*
%TO.C,J12*%
X6700000Y43950000D02*
X9100000Y43950000D01*
X14700000Y43950000D02*
X19150000Y43950000D01*
X6700000Y31450000D02*
X6700000Y43950000D01*
X19200000Y31450000D02*
X6700000Y31450000D01*
X19200000Y43950000D02*
X19200000Y31450000D01*
D15*
X12100000Y43450000D02*
G75*
G03*
X12100000Y43450000I-200000J0D01*
G01*
D13*
%TO.C,U11*%
X40950000Y4640000D02*
X43400000Y4640000D01*
X42750000Y7860000D02*
X40950000Y7860000D01*
%TO.C,C13*%
X35210000Y32090000D02*
X35210000Y36300000D01*
X32190000Y32090000D02*
X35210000Y32090000D01*
X32190000Y36300000D02*
X32190000Y32090000D01*
%TO.C,U12*%
X64250000Y1190000D02*
X66200000Y1190000D01*
X64250000Y1190000D02*
X62300000Y1190000D01*
X64250000Y11310000D02*
X66200000Y11310000D01*
X64250000Y11310000D02*
X60800000Y11310000D01*
%TO.C,U13*%
X31360000Y39700000D02*
X31360000Y33690000D01*
X24540000Y37450000D02*
X24540000Y33690000D01*
X31360000Y33690000D02*
X30100000Y33690000D01*
X24540000Y33690000D02*
X25800000Y33690000D01*
%TO.C,Q13*%
X71210000Y27020000D02*
X69750000Y27020000D01*
X71210000Y30180000D02*
X69050000Y30180000D01*
X71210000Y30180000D02*
X71210000Y29250000D01*
X71210000Y27020000D02*
X71210000Y27950000D01*
%TO.C,Q11*%
X69040000Y19680000D02*
X70500000Y19680000D01*
X69040000Y16520000D02*
X71200000Y16520000D01*
X69040000Y16520000D02*
X69040000Y17450000D01*
X69040000Y19680000D02*
X69040000Y18750000D01*
%TO.C,Q12*%
X70040000Y23480000D02*
X71500000Y23480000D01*
X70040000Y20320000D02*
X72200000Y20320000D01*
X70040000Y20320000D02*
X70040000Y21250000D01*
X70040000Y23480000D02*
X70040000Y22550000D01*
%TO.C,J11*%
X46500000Y-10000D02*
X46500000Y490000D01*
X46500000Y490000D02*
X45870000Y490000D01*
X52500000Y490000D02*
X53130000Y490000D01*
X52500000Y-10000D02*
X52500000Y490000D01*
D16*
X47125000Y5410000D02*
X47125000Y6070000D01*
X51875000Y5410000D02*
X47125000Y5410000D01*
D17*
X52500000Y-10000D02*
X46500000Y-10000D01*
X45875000Y6620000D02*
X45875000Y410000D01*
X53125000Y410000D02*
X53125000Y6620000D01*
D16*
X51875000Y5410000D02*
X51875000Y6065000D01*
D17*
X45710000Y20000D02*
G75*
G03*
X45871091Y408909I-388909J388909D01*
G01*
X53290000Y20000D02*
G75*
G02*
X53128909Y408909I388909J388909D01*
G01*
D16*
X47120000Y6060000D02*
G75*
G03*
X46580000Y6620000I-550000J10000D01*
G01*
X51875000Y6065000D02*
G75*
G02*
X52420000Y6620000I550000J5000D01*
G01*
D13*
%TO.C,U14*%
X40880000Y30695000D02*
X40500000Y30695000D01*
X40880000Y37115000D02*
X40880000Y30695000D01*
X59120000Y37115000D02*
X59120000Y30695000D01*
X40880000Y37115000D02*
X59120000Y37115000D01*
X59120000Y11370000D02*
X58120000Y11370000D01*
X59120000Y12150000D02*
X59120000Y11370000D01*
X40880000Y11370000D02*
X41880000Y11370000D01*
X40880000Y12150000D02*
X40880000Y11370000D01*
%TO.C,D11*%
X54850000Y700000D02*
X54850000Y6100000D01*
X58150000Y700000D02*
X58150000Y6100000D01*
X54850000Y700000D02*
X58150000Y700000D01*
%TO.C,R12*%
X70491422Y9710000D02*
X71008578Y9710000D01*
X70491422Y8290000D02*
X71008578Y8290000D01*
%TO.C,R11*%
X70491422Y11990000D02*
X71008578Y11990000D01*
X70491422Y13410000D02*
X71008578Y13410000D01*
%TO.C,R13*%
X67258578Y12040000D02*
X66741422Y12040000D01*
X67258578Y13460000D02*
X66741422Y13460000D01*
%TO.C,C14*%
X36890000Y28041422D02*
X36890000Y28558578D01*
X38310000Y28041422D02*
X38310000Y28558578D01*
%TO.C,C15*%
X33910000Y27241422D02*
X33910000Y27758578D01*
X32490000Y27241422D02*
X32490000Y27758578D01*
%TO.C,R17*%
X36010000Y27241422D02*
X36010000Y27758578D01*
X34590000Y27241422D02*
X34590000Y27758578D01*
%TO.C,C16*%
X71890000Y36608578D02*
X71890000Y36091422D01*
X73310000Y36608578D02*
X73310000Y36091422D01*
%TO.C,C11*%
X57691422Y8490000D02*
X58208578Y8490000D01*
X57691422Y9910000D02*
X58208578Y9910000D01*
%TO.C,R15*%
X41241422Y10310000D02*
X41758578Y10310000D01*
X41241422Y8890000D02*
X41758578Y8890000D01*
%TO.C,R16*%
X68260000Y28391422D02*
X68260000Y28908578D01*
X66840000Y28391422D02*
X66840000Y28908578D01*
%TD*%
%TO.C,R1*%
D16*
X71433333Y14847620D02*
X71100000Y15323810D01*
X70861904Y14847620D02*
X70861904Y15847620D01*
X71242857Y15847620D01*
X71338095Y15800000D01*
X71385714Y15752381D01*
X71433333Y15657143D01*
X71433333Y15514286D01*
X71385714Y15419048D01*
X71338095Y15371429D01*
X71242857Y15323810D01*
X70861904Y15323810D01*
X72385714Y14847620D02*
X71814285Y14847620D01*
X72100000Y14847620D02*
X72100000Y15847620D01*
X72004761Y15704762D01*
X71909523Y15609524D01*
X71814285Y15561905D01*
%TO.C,Q1*%
X64004761Y18352381D02*
X63909523Y18400000D01*
X63814285Y18495239D01*
X63671428Y18638096D01*
X63576190Y18685715D01*
X63480952Y18685715D01*
X63528571Y18447620D02*
X63433333Y18495239D01*
X63338095Y18590477D01*
X63290476Y18780953D01*
X63290476Y19114286D01*
X63338095Y19304762D01*
X63433333Y19400000D01*
X63528571Y19447620D01*
X63719047Y19447620D01*
X63814285Y19400000D01*
X63909523Y19304762D01*
X63957142Y19114286D01*
X63957142Y18780953D01*
X63909523Y18590477D01*
X63814285Y18495239D01*
X63719047Y18447620D01*
X63528571Y18447620D01*
X64909523Y18447620D02*
X64338095Y18447620D01*
X64623809Y18447620D02*
X64623809Y19447620D01*
X64528571Y19304762D01*
X64433333Y19209524D01*
X64338095Y19161905D01*
%TO.C,R14*%
X61252380Y14557143D02*
X60776190Y14223810D01*
X61252380Y13985715D02*
X60252380Y13985715D01*
X60252380Y14366667D01*
X60300000Y14461905D01*
X60347619Y14509524D01*
X60442857Y14557143D01*
X60585714Y14557143D01*
X60680952Y14509524D01*
X60728571Y14461905D01*
X60776190Y14366667D01*
X60776190Y13985715D01*
X61252380Y15509524D02*
X61252380Y14938096D01*
X61252380Y15223810D02*
X60252380Y15223810D01*
X60395238Y15128572D01*
X60490476Y15033334D01*
X60538095Y14938096D01*
X60585714Y16366667D02*
X61252380Y16366667D01*
X60204761Y16128572D02*
X60919047Y15890477D01*
X60919047Y16509524D01*
%TO.C,FB11*%
X20478571Y36840477D02*
X20478571Y36507143D01*
X21002380Y36507143D02*
X20002380Y36507143D01*
X20002380Y36983334D01*
X20478571Y37697620D02*
X20526190Y37840477D01*
X20573809Y37888096D01*
X20669047Y37935715D01*
X20811904Y37935715D01*
X20907142Y37888096D01*
X20954761Y37840477D01*
X21002380Y37745239D01*
X21002380Y37364286D01*
X20002380Y37364286D01*
X20002380Y37697620D01*
X20050000Y37792858D01*
X20097619Y37840477D01*
X20192857Y37888096D01*
X20288095Y37888096D01*
X20383333Y37840477D01*
X20430952Y37792858D01*
X20478571Y37697620D01*
X20478571Y37364286D01*
X21002380Y38888096D02*
X21002380Y38316667D01*
X21002380Y38602381D02*
X20002380Y38602381D01*
X20145238Y38507143D01*
X20240476Y38411905D01*
X20288095Y38316667D01*
X21002380Y39840477D02*
X21002380Y39269048D01*
X21002380Y39554762D02*
X20002380Y39554762D01*
X20145238Y39459524D01*
X20240476Y39364286D01*
X20288095Y39269048D01*
%TO.C,C12*%
X24407142Y32657143D02*
X24454761Y32609524D01*
X24502380Y32466667D01*
X24502380Y32371429D01*
X24454761Y32228572D01*
X24359523Y32133334D01*
X24264285Y32085715D01*
X24073809Y32038096D01*
X23930952Y32038096D01*
X23740476Y32085715D01*
X23645238Y32133334D01*
X23550000Y32228572D01*
X23502380Y32371429D01*
X23502380Y32466667D01*
X23550000Y32609524D01*
X23597619Y32657143D01*
X24502380Y33609524D02*
X24502380Y33038096D01*
X24502380Y33323810D02*
X23502380Y33323810D01*
X23645238Y33228572D01*
X23740476Y33133334D01*
X23788095Y33038096D01*
X23597619Y33990477D02*
X23550000Y34038096D01*
X23502380Y34133334D01*
X23502380Y34371429D01*
X23550000Y34466667D01*
X23597619Y34514286D01*
X23692857Y34561905D01*
X23788095Y34561905D01*
X23930952Y34514286D01*
X24502380Y33942858D01*
X24502380Y34561905D01*
%TO.C,J12*%
D18*
X3589092Y31898555D02*
X3589092Y31183049D01*
X3541392Y31039948D01*
X3445991Y30944547D01*
X3302890Y30896846D01*
X3207489Y30896846D01*
X4590801Y30896846D02*
X4018396Y30896846D01*
X4304599Y30896846D02*
X4304599Y31898555D01*
X4209198Y31755454D01*
X4113797Y31660053D01*
X4018396Y31612353D01*
X4972405Y31803155D02*
X5020105Y31850855D01*
X5115506Y31898555D01*
X5354008Y31898555D01*
X5449409Y31850855D01*
X5497109Y31803155D01*
X5544810Y31707754D01*
X5544810Y31612353D01*
X5497109Y31469252D01*
X4924704Y30896846D01*
X5544810Y30896846D01*
%TO.C,U11*%
D16*
X40661904Y4247620D02*
X40661904Y3438096D01*
X40709523Y3342858D01*
X40757142Y3295239D01*
X40852380Y3247620D01*
X41042857Y3247620D01*
X41138095Y3295239D01*
X41185714Y3342858D01*
X41233333Y3438096D01*
X41233333Y4247620D01*
X42233333Y3247620D02*
X41661904Y3247620D01*
X41947619Y3247620D02*
X41947619Y4247620D01*
X41852380Y4104762D01*
X41757142Y4009524D01*
X41661904Y3961905D01*
X43185714Y3247620D02*
X42614285Y3247620D01*
X42900000Y3247620D02*
X42900000Y4247620D01*
X42804761Y4104762D01*
X42709523Y4009524D01*
X42614285Y3961905D01*
%TO.C,C13*%
X35107142Y38157143D02*
X35154761Y38109524D01*
X35202380Y37966667D01*
X35202380Y37871429D01*
X35154761Y37728572D01*
X35059523Y37633334D01*
X34964285Y37585715D01*
X34773809Y37538096D01*
X34630952Y37538096D01*
X34440476Y37585715D01*
X34345238Y37633334D01*
X34250000Y37728572D01*
X34202380Y37871429D01*
X34202380Y37966667D01*
X34250000Y38109524D01*
X34297619Y38157143D01*
X35202380Y39109524D02*
X35202380Y38538096D01*
X35202380Y38823810D02*
X34202380Y38823810D01*
X34345238Y38728572D01*
X34440476Y38633334D01*
X34488095Y38538096D01*
X34202380Y39442858D02*
X34202380Y40061905D01*
X34583333Y39728572D01*
X34583333Y39871429D01*
X34630952Y39966667D01*
X34678571Y40014286D01*
X34773809Y40061905D01*
X35011904Y40061905D01*
X35107142Y40014286D01*
X35154761Y39966667D01*
X35202380Y39871429D01*
X35202380Y39585715D01*
X35154761Y39490477D01*
X35107142Y39442858D01*
%TO.C,U12*%
X68092380Y5041905D02*
X68901904Y5041905D01*
X68997142Y5089524D01*
X69044761Y5137143D01*
X69092380Y5232381D01*
X69092380Y5422858D01*
X69044761Y5518096D01*
X68997142Y5565715D01*
X68901904Y5613334D01*
X68092380Y5613334D01*
X69092380Y6613334D02*
X69092380Y6041905D01*
X69092380Y6327620D02*
X68092380Y6327620D01*
X68235238Y6232381D01*
X68330476Y6137143D01*
X68378095Y6041905D01*
X68187619Y6994286D02*
X68140000Y7041905D01*
X68092380Y7137143D01*
X68092380Y7375239D01*
X68140000Y7470477D01*
X68187619Y7518096D01*
X68282857Y7565715D01*
X68378095Y7565715D01*
X68520952Y7518096D01*
X69092380Y6946667D01*
X69092380Y7565715D01*
%TO.C,U13*%
X26861904Y30847620D02*
X26861904Y30038096D01*
X26909523Y29942858D01*
X26957142Y29895239D01*
X27052380Y29847620D01*
X27242857Y29847620D01*
X27338095Y29895239D01*
X27385714Y29942858D01*
X27433333Y30038096D01*
X27433333Y30847620D01*
X28433333Y29847620D02*
X27861904Y29847620D01*
X28147619Y29847620D02*
X28147619Y30847620D01*
X28052380Y30704762D01*
X27957142Y30609524D01*
X27861904Y30561905D01*
X28766666Y30847620D02*
X29385714Y30847620D01*
X29052380Y30466667D01*
X29195238Y30466667D01*
X29290476Y30419048D01*
X29338095Y30371429D01*
X29385714Y30276191D01*
X29385714Y30038096D01*
X29338095Y29942858D01*
X29290476Y29895239D01*
X29195238Y29847620D01*
X28909523Y29847620D01*
X28814285Y29895239D01*
X28766666Y29942858D01*
%TO.C,Q13*%
X73497619Y28228572D02*
X73450000Y28133334D01*
X73354761Y28038096D01*
X73211904Y27895239D01*
X73164285Y27800000D01*
X73164285Y27704762D01*
X73402380Y27752381D02*
X73354761Y27657143D01*
X73259523Y27561905D01*
X73069047Y27514286D01*
X72735714Y27514286D01*
X72545238Y27561905D01*
X72450000Y27657143D01*
X72402380Y27752381D01*
X72402380Y27942858D01*
X72450000Y28038096D01*
X72545238Y28133334D01*
X72735714Y28180953D01*
X73069047Y28180953D01*
X73259523Y28133334D01*
X73354761Y28038096D01*
X73402380Y27942858D01*
X73402380Y27752381D01*
X73402380Y29133334D02*
X73402380Y28561905D01*
X73402380Y28847620D02*
X72402380Y28847620D01*
X72545238Y28752381D01*
X72640476Y28657143D01*
X72688095Y28561905D01*
X72402380Y29466667D02*
X72402380Y30085715D01*
X72783333Y29752381D01*
X72783333Y29895239D01*
X72830952Y29990477D01*
X72878571Y30038096D01*
X72973809Y30085715D01*
X73211904Y30085715D01*
X73307142Y30038096D01*
X73354761Y29990477D01*
X73402380Y29895239D01*
X73402380Y29609524D01*
X73354761Y29514286D01*
X73307142Y29466667D01*
%TO.C,Q11*%
X72847619Y17678572D02*
X72800000Y17583334D01*
X72704761Y17488096D01*
X72561904Y17345239D01*
X72514285Y17250000D01*
X72514285Y17154762D01*
X72752380Y17202381D02*
X72704761Y17107143D01*
X72609523Y17011905D01*
X72419047Y16964286D01*
X72085714Y16964286D01*
X71895238Y17011905D01*
X71800000Y17107143D01*
X71752380Y17202381D01*
X71752380Y17392858D01*
X71800000Y17488096D01*
X71895238Y17583334D01*
X72085714Y17630953D01*
X72419047Y17630953D01*
X72609523Y17583334D01*
X72704761Y17488096D01*
X72752380Y17392858D01*
X72752380Y17202381D01*
X72752380Y18583334D02*
X72752380Y18011905D01*
X72752380Y18297620D02*
X71752380Y18297620D01*
X71895238Y18202381D01*
X71990476Y18107143D01*
X72038095Y18011905D01*
X72752380Y19535715D02*
X72752380Y18964286D01*
X72752380Y19250000D02*
X71752380Y19250000D01*
X71895238Y19154762D01*
X71990476Y19059524D01*
X72038095Y18964286D01*
%TO.C,Q12*%
X70028571Y23852381D02*
X69933333Y23900000D01*
X69838095Y23995239D01*
X69695238Y24138096D01*
X69600000Y24185715D01*
X69504761Y24185715D01*
X69552380Y23947620D02*
X69457142Y23995239D01*
X69361904Y24090477D01*
X69314285Y24280953D01*
X69314285Y24614286D01*
X69361904Y24804762D01*
X69457142Y24900000D01*
X69552380Y24947620D01*
X69742857Y24947620D01*
X69838095Y24900000D01*
X69933333Y24804762D01*
X69980952Y24614286D01*
X69980952Y24280953D01*
X69933333Y24090477D01*
X69838095Y23995239D01*
X69742857Y23947620D01*
X69552380Y23947620D01*
X70933333Y23947620D02*
X70361904Y23947620D01*
X70647619Y23947620D02*
X70647619Y24947620D01*
X70552380Y24804762D01*
X70457142Y24709524D01*
X70361904Y24661905D01*
X71314285Y24852381D02*
X71361904Y24900000D01*
X71457142Y24947620D01*
X71695238Y24947620D01*
X71790476Y24900000D01*
X71838095Y24852381D01*
X71885714Y24757143D01*
X71885714Y24661905D01*
X71838095Y24519048D01*
X71266666Y23947620D01*
X71885714Y23947620D01*
%TO.C,J11*%
X48690476Y10547620D02*
X48690476Y9833334D01*
X48642857Y9690477D01*
X48547619Y9595239D01*
X48404761Y9547620D01*
X48309523Y9547620D01*
X49690476Y9547620D02*
X49119047Y9547620D01*
X49404761Y9547620D02*
X49404761Y10547620D01*
X49309523Y10404762D01*
X49214285Y10309524D01*
X49119047Y10261905D01*
X50642857Y9547620D02*
X50071428Y9547620D01*
X50357142Y9547620D02*
X50357142Y10547620D01*
X50261904Y10404762D01*
X50166666Y10309524D01*
X50071428Y10261905D01*
%TO.C,U14*%
X48811904Y15497620D02*
X48811904Y14688096D01*
X48859523Y14592858D01*
X48907142Y14545239D01*
X49002380Y14497620D01*
X49192857Y14497620D01*
X49288095Y14545239D01*
X49335714Y14592858D01*
X49383333Y14688096D01*
X49383333Y15497620D01*
X50383333Y14497620D02*
X49811904Y14497620D01*
X50097619Y14497620D02*
X50097619Y15497620D01*
X50002380Y15354762D01*
X49907142Y15259524D01*
X49811904Y15211905D01*
X51240476Y15164286D02*
X51240476Y14497620D01*
X51002380Y15545239D02*
X50764285Y14830953D01*
X51383333Y14830953D01*
%TO.C,D11*%
X54452380Y2885715D02*
X53452380Y2885715D01*
X53452380Y3123810D01*
X53500000Y3266667D01*
X53595238Y3361905D01*
X53690476Y3409524D01*
X53880952Y3457143D01*
X54023809Y3457143D01*
X54214285Y3409524D01*
X54309523Y3361905D01*
X54404761Y3266667D01*
X54452380Y3123810D01*
X54452380Y2885715D01*
X54452380Y4409524D02*
X54452380Y3838096D01*
X54452380Y4123810D02*
X53452380Y4123810D01*
X53595238Y4028572D01*
X53690476Y3933334D01*
X53738095Y3838096D01*
X54452380Y5361905D02*
X54452380Y4790477D01*
X54452380Y5076191D02*
X53452380Y5076191D01*
X53595238Y4980953D01*
X53690476Y4885715D01*
X53738095Y4790477D01*
%TO.C,R12*%
X70557142Y6747620D02*
X70223809Y7223810D01*
X69985714Y6747620D02*
X69985714Y7747620D01*
X70366666Y7747620D01*
X70461904Y7700000D01*
X70509523Y7652381D01*
X70557142Y7557143D01*
X70557142Y7414286D01*
X70509523Y7319048D01*
X70461904Y7271429D01*
X70366666Y7223810D01*
X69985714Y7223810D01*
X71509523Y6747620D02*
X70938095Y6747620D01*
X71223809Y6747620D02*
X71223809Y7747620D01*
X71128571Y7604762D01*
X71033333Y7509524D01*
X70938095Y7461905D01*
X71890476Y7652381D02*
X71938095Y7700000D01*
X72033333Y7747620D01*
X72271428Y7747620D01*
X72366666Y7700000D01*
X72414285Y7652381D01*
X72461904Y7557143D01*
X72461904Y7461905D01*
X72414285Y7319048D01*
X71842857Y6747620D01*
X72461904Y6747620D01*
%TO.C,R11*%
X70657142Y10547620D02*
X70323809Y11023810D01*
X70085714Y10547620D02*
X70085714Y11547620D01*
X70466666Y11547620D01*
X70561904Y11500000D01*
X70609523Y11452381D01*
X70657142Y11357143D01*
X70657142Y11214286D01*
X70609523Y11119048D01*
X70561904Y11071429D01*
X70466666Y11023810D01*
X70085714Y11023810D01*
X71609523Y10547620D02*
X71038095Y10547620D01*
X71323809Y10547620D02*
X71323809Y11547620D01*
X71228571Y11404762D01*
X71133333Y11309524D01*
X71038095Y11261905D01*
X72561904Y10547620D02*
X71990476Y10547620D01*
X72276190Y10547620D02*
X72276190Y11547620D01*
X72180952Y11404762D01*
X72085714Y11309524D01*
X71990476Y11261905D01*
%TO.C,R13*%
X71757142Y13647620D02*
X71423809Y14123810D01*
X71185714Y13647620D02*
X71185714Y14647620D01*
X71566666Y14647620D01*
X71661904Y14600000D01*
X71709523Y14552381D01*
X71757142Y14457143D01*
X71757142Y14314286D01*
X71709523Y14219048D01*
X71661904Y14171429D01*
X71566666Y14123810D01*
X71185714Y14123810D01*
X72709523Y13647620D02*
X72138095Y13647620D01*
X72423809Y13647620D02*
X72423809Y14647620D01*
X72328571Y14504762D01*
X72233333Y14409524D01*
X72138095Y14361905D01*
X73042857Y14647620D02*
X73661904Y14647620D01*
X73328571Y14266667D01*
X73471428Y14266667D01*
X73566666Y14219048D01*
X73614285Y14171429D01*
X73661904Y14076191D01*
X73661904Y13838096D01*
X73614285Y13742858D01*
X73566666Y13695239D01*
X73471428Y13647620D01*
X73185714Y13647620D01*
X73090476Y13695239D01*
X73042857Y13742858D01*
%TO.C,C14*%
X39607142Y27657143D02*
X39654761Y27609524D01*
X39702380Y27466667D01*
X39702380Y27371429D01*
X39654761Y27228572D01*
X39559523Y27133334D01*
X39464285Y27085715D01*
X39273809Y27038096D01*
X39130952Y27038096D01*
X38940476Y27085715D01*
X38845238Y27133334D01*
X38750000Y27228572D01*
X38702380Y27371429D01*
X38702380Y27466667D01*
X38750000Y27609524D01*
X38797619Y27657143D01*
X39702380Y28609524D02*
X39702380Y28038096D01*
X39702380Y28323810D02*
X38702380Y28323810D01*
X38845238Y28228572D01*
X38940476Y28133334D01*
X38988095Y28038096D01*
X39035714Y29466667D02*
X39702380Y29466667D01*
X38654761Y29228572D02*
X39369047Y28990477D01*
X39369047Y29609524D01*
%TO.C,C15*%
X33407142Y29857143D02*
X33454761Y29809524D01*
X33502380Y29666667D01*
X33502380Y29571429D01*
X33454761Y29428572D01*
X33359523Y29333334D01*
X33264285Y29285715D01*
X33073809Y29238096D01*
X32930952Y29238096D01*
X32740476Y29285715D01*
X32645238Y29333334D01*
X32550000Y29428572D01*
X32502380Y29571429D01*
X32502380Y29666667D01*
X32550000Y29809524D01*
X32597619Y29857143D01*
X33502380Y30809524D02*
X33502380Y30238096D01*
X33502380Y30523810D02*
X32502380Y30523810D01*
X32645238Y30428572D01*
X32740476Y30333334D01*
X32788095Y30238096D01*
X32502380Y31714286D02*
X32502380Y31238096D01*
X32978571Y31190477D01*
X32930952Y31238096D01*
X32883333Y31333334D01*
X32883333Y31571429D01*
X32930952Y31666667D01*
X32978571Y31714286D01*
X33073809Y31761905D01*
X33311904Y31761905D01*
X33407142Y31714286D01*
X33454761Y31666667D01*
X33502380Y31571429D01*
X33502380Y31333334D01*
X33454761Y31238096D01*
X33407142Y31190477D01*
%TO.C,R17*%
X35002380Y29957143D02*
X34526190Y29623810D01*
X35002380Y29385715D02*
X34002380Y29385715D01*
X34002380Y29766667D01*
X34050000Y29861905D01*
X34097619Y29909524D01*
X34192857Y29957143D01*
X34335714Y29957143D01*
X34430952Y29909524D01*
X34478571Y29861905D01*
X34526190Y29766667D01*
X34526190Y29385715D01*
X35002380Y30909524D02*
X35002380Y30338096D01*
X35002380Y30623810D02*
X34002380Y30623810D01*
X34145238Y30528572D01*
X34240476Y30433334D01*
X34288095Y30338096D01*
X34002380Y31242858D02*
X34002380Y31909524D01*
X35002380Y31480953D01*
%TO.C,C16*%
X71207142Y35657143D02*
X71254761Y35609524D01*
X71302380Y35466667D01*
X71302380Y35371429D01*
X71254761Y35228572D01*
X71159523Y35133334D01*
X71064285Y35085715D01*
X70873809Y35038096D01*
X70730952Y35038096D01*
X70540476Y35085715D01*
X70445238Y35133334D01*
X70350000Y35228572D01*
X70302380Y35371429D01*
X70302380Y35466667D01*
X70350000Y35609524D01*
X70397619Y35657143D01*
X71302380Y36609524D02*
X71302380Y36038096D01*
X71302380Y36323810D02*
X70302380Y36323810D01*
X70445238Y36228572D01*
X70540476Y36133334D01*
X70588095Y36038096D01*
X70302380Y37466667D02*
X70302380Y37276191D01*
X70350000Y37180953D01*
X70397619Y37133334D01*
X70540476Y37038096D01*
X70730952Y36990477D01*
X71111904Y36990477D01*
X71207142Y37038096D01*
X71254761Y37085715D01*
X71302380Y37180953D01*
X71302380Y37371429D01*
X71254761Y37466667D01*
X71207142Y37514286D01*
X71111904Y37561905D01*
X70873809Y37561905D01*
X70778571Y37514286D01*
X70730952Y37466667D01*
X70683333Y37371429D01*
X70683333Y37180953D01*
X70730952Y37085715D01*
X70778571Y37038096D01*
X70873809Y36990477D01*
%TO.C,C11*%
X53707142Y8592858D02*
X53659523Y8545239D01*
X53516666Y8497620D01*
X53421428Y8497620D01*
X53278571Y8545239D01*
X53183333Y8640477D01*
X53135714Y8735715D01*
X53088095Y8926191D01*
X53088095Y9069048D01*
X53135714Y9259524D01*
X53183333Y9354762D01*
X53278571Y9450000D01*
X53421428Y9497620D01*
X53516666Y9497620D01*
X53659523Y9450000D01*
X53707142Y9402381D01*
X54659523Y8497620D02*
X54088095Y8497620D01*
X54373809Y8497620D02*
X54373809Y9497620D01*
X54278571Y9354762D01*
X54183333Y9259524D01*
X54088095Y9211905D01*
X55611904Y8497620D02*
X55040476Y8497620D01*
X55326190Y8497620D02*
X55326190Y9497620D01*
X55230952Y9354762D01*
X55135714Y9259524D01*
X55040476Y9211905D01*
%TO.C,R15*%
X45257142Y8647620D02*
X44923809Y9123810D01*
X44685714Y8647620D02*
X44685714Y9647620D01*
X45066666Y9647620D01*
X45161904Y9600000D01*
X45209523Y9552381D01*
X45257142Y9457143D01*
X45257142Y9314286D01*
X45209523Y9219048D01*
X45161904Y9171429D01*
X45066666Y9123810D01*
X44685714Y9123810D01*
X46209523Y8647620D02*
X45638095Y8647620D01*
X45923809Y8647620D02*
X45923809Y9647620D01*
X45828571Y9504762D01*
X45733333Y9409524D01*
X45638095Y9361905D01*
X47114285Y9647620D02*
X46638095Y9647620D01*
X46590476Y9171429D01*
X46638095Y9219048D01*
X46733333Y9266667D01*
X46971428Y9266667D01*
X47066666Y9219048D01*
X47114285Y9171429D01*
X47161904Y9076191D01*
X47161904Y8838096D01*
X47114285Y8742858D01*
X47066666Y8695239D01*
X46971428Y8647620D01*
X46733333Y8647620D01*
X46638095Y8695239D01*
X46590476Y8742858D01*
%TO.C,R16*%
X66352380Y28157143D02*
X65876190Y27823810D01*
X66352380Y27585715D02*
X65352380Y27585715D01*
X65352380Y27966667D01*
X65400000Y28061905D01*
X65447619Y28109524D01*
X65542857Y28157143D01*
X65685714Y28157143D01*
X65780952Y28109524D01*
X65828571Y28061905D01*
X65876190Y27966667D01*
X65876190Y27585715D01*
X66352380Y29109524D02*
X66352380Y28538096D01*
X66352380Y28823810D02*
X65352380Y28823810D01*
X65495238Y28728572D01*
X65590476Y28633334D01*
X65638095Y28538096D01*
X65352380Y29966667D02*
X65352380Y29776191D01*
X65400000Y29680953D01*
X65447619Y29633334D01*
X65590476Y29538096D01*
X65780952Y29490477D01*
X66161904Y29490477D01*
X66257142Y29538096D01*
X66304761Y29585715D01*
X66352380Y29680953D01*
X66352380Y29871429D01*
X66304761Y29966667D01*
X66257142Y30014286D01*
X66161904Y30061905D01*
X65923809Y30061905D01*
X65828571Y30014286D01*
X65780952Y29966667D01*
X65733333Y29871429D01*
X65733333Y29680953D01*
X65780952Y29585715D01*
X65828571Y29538096D01*
X65923809Y29490477D01*
%TD*%
M02*
