%TF.GenerationSoftware,KiCad,Pcbnew,(5.1.6-0-10_14)*%
%TF.CreationDate,2021-01-11T12:54:44+11:00*%
%TF.ProjectId,esp32lcd,65737033-326c-4636-942e-6b696361645f,rev?*%
%TF.SameCoordinates,PX47868c0PY93d1cc0*%
%TF.FileFunction,Soldermask,Top*%
%TF.FilePolarity,Negative*%
%FSLAX46Y46*%
G04 Gerber Fmt 4.6, Leading zero omitted, Abs format (unit mm)*
G04 Created by KiCad (PCBNEW (5.1.6-0-10_14)) date 2021-01-11 12:54:44*
%MOMM*%
%LPD*%
G01*
G04 APERTURE LIST*
%TA.AperFunction,Profile*%
%ADD10C,0.150000*%
%TD*%
%TA.AperFunction,Profile*%
%ADD11C,0.050000*%
%TD*%
%ADD12O,5.100000X2.600000*%
%ADD13O,3.600000X5.100000*%
%ADD14R,1.160000X0.750000*%
%ADD15R,3.900000X2.100000*%
%ADD16R,1.600000X2.100000*%
%ADD17R,1.000000X0.900000*%
%ADD18C,0.750000*%
%ADD19O,1.150000X1.950000*%
%ADD20R,2.350000X1.827200*%
%ADD21O,2.350000X1.827200*%
%ADD22R,5.100000X5.100000*%
%ADD23R,2.100000X1.000000*%
%ADD24R,1.000000X2.100000*%
%ADD25R,1.900000X2.600000*%
G04 APERTURE END LIST*
D10*
X78000000Y44000000D02*
X64400000Y44000000D01*
X64400000Y30800000D02*
X64400000Y44000000D01*
X35600000Y30800000D02*
X64400000Y30800000D01*
X35600000Y44000000D02*
X35600000Y30800000D01*
D11*
X77166666Y2400000D02*
G75*
G03*
X77166666Y2400000I-1666666J0D01*
G01*
X73000000Y2400000D02*
X78000000Y2400000D01*
X75500000Y4900000D02*
X75500000Y-100000D01*
X5166666Y34500000D02*
G75*
G03*
X5166666Y34500000I-1666666J0D01*
G01*
X1000000Y34500000D02*
X6000000Y34500000D01*
X3500000Y37000000D02*
X3500000Y32000000D01*
D10*
X35600000Y44000000D02*
X0Y44000000D01*
X0Y0D02*
X0Y44000000D01*
X78000000Y0D02*
X0Y0D01*
X78000000Y44000000D02*
X78000000Y0D01*
%TO.C,FB102*%
G36*
G01*
X22431250Y39250000D02*
X21868750Y39250000D01*
G75*
G02*
X21625000Y39493750I0J243750D01*
G01*
X21625000Y39981250D01*
G75*
G02*
X21868750Y40225000I243750J0D01*
G01*
X22431250Y40225000D01*
G75*
G02*
X22675000Y39981250I0J-243750D01*
G01*
X22675000Y39493750D01*
G75*
G02*
X22431250Y39250000I-243750J0D01*
G01*
G37*
G36*
G01*
X22431250Y37675000D02*
X21868750Y37675000D01*
G75*
G02*
X21625000Y37918750I0J243750D01*
G01*
X21625000Y38406250D01*
G75*
G02*
X21868750Y38650000I243750J0D01*
G01*
X22431250Y38650000D01*
G75*
G02*
X22675000Y38406250I0J-243750D01*
G01*
X22675000Y37918750D01*
G75*
G02*
X22431250Y37675000I-243750J0D01*
G01*
G37*
%TD*%
%TO.C,C109*%
G36*
G01*
X21918750Y32900000D02*
X22881250Y32900000D01*
G75*
G02*
X23150000Y32631250I0J-268750D01*
G01*
X23150000Y32093750D01*
G75*
G02*
X22881250Y31825000I-268750J0D01*
G01*
X21918750Y31825000D01*
G75*
G02*
X21650000Y32093750I0J268750D01*
G01*
X21650000Y32631250D01*
G75*
G02*
X21918750Y32900000I268750J0D01*
G01*
G37*
G36*
G01*
X21918750Y34775000D02*
X22881250Y34775000D01*
G75*
G02*
X23150000Y34506250I0J-268750D01*
G01*
X23150000Y33968750D01*
G75*
G02*
X22881250Y33700000I-268750J0D01*
G01*
X21918750Y33700000D01*
G75*
G02*
X21650000Y33968750I0J268750D01*
G01*
X21650000Y34506250D01*
G75*
G02*
X21918750Y34775000I268750J0D01*
G01*
G37*
%TD*%
D12*
%TO.C,J102*%
X11100000Y34400000D03*
D13*
X18200000Y34950000D03*
D12*
X11900000Y31000000D03*
%TD*%
D14*
%TO.C,U101*%
X40750000Y6250000D03*
X40750000Y5300000D03*
X40750000Y7200000D03*
X42950000Y7200000D03*
X42950000Y6250000D03*
X42950000Y5300000D03*
%TD*%
%TO.C,C111*%
G36*
G01*
X34656133Y32300000D02*
X32743867Y32300000D01*
G75*
G02*
X32475000Y32568867I0J268867D01*
G01*
X32475000Y33456133D01*
G75*
G02*
X32743867Y33725000I268867J0D01*
G01*
X34656133Y33725000D01*
G75*
G02*
X34925000Y33456133I0J-268867D01*
G01*
X34925000Y32568867D01*
G75*
G02*
X34656133Y32300000I-268867J0D01*
G01*
G37*
G36*
G01*
X34656133Y35375000D02*
X32743867Y35375000D01*
G75*
G02*
X32475000Y35643867I0J268867D01*
G01*
X32475000Y36531133D01*
G75*
G02*
X32743867Y36800000I268867J0D01*
G01*
X34656133Y36800000D01*
G75*
G02*
X34925000Y36531133I0J-268867D01*
G01*
X34925000Y35643867D01*
G75*
G02*
X34656133Y35375000I-268867J0D01*
G01*
G37*
%TD*%
%TO.C,U102*%
G36*
G01*
X65700000Y10520000D02*
X65700000Y10870000D01*
G75*
G02*
X65875000Y11045000I175000J0D01*
G01*
X67575000Y11045000D01*
G75*
G02*
X67750000Y10870000I0J-175000D01*
G01*
X67750000Y10520000D01*
G75*
G02*
X67575000Y10345000I-175000J0D01*
G01*
X65875000Y10345000D01*
G75*
G02*
X65700000Y10520000I0J175000D01*
G01*
G37*
G36*
G01*
X65700000Y9250000D02*
X65700000Y9600000D01*
G75*
G02*
X65875000Y9775000I175000J0D01*
G01*
X67575000Y9775000D01*
G75*
G02*
X67750000Y9600000I0J-175000D01*
G01*
X67750000Y9250000D01*
G75*
G02*
X67575000Y9075000I-175000J0D01*
G01*
X65875000Y9075000D01*
G75*
G02*
X65700000Y9250000I0J175000D01*
G01*
G37*
G36*
G01*
X65700000Y7980000D02*
X65700000Y8330000D01*
G75*
G02*
X65875000Y8505000I175000J0D01*
G01*
X67575000Y8505000D01*
G75*
G02*
X67750000Y8330000I0J-175000D01*
G01*
X67750000Y7980000D01*
G75*
G02*
X67575000Y7805000I-175000J0D01*
G01*
X65875000Y7805000D01*
G75*
G02*
X65700000Y7980000I0J175000D01*
G01*
G37*
G36*
G01*
X65700000Y6710000D02*
X65700000Y7060000D01*
G75*
G02*
X65875000Y7235000I175000J0D01*
G01*
X67575000Y7235000D01*
G75*
G02*
X67750000Y7060000I0J-175000D01*
G01*
X67750000Y6710000D01*
G75*
G02*
X67575000Y6535000I-175000J0D01*
G01*
X65875000Y6535000D01*
G75*
G02*
X65700000Y6710000I0J175000D01*
G01*
G37*
G36*
G01*
X65700000Y5440000D02*
X65700000Y5790000D01*
G75*
G02*
X65875000Y5965000I175000J0D01*
G01*
X67575000Y5965000D01*
G75*
G02*
X67750000Y5790000I0J-175000D01*
G01*
X67750000Y5440000D01*
G75*
G02*
X67575000Y5265000I-175000J0D01*
G01*
X65875000Y5265000D01*
G75*
G02*
X65700000Y5440000I0J175000D01*
G01*
G37*
G36*
G01*
X65700000Y4170000D02*
X65700000Y4520000D01*
G75*
G02*
X65875000Y4695000I175000J0D01*
G01*
X67575000Y4695000D01*
G75*
G02*
X67750000Y4520000I0J-175000D01*
G01*
X67750000Y4170000D01*
G75*
G02*
X67575000Y3995000I-175000J0D01*
G01*
X65875000Y3995000D01*
G75*
G02*
X65700000Y4170000I0J175000D01*
G01*
G37*
G36*
G01*
X65700000Y2900000D02*
X65700000Y3250000D01*
G75*
G02*
X65875000Y3425000I175000J0D01*
G01*
X67575000Y3425000D01*
G75*
G02*
X67750000Y3250000I0J-175000D01*
G01*
X67750000Y2900000D01*
G75*
G02*
X67575000Y2725000I-175000J0D01*
G01*
X65875000Y2725000D01*
G75*
G02*
X65700000Y2900000I0J175000D01*
G01*
G37*
G36*
G01*
X65700000Y1630000D02*
X65700000Y1980000D01*
G75*
G02*
X65875000Y2155000I175000J0D01*
G01*
X67575000Y2155000D01*
G75*
G02*
X67750000Y1980000I0J-175000D01*
G01*
X67750000Y1630000D01*
G75*
G02*
X67575000Y1455000I-175000J0D01*
G01*
X65875000Y1455000D01*
G75*
G02*
X65700000Y1630000I0J175000D01*
G01*
G37*
G36*
G01*
X60750000Y1630000D02*
X60750000Y1980000D01*
G75*
G02*
X60925000Y2155000I175000J0D01*
G01*
X62625000Y2155000D01*
G75*
G02*
X62800000Y1980000I0J-175000D01*
G01*
X62800000Y1630000D01*
G75*
G02*
X62625000Y1455000I-175000J0D01*
G01*
X60925000Y1455000D01*
G75*
G02*
X60750000Y1630000I0J175000D01*
G01*
G37*
G36*
G01*
X60750000Y2900000D02*
X60750000Y3250000D01*
G75*
G02*
X60925000Y3425000I175000J0D01*
G01*
X62625000Y3425000D01*
G75*
G02*
X62800000Y3250000I0J-175000D01*
G01*
X62800000Y2900000D01*
G75*
G02*
X62625000Y2725000I-175000J0D01*
G01*
X60925000Y2725000D01*
G75*
G02*
X60750000Y2900000I0J175000D01*
G01*
G37*
G36*
G01*
X60750000Y4170000D02*
X60750000Y4520000D01*
G75*
G02*
X60925000Y4695000I175000J0D01*
G01*
X62625000Y4695000D01*
G75*
G02*
X62800000Y4520000I0J-175000D01*
G01*
X62800000Y4170000D01*
G75*
G02*
X62625000Y3995000I-175000J0D01*
G01*
X60925000Y3995000D01*
G75*
G02*
X60750000Y4170000I0J175000D01*
G01*
G37*
G36*
G01*
X60750000Y5440000D02*
X60750000Y5790000D01*
G75*
G02*
X60925000Y5965000I175000J0D01*
G01*
X62625000Y5965000D01*
G75*
G02*
X62800000Y5790000I0J-175000D01*
G01*
X62800000Y5440000D01*
G75*
G02*
X62625000Y5265000I-175000J0D01*
G01*
X60925000Y5265000D01*
G75*
G02*
X60750000Y5440000I0J175000D01*
G01*
G37*
G36*
G01*
X60750000Y6710000D02*
X60750000Y7060000D01*
G75*
G02*
X60925000Y7235000I175000J0D01*
G01*
X62625000Y7235000D01*
G75*
G02*
X62800000Y7060000I0J-175000D01*
G01*
X62800000Y6710000D01*
G75*
G02*
X62625000Y6535000I-175000J0D01*
G01*
X60925000Y6535000D01*
G75*
G02*
X60750000Y6710000I0J175000D01*
G01*
G37*
G36*
G01*
X60750000Y7980000D02*
X60750000Y8330000D01*
G75*
G02*
X60925000Y8505000I175000J0D01*
G01*
X62625000Y8505000D01*
G75*
G02*
X62800000Y8330000I0J-175000D01*
G01*
X62800000Y7980000D01*
G75*
G02*
X62625000Y7805000I-175000J0D01*
G01*
X60925000Y7805000D01*
G75*
G02*
X60750000Y7980000I0J175000D01*
G01*
G37*
G36*
G01*
X60750000Y9250000D02*
X60750000Y9600000D01*
G75*
G02*
X60925000Y9775000I175000J0D01*
G01*
X62625000Y9775000D01*
G75*
G02*
X62800000Y9600000I0J-175000D01*
G01*
X62800000Y9250000D01*
G75*
G02*
X62625000Y9075000I-175000J0D01*
G01*
X60925000Y9075000D01*
G75*
G02*
X60750000Y9250000I0J175000D01*
G01*
G37*
G36*
G01*
X60750000Y10520000D02*
X60750000Y10870000D01*
G75*
G02*
X60925000Y11045000I175000J0D01*
G01*
X62625000Y11045000D01*
G75*
G02*
X62800000Y10870000I0J-175000D01*
G01*
X62800000Y10520000D01*
G75*
G02*
X62625000Y10345000I-175000J0D01*
G01*
X60925000Y10345000D01*
G75*
G02*
X60750000Y10520000I0J175000D01*
G01*
G37*
%TD*%
D15*
%TO.C,U105*%
X27950000Y32450000D03*
D16*
X27950000Y38750000D03*
X25650000Y38750000D03*
X30250000Y38750000D03*
%TD*%
D17*
%TO.C,Q107*%
X69450000Y29550000D03*
X69450000Y27650000D03*
X71450000Y28600000D03*
%TD*%
%TO.C,Q103*%
X71750000Y15050000D03*
X71750000Y16950000D03*
X69750000Y16000000D03*
%TD*%
%TO.C,Q102*%
X71750000Y20000000D03*
X71750000Y21900000D03*
X69750000Y20950000D03*
%TD*%
D18*
%TO.C,J101*%
X51500000Y4900000D03*
X47500000Y4900000D03*
D19*
X53075000Y2770000D03*
X45925000Y2770000D03*
X53075000Y6220000D03*
X45925000Y6220000D03*
G36*
G01*
X50550000Y5095000D02*
X50550000Y6345000D01*
G75*
G02*
X50675000Y6470000I125000J0D01*
G01*
X50925000Y6470000D01*
G75*
G02*
X51050000Y6345000I0J-125000D01*
G01*
X51050000Y5095000D01*
G75*
G02*
X50925000Y4970000I-125000J0D01*
G01*
X50675000Y4970000D01*
G75*
G02*
X50550000Y5095000I0J125000D01*
G01*
G37*
G36*
G01*
X49900000Y5095000D02*
X49900000Y6345000D01*
G75*
G02*
X50025000Y6470000I125000J0D01*
G01*
X50275000Y6470000D01*
G75*
G02*
X50400000Y6345000I0J-125000D01*
G01*
X50400000Y5095000D01*
G75*
G02*
X50275000Y4970000I-125000J0D01*
G01*
X50025000Y4970000D01*
G75*
G02*
X49900000Y5095000I0J125000D01*
G01*
G37*
G36*
G01*
X49250000Y5095000D02*
X49250000Y6345000D01*
G75*
G02*
X49375000Y6470000I125000J0D01*
G01*
X49625000Y6470000D01*
G75*
G02*
X49750000Y6345000I0J-125000D01*
G01*
X49750000Y5095000D01*
G75*
G02*
X49625000Y4970000I-125000J0D01*
G01*
X49375000Y4970000D01*
G75*
G02*
X49250000Y5095000I0J125000D01*
G01*
G37*
G36*
G01*
X48600000Y5095000D02*
X48600000Y6345000D01*
G75*
G02*
X48725000Y6470000I125000J0D01*
G01*
X48975000Y6470000D01*
G75*
G02*
X49100000Y6345000I0J-125000D01*
G01*
X49100000Y5095000D01*
G75*
G02*
X48975000Y4970000I-125000J0D01*
G01*
X48725000Y4970000D01*
G75*
G02*
X48600000Y5095000I0J125000D01*
G01*
G37*
G36*
G01*
X47950000Y5095000D02*
X47950000Y6345000D01*
G75*
G02*
X48075000Y6470000I125000J0D01*
G01*
X48325000Y6470000D01*
G75*
G02*
X48450000Y6345000I0J-125000D01*
G01*
X48450000Y5095000D01*
G75*
G02*
X48325000Y4970000I-125000J0D01*
G01*
X48075000Y4970000D01*
G75*
G02*
X47950000Y5095000I0J125000D01*
G01*
G37*
%TD*%
D20*
%TO.C,U107*%
X2570000Y26190000D03*
D21*
X2570000Y23650000D03*
X2570000Y21110000D03*
X2570000Y18570000D03*
X75500000Y5480000D03*
X75500000Y8020000D03*
X75500000Y10560000D03*
X75500000Y13100000D03*
X75500000Y15640000D03*
X75500000Y18180000D03*
X75500000Y20720000D03*
X75500000Y23260000D03*
X75500000Y25800000D03*
X75500000Y28340000D03*
X75500000Y30880000D03*
X75500000Y33420000D03*
X75500000Y35960000D03*
D20*
X75500000Y38500000D03*
%TD*%
D22*
%TO.C,U106*%
X49000000Y22005000D03*
D23*
X41500000Y29505000D03*
X41500000Y28235000D03*
X41500000Y26965000D03*
X41500000Y25695000D03*
X41500000Y24425000D03*
X41500000Y23155000D03*
X41500000Y21885000D03*
X41500000Y20615000D03*
X41500000Y19345000D03*
X41500000Y18075000D03*
X41500000Y16805000D03*
X41500000Y15535000D03*
X41500000Y14265000D03*
X41500000Y12995000D03*
D24*
X44285000Y11995000D03*
X45555000Y11995000D03*
X46825000Y11995000D03*
X48095000Y11995000D03*
X49365000Y11995000D03*
X50635000Y11995000D03*
X51905000Y11995000D03*
X53175000Y11995000D03*
X54445000Y11995000D03*
X55715000Y11995000D03*
D23*
X58500000Y12995000D03*
X58500000Y14265000D03*
X58500000Y15535000D03*
X58500000Y16805000D03*
X58500000Y18075000D03*
X58500000Y19345000D03*
X58500000Y20615000D03*
X58500000Y21885000D03*
X58500000Y23155000D03*
X58500000Y24425000D03*
X58500000Y25695000D03*
X58500000Y26965000D03*
X58500000Y28235000D03*
X58500000Y29505000D03*
%TD*%
D25*
%TO.C,D101*%
X56500000Y6100000D03*
X56500000Y2100000D03*
%TD*%
%TO.C,D105*%
X63000000Y15500000D03*
X63000000Y19500000D03*
%TD*%
%TO.C,D106*%
X66750000Y15500000D03*
X66750000Y19500000D03*
%TD*%
%TO.C,R109*%
G36*
G01*
X69275000Y8518750D02*
X69275000Y9481250D01*
G75*
G02*
X69543750Y9750000I268750J0D01*
G01*
X70081250Y9750000D01*
G75*
G02*
X70350000Y9481250I0J-268750D01*
G01*
X70350000Y8518750D01*
G75*
G02*
X70081250Y8250000I-268750J0D01*
G01*
X69543750Y8250000D01*
G75*
G02*
X69275000Y8518750I0J268750D01*
G01*
G37*
G36*
G01*
X71150000Y8518750D02*
X71150000Y9481250D01*
G75*
G02*
X71418750Y9750000I268750J0D01*
G01*
X71956250Y9750000D01*
G75*
G02*
X72225000Y9481250I0J-268750D01*
G01*
X72225000Y8518750D01*
G75*
G02*
X71956250Y8250000I-268750J0D01*
G01*
X71418750Y8250000D01*
G75*
G02*
X71150000Y8518750I0J268750D01*
G01*
G37*
%TD*%
%TO.C,R110*%
G36*
G01*
X71150000Y12018750D02*
X71150000Y12981250D01*
G75*
G02*
X71418750Y13250000I268750J0D01*
G01*
X71956250Y13250000D01*
G75*
G02*
X72225000Y12981250I0J-268750D01*
G01*
X72225000Y12018750D01*
G75*
G02*
X71956250Y11750000I-268750J0D01*
G01*
X71418750Y11750000D01*
G75*
G02*
X71150000Y12018750I0J268750D01*
G01*
G37*
G36*
G01*
X69275000Y12018750D02*
X69275000Y12981250D01*
G75*
G02*
X69543750Y13250000I268750J0D01*
G01*
X70081250Y13250000D01*
G75*
G02*
X70350000Y12981250I0J-268750D01*
G01*
X70350000Y12018750D01*
G75*
G02*
X70081250Y11750000I-268750J0D01*
G01*
X69543750Y11750000D01*
G75*
G02*
X69275000Y12018750I0J268750D01*
G01*
G37*
%TD*%
%TO.C,R113*%
G36*
G01*
X68475000Y13231250D02*
X68475000Y12268750D01*
G75*
G02*
X68206250Y12000000I-268750J0D01*
G01*
X67668750Y12000000D01*
G75*
G02*
X67400000Y12268750I0J268750D01*
G01*
X67400000Y13231250D01*
G75*
G02*
X67668750Y13500000I268750J0D01*
G01*
X68206250Y13500000D01*
G75*
G02*
X68475000Y13231250I0J-268750D01*
G01*
G37*
G36*
G01*
X66600000Y13231250D02*
X66600000Y12268750D01*
G75*
G02*
X66331250Y12000000I-268750J0D01*
G01*
X65793750Y12000000D01*
G75*
G02*
X65525000Y12268750I0J268750D01*
G01*
X65525000Y13231250D01*
G75*
G02*
X65793750Y13500000I268750J0D01*
G01*
X66331250Y13500000D01*
G75*
G02*
X66600000Y13231250I0J-268750D01*
G01*
G37*
%TD*%
%TO.C,C112*%
G36*
G01*
X38531250Y28900000D02*
X37568750Y28900000D01*
G75*
G02*
X37300000Y29168750I0J268750D01*
G01*
X37300000Y29706250D01*
G75*
G02*
X37568750Y29975000I268750J0D01*
G01*
X38531250Y29975000D01*
G75*
G02*
X38800000Y29706250I0J-268750D01*
G01*
X38800000Y29168750D01*
G75*
G02*
X38531250Y28900000I-268750J0D01*
G01*
G37*
G36*
G01*
X38531250Y27025000D02*
X37568750Y27025000D01*
G75*
G02*
X37300000Y27293750I0J268750D01*
G01*
X37300000Y27831250D01*
G75*
G02*
X37568750Y28100000I268750J0D01*
G01*
X38531250Y28100000D01*
G75*
G02*
X38800000Y27831250I0J-268750D01*
G01*
X38800000Y27293750D01*
G75*
G02*
X38531250Y27025000I-268750J0D01*
G01*
G37*
%TD*%
%TO.C,C114*%
G36*
G01*
X34231250Y26025000D02*
X33268750Y26025000D01*
G75*
G02*
X33000000Y26293750I0J268750D01*
G01*
X33000000Y26831250D01*
G75*
G02*
X33268750Y27100000I268750J0D01*
G01*
X34231250Y27100000D01*
G75*
G02*
X34500000Y26831250I0J-268750D01*
G01*
X34500000Y26293750D01*
G75*
G02*
X34231250Y26025000I-268750J0D01*
G01*
G37*
G36*
G01*
X34231250Y27900000D02*
X33268750Y27900000D01*
G75*
G02*
X33000000Y28168750I0J268750D01*
G01*
X33000000Y28706250D01*
G75*
G02*
X33268750Y28975000I268750J0D01*
G01*
X34231250Y28975000D01*
G75*
G02*
X34500000Y28706250I0J-268750D01*
G01*
X34500000Y28168750D01*
G75*
G02*
X34231250Y27900000I-268750J0D01*
G01*
G37*
%TD*%
%TO.C,R116*%
G36*
G01*
X36231250Y26025000D02*
X35268750Y26025000D01*
G75*
G02*
X35000000Y26293750I0J268750D01*
G01*
X35000000Y26831250D01*
G75*
G02*
X35268750Y27100000I268750J0D01*
G01*
X36231250Y27100000D01*
G75*
G02*
X36500000Y26831250I0J-268750D01*
G01*
X36500000Y26293750D01*
G75*
G02*
X36231250Y26025000I-268750J0D01*
G01*
G37*
G36*
G01*
X36231250Y27900000D02*
X35268750Y27900000D01*
G75*
G02*
X35000000Y28168750I0J268750D01*
G01*
X35000000Y28706250D01*
G75*
G02*
X35268750Y28975000I268750J0D01*
G01*
X36231250Y28975000D01*
G75*
G02*
X36500000Y28706250I0J-268750D01*
G01*
X36500000Y28168750D01*
G75*
G02*
X36231250Y27900000I-268750J0D01*
G01*
G37*
%TD*%
%TO.C,C115*%
G36*
G01*
X72118750Y37825000D02*
X73081250Y37825000D01*
G75*
G02*
X73350000Y37556250I0J-268750D01*
G01*
X73350000Y37018750D01*
G75*
G02*
X73081250Y36750000I-268750J0D01*
G01*
X72118750Y36750000D01*
G75*
G02*
X71850000Y37018750I0J268750D01*
G01*
X71850000Y37556250D01*
G75*
G02*
X72118750Y37825000I268750J0D01*
G01*
G37*
G36*
G01*
X72118750Y35950000D02*
X73081250Y35950000D01*
G75*
G02*
X73350000Y35681250I0J-268750D01*
G01*
X73350000Y35143750D01*
G75*
G02*
X73081250Y34875000I-268750J0D01*
G01*
X72118750Y34875000D01*
G75*
G02*
X71850000Y35143750I0J268750D01*
G01*
X71850000Y35681250D01*
G75*
G02*
X72118750Y35950000I268750J0D01*
G01*
G37*
%TD*%
%TO.C,C116*%
G36*
G01*
X56475000Y8718750D02*
X56475000Y9681250D01*
G75*
G02*
X56743750Y9950000I268750J0D01*
G01*
X57281250Y9950000D01*
G75*
G02*
X57550000Y9681250I0J-268750D01*
G01*
X57550000Y8718750D01*
G75*
G02*
X57281250Y8450000I-268750J0D01*
G01*
X56743750Y8450000D01*
G75*
G02*
X56475000Y8718750I0J268750D01*
G01*
G37*
G36*
G01*
X58350000Y8718750D02*
X58350000Y9681250D01*
G75*
G02*
X58618750Y9950000I268750J0D01*
G01*
X59156250Y9950000D01*
G75*
G02*
X59425000Y9681250I0J-268750D01*
G01*
X59425000Y8718750D01*
G75*
G02*
X59156250Y8450000I-268750J0D01*
G01*
X58618750Y8450000D01*
G75*
G02*
X58350000Y8718750I0J268750D01*
G01*
G37*
%TD*%
%TO.C,R118*%
G36*
G01*
X37918750Y14962500D02*
X38881250Y14962500D01*
G75*
G02*
X39150000Y14693750I0J-268750D01*
G01*
X39150000Y14156250D01*
G75*
G02*
X38881250Y13887500I-268750J0D01*
G01*
X37918750Y13887500D01*
G75*
G02*
X37650000Y14156250I0J268750D01*
G01*
X37650000Y14693750D01*
G75*
G02*
X37918750Y14962500I268750J0D01*
G01*
G37*
G36*
G01*
X37918750Y16837500D02*
X38881250Y16837500D01*
G75*
G02*
X39150000Y16568750I0J-268750D01*
G01*
X39150000Y16031250D01*
G75*
G02*
X38881250Y15762500I-268750J0D01*
G01*
X37918750Y15762500D01*
G75*
G02*
X37650000Y16031250I0J268750D01*
G01*
X37650000Y16568750D01*
G75*
G02*
X37918750Y16837500I268750J0D01*
G01*
G37*
%TD*%
%TO.C,R120*%
G36*
G01*
X68031250Y27175000D02*
X67068750Y27175000D01*
G75*
G02*
X66800000Y27443750I0J268750D01*
G01*
X66800000Y27981250D01*
G75*
G02*
X67068750Y28250000I268750J0D01*
G01*
X68031250Y28250000D01*
G75*
G02*
X68300000Y27981250I0J-268750D01*
G01*
X68300000Y27443750D01*
G75*
G02*
X68031250Y27175000I-268750J0D01*
G01*
G37*
G36*
G01*
X68031250Y29050000D02*
X67068750Y29050000D01*
G75*
G02*
X66800000Y29318750I0J268750D01*
G01*
X66800000Y29856250D01*
G75*
G02*
X67068750Y30125000I268750J0D01*
G01*
X68031250Y30125000D01*
G75*
G02*
X68300000Y29856250I0J-268750D01*
G01*
X68300000Y29318750D01*
G75*
G02*
X68031250Y29050000I-268750J0D01*
G01*
G37*
%TD*%
M02*
