%TF.GenerationSoftware,KiCad,Pcbnew,(5.1.6-0-10_14)*%
%TF.CreationDate,2021-01-11T21:18:32+11:00*%
%TF.ProjectId,esp32lcd,65737033-326c-4636-942e-6b696361645f,rev?*%
%TF.SameCoordinates,PX47868c0PY93d1cc0*%
%TF.FileFunction,Legend,Bot*%
%TF.FilePolarity,Positive*%
%FSLAX46Y46*%
G04 Gerber Fmt 4.6, Leading zero omitted, Abs format (unit mm)*
G04 Created by KiCad (PCBNEW (5.1.6-0-10_14)) date 2021-01-11 21:18:32*
%MOMM*%
%LPD*%
G01*
G04 APERTURE LIST*
%TA.AperFunction,Profile*%
%ADD10C,0.150000*%
%TD*%
%TA.AperFunction,Profile*%
%ADD11C,0.050000*%
%TD*%
%ADD12C,0.120000*%
%ADD13C,0.150000*%
G04 APERTURE END LIST*
D10*
X78000000Y44000000D02*
X64400000Y44000000D01*
X64400000Y30800000D02*
X64400000Y44000000D01*
X35600000Y30800000D02*
X64400000Y30800000D01*
X35600000Y44000000D02*
X35600000Y30800000D01*
D11*
X77166666Y2400000D02*
G75*
G03*
X77166666Y2400000I-1666666J0D01*
G01*
X73000000Y2400000D02*
X78000000Y2400000D01*
X75500000Y4900000D02*
X75500000Y-100000D01*
X5166666Y34500000D02*
G75*
G03*
X5166666Y34500000I-1666666J0D01*
G01*
X1000000Y34500000D02*
X6000000Y34500000D01*
X3500000Y37000000D02*
X3500000Y32000000D01*
D10*
X35600000Y44000000D02*
X0Y44000000D01*
X0Y0D02*
X0Y44000000D01*
X78000000Y0D02*
X0Y0D01*
X78000000Y44000000D02*
X78000000Y0D01*
D12*
%TO.C,U15*%
X17000000Y27500000D02*
X17000000Y43500000D01*
X43000000Y27500000D02*
X17000000Y27500000D01*
X43000000Y43500000D02*
X43000000Y27500000D01*
D13*
X77500000Y500000D02*
X77500000Y43500000D01*
X77500000Y43500000D02*
X500000Y43500000D01*
X500000Y500000D02*
X500000Y43500000D01*
X77500000Y500000D02*
X500000Y500000D01*
D12*
X72000000Y40500000D02*
G75*
G03*
X72000000Y40500000I-1500000J0D01*
G01*
X72000000Y3500000D02*
G75*
G03*
X72000000Y3500000I-1500000J0D01*
G01*
X5000000Y3500000D02*
G75*
G03*
X5000000Y3500000I-1500000J0D01*
G01*
X5000000Y40500000D02*
G75*
G03*
X5000000Y40500000I-1500000J0D01*
G01*
X67000000Y43000000D02*
X67000000Y1000000D01*
X67000000Y1000000D02*
X6500000Y1000000D01*
X6500000Y1000000D02*
X6500000Y43000000D01*
X6500000Y43000000D02*
X67000000Y43000000D01*
%TD*%
M02*
