%TF.GenerationSoftware,KiCad,Pcbnew,(5.1.6-0-10_14)*%
%TF.CreationDate,2021-01-11T21:18:32+11:00*%
%TF.ProjectId,esp32lcd,65737033-326c-4636-942e-6b696361645f,rev?*%
%TF.SameCoordinates,PX47868c0PY93d1cc0*%
%TF.FileFunction,Soldermask,Bot*%
%TF.FilePolarity,Negative*%
%FSLAX46Y46*%
G04 Gerber Fmt 4.6, Leading zero omitted, Abs format (unit mm)*
G04 Created by KiCad (PCBNEW (5.1.6-0-10_14)) date 2021-01-11 21:18:32*
%MOMM*%
%LPD*%
G01*
G04 APERTURE LIST*
%TA.AperFunction,Profile*%
%ADD10C,0.150000*%
%TD*%
%TA.AperFunction,Profile*%
%ADD11C,0.050000*%
%TD*%
%ADD12O,5.100000X2.600000*%
%ADD13O,3.600000X5.100000*%
%ADD14C,0.750000*%
%ADD15O,1.150000X1.950000*%
%ADD16R,2.350000X1.827200*%
%ADD17O,2.350000X1.827200*%
G04 APERTURE END LIST*
D10*
X78000000Y44000000D02*
X64400000Y44000000D01*
X64400000Y30800000D02*
X64400000Y44000000D01*
X35600000Y30800000D02*
X64400000Y30800000D01*
X35600000Y44000000D02*
X35600000Y30800000D01*
D11*
X77166666Y2400000D02*
G75*
G03*
X77166666Y2400000I-1666666J0D01*
G01*
X73000000Y2400000D02*
X78000000Y2400000D01*
X75500000Y4900000D02*
X75500000Y-100000D01*
X5166666Y34500000D02*
G75*
G03*
X5166666Y34500000I-1666666J0D01*
G01*
X1000000Y34500000D02*
X6000000Y34500000D01*
X3500000Y37000000D02*
X3500000Y32000000D01*
D10*
X35600000Y44000000D02*
X0Y44000000D01*
X0Y0D02*
X0Y44000000D01*
X78000000Y0D02*
X0Y0D01*
X78000000Y44000000D02*
X78000000Y0D01*
D12*
%TO.C,J12*%
X11100000Y34400000D03*
D13*
X18200000Y34950000D03*
D12*
X11900000Y31000000D03*
%TD*%
D14*
%TO.C,J11*%
X51500000Y4900000D03*
X47500000Y4900000D03*
D15*
X53075000Y2770000D03*
X45925000Y2770000D03*
X53075000Y6220000D03*
X45925000Y6220000D03*
%TD*%
D16*
%TO.C,U15*%
X2570000Y26190000D03*
D17*
X2570000Y23650000D03*
X2570000Y21110000D03*
X2570000Y18570000D03*
X75500000Y5480000D03*
X75500000Y8020000D03*
X75500000Y10560000D03*
X75500000Y13100000D03*
X75500000Y15640000D03*
X75500000Y18180000D03*
X75500000Y20720000D03*
X75500000Y23260000D03*
X75500000Y25800000D03*
X75500000Y28340000D03*
X75500000Y30880000D03*
X75500000Y33420000D03*
X75500000Y35960000D03*
D16*
X75500000Y38500000D03*
%TD*%
M02*
