%TF.GenerationSoftware,KiCad,Pcbnew,(5.1.6-0-10_14)*%
%TF.CreationDate,2021-01-11T21:18:32+11:00*%
%TF.ProjectId,esp32lcd,65737033-326c-4636-942e-6b696361645f,rev?*%
%TF.SameCoordinates,PX47868c0PY93d1cc0*%
%TF.FileFunction,Copper,L2,Bot*%
%TF.FilePolarity,Positive*%
%FSLAX46Y46*%
G04 Gerber Fmt 4.6, Leading zero omitted, Abs format (unit mm)*
G04 Created by KiCad (PCBNEW (5.1.6-0-10_14)) date 2021-01-11 21:18:32*
%MOMM*%
%LPD*%
G01*
G04 APERTURE LIST*
%TA.AperFunction,Profile*%
%ADD10C,0.150000*%
%TD*%
%TA.AperFunction,Profile*%
%ADD11C,0.050000*%
%TD*%
%TA.AperFunction,ComponentPad*%
%ADD12O,5.000000X2.500000*%
%TD*%
%TA.AperFunction,ComponentPad*%
%ADD13O,3.500000X5.000000*%
%TD*%
%TA.AperFunction,ComponentPad*%
%ADD14O,1.050000X1.850000*%
%TD*%
%TA.AperFunction,ComponentPad*%
%ADD15R,2.250000X1.727200*%
%TD*%
%TA.AperFunction,ComponentPad*%
%ADD16O,2.250000X1.727200*%
%TD*%
%TA.AperFunction,ViaPad*%
%ADD17C,6.000000*%
%TD*%
%TA.AperFunction,ViaPad*%
%ADD18C,0.800000*%
%TD*%
%TA.AperFunction,ViaPad*%
%ADD19C,5.000000*%
%TD*%
%TA.AperFunction,ViaPad*%
%ADD20C,3.500000*%
%TD*%
%TA.AperFunction,Conductor*%
%ADD21C,1.000000*%
%TD*%
%TA.AperFunction,Conductor*%
%ADD22C,0.350000*%
%TD*%
%TA.AperFunction,Conductor*%
%ADD23C,1.500000*%
%TD*%
%TA.AperFunction,Conductor*%
%ADD24C,0.254000*%
%TD*%
G04 APERTURE END LIST*
D10*
X78000000Y44000000D02*
X64400000Y44000000D01*
X64400000Y30800000D02*
X64400000Y44000000D01*
X35600000Y30800000D02*
X64400000Y30800000D01*
X35600000Y44000000D02*
X35600000Y30800000D01*
D11*
X77166666Y2400000D02*
G75*
G03*
X77166666Y2400000I-1666666J0D01*
G01*
X73000000Y2400000D02*
X78000000Y2400000D01*
X75500000Y4900000D02*
X75500000Y-100000D01*
X5166666Y34500000D02*
G75*
G03*
X5166666Y34500000I-1666666J0D01*
G01*
X1000000Y34500000D02*
X6000000Y34500000D01*
X3500000Y37000000D02*
X3500000Y32000000D01*
D10*
X35600000Y44000000D02*
X0Y44000000D01*
X0Y0D02*
X0Y44000000D01*
X78000000Y0D02*
X0Y0D01*
X78000000Y44000000D02*
X78000000Y0D01*
D12*
%TO.P,J12,3*%
%TO.N,Net-(J12-Pad3)*%
X11100000Y34400000D03*
D13*
%TO.P,J12,2*%
%TO.N,Net-(FB11-Pad2)*%
X18200000Y34950000D03*
D12*
%TO.P,J12,1*%
%TO.N,GND*%
X11900000Y31000000D03*
%TD*%
D14*
%TO.P,J11,6*%
%TO.N,GND*%
X53075000Y2770000D03*
X45925000Y2770000D03*
X53075000Y6220000D03*
X45925000Y6220000D03*
%TD*%
D15*
%TO.P,U15,15*%
%TO.N,VSPICLK*%
X2570000Y26190000D03*
D16*
%TO.P,U15,16*%
%TO.N,VSPIDIN*%
X2570000Y23650000D03*
%TO.P,U15,17*%
%TO.N,VSPIDATA*%
X2570000Y21110000D03*
%TO.P,U15,18*%
%TO.N,VSPICS1*%
X2570000Y18570000D03*
%TO.P,U15,14*%
%TO.N,Net-(U15-Pad14)*%
X75500000Y5480000D03*
%TO.P,U15,13*%
%TO.N,VSPIDIN*%
X75500000Y8020000D03*
%TO.P,U15,12*%
%TO.N,VSPIDATA*%
X75500000Y10560000D03*
%TO.P,U15,11*%
%TO.N,VSPICS2*%
X75500000Y13100000D03*
%TO.P,U15,10*%
%TO.N,VSPICLK*%
X75500000Y15640000D03*
%TO.P,U15,9*%
%TO.N,VSPIDIN*%
X75500000Y18180000D03*
%TO.P,U15,8*%
%TO.N,BACKLIGHT*%
X75500000Y20720000D03*
%TO.P,U15,7*%
%TO.N,VSPICLK*%
X75500000Y23260000D03*
%TO.P,U15,6*%
%TO.N,VSPIDATA*%
X75500000Y25800000D03*
%TO.P,U15,5*%
%TO.N,LCDDC*%
X75500000Y28340000D03*
%TO.P,U15,4*%
%TO.N,LCDRST*%
X75500000Y30880000D03*
%TO.P,U15,3*%
%TO.N,VSPICS0*%
X75500000Y33420000D03*
%TO.P,U15,2*%
%TO.N,GND*%
X75500000Y35960000D03*
D15*
%TO.P,U15,1*%
%TO.N,+3V3*%
X75500000Y38500000D03*
%TD*%
D17*
%TO.N,GND*%
X49000000Y22000000D03*
D18*
X44400000Y15300000D03*
X44400000Y22300000D03*
X52600000Y22300000D03*
D19*
X70500000Y40500000D03*
X3500000Y3500000D03*
D20*
X70500000Y3500000D03*
D19*
X3500000Y40500000D03*
D18*
X58900000Y7850000D03*
X52600000Y15174990D03*
X52600000Y29475010D03*
X44399998Y29475010D03*
X50800000Y7150000D03*
X16000000Y31200000D03*
X44350002Y6250000D03*
X22400000Y31199996D03*
X28200004Y26250000D03*
X33200000Y30200000D03*
X33500005Y38600005D03*
X55600000Y29500000D03*
%TO.N,+5V*%
X58900000Y3000000D03*
X41850001Y3749999D03*
%TO.N,+3V3*%
X51749998Y10100020D03*
X37700000Y24650000D03*
%TO.N,/RXD0*%
X64400002Y11700000D03*
%TO.N,/TXD0*%
X60054998Y8154998D03*
X60399992Y25700000D03*
%TO.N,/RXD0*%
X61399998Y24400000D03*
%TO.N,VSPICS0*%
X56612653Y18412667D03*
X73300000Y27400000D03*
%TO.N,VSPICLK*%
X67239996Y23260002D03*
X55900000Y19600000D03*
%TO.N,VSPIDIN*%
X63579342Y24320658D03*
X55199151Y20741645D03*
%TO.N,VSPIDATA*%
X54200000Y28250000D03*
%TO.N,VSPICS1*%
X54400000Y18700000D03*
%TO.N,LCDRST*%
X55200000Y27300000D03*
%TO.N,LCDDC*%
X56775998Y27379968D03*
%TO.N,VSPICS2*%
X45809528Y10213498D03*
%TO.N,BACKLIGHT*%
X71450002Y25850000D03*
%TO.N,ESP_EN*%
X60824990Y18250000D03*
X39550000Y25800000D03*
X31700000Y30400000D03*
%TO.N,Net-(D11-Pad2)*%
X58750000Y5550000D03*
X47750000Y6850000D03*
%TO.N,Net-(D13-Pad2)*%
X55715000Y10115000D03*
X65400004Y21750000D03*
%TO.N,Net-(FB11-Pad2)*%
X20700000Y36150000D03*
%TO.N,Net-(Q13-Pad1)*%
X43700000Y9400000D03*
X67100000Y25900000D03*
%TD*%
D21*
%TO.N,GND*%
X12200000Y31200000D02*
X16000000Y31200000D01*
X11900000Y31500000D02*
X12200000Y31200000D01*
X16000000Y31200000D02*
X22399996Y31200000D01*
X22399996Y31200000D02*
X22400000Y31199996D01*
D22*
%TO.N,+5V*%
X58900000Y3000000D02*
X57700001Y4199999D01*
X42300001Y4199999D02*
X41850001Y3749999D01*
X57700001Y4199999D02*
X42300001Y4199999D01*
%TO.N,+3V3*%
X37700000Y24150018D02*
X37700000Y24650000D01*
X51749998Y10100020D02*
X37700000Y24150018D01*
%TO.N,/TXD0*%
X60399992Y23717165D02*
X60399992Y25700000D01*
X62600000Y21517157D02*
X60399992Y23717165D01*
X62600000Y10700000D02*
X62600000Y21517157D01*
X60054998Y8154998D02*
X62600000Y10700000D01*
%TO.N,/RXD0*%
X64400002Y11700000D02*
X64400002Y21399996D01*
X64400002Y21399996D02*
X61399998Y24400000D01*
%TO.N,VSPICS0*%
X75500000Y33420000D02*
X74420000Y33420000D01*
X56612653Y18412667D02*
X57012652Y18812666D01*
X59500000Y27400000D02*
X73300000Y27400000D01*
X57012652Y18812666D02*
X57012652Y24912652D01*
X57012652Y24912652D02*
X59500000Y27400000D01*
%TO.N,VSPICLK*%
X67239996Y22910004D02*
X67239996Y23260002D01*
X74510000Y15640000D02*
X67239996Y22910004D01*
X75500000Y15640000D02*
X74510000Y15640000D01*
X4930000Y28550000D02*
X51750000Y28550000D01*
X56299999Y19999999D02*
X55900000Y19600000D01*
X56299999Y24000001D02*
X56299999Y19999999D01*
X2570000Y26190000D02*
X4930000Y28550000D01*
X51750000Y28550000D02*
X56299999Y24000001D01*
%TO.N,VSPIDIN*%
X68679342Y24320658D02*
X63579342Y24320658D01*
X74820000Y18180000D02*
X68679342Y24320658D01*
X75500000Y18180000D02*
X74820000Y18180000D01*
X51200000Y27900000D02*
X55199151Y23900849D01*
X4700000Y27000000D02*
X5600000Y27900000D01*
X3650000Y23650000D02*
X4700000Y24700000D01*
X55199151Y23900849D02*
X55199151Y20741645D01*
X5600000Y27900000D02*
X51200000Y27900000D01*
X4700000Y24700000D02*
X4700000Y27000000D01*
X2570000Y23650000D02*
X3650000Y23650000D01*
%TO.N,VSPIDATA*%
X77000000Y12060000D02*
X75500000Y10560000D01*
X77000000Y24300000D02*
X77000000Y12060000D01*
X75500000Y25800000D02*
X77000000Y24300000D01*
X34675036Y29175036D02*
X35900000Y30400000D01*
X53215681Y30400000D02*
X54200000Y29415681D01*
X2570000Y21110000D02*
X900000Y22780000D01*
X23919497Y29150000D02*
X23944533Y29175036D01*
X900000Y27800000D02*
X2250000Y29150000D01*
X35900000Y30400000D02*
X53215681Y30400000D01*
X23944533Y29175036D02*
X34675036Y29175036D01*
X900000Y22780000D02*
X900000Y27800000D01*
X54200000Y29415681D02*
X54200000Y28250000D01*
X2250000Y29150000D02*
X23919497Y29150000D01*
%TO.N,VSPICS1*%
X5800000Y26300000D02*
X6750000Y27250000D01*
X5800000Y24100000D02*
X5800000Y26300000D01*
X4700000Y23000000D02*
X5800000Y24100000D01*
X50650000Y27250000D02*
X54400000Y23500000D01*
X4700000Y20700000D02*
X4700000Y23000000D01*
X6750000Y27250000D02*
X50650000Y27250000D01*
X54400000Y23500000D02*
X54400000Y18700000D01*
X2570000Y18570000D02*
X4700000Y20700000D01*
%TO.N,LCDRST*%
X73620000Y29000000D02*
X56900000Y29000000D01*
X56900000Y29000000D02*
X55200000Y27300000D01*
X75500000Y30880000D02*
X73620000Y29000000D01*
%TO.N,LCDDC*%
X57596030Y28200000D02*
X56775998Y27379968D01*
X75360000Y28200000D02*
X57596030Y28200000D01*
X75500000Y28340000D02*
X75360000Y28200000D01*
%TO.N,VSPICS2*%
X67750835Y13100000D02*
X61000824Y6349989D01*
X47248027Y8774999D02*
X45809528Y10213498D01*
X75500000Y13100000D02*
X67750835Y13100000D01*
X61000824Y6349989D02*
X58022178Y6349989D01*
X58022178Y6349989D02*
X55597169Y8774999D01*
X55597169Y8774999D02*
X47248027Y8774999D01*
%TO.N,BACKLIGHT*%
X75500000Y20720000D02*
X74580000Y20720000D01*
X71450002Y24769998D02*
X71450002Y25850000D01*
X75500000Y20720000D02*
X71450002Y24769998D01*
%TO.N,ESP_EN*%
X53828003Y17524993D02*
X47825007Y17524993D01*
X60099981Y17524991D02*
X53828005Y17524991D01*
X53828005Y17524991D02*
X53828003Y17524993D01*
X39949999Y25400001D02*
X39550000Y25800000D01*
X47825007Y17524993D02*
X39949999Y25400001D01*
X60824990Y18250000D02*
X60099981Y17524991D01*
D23*
X31700000Y30400000D02*
X31700000Y42000000D01*
D22*
%TO.N,Net-(D11-Pad2)*%
X55594336Y8000000D02*
X48900000Y8000000D01*
X48900000Y8000000D02*
X47750000Y6850000D01*
X58044336Y5550000D02*
X55594336Y8000000D01*
X58750000Y5550000D02*
X58044336Y5550000D01*
%TO.N,Net-(D13-Pad2)*%
X55715000Y9435000D02*
X58250000Y6900000D01*
X60773002Y6900000D02*
X65400004Y11527002D01*
X58250000Y6900000D02*
X60773002Y6900000D01*
X55715000Y10115000D02*
X55715000Y9435000D01*
X65400004Y11527002D02*
X65400004Y21750000D01*
D21*
%TO.N,Net-(FB11-Pad2)*%
X20700000Y35500000D02*
X20700000Y36150000D01*
X20150000Y34950000D02*
X20700000Y35500000D01*
X18200000Y34950000D02*
X20150000Y34950000D01*
D22*
%TO.N,Net-(Q13-Pad1)*%
X66400000Y26600000D02*
X67100000Y25900000D01*
X60052998Y26600000D02*
X66400000Y26600000D01*
X59100000Y25647002D02*
X60052998Y26600000D01*
X59100000Y22850000D02*
X59100000Y25647002D01*
X53198012Y9325010D02*
X61600000Y17726998D01*
X51301986Y9325010D02*
X53198012Y9325010D01*
X61600000Y20350000D02*
X59100000Y22850000D01*
X49326997Y11299999D02*
X51301986Y9325010D01*
X61600000Y17726998D02*
X61600000Y20350000D01*
X45599999Y11299999D02*
X49326997Y11299999D01*
X43700000Y9400000D02*
X45599999Y11299999D01*
%TD*%
D24*
%TO.N,GND*%
G36*
X53848000Y23271354D02*
G01*
X53848001Y19246846D01*
X53796464Y19195309D01*
X53711431Y19068048D01*
X53652859Y18926643D01*
X53623000Y18776528D01*
X53623000Y18623472D01*
X53652859Y18473357D01*
X53711431Y18331952D01*
X53796464Y18204691D01*
X53904691Y18096464D01*
X53933834Y18076991D01*
X53855132Y18076991D01*
X53855112Y18076993D01*
X53855109Y18076993D01*
X53828003Y18079663D01*
X53800897Y18076993D01*
X48053653Y18076993D01*
X40359495Y25771149D01*
X40359490Y25771155D01*
X40327000Y25803645D01*
X40327000Y25876528D01*
X40297141Y26026643D01*
X40238569Y26168048D01*
X40153536Y26295309D01*
X40045309Y26403536D01*
X39918048Y26488569D01*
X39776643Y26547141D01*
X39626528Y26577000D01*
X39473472Y26577000D01*
X39323357Y26547141D01*
X39181952Y26488569D01*
X39054691Y26403536D01*
X38946464Y26295309D01*
X38861431Y26168048D01*
X38802859Y26026643D01*
X38773000Y25876528D01*
X38773000Y25723472D01*
X38802859Y25573357D01*
X38861431Y25431952D01*
X38946464Y25304691D01*
X39054691Y25196464D01*
X39181952Y25111431D01*
X39323357Y25052859D01*
X39473472Y25023000D01*
X39546355Y25023000D01*
X39578845Y24990510D01*
X39578851Y24990505D01*
X47415514Y17153840D01*
X47432796Y17132782D01*
X47516849Y17063802D01*
X47612744Y17012545D01*
X47716796Y16980981D01*
X47797898Y16972993D01*
X47797900Y16972993D01*
X47825006Y16970323D01*
X47852112Y16972993D01*
X53800876Y16972993D01*
X53800896Y16972991D01*
X53800897Y16972991D01*
X53828005Y16970321D01*
X53855113Y16972991D01*
X60065347Y16972991D01*
X52969368Y9877010D01*
X52497862Y9877010D01*
X52526998Y10023492D01*
X52526998Y10176548D01*
X52497139Y10326663D01*
X52438567Y10468068D01*
X52353534Y10595329D01*
X52245307Y10703556D01*
X52118046Y10788589D01*
X51976641Y10847161D01*
X51826526Y10877020D01*
X51753644Y10877020D01*
X38372604Y24258058D01*
X38388569Y24281952D01*
X38447141Y24423357D01*
X38477000Y24573472D01*
X38477000Y24726528D01*
X38447141Y24876643D01*
X38388569Y25018048D01*
X38303536Y25145309D01*
X38195309Y25253536D01*
X38068048Y25338569D01*
X37926643Y25397141D01*
X37776528Y25427000D01*
X37623472Y25427000D01*
X37473357Y25397141D01*
X37331952Y25338569D01*
X37204691Y25253536D01*
X37096464Y25145309D01*
X37011431Y25018048D01*
X36952859Y24876643D01*
X36923000Y24726528D01*
X36923000Y24573472D01*
X36952859Y24423357D01*
X37011431Y24281952D01*
X37096464Y24154691D01*
X37150158Y24100997D01*
X37155988Y24041808D01*
X37187552Y23937756D01*
X37238809Y23841860D01*
X37307789Y23757807D01*
X37328857Y23740517D01*
X49217373Y11851999D01*
X45627096Y11851999D01*
X45599998Y11854668D01*
X45572900Y11851999D01*
X45572890Y11851999D01*
X45491788Y11844011D01*
X45387736Y11812447D01*
X45365572Y11800600D01*
X45291840Y11761190D01*
X45234678Y11714278D01*
X45207788Y11692210D01*
X45190507Y11671153D01*
X43696356Y10177000D01*
X43623472Y10177000D01*
X43473357Y10147141D01*
X43331952Y10088569D01*
X43204691Y10003536D01*
X43096464Y9895309D01*
X43011431Y9768048D01*
X42952859Y9626643D01*
X42923000Y9476528D01*
X42923000Y9323472D01*
X42952859Y9173357D01*
X43011431Y9031952D01*
X43096464Y8904691D01*
X43204691Y8796464D01*
X43331952Y8711431D01*
X43473357Y8652859D01*
X43623472Y8623000D01*
X43776528Y8623000D01*
X43926643Y8652859D01*
X44068048Y8711431D01*
X44195309Y8796464D01*
X44303536Y8904691D01*
X44388569Y9031952D01*
X44447141Y9173357D01*
X44477000Y9323472D01*
X44477000Y9396356D01*
X45063885Y9983240D01*
X45120959Y9845450D01*
X45205992Y9718189D01*
X45314219Y9609962D01*
X45441480Y9524929D01*
X45582885Y9466357D01*
X45733000Y9436498D01*
X45805883Y9436498D01*
X46838534Y8403846D01*
X46855816Y8382788D01*
X46876872Y8365508D01*
X46876873Y8365507D01*
X46939869Y8313808D01*
X47035764Y8262551D01*
X47139816Y8230987D01*
X47248027Y8220329D01*
X47275135Y8222999D01*
X48342353Y8222999D01*
X47746355Y7627000D01*
X47673472Y7627000D01*
X47523357Y7597141D01*
X47381952Y7538569D01*
X47254691Y7453536D01*
X47146464Y7345309D01*
X47061431Y7218048D01*
X47002859Y7076643D01*
X46999651Y7060517D01*
X46948099Y7181246D01*
X46818947Y7370059D01*
X46655441Y7530047D01*
X46463864Y7655063D01*
X46230810Y7738964D01*
X46052000Y7613163D01*
X46052000Y6347000D01*
X47085000Y6347000D01*
X47085000Y6446678D01*
X47146464Y6354691D01*
X47254691Y6246464D01*
X47381952Y6161431D01*
X47523357Y6102859D01*
X47673472Y6073000D01*
X47826528Y6073000D01*
X47976643Y6102859D01*
X48118048Y6161431D01*
X48245309Y6246464D01*
X48353536Y6354691D01*
X48438569Y6481952D01*
X48497141Y6623357D01*
X48527000Y6773472D01*
X48527000Y6846355D01*
X49128646Y7448000D01*
X52260708Y7448000D01*
X52181053Y7370059D01*
X52051901Y7181246D01*
X51962066Y6970865D01*
X51915000Y6747000D01*
X51915000Y6347000D01*
X52948000Y6347000D01*
X52948000Y6367000D01*
X53202000Y6367000D01*
X53202000Y6347000D01*
X54235000Y6347000D01*
X54235000Y6747000D01*
X54187934Y6970865D01*
X54098099Y7181246D01*
X53968947Y7370059D01*
X53889292Y7448000D01*
X55365692Y7448000D01*
X57634844Y5178846D01*
X57652125Y5157789D01*
X57673181Y5140509D01*
X57736177Y5088809D01*
X57787434Y5061412D01*
X57832073Y5037552D01*
X57936125Y5005988D01*
X58017227Y4998000D01*
X58017237Y4998000D01*
X58044335Y4995331D01*
X58071433Y4998000D01*
X58203155Y4998000D01*
X58254691Y4946464D01*
X58381952Y4861431D01*
X58523357Y4802859D01*
X58673472Y4773000D01*
X58826528Y4773000D01*
X58976643Y4802859D01*
X59118048Y4861431D01*
X59245309Y4946464D01*
X59353536Y5054691D01*
X59438569Y5181952D01*
X59497141Y5323357D01*
X59527000Y5473472D01*
X59527000Y5480000D01*
X73991998Y5480000D01*
X74015951Y5236800D01*
X74086890Y5002946D01*
X74202088Y4787425D01*
X74357119Y4598519D01*
X74546025Y4443488D01*
X74761546Y4328290D01*
X74995400Y4257351D01*
X75177660Y4239400D01*
X75822340Y4239400D01*
X76004600Y4257351D01*
X76238454Y4328290D01*
X76453975Y4443488D01*
X76642881Y4598519D01*
X76797912Y4787425D01*
X76913110Y5002946D01*
X76984049Y5236800D01*
X77008002Y5480000D01*
X76984049Y5723200D01*
X76913110Y5957054D01*
X76797912Y6172575D01*
X76642881Y6361481D01*
X76453975Y6516512D01*
X76238454Y6631710D01*
X76004600Y6702649D01*
X75822340Y6720600D01*
X75177660Y6720600D01*
X74995400Y6702649D01*
X74761546Y6631710D01*
X74546025Y6516512D01*
X74357119Y6361481D01*
X74202088Y6172575D01*
X74086890Y5957054D01*
X74015951Y5723200D01*
X73991998Y5480000D01*
X59527000Y5480000D01*
X59527000Y5626528D01*
X59497141Y5776643D01*
X59488299Y5797989D01*
X60973718Y5797989D01*
X61000824Y5795319D01*
X61027930Y5797989D01*
X61027933Y5797989D01*
X61109035Y5805977D01*
X61213087Y5837541D01*
X61308982Y5888798D01*
X61393035Y5957778D01*
X61410325Y5978846D01*
X63451479Y8020000D01*
X73991998Y8020000D01*
X74015951Y7776800D01*
X74086890Y7542946D01*
X74202088Y7327425D01*
X74357119Y7138519D01*
X74546025Y6983488D01*
X74761546Y6868290D01*
X74995400Y6797351D01*
X75177660Y6779400D01*
X75822340Y6779400D01*
X76004600Y6797351D01*
X76238454Y6868290D01*
X76453975Y6983488D01*
X76642881Y7138519D01*
X76797912Y7327425D01*
X76913110Y7542946D01*
X76984049Y7776800D01*
X77008002Y8020000D01*
X76984049Y8263200D01*
X76913110Y8497054D01*
X76797912Y8712575D01*
X76642881Y8901481D01*
X76453975Y9056512D01*
X76238454Y9171710D01*
X76004600Y9242649D01*
X75822340Y9260600D01*
X75177660Y9260600D01*
X74995400Y9242649D01*
X74761546Y9171710D01*
X74546025Y9056512D01*
X74357119Y8901481D01*
X74202088Y8712575D01*
X74086890Y8497054D01*
X74015951Y8263200D01*
X73991998Y8020000D01*
X63451479Y8020000D01*
X67979481Y12548000D01*
X74126949Y12548000D01*
X74202088Y12407425D01*
X74357119Y12218519D01*
X74546025Y12063488D01*
X74761546Y11948290D01*
X74995400Y11877351D01*
X75177660Y11859400D01*
X75822340Y11859400D01*
X76004600Y11877351D01*
X76050686Y11891331D01*
X75947616Y11788261D01*
X75822340Y11800600D01*
X75177660Y11800600D01*
X74995400Y11782649D01*
X74761546Y11711710D01*
X74546025Y11596512D01*
X74357119Y11441481D01*
X74202088Y11252575D01*
X74086890Y11037054D01*
X74015951Y10803200D01*
X73991998Y10560000D01*
X74015951Y10316800D01*
X74086890Y10082946D01*
X74202088Y9867425D01*
X74357119Y9678519D01*
X74546025Y9523488D01*
X74761546Y9408290D01*
X74995400Y9337351D01*
X75177660Y9319400D01*
X75822340Y9319400D01*
X76004600Y9337351D01*
X76238454Y9408290D01*
X76453975Y9523488D01*
X76642881Y9678519D01*
X76797912Y9867425D01*
X76913110Y10082946D01*
X76984049Y10316800D01*
X77008002Y10560000D01*
X76984049Y10803200D01*
X76913110Y11037054D01*
X76858976Y11138331D01*
X77371154Y11650508D01*
X77392211Y11667789D01*
X77450869Y11739264D01*
X77461191Y11751841D01*
X77488588Y11803098D01*
X77512448Y11847737D01*
X77544012Y11951789D01*
X77548001Y11992286D01*
X77548001Y452000D01*
X452000Y452000D01*
X452000Y2643000D01*
X44765000Y2643000D01*
X44765000Y2243000D01*
X44812066Y2019135D01*
X44901901Y1808754D01*
X45031053Y1619941D01*
X45194559Y1459953D01*
X45386136Y1334937D01*
X45619190Y1251036D01*
X45798000Y1376837D01*
X45798000Y2643000D01*
X46052000Y2643000D01*
X46052000Y1376837D01*
X46230810Y1251036D01*
X46463864Y1334937D01*
X46655441Y1459953D01*
X46818947Y1619941D01*
X46948099Y1808754D01*
X47037934Y2019135D01*
X47085000Y2243000D01*
X47085000Y2643000D01*
X51915000Y2643000D01*
X51915000Y2243000D01*
X51962066Y2019135D01*
X52051901Y1808754D01*
X52181053Y1619941D01*
X52344559Y1459953D01*
X52536136Y1334937D01*
X52769190Y1251036D01*
X52948000Y1376837D01*
X52948000Y2643000D01*
X53202000Y2643000D01*
X53202000Y1376837D01*
X53380810Y1251036D01*
X53613864Y1334937D01*
X53805441Y1459953D01*
X53968947Y1619941D01*
X54098099Y1808754D01*
X54187934Y2019135D01*
X54235000Y2243000D01*
X54235000Y2643000D01*
X53202000Y2643000D01*
X52948000Y2643000D01*
X51915000Y2643000D01*
X47085000Y2643000D01*
X46052000Y2643000D01*
X45798000Y2643000D01*
X44765000Y2643000D01*
X452000Y2643000D01*
X452000Y3826527D01*
X41073001Y3826527D01*
X41073001Y3673471D01*
X41102860Y3523356D01*
X41161432Y3381951D01*
X41246465Y3254690D01*
X41354692Y3146463D01*
X41481953Y3061430D01*
X41623358Y3002858D01*
X41773473Y2972999D01*
X41926529Y2972999D01*
X42076644Y3002858D01*
X42218049Y3061430D01*
X42345310Y3146463D01*
X42453537Y3254690D01*
X42538570Y3381951D01*
X42597142Y3523356D01*
X42621934Y3647999D01*
X44866354Y3647999D01*
X44812066Y3520865D01*
X44765000Y3297000D01*
X44765000Y2897000D01*
X45798000Y2897000D01*
X45798000Y2917000D01*
X46052000Y2917000D01*
X46052000Y2897000D01*
X47085000Y2897000D01*
X47085000Y3297000D01*
X47037934Y3520865D01*
X46983646Y3647999D01*
X52016354Y3647999D01*
X51962066Y3520865D01*
X51915000Y3297000D01*
X51915000Y2897000D01*
X52948000Y2897000D01*
X52948000Y2917000D01*
X53202000Y2917000D01*
X53202000Y2897000D01*
X54235000Y2897000D01*
X54235000Y3297000D01*
X54187934Y3520865D01*
X54133646Y3647999D01*
X57471357Y3647999D01*
X58123000Y2996355D01*
X58123000Y2923472D01*
X58152859Y2773357D01*
X58211431Y2631952D01*
X58296464Y2504691D01*
X58404691Y2396464D01*
X58531952Y2311431D01*
X58673357Y2252859D01*
X58823472Y2223000D01*
X58976528Y2223000D01*
X59126643Y2252859D01*
X59268048Y2311431D01*
X59395309Y2396464D01*
X59503536Y2504691D01*
X59588569Y2631952D01*
X59647141Y2773357D01*
X59677000Y2923472D01*
X59677000Y3076528D01*
X59647141Y3226643D01*
X59588569Y3368048D01*
X59503536Y3495309D01*
X59395309Y3603536D01*
X59268048Y3688569D01*
X59126643Y3747141D01*
X58976528Y3777000D01*
X58903645Y3777000D01*
X58109501Y4571143D01*
X58092212Y4592210D01*
X58008159Y4661190D01*
X57912264Y4712447D01*
X57808212Y4744011D01*
X57727110Y4751999D01*
X57727107Y4751999D01*
X57700001Y4754669D01*
X57672895Y4751999D01*
X53522371Y4751999D01*
X53613864Y4784937D01*
X53805441Y4909953D01*
X53968947Y5069941D01*
X54098099Y5258754D01*
X54187934Y5469135D01*
X54235000Y5693000D01*
X54235000Y6093000D01*
X53202000Y6093000D01*
X53202000Y6073000D01*
X52948000Y6073000D01*
X52948000Y6093000D01*
X51915000Y6093000D01*
X51915000Y5693000D01*
X51962066Y5469135D01*
X51990700Y5402078D01*
X51947499Y5445279D01*
X51832522Y5522105D01*
X51704766Y5575023D01*
X51569141Y5602000D01*
X51430859Y5602000D01*
X51295234Y5575023D01*
X51167478Y5522105D01*
X51052501Y5445279D01*
X50954721Y5347499D01*
X50877895Y5232522D01*
X50824977Y5104766D01*
X50798000Y4969141D01*
X50798000Y4830859D01*
X50813686Y4751999D01*
X48186314Y4751999D01*
X48202000Y4830859D01*
X48202000Y4969141D01*
X48175023Y5104766D01*
X48122105Y5232522D01*
X48045279Y5347499D01*
X47947499Y5445279D01*
X47832522Y5522105D01*
X47704766Y5575023D01*
X47569141Y5602000D01*
X47430859Y5602000D01*
X47295234Y5575023D01*
X47167478Y5522105D01*
X47052501Y5445279D01*
X47009300Y5402078D01*
X47037934Y5469135D01*
X47085000Y5693000D01*
X47085000Y6093000D01*
X46052000Y6093000D01*
X46052000Y6073000D01*
X45798000Y6073000D01*
X45798000Y6093000D01*
X44765000Y6093000D01*
X44765000Y5693000D01*
X44812066Y5469135D01*
X44901901Y5258754D01*
X45031053Y5069941D01*
X45194559Y4909953D01*
X45386136Y4784937D01*
X45477629Y4751999D01*
X42327106Y4751999D01*
X42300000Y4754669D01*
X42272894Y4751999D01*
X42272892Y4751999D01*
X42191790Y4744011D01*
X42087738Y4712447D01*
X41991843Y4661190D01*
X41907790Y4592210D01*
X41890509Y4571153D01*
X41846355Y4526999D01*
X41773473Y4526999D01*
X41623358Y4497140D01*
X41481953Y4438568D01*
X41354692Y4353535D01*
X41246465Y4245308D01*
X41161432Y4118047D01*
X41102860Y3976642D01*
X41073001Y3826527D01*
X452000Y3826527D01*
X452000Y6747000D01*
X44765000Y6747000D01*
X44765000Y6347000D01*
X45798000Y6347000D01*
X45798000Y7613163D01*
X45619190Y7738964D01*
X45386136Y7655063D01*
X45194559Y7530047D01*
X45031053Y7370059D01*
X44901901Y7181246D01*
X44812066Y6970865D01*
X44765000Y6747000D01*
X452000Y6747000D01*
X452000Y22455769D01*
X507789Y22387789D01*
X528856Y22370500D01*
X1211024Y21688331D01*
X1156890Y21587054D01*
X1085951Y21353200D01*
X1061998Y21110000D01*
X1085951Y20866800D01*
X1156890Y20632946D01*
X1272088Y20417425D01*
X1427119Y20228519D01*
X1616025Y20073488D01*
X1831546Y19958290D01*
X2065400Y19887351D01*
X2247660Y19869400D01*
X2892340Y19869400D01*
X3074600Y19887351D01*
X3120687Y19901331D01*
X3017617Y19798261D01*
X2892340Y19810600D01*
X2247660Y19810600D01*
X2065400Y19792649D01*
X1831546Y19721710D01*
X1616025Y19606512D01*
X1427119Y19451481D01*
X1272088Y19262575D01*
X1156890Y19047054D01*
X1085951Y18813200D01*
X1061998Y18570000D01*
X1085951Y18326800D01*
X1156890Y18092946D01*
X1272088Y17877425D01*
X1427119Y17688519D01*
X1616025Y17533488D01*
X1831546Y17418290D01*
X2065400Y17347351D01*
X2247660Y17329400D01*
X2892340Y17329400D01*
X3074600Y17347351D01*
X3308454Y17418290D01*
X3523975Y17533488D01*
X3712881Y17688519D01*
X3867912Y17877425D01*
X3983110Y18092946D01*
X4054049Y18326800D01*
X4078002Y18570000D01*
X4054049Y18813200D01*
X3983110Y19047054D01*
X3928976Y19148332D01*
X5071149Y20290504D01*
X5092211Y20307789D01*
X5161191Y20391842D01*
X5212448Y20487737D01*
X5244012Y20591789D01*
X5252000Y20672891D01*
X5252000Y20672894D01*
X5254670Y20700000D01*
X5252000Y20727106D01*
X5252000Y22771356D01*
X6171149Y23690504D01*
X6192211Y23707789D01*
X6261191Y23791842D01*
X6312448Y23887737D01*
X6344012Y23991789D01*
X6352000Y24072891D01*
X6352000Y24072894D01*
X6354670Y24100000D01*
X6352000Y24127106D01*
X6352000Y26071356D01*
X6978645Y26698000D01*
X50421356Y26698000D01*
X53848000Y23271354D01*
G37*
X53848000Y23271354D02*
X53848001Y19246846D01*
X53796464Y19195309D01*
X53711431Y19068048D01*
X53652859Y18926643D01*
X53623000Y18776528D01*
X53623000Y18623472D01*
X53652859Y18473357D01*
X53711431Y18331952D01*
X53796464Y18204691D01*
X53904691Y18096464D01*
X53933834Y18076991D01*
X53855132Y18076991D01*
X53855112Y18076993D01*
X53855109Y18076993D01*
X53828003Y18079663D01*
X53800897Y18076993D01*
X48053653Y18076993D01*
X40359495Y25771149D01*
X40359490Y25771155D01*
X40327000Y25803645D01*
X40327000Y25876528D01*
X40297141Y26026643D01*
X40238569Y26168048D01*
X40153536Y26295309D01*
X40045309Y26403536D01*
X39918048Y26488569D01*
X39776643Y26547141D01*
X39626528Y26577000D01*
X39473472Y26577000D01*
X39323357Y26547141D01*
X39181952Y26488569D01*
X39054691Y26403536D01*
X38946464Y26295309D01*
X38861431Y26168048D01*
X38802859Y26026643D01*
X38773000Y25876528D01*
X38773000Y25723472D01*
X38802859Y25573357D01*
X38861431Y25431952D01*
X38946464Y25304691D01*
X39054691Y25196464D01*
X39181952Y25111431D01*
X39323357Y25052859D01*
X39473472Y25023000D01*
X39546355Y25023000D01*
X39578845Y24990510D01*
X39578851Y24990505D01*
X47415514Y17153840D01*
X47432796Y17132782D01*
X47516849Y17063802D01*
X47612744Y17012545D01*
X47716796Y16980981D01*
X47797898Y16972993D01*
X47797900Y16972993D01*
X47825006Y16970323D01*
X47852112Y16972993D01*
X53800876Y16972993D01*
X53800896Y16972991D01*
X53800897Y16972991D01*
X53828005Y16970321D01*
X53855113Y16972991D01*
X60065347Y16972991D01*
X52969368Y9877010D01*
X52497862Y9877010D01*
X52526998Y10023492D01*
X52526998Y10176548D01*
X52497139Y10326663D01*
X52438567Y10468068D01*
X52353534Y10595329D01*
X52245307Y10703556D01*
X52118046Y10788589D01*
X51976641Y10847161D01*
X51826526Y10877020D01*
X51753644Y10877020D01*
X38372604Y24258058D01*
X38388569Y24281952D01*
X38447141Y24423357D01*
X38477000Y24573472D01*
X38477000Y24726528D01*
X38447141Y24876643D01*
X38388569Y25018048D01*
X38303536Y25145309D01*
X38195309Y25253536D01*
X38068048Y25338569D01*
X37926643Y25397141D01*
X37776528Y25427000D01*
X37623472Y25427000D01*
X37473357Y25397141D01*
X37331952Y25338569D01*
X37204691Y25253536D01*
X37096464Y25145309D01*
X37011431Y25018048D01*
X36952859Y24876643D01*
X36923000Y24726528D01*
X36923000Y24573472D01*
X36952859Y24423357D01*
X37011431Y24281952D01*
X37096464Y24154691D01*
X37150158Y24100997D01*
X37155988Y24041808D01*
X37187552Y23937756D01*
X37238809Y23841860D01*
X37307789Y23757807D01*
X37328857Y23740517D01*
X49217373Y11851999D01*
X45627096Y11851999D01*
X45599998Y11854668D01*
X45572900Y11851999D01*
X45572890Y11851999D01*
X45491788Y11844011D01*
X45387736Y11812447D01*
X45365572Y11800600D01*
X45291840Y11761190D01*
X45234678Y11714278D01*
X45207788Y11692210D01*
X45190507Y11671153D01*
X43696356Y10177000D01*
X43623472Y10177000D01*
X43473357Y10147141D01*
X43331952Y10088569D01*
X43204691Y10003536D01*
X43096464Y9895309D01*
X43011431Y9768048D01*
X42952859Y9626643D01*
X42923000Y9476528D01*
X42923000Y9323472D01*
X42952859Y9173357D01*
X43011431Y9031952D01*
X43096464Y8904691D01*
X43204691Y8796464D01*
X43331952Y8711431D01*
X43473357Y8652859D01*
X43623472Y8623000D01*
X43776528Y8623000D01*
X43926643Y8652859D01*
X44068048Y8711431D01*
X44195309Y8796464D01*
X44303536Y8904691D01*
X44388569Y9031952D01*
X44447141Y9173357D01*
X44477000Y9323472D01*
X44477000Y9396356D01*
X45063885Y9983240D01*
X45120959Y9845450D01*
X45205992Y9718189D01*
X45314219Y9609962D01*
X45441480Y9524929D01*
X45582885Y9466357D01*
X45733000Y9436498D01*
X45805883Y9436498D01*
X46838534Y8403846D01*
X46855816Y8382788D01*
X46876872Y8365508D01*
X46876873Y8365507D01*
X46939869Y8313808D01*
X47035764Y8262551D01*
X47139816Y8230987D01*
X47248027Y8220329D01*
X47275135Y8222999D01*
X48342353Y8222999D01*
X47746355Y7627000D01*
X47673472Y7627000D01*
X47523357Y7597141D01*
X47381952Y7538569D01*
X47254691Y7453536D01*
X47146464Y7345309D01*
X47061431Y7218048D01*
X47002859Y7076643D01*
X46999651Y7060517D01*
X46948099Y7181246D01*
X46818947Y7370059D01*
X46655441Y7530047D01*
X46463864Y7655063D01*
X46230810Y7738964D01*
X46052000Y7613163D01*
X46052000Y6347000D01*
X47085000Y6347000D01*
X47085000Y6446678D01*
X47146464Y6354691D01*
X47254691Y6246464D01*
X47381952Y6161431D01*
X47523357Y6102859D01*
X47673472Y6073000D01*
X47826528Y6073000D01*
X47976643Y6102859D01*
X48118048Y6161431D01*
X48245309Y6246464D01*
X48353536Y6354691D01*
X48438569Y6481952D01*
X48497141Y6623357D01*
X48527000Y6773472D01*
X48527000Y6846355D01*
X49128646Y7448000D01*
X52260708Y7448000D01*
X52181053Y7370059D01*
X52051901Y7181246D01*
X51962066Y6970865D01*
X51915000Y6747000D01*
X51915000Y6347000D01*
X52948000Y6347000D01*
X52948000Y6367000D01*
X53202000Y6367000D01*
X53202000Y6347000D01*
X54235000Y6347000D01*
X54235000Y6747000D01*
X54187934Y6970865D01*
X54098099Y7181246D01*
X53968947Y7370059D01*
X53889292Y7448000D01*
X55365692Y7448000D01*
X57634844Y5178846D01*
X57652125Y5157789D01*
X57673181Y5140509D01*
X57736177Y5088809D01*
X57787434Y5061412D01*
X57832073Y5037552D01*
X57936125Y5005988D01*
X58017227Y4998000D01*
X58017237Y4998000D01*
X58044335Y4995331D01*
X58071433Y4998000D01*
X58203155Y4998000D01*
X58254691Y4946464D01*
X58381952Y4861431D01*
X58523357Y4802859D01*
X58673472Y4773000D01*
X58826528Y4773000D01*
X58976643Y4802859D01*
X59118048Y4861431D01*
X59245309Y4946464D01*
X59353536Y5054691D01*
X59438569Y5181952D01*
X59497141Y5323357D01*
X59527000Y5473472D01*
X59527000Y5480000D01*
X73991998Y5480000D01*
X74015951Y5236800D01*
X74086890Y5002946D01*
X74202088Y4787425D01*
X74357119Y4598519D01*
X74546025Y4443488D01*
X74761546Y4328290D01*
X74995400Y4257351D01*
X75177660Y4239400D01*
X75822340Y4239400D01*
X76004600Y4257351D01*
X76238454Y4328290D01*
X76453975Y4443488D01*
X76642881Y4598519D01*
X76797912Y4787425D01*
X76913110Y5002946D01*
X76984049Y5236800D01*
X77008002Y5480000D01*
X76984049Y5723200D01*
X76913110Y5957054D01*
X76797912Y6172575D01*
X76642881Y6361481D01*
X76453975Y6516512D01*
X76238454Y6631710D01*
X76004600Y6702649D01*
X75822340Y6720600D01*
X75177660Y6720600D01*
X74995400Y6702649D01*
X74761546Y6631710D01*
X74546025Y6516512D01*
X74357119Y6361481D01*
X74202088Y6172575D01*
X74086890Y5957054D01*
X74015951Y5723200D01*
X73991998Y5480000D01*
X59527000Y5480000D01*
X59527000Y5626528D01*
X59497141Y5776643D01*
X59488299Y5797989D01*
X60973718Y5797989D01*
X61000824Y5795319D01*
X61027930Y5797989D01*
X61027933Y5797989D01*
X61109035Y5805977D01*
X61213087Y5837541D01*
X61308982Y5888798D01*
X61393035Y5957778D01*
X61410325Y5978846D01*
X63451479Y8020000D01*
X73991998Y8020000D01*
X74015951Y7776800D01*
X74086890Y7542946D01*
X74202088Y7327425D01*
X74357119Y7138519D01*
X74546025Y6983488D01*
X74761546Y6868290D01*
X74995400Y6797351D01*
X75177660Y6779400D01*
X75822340Y6779400D01*
X76004600Y6797351D01*
X76238454Y6868290D01*
X76453975Y6983488D01*
X76642881Y7138519D01*
X76797912Y7327425D01*
X76913110Y7542946D01*
X76984049Y7776800D01*
X77008002Y8020000D01*
X76984049Y8263200D01*
X76913110Y8497054D01*
X76797912Y8712575D01*
X76642881Y8901481D01*
X76453975Y9056512D01*
X76238454Y9171710D01*
X76004600Y9242649D01*
X75822340Y9260600D01*
X75177660Y9260600D01*
X74995400Y9242649D01*
X74761546Y9171710D01*
X74546025Y9056512D01*
X74357119Y8901481D01*
X74202088Y8712575D01*
X74086890Y8497054D01*
X74015951Y8263200D01*
X73991998Y8020000D01*
X63451479Y8020000D01*
X67979481Y12548000D01*
X74126949Y12548000D01*
X74202088Y12407425D01*
X74357119Y12218519D01*
X74546025Y12063488D01*
X74761546Y11948290D01*
X74995400Y11877351D01*
X75177660Y11859400D01*
X75822340Y11859400D01*
X76004600Y11877351D01*
X76050686Y11891331D01*
X75947616Y11788261D01*
X75822340Y11800600D01*
X75177660Y11800600D01*
X74995400Y11782649D01*
X74761546Y11711710D01*
X74546025Y11596512D01*
X74357119Y11441481D01*
X74202088Y11252575D01*
X74086890Y11037054D01*
X74015951Y10803200D01*
X73991998Y10560000D01*
X74015951Y10316800D01*
X74086890Y10082946D01*
X74202088Y9867425D01*
X74357119Y9678519D01*
X74546025Y9523488D01*
X74761546Y9408290D01*
X74995400Y9337351D01*
X75177660Y9319400D01*
X75822340Y9319400D01*
X76004600Y9337351D01*
X76238454Y9408290D01*
X76453975Y9523488D01*
X76642881Y9678519D01*
X76797912Y9867425D01*
X76913110Y10082946D01*
X76984049Y10316800D01*
X77008002Y10560000D01*
X76984049Y10803200D01*
X76913110Y11037054D01*
X76858976Y11138331D01*
X77371154Y11650508D01*
X77392211Y11667789D01*
X77450869Y11739264D01*
X77461191Y11751841D01*
X77488588Y11803098D01*
X77512448Y11847737D01*
X77544012Y11951789D01*
X77548001Y11992286D01*
X77548001Y452000D01*
X452000Y452000D01*
X452000Y2643000D01*
X44765000Y2643000D01*
X44765000Y2243000D01*
X44812066Y2019135D01*
X44901901Y1808754D01*
X45031053Y1619941D01*
X45194559Y1459953D01*
X45386136Y1334937D01*
X45619190Y1251036D01*
X45798000Y1376837D01*
X45798000Y2643000D01*
X46052000Y2643000D01*
X46052000Y1376837D01*
X46230810Y1251036D01*
X46463864Y1334937D01*
X46655441Y1459953D01*
X46818947Y1619941D01*
X46948099Y1808754D01*
X47037934Y2019135D01*
X47085000Y2243000D01*
X47085000Y2643000D01*
X51915000Y2643000D01*
X51915000Y2243000D01*
X51962066Y2019135D01*
X52051901Y1808754D01*
X52181053Y1619941D01*
X52344559Y1459953D01*
X52536136Y1334937D01*
X52769190Y1251036D01*
X52948000Y1376837D01*
X52948000Y2643000D01*
X53202000Y2643000D01*
X53202000Y1376837D01*
X53380810Y1251036D01*
X53613864Y1334937D01*
X53805441Y1459953D01*
X53968947Y1619941D01*
X54098099Y1808754D01*
X54187934Y2019135D01*
X54235000Y2243000D01*
X54235000Y2643000D01*
X53202000Y2643000D01*
X52948000Y2643000D01*
X51915000Y2643000D01*
X47085000Y2643000D01*
X46052000Y2643000D01*
X45798000Y2643000D01*
X44765000Y2643000D01*
X452000Y2643000D01*
X452000Y3826527D01*
X41073001Y3826527D01*
X41073001Y3673471D01*
X41102860Y3523356D01*
X41161432Y3381951D01*
X41246465Y3254690D01*
X41354692Y3146463D01*
X41481953Y3061430D01*
X41623358Y3002858D01*
X41773473Y2972999D01*
X41926529Y2972999D01*
X42076644Y3002858D01*
X42218049Y3061430D01*
X42345310Y3146463D01*
X42453537Y3254690D01*
X42538570Y3381951D01*
X42597142Y3523356D01*
X42621934Y3647999D01*
X44866354Y3647999D01*
X44812066Y3520865D01*
X44765000Y3297000D01*
X44765000Y2897000D01*
X45798000Y2897000D01*
X45798000Y2917000D01*
X46052000Y2917000D01*
X46052000Y2897000D01*
X47085000Y2897000D01*
X47085000Y3297000D01*
X47037934Y3520865D01*
X46983646Y3647999D01*
X52016354Y3647999D01*
X51962066Y3520865D01*
X51915000Y3297000D01*
X51915000Y2897000D01*
X52948000Y2897000D01*
X52948000Y2917000D01*
X53202000Y2917000D01*
X53202000Y2897000D01*
X54235000Y2897000D01*
X54235000Y3297000D01*
X54187934Y3520865D01*
X54133646Y3647999D01*
X57471357Y3647999D01*
X58123000Y2996355D01*
X58123000Y2923472D01*
X58152859Y2773357D01*
X58211431Y2631952D01*
X58296464Y2504691D01*
X58404691Y2396464D01*
X58531952Y2311431D01*
X58673357Y2252859D01*
X58823472Y2223000D01*
X58976528Y2223000D01*
X59126643Y2252859D01*
X59268048Y2311431D01*
X59395309Y2396464D01*
X59503536Y2504691D01*
X59588569Y2631952D01*
X59647141Y2773357D01*
X59677000Y2923472D01*
X59677000Y3076528D01*
X59647141Y3226643D01*
X59588569Y3368048D01*
X59503536Y3495309D01*
X59395309Y3603536D01*
X59268048Y3688569D01*
X59126643Y3747141D01*
X58976528Y3777000D01*
X58903645Y3777000D01*
X58109501Y4571143D01*
X58092212Y4592210D01*
X58008159Y4661190D01*
X57912264Y4712447D01*
X57808212Y4744011D01*
X57727110Y4751999D01*
X57727107Y4751999D01*
X57700001Y4754669D01*
X57672895Y4751999D01*
X53522371Y4751999D01*
X53613864Y4784937D01*
X53805441Y4909953D01*
X53968947Y5069941D01*
X54098099Y5258754D01*
X54187934Y5469135D01*
X54235000Y5693000D01*
X54235000Y6093000D01*
X53202000Y6093000D01*
X53202000Y6073000D01*
X52948000Y6073000D01*
X52948000Y6093000D01*
X51915000Y6093000D01*
X51915000Y5693000D01*
X51962066Y5469135D01*
X51990700Y5402078D01*
X51947499Y5445279D01*
X51832522Y5522105D01*
X51704766Y5575023D01*
X51569141Y5602000D01*
X51430859Y5602000D01*
X51295234Y5575023D01*
X51167478Y5522105D01*
X51052501Y5445279D01*
X50954721Y5347499D01*
X50877895Y5232522D01*
X50824977Y5104766D01*
X50798000Y4969141D01*
X50798000Y4830859D01*
X50813686Y4751999D01*
X48186314Y4751999D01*
X48202000Y4830859D01*
X48202000Y4969141D01*
X48175023Y5104766D01*
X48122105Y5232522D01*
X48045279Y5347499D01*
X47947499Y5445279D01*
X47832522Y5522105D01*
X47704766Y5575023D01*
X47569141Y5602000D01*
X47430859Y5602000D01*
X47295234Y5575023D01*
X47167478Y5522105D01*
X47052501Y5445279D01*
X47009300Y5402078D01*
X47037934Y5469135D01*
X47085000Y5693000D01*
X47085000Y6093000D01*
X46052000Y6093000D01*
X46052000Y6073000D01*
X45798000Y6073000D01*
X45798000Y6093000D01*
X44765000Y6093000D01*
X44765000Y5693000D01*
X44812066Y5469135D01*
X44901901Y5258754D01*
X45031053Y5069941D01*
X45194559Y4909953D01*
X45386136Y4784937D01*
X45477629Y4751999D01*
X42327106Y4751999D01*
X42300000Y4754669D01*
X42272894Y4751999D01*
X42272892Y4751999D01*
X42191790Y4744011D01*
X42087738Y4712447D01*
X41991843Y4661190D01*
X41907790Y4592210D01*
X41890509Y4571153D01*
X41846355Y4526999D01*
X41773473Y4526999D01*
X41623358Y4497140D01*
X41481953Y4438568D01*
X41354692Y4353535D01*
X41246465Y4245308D01*
X41161432Y4118047D01*
X41102860Y3976642D01*
X41073001Y3826527D01*
X452000Y3826527D01*
X452000Y6747000D01*
X44765000Y6747000D01*
X44765000Y6347000D01*
X45798000Y6347000D01*
X45798000Y7613163D01*
X45619190Y7738964D01*
X45386136Y7655063D01*
X45194559Y7530047D01*
X45031053Y7370059D01*
X44901901Y7181246D01*
X44812066Y6970865D01*
X44765000Y6747000D01*
X452000Y6747000D01*
X452000Y22455769D01*
X507789Y22387789D01*
X528856Y22370500D01*
X1211024Y21688331D01*
X1156890Y21587054D01*
X1085951Y21353200D01*
X1061998Y21110000D01*
X1085951Y20866800D01*
X1156890Y20632946D01*
X1272088Y20417425D01*
X1427119Y20228519D01*
X1616025Y20073488D01*
X1831546Y19958290D01*
X2065400Y19887351D01*
X2247660Y19869400D01*
X2892340Y19869400D01*
X3074600Y19887351D01*
X3120687Y19901331D01*
X3017617Y19798261D01*
X2892340Y19810600D01*
X2247660Y19810600D01*
X2065400Y19792649D01*
X1831546Y19721710D01*
X1616025Y19606512D01*
X1427119Y19451481D01*
X1272088Y19262575D01*
X1156890Y19047054D01*
X1085951Y18813200D01*
X1061998Y18570000D01*
X1085951Y18326800D01*
X1156890Y18092946D01*
X1272088Y17877425D01*
X1427119Y17688519D01*
X1616025Y17533488D01*
X1831546Y17418290D01*
X2065400Y17347351D01*
X2247660Y17329400D01*
X2892340Y17329400D01*
X3074600Y17347351D01*
X3308454Y17418290D01*
X3523975Y17533488D01*
X3712881Y17688519D01*
X3867912Y17877425D01*
X3983110Y18092946D01*
X4054049Y18326800D01*
X4078002Y18570000D01*
X4054049Y18813200D01*
X3983110Y19047054D01*
X3928976Y19148332D01*
X5071149Y20290504D01*
X5092211Y20307789D01*
X5161191Y20391842D01*
X5212448Y20487737D01*
X5244012Y20591789D01*
X5252000Y20672891D01*
X5252000Y20672894D01*
X5254670Y20700000D01*
X5252000Y20727106D01*
X5252000Y22771356D01*
X6171149Y23690504D01*
X6192211Y23707789D01*
X6261191Y23791842D01*
X6312448Y23887737D01*
X6344012Y23991789D01*
X6352000Y24072891D01*
X6352000Y24072894D01*
X6354670Y24100000D01*
X6352000Y24127106D01*
X6352000Y26071356D01*
X6978645Y26698000D01*
X50421356Y26698000D01*
X53848000Y23271354D01*
G36*
X62048000Y10928646D02*
G01*
X60051354Y8931998D01*
X59978470Y8931998D01*
X59828355Y8902139D01*
X59686950Y8843567D01*
X59559689Y8758534D01*
X59451462Y8650307D01*
X59366429Y8523046D01*
X59307857Y8381641D01*
X59277998Y8231526D01*
X59277998Y8078470D01*
X59307857Y7928355D01*
X59366429Y7786950D01*
X59451462Y7659689D01*
X59559689Y7551462D01*
X59686950Y7466429D01*
X59721785Y7452000D01*
X58478646Y7452000D01*
X56314745Y9615900D01*
X56318536Y9619691D01*
X56403569Y9746952D01*
X56462141Y9888357D01*
X56492000Y10038472D01*
X56492000Y10191528D01*
X56462141Y10341643D01*
X56403569Y10483048D01*
X56318536Y10610309D01*
X56210309Y10718536D01*
X56083048Y10803569D01*
X55941643Y10862141D01*
X55791528Y10892000D01*
X55638472Y10892000D01*
X55522598Y10868952D01*
X61971154Y17317506D01*
X61992211Y17334787D01*
X62014279Y17361677D01*
X62048001Y17402767D01*
X62048000Y10928646D01*
G37*
X62048000Y10928646D02*
X60051354Y8931998D01*
X59978470Y8931998D01*
X59828355Y8902139D01*
X59686950Y8843567D01*
X59559689Y8758534D01*
X59451462Y8650307D01*
X59366429Y8523046D01*
X59307857Y8381641D01*
X59277998Y8231526D01*
X59277998Y8078470D01*
X59307857Y7928355D01*
X59366429Y7786950D01*
X59451462Y7659689D01*
X59559689Y7551462D01*
X59686950Y7466429D01*
X59721785Y7452000D01*
X58478646Y7452000D01*
X56314745Y9615900D01*
X56318536Y9619691D01*
X56403569Y9746952D01*
X56462141Y9888357D01*
X56492000Y10038472D01*
X56492000Y10191528D01*
X56462141Y10341643D01*
X56403569Y10483048D01*
X56318536Y10610309D01*
X56210309Y10718536D01*
X56083048Y10803569D01*
X55941643Y10862141D01*
X55791528Y10892000D01*
X55638472Y10892000D01*
X55522598Y10868952D01*
X61971154Y17317506D01*
X61992211Y17334787D01*
X62014279Y17361677D01*
X62048001Y17402767D01*
X62048000Y10928646D01*
G36*
X77548000Y24367716D02*
G01*
X77544012Y24408211D01*
X77512448Y24512263D01*
X77477658Y24577351D01*
X77461191Y24608159D01*
X77409491Y24671155D01*
X77392211Y24692211D01*
X77371154Y24709492D01*
X76858976Y25221669D01*
X76913110Y25322946D01*
X76984049Y25556800D01*
X77008002Y25800000D01*
X76984049Y26043200D01*
X76913110Y26277054D01*
X76797912Y26492575D01*
X76642881Y26681481D01*
X76453975Y26836512D01*
X76238454Y26951710D01*
X76004600Y27022649D01*
X75822340Y27040600D01*
X75177660Y27040600D01*
X74995400Y27022649D01*
X74761546Y26951710D01*
X74546025Y26836512D01*
X74357119Y26681481D01*
X74202088Y26492575D01*
X74086890Y26277054D01*
X74015951Y26043200D01*
X73991998Y25800000D01*
X74015951Y25556800D01*
X74086890Y25322946D01*
X74202088Y25107425D01*
X74357119Y24918519D01*
X74546025Y24763488D01*
X74761546Y24648290D01*
X74995400Y24577351D01*
X75177660Y24559400D01*
X75822340Y24559400D01*
X75947616Y24571739D01*
X76050686Y24468669D01*
X76004600Y24482649D01*
X75822340Y24500600D01*
X75177660Y24500600D01*
X74995400Y24482649D01*
X74761546Y24411710D01*
X74546025Y24296512D01*
X74357119Y24141481D01*
X74202088Y23952575D01*
X74086890Y23737054D01*
X74015951Y23503200D01*
X73991998Y23260000D01*
X74015951Y23016800D01*
X74029931Y22970714D01*
X72002002Y24998642D01*
X72002002Y25303155D01*
X72053538Y25354691D01*
X72138571Y25481952D01*
X72197143Y25623357D01*
X72227002Y25773472D01*
X72227002Y25926528D01*
X72197143Y26076643D01*
X72138571Y26218048D01*
X72053538Y26345309D01*
X71945311Y26453536D01*
X71818050Y26538569D01*
X71676645Y26597141D01*
X71526530Y26627000D01*
X71373474Y26627000D01*
X71223359Y26597141D01*
X71081954Y26538569D01*
X70954693Y26453536D01*
X70846466Y26345309D01*
X70761433Y26218048D01*
X70702861Y26076643D01*
X70673002Y25926528D01*
X70673002Y25773472D01*
X70702861Y25623357D01*
X70761433Y25481952D01*
X70846466Y25354691D01*
X70898002Y25303155D01*
X70898002Y24797104D01*
X70895332Y24769998D01*
X70898002Y24742892D01*
X70898002Y24742890D01*
X70905990Y24661788D01*
X70937554Y24557736D01*
X70988811Y24461840D01*
X71057791Y24377787D01*
X71078859Y24360497D01*
X74141023Y21298331D01*
X74086890Y21197054D01*
X74015951Y20963200D01*
X73991998Y20720000D01*
X74015951Y20476800D01*
X74086890Y20242946D01*
X74202088Y20027425D01*
X74357119Y19838519D01*
X74546025Y19683488D01*
X74761546Y19568290D01*
X74995400Y19497351D01*
X75177660Y19479400D01*
X75822340Y19479400D01*
X76004600Y19497351D01*
X76238454Y19568290D01*
X76448000Y19680295D01*
X76448000Y19219705D01*
X76238454Y19331710D01*
X76004600Y19402649D01*
X75822340Y19420600D01*
X75177660Y19420600D01*
X74995400Y19402649D01*
X74761546Y19331710D01*
X74557826Y19222820D01*
X69088843Y24691801D01*
X69071553Y24712869D01*
X68987500Y24781849D01*
X68891605Y24833106D01*
X68787553Y24864670D01*
X68706451Y24872658D01*
X68706448Y24872658D01*
X68679342Y24875328D01*
X68652236Y24872658D01*
X64126187Y24872658D01*
X64074651Y24924194D01*
X63947390Y25009227D01*
X63805985Y25067799D01*
X63655870Y25097658D01*
X63502814Y25097658D01*
X63352699Y25067799D01*
X63211294Y25009227D01*
X63084033Y24924194D01*
X62975806Y24815967D01*
X62890773Y24688706D01*
X62832201Y24547301D01*
X62802342Y24397186D01*
X62802342Y24244130D01*
X62832201Y24094015D01*
X62890773Y23952610D01*
X62975806Y23825349D01*
X63084033Y23717122D01*
X63211294Y23632089D01*
X63352699Y23573517D01*
X63502814Y23543658D01*
X63655870Y23543658D01*
X63805985Y23573517D01*
X63947390Y23632089D01*
X64074651Y23717122D01*
X64126187Y23768658D01*
X66649807Y23768658D01*
X66636460Y23755311D01*
X66551427Y23628050D01*
X66492855Y23486645D01*
X66462996Y23336530D01*
X66462996Y23183474D01*
X66492855Y23033359D01*
X66551427Y22891954D01*
X66636460Y22764693D01*
X66744687Y22656466D01*
X66752345Y22651349D01*
X66778805Y22601846D01*
X66847785Y22517793D01*
X66868853Y22500503D01*
X74034848Y15334506D01*
X74086890Y15162946D01*
X74202088Y14947425D01*
X74357119Y14758519D01*
X74546025Y14603488D01*
X74761546Y14488290D01*
X74995400Y14417351D01*
X75177660Y14399400D01*
X75822340Y14399400D01*
X76004600Y14417351D01*
X76238454Y14488290D01*
X76448001Y14600295D01*
X76448001Y14139705D01*
X76238454Y14251710D01*
X76004600Y14322649D01*
X75822340Y14340600D01*
X75177660Y14340600D01*
X74995400Y14322649D01*
X74761546Y14251710D01*
X74546025Y14136512D01*
X74357119Y13981481D01*
X74202088Y13792575D01*
X74126949Y13652000D01*
X67777940Y13652000D01*
X67750834Y13654670D01*
X67723728Y13652000D01*
X67723726Y13652000D01*
X67642624Y13644012D01*
X67538572Y13612448D01*
X67442677Y13561191D01*
X67358624Y13492211D01*
X67341343Y13471154D01*
X65952004Y12081815D01*
X65952004Y21203155D01*
X66003540Y21254691D01*
X66088573Y21381952D01*
X66147145Y21523357D01*
X66177004Y21673472D01*
X66177004Y21826528D01*
X66147145Y21976643D01*
X66088573Y22118048D01*
X66003540Y22245309D01*
X65895313Y22353536D01*
X65768052Y22438569D01*
X65626647Y22497141D01*
X65476532Y22527000D01*
X65323476Y22527000D01*
X65173361Y22497141D01*
X65031956Y22438569D01*
X64904695Y22353536D01*
X64796468Y22245309D01*
X64711435Y22118048D01*
X64652863Y21976643D01*
X64644756Y21935887D01*
X62176998Y24403644D01*
X62176998Y24476528D01*
X62147139Y24626643D01*
X62088567Y24768048D01*
X62003534Y24895309D01*
X61895307Y25003536D01*
X61768046Y25088569D01*
X61626641Y25147141D01*
X61476526Y25177000D01*
X61323470Y25177000D01*
X61173355Y25147141D01*
X61031950Y25088569D01*
X60951992Y25035143D01*
X60951992Y25153155D01*
X61003528Y25204691D01*
X61088561Y25331952D01*
X61147133Y25473357D01*
X61176992Y25623472D01*
X61176992Y25776528D01*
X61147133Y25926643D01*
X61096865Y26048000D01*
X66171356Y26048000D01*
X66323000Y25896355D01*
X66323000Y25823472D01*
X66352859Y25673357D01*
X66411431Y25531952D01*
X66496464Y25404691D01*
X66604691Y25296464D01*
X66731952Y25211431D01*
X66873357Y25152859D01*
X67023472Y25123000D01*
X67176528Y25123000D01*
X67326643Y25152859D01*
X67468048Y25211431D01*
X67595309Y25296464D01*
X67703536Y25404691D01*
X67788569Y25531952D01*
X67847141Y25673357D01*
X67877000Y25823472D01*
X67877000Y25976528D01*
X67847141Y26126643D01*
X67788569Y26268048D01*
X67703536Y26395309D01*
X67595309Y26503536D01*
X67468048Y26588569D01*
X67326643Y26647141D01*
X67176528Y26677000D01*
X67103645Y26677000D01*
X66932644Y26848000D01*
X72753155Y26848000D01*
X72804691Y26796464D01*
X72931952Y26711431D01*
X73073357Y26652859D01*
X73223472Y26623000D01*
X73376528Y26623000D01*
X73526643Y26652859D01*
X73668048Y26711431D01*
X73795309Y26796464D01*
X73903536Y26904691D01*
X73988569Y27031952D01*
X74047141Y27173357D01*
X74077000Y27323472D01*
X74077000Y27476528D01*
X74047141Y27626643D01*
X74038295Y27648000D01*
X74201781Y27648000D01*
X74202088Y27647425D01*
X74357119Y27458519D01*
X74546025Y27303488D01*
X74761546Y27188290D01*
X74995400Y27117351D01*
X75177660Y27099400D01*
X75822340Y27099400D01*
X76004600Y27117351D01*
X76238454Y27188290D01*
X76453975Y27303488D01*
X76642881Y27458519D01*
X76797912Y27647425D01*
X76913110Y27862946D01*
X76984049Y28096800D01*
X77008002Y28340000D01*
X76984049Y28583200D01*
X76913110Y28817054D01*
X76797912Y29032575D01*
X76642881Y29221481D01*
X76453975Y29376512D01*
X76238454Y29491710D01*
X76004600Y29562649D01*
X75822340Y29580600D01*
X75177660Y29580600D01*
X74995400Y29562649D01*
X74949314Y29548669D01*
X75052384Y29651739D01*
X75177660Y29639400D01*
X75822340Y29639400D01*
X76004600Y29657351D01*
X76238454Y29728290D01*
X76453975Y29843488D01*
X76642881Y29998519D01*
X76797912Y30187425D01*
X76913110Y30402946D01*
X76984049Y30636800D01*
X77008002Y30880000D01*
X76984049Y31123200D01*
X76913110Y31357054D01*
X76797912Y31572575D01*
X76642881Y31761481D01*
X76453975Y31916512D01*
X76238454Y32031710D01*
X76004600Y32102649D01*
X75822340Y32120600D01*
X75177660Y32120600D01*
X74995400Y32102649D01*
X74761546Y32031710D01*
X74546025Y31916512D01*
X74357119Y31761481D01*
X74202088Y31572575D01*
X74086890Y31357054D01*
X74015951Y31123200D01*
X73991998Y30880000D01*
X74015951Y30636800D01*
X74086890Y30402946D01*
X74141024Y30301669D01*
X73391356Y29552000D01*
X56927105Y29552000D01*
X56899999Y29554670D01*
X56872893Y29552000D01*
X56872891Y29552000D01*
X56791789Y29544012D01*
X56687737Y29512448D01*
X56591842Y29461191D01*
X56507789Y29392211D01*
X56490508Y29371154D01*
X55196356Y28077000D01*
X55123472Y28077000D01*
X54973357Y28047141D01*
X54949943Y28037442D01*
X54977000Y28173472D01*
X54977000Y28326528D01*
X54947141Y28476643D01*
X54888569Y28618048D01*
X54803536Y28745309D01*
X54752000Y28796845D01*
X54752000Y29388584D01*
X54754669Y29415682D01*
X54752000Y29442780D01*
X54752000Y29442790D01*
X54744012Y29523892D01*
X54712448Y29627944D01*
X54680623Y29687484D01*
X54661191Y29723840D01*
X54609491Y29786836D01*
X54592211Y29807892D01*
X54571154Y29825173D01*
X54048326Y30348000D01*
X64377795Y30348000D01*
X64400000Y30345813D01*
X64422205Y30348000D01*
X64488607Y30354540D01*
X64573810Y30380386D01*
X64652333Y30422357D01*
X64721159Y30478841D01*
X64777643Y30547667D01*
X64819614Y30626190D01*
X64845460Y30711393D01*
X64854187Y30800000D01*
X64852000Y30822205D01*
X64852000Y35600974D01*
X73783642Y35600974D01*
X73805473Y35503843D01*
X73922002Y35233019D01*
X74089127Y34990132D01*
X74300426Y34784517D01*
X74547778Y34624075D01*
X74726400Y34552924D01*
X74546025Y34456512D01*
X74357119Y34301481D01*
X74202088Y34112575D01*
X74086890Y33897054D01*
X74072212Y33848668D01*
X74027789Y33812211D01*
X73958809Y33728158D01*
X73907552Y33632263D01*
X73875988Y33528211D01*
X73865330Y33420000D01*
X73875988Y33311789D01*
X73907552Y33207737D01*
X73958809Y33111842D01*
X74027789Y33027789D01*
X74072212Y32991332D01*
X74086890Y32942946D01*
X74202088Y32727425D01*
X74357119Y32538519D01*
X74546025Y32383488D01*
X74761546Y32268290D01*
X74995400Y32197351D01*
X75177660Y32179400D01*
X75822340Y32179400D01*
X76004600Y32197351D01*
X76238454Y32268290D01*
X76453975Y32383488D01*
X76642881Y32538519D01*
X76797912Y32727425D01*
X76913110Y32942946D01*
X76984049Y33176800D01*
X77008002Y33420000D01*
X76984049Y33663200D01*
X76913110Y33897054D01*
X76797912Y34112575D01*
X76642881Y34301481D01*
X76453975Y34456512D01*
X76273600Y34552924D01*
X76452222Y34624075D01*
X76699574Y34784517D01*
X76910873Y34990132D01*
X77077998Y35233019D01*
X77194527Y35503843D01*
X77216358Y35600974D01*
X77095217Y35833000D01*
X75627000Y35833000D01*
X75627000Y35813000D01*
X75373000Y35813000D01*
X75373000Y35833000D01*
X73904783Y35833000D01*
X73783642Y35600974D01*
X64852000Y35600974D01*
X64852000Y36319026D01*
X73783642Y36319026D01*
X73904783Y36087000D01*
X75373000Y36087000D01*
X75373000Y36107000D01*
X75627000Y36107000D01*
X75627000Y36087000D01*
X77095217Y36087000D01*
X77216358Y36319026D01*
X77194527Y36416157D01*
X77077998Y36686981D01*
X76910873Y36929868D01*
X76699574Y37135483D01*
X76511344Y37257576D01*
X76625000Y37257576D01*
X76698905Y37264855D01*
X76769970Y37286412D01*
X76835463Y37321419D01*
X76892869Y37368531D01*
X76939981Y37425937D01*
X76974988Y37491430D01*
X76996545Y37562495D01*
X77003824Y37636400D01*
X77003824Y39363600D01*
X76996545Y39437505D01*
X76974988Y39508570D01*
X76939981Y39574063D01*
X76892869Y39631469D01*
X76835463Y39678581D01*
X76769970Y39713588D01*
X76698905Y39735145D01*
X76625000Y39742424D01*
X74375000Y39742424D01*
X74301095Y39735145D01*
X74230030Y39713588D01*
X74164537Y39678581D01*
X74107131Y39631469D01*
X74060019Y39574063D01*
X74025012Y39508570D01*
X74003455Y39437505D01*
X73996176Y39363600D01*
X73996176Y37636400D01*
X74003455Y37562495D01*
X74025012Y37491430D01*
X74060019Y37425937D01*
X74107131Y37368531D01*
X74164537Y37321419D01*
X74230030Y37286412D01*
X74301095Y37264855D01*
X74375000Y37257576D01*
X74488656Y37257576D01*
X74300426Y37135483D01*
X74089127Y36929868D01*
X73922002Y36686981D01*
X73805473Y36416157D01*
X73783642Y36319026D01*
X64852000Y36319026D01*
X64852000Y43548000D01*
X77548000Y43548000D01*
X77548000Y24367716D01*
G37*
X77548000Y24367716D02*
X77544012Y24408211D01*
X77512448Y24512263D01*
X77477658Y24577351D01*
X77461191Y24608159D01*
X77409491Y24671155D01*
X77392211Y24692211D01*
X77371154Y24709492D01*
X76858976Y25221669D01*
X76913110Y25322946D01*
X76984049Y25556800D01*
X77008002Y25800000D01*
X76984049Y26043200D01*
X76913110Y26277054D01*
X76797912Y26492575D01*
X76642881Y26681481D01*
X76453975Y26836512D01*
X76238454Y26951710D01*
X76004600Y27022649D01*
X75822340Y27040600D01*
X75177660Y27040600D01*
X74995400Y27022649D01*
X74761546Y26951710D01*
X74546025Y26836512D01*
X74357119Y26681481D01*
X74202088Y26492575D01*
X74086890Y26277054D01*
X74015951Y26043200D01*
X73991998Y25800000D01*
X74015951Y25556800D01*
X74086890Y25322946D01*
X74202088Y25107425D01*
X74357119Y24918519D01*
X74546025Y24763488D01*
X74761546Y24648290D01*
X74995400Y24577351D01*
X75177660Y24559400D01*
X75822340Y24559400D01*
X75947616Y24571739D01*
X76050686Y24468669D01*
X76004600Y24482649D01*
X75822340Y24500600D01*
X75177660Y24500600D01*
X74995400Y24482649D01*
X74761546Y24411710D01*
X74546025Y24296512D01*
X74357119Y24141481D01*
X74202088Y23952575D01*
X74086890Y23737054D01*
X74015951Y23503200D01*
X73991998Y23260000D01*
X74015951Y23016800D01*
X74029931Y22970714D01*
X72002002Y24998642D01*
X72002002Y25303155D01*
X72053538Y25354691D01*
X72138571Y25481952D01*
X72197143Y25623357D01*
X72227002Y25773472D01*
X72227002Y25926528D01*
X72197143Y26076643D01*
X72138571Y26218048D01*
X72053538Y26345309D01*
X71945311Y26453536D01*
X71818050Y26538569D01*
X71676645Y26597141D01*
X71526530Y26627000D01*
X71373474Y26627000D01*
X71223359Y26597141D01*
X71081954Y26538569D01*
X70954693Y26453536D01*
X70846466Y26345309D01*
X70761433Y26218048D01*
X70702861Y26076643D01*
X70673002Y25926528D01*
X70673002Y25773472D01*
X70702861Y25623357D01*
X70761433Y25481952D01*
X70846466Y25354691D01*
X70898002Y25303155D01*
X70898002Y24797104D01*
X70895332Y24769998D01*
X70898002Y24742892D01*
X70898002Y24742890D01*
X70905990Y24661788D01*
X70937554Y24557736D01*
X70988811Y24461840D01*
X71057791Y24377787D01*
X71078859Y24360497D01*
X74141023Y21298331D01*
X74086890Y21197054D01*
X74015951Y20963200D01*
X73991998Y20720000D01*
X74015951Y20476800D01*
X74086890Y20242946D01*
X74202088Y20027425D01*
X74357119Y19838519D01*
X74546025Y19683488D01*
X74761546Y19568290D01*
X74995400Y19497351D01*
X75177660Y19479400D01*
X75822340Y19479400D01*
X76004600Y19497351D01*
X76238454Y19568290D01*
X76448000Y19680295D01*
X76448000Y19219705D01*
X76238454Y19331710D01*
X76004600Y19402649D01*
X75822340Y19420600D01*
X75177660Y19420600D01*
X74995400Y19402649D01*
X74761546Y19331710D01*
X74557826Y19222820D01*
X69088843Y24691801D01*
X69071553Y24712869D01*
X68987500Y24781849D01*
X68891605Y24833106D01*
X68787553Y24864670D01*
X68706451Y24872658D01*
X68706448Y24872658D01*
X68679342Y24875328D01*
X68652236Y24872658D01*
X64126187Y24872658D01*
X64074651Y24924194D01*
X63947390Y25009227D01*
X63805985Y25067799D01*
X63655870Y25097658D01*
X63502814Y25097658D01*
X63352699Y25067799D01*
X63211294Y25009227D01*
X63084033Y24924194D01*
X62975806Y24815967D01*
X62890773Y24688706D01*
X62832201Y24547301D01*
X62802342Y24397186D01*
X62802342Y24244130D01*
X62832201Y24094015D01*
X62890773Y23952610D01*
X62975806Y23825349D01*
X63084033Y23717122D01*
X63211294Y23632089D01*
X63352699Y23573517D01*
X63502814Y23543658D01*
X63655870Y23543658D01*
X63805985Y23573517D01*
X63947390Y23632089D01*
X64074651Y23717122D01*
X64126187Y23768658D01*
X66649807Y23768658D01*
X66636460Y23755311D01*
X66551427Y23628050D01*
X66492855Y23486645D01*
X66462996Y23336530D01*
X66462996Y23183474D01*
X66492855Y23033359D01*
X66551427Y22891954D01*
X66636460Y22764693D01*
X66744687Y22656466D01*
X66752345Y22651349D01*
X66778805Y22601846D01*
X66847785Y22517793D01*
X66868853Y22500503D01*
X74034848Y15334506D01*
X74086890Y15162946D01*
X74202088Y14947425D01*
X74357119Y14758519D01*
X74546025Y14603488D01*
X74761546Y14488290D01*
X74995400Y14417351D01*
X75177660Y14399400D01*
X75822340Y14399400D01*
X76004600Y14417351D01*
X76238454Y14488290D01*
X76448001Y14600295D01*
X76448001Y14139705D01*
X76238454Y14251710D01*
X76004600Y14322649D01*
X75822340Y14340600D01*
X75177660Y14340600D01*
X74995400Y14322649D01*
X74761546Y14251710D01*
X74546025Y14136512D01*
X74357119Y13981481D01*
X74202088Y13792575D01*
X74126949Y13652000D01*
X67777940Y13652000D01*
X67750834Y13654670D01*
X67723728Y13652000D01*
X67723726Y13652000D01*
X67642624Y13644012D01*
X67538572Y13612448D01*
X67442677Y13561191D01*
X67358624Y13492211D01*
X67341343Y13471154D01*
X65952004Y12081815D01*
X65952004Y21203155D01*
X66003540Y21254691D01*
X66088573Y21381952D01*
X66147145Y21523357D01*
X66177004Y21673472D01*
X66177004Y21826528D01*
X66147145Y21976643D01*
X66088573Y22118048D01*
X66003540Y22245309D01*
X65895313Y22353536D01*
X65768052Y22438569D01*
X65626647Y22497141D01*
X65476532Y22527000D01*
X65323476Y22527000D01*
X65173361Y22497141D01*
X65031956Y22438569D01*
X64904695Y22353536D01*
X64796468Y22245309D01*
X64711435Y22118048D01*
X64652863Y21976643D01*
X64644756Y21935887D01*
X62176998Y24403644D01*
X62176998Y24476528D01*
X62147139Y24626643D01*
X62088567Y24768048D01*
X62003534Y24895309D01*
X61895307Y25003536D01*
X61768046Y25088569D01*
X61626641Y25147141D01*
X61476526Y25177000D01*
X61323470Y25177000D01*
X61173355Y25147141D01*
X61031950Y25088569D01*
X60951992Y25035143D01*
X60951992Y25153155D01*
X61003528Y25204691D01*
X61088561Y25331952D01*
X61147133Y25473357D01*
X61176992Y25623472D01*
X61176992Y25776528D01*
X61147133Y25926643D01*
X61096865Y26048000D01*
X66171356Y26048000D01*
X66323000Y25896355D01*
X66323000Y25823472D01*
X66352859Y25673357D01*
X66411431Y25531952D01*
X66496464Y25404691D01*
X66604691Y25296464D01*
X66731952Y25211431D01*
X66873357Y25152859D01*
X67023472Y25123000D01*
X67176528Y25123000D01*
X67326643Y25152859D01*
X67468048Y25211431D01*
X67595309Y25296464D01*
X67703536Y25404691D01*
X67788569Y25531952D01*
X67847141Y25673357D01*
X67877000Y25823472D01*
X67877000Y25976528D01*
X67847141Y26126643D01*
X67788569Y26268048D01*
X67703536Y26395309D01*
X67595309Y26503536D01*
X67468048Y26588569D01*
X67326643Y26647141D01*
X67176528Y26677000D01*
X67103645Y26677000D01*
X66932644Y26848000D01*
X72753155Y26848000D01*
X72804691Y26796464D01*
X72931952Y26711431D01*
X73073357Y26652859D01*
X73223472Y26623000D01*
X73376528Y26623000D01*
X73526643Y26652859D01*
X73668048Y26711431D01*
X73795309Y26796464D01*
X73903536Y26904691D01*
X73988569Y27031952D01*
X74047141Y27173357D01*
X74077000Y27323472D01*
X74077000Y27476528D01*
X74047141Y27626643D01*
X74038295Y27648000D01*
X74201781Y27648000D01*
X74202088Y27647425D01*
X74357119Y27458519D01*
X74546025Y27303488D01*
X74761546Y27188290D01*
X74995400Y27117351D01*
X75177660Y27099400D01*
X75822340Y27099400D01*
X76004600Y27117351D01*
X76238454Y27188290D01*
X76453975Y27303488D01*
X76642881Y27458519D01*
X76797912Y27647425D01*
X76913110Y27862946D01*
X76984049Y28096800D01*
X77008002Y28340000D01*
X76984049Y28583200D01*
X76913110Y28817054D01*
X76797912Y29032575D01*
X76642881Y29221481D01*
X76453975Y29376512D01*
X76238454Y29491710D01*
X76004600Y29562649D01*
X75822340Y29580600D01*
X75177660Y29580600D01*
X74995400Y29562649D01*
X74949314Y29548669D01*
X75052384Y29651739D01*
X75177660Y29639400D01*
X75822340Y29639400D01*
X76004600Y29657351D01*
X76238454Y29728290D01*
X76453975Y29843488D01*
X76642881Y29998519D01*
X76797912Y30187425D01*
X76913110Y30402946D01*
X76984049Y30636800D01*
X77008002Y30880000D01*
X76984049Y31123200D01*
X76913110Y31357054D01*
X76797912Y31572575D01*
X76642881Y31761481D01*
X76453975Y31916512D01*
X76238454Y32031710D01*
X76004600Y32102649D01*
X75822340Y32120600D01*
X75177660Y32120600D01*
X74995400Y32102649D01*
X74761546Y32031710D01*
X74546025Y31916512D01*
X74357119Y31761481D01*
X74202088Y31572575D01*
X74086890Y31357054D01*
X74015951Y31123200D01*
X73991998Y30880000D01*
X74015951Y30636800D01*
X74086890Y30402946D01*
X74141024Y30301669D01*
X73391356Y29552000D01*
X56927105Y29552000D01*
X56899999Y29554670D01*
X56872893Y29552000D01*
X56872891Y29552000D01*
X56791789Y29544012D01*
X56687737Y29512448D01*
X56591842Y29461191D01*
X56507789Y29392211D01*
X56490508Y29371154D01*
X55196356Y28077000D01*
X55123472Y28077000D01*
X54973357Y28047141D01*
X54949943Y28037442D01*
X54977000Y28173472D01*
X54977000Y28326528D01*
X54947141Y28476643D01*
X54888569Y28618048D01*
X54803536Y28745309D01*
X54752000Y28796845D01*
X54752000Y29388584D01*
X54754669Y29415682D01*
X54752000Y29442780D01*
X54752000Y29442790D01*
X54744012Y29523892D01*
X54712448Y29627944D01*
X54680623Y29687484D01*
X54661191Y29723840D01*
X54609491Y29786836D01*
X54592211Y29807892D01*
X54571154Y29825173D01*
X54048326Y30348000D01*
X64377795Y30348000D01*
X64400000Y30345813D01*
X64422205Y30348000D01*
X64488607Y30354540D01*
X64573810Y30380386D01*
X64652333Y30422357D01*
X64721159Y30478841D01*
X64777643Y30547667D01*
X64819614Y30626190D01*
X64845460Y30711393D01*
X64854187Y30800000D01*
X64852000Y30822205D01*
X64852000Y35600974D01*
X73783642Y35600974D01*
X73805473Y35503843D01*
X73922002Y35233019D01*
X74089127Y34990132D01*
X74300426Y34784517D01*
X74547778Y34624075D01*
X74726400Y34552924D01*
X74546025Y34456512D01*
X74357119Y34301481D01*
X74202088Y34112575D01*
X74086890Y33897054D01*
X74072212Y33848668D01*
X74027789Y33812211D01*
X73958809Y33728158D01*
X73907552Y33632263D01*
X73875988Y33528211D01*
X73865330Y33420000D01*
X73875988Y33311789D01*
X73907552Y33207737D01*
X73958809Y33111842D01*
X74027789Y33027789D01*
X74072212Y32991332D01*
X74086890Y32942946D01*
X74202088Y32727425D01*
X74357119Y32538519D01*
X74546025Y32383488D01*
X74761546Y32268290D01*
X74995400Y32197351D01*
X75177660Y32179400D01*
X75822340Y32179400D01*
X76004600Y32197351D01*
X76238454Y32268290D01*
X76453975Y32383488D01*
X76642881Y32538519D01*
X76797912Y32727425D01*
X76913110Y32942946D01*
X76984049Y33176800D01*
X77008002Y33420000D01*
X76984049Y33663200D01*
X76913110Y33897054D01*
X76797912Y34112575D01*
X76642881Y34301481D01*
X76453975Y34456512D01*
X76273600Y34552924D01*
X76452222Y34624075D01*
X76699574Y34784517D01*
X76910873Y34990132D01*
X77077998Y35233019D01*
X77194527Y35503843D01*
X77216358Y35600974D01*
X77095217Y35833000D01*
X75627000Y35833000D01*
X75627000Y35813000D01*
X75373000Y35813000D01*
X75373000Y35833000D01*
X73904783Y35833000D01*
X73783642Y35600974D01*
X64852000Y35600974D01*
X64852000Y36319026D01*
X73783642Y36319026D01*
X73904783Y36087000D01*
X75373000Y36087000D01*
X75373000Y36107000D01*
X75627000Y36107000D01*
X75627000Y36087000D01*
X77095217Y36087000D01*
X77216358Y36319026D01*
X77194527Y36416157D01*
X77077998Y36686981D01*
X76910873Y36929868D01*
X76699574Y37135483D01*
X76511344Y37257576D01*
X76625000Y37257576D01*
X76698905Y37264855D01*
X76769970Y37286412D01*
X76835463Y37321419D01*
X76892869Y37368531D01*
X76939981Y37425937D01*
X76974988Y37491430D01*
X76996545Y37562495D01*
X77003824Y37636400D01*
X77003824Y39363600D01*
X76996545Y39437505D01*
X76974988Y39508570D01*
X76939981Y39574063D01*
X76892869Y39631469D01*
X76835463Y39678581D01*
X76769970Y39713588D01*
X76698905Y39735145D01*
X76625000Y39742424D01*
X74375000Y39742424D01*
X74301095Y39735145D01*
X74230030Y39713588D01*
X74164537Y39678581D01*
X74107131Y39631469D01*
X74060019Y39574063D01*
X74025012Y39508570D01*
X74003455Y39437505D01*
X73996176Y39363600D01*
X73996176Y37636400D01*
X74003455Y37562495D01*
X74025012Y37491430D01*
X74060019Y37425937D01*
X74107131Y37368531D01*
X74164537Y37321419D01*
X74230030Y37286412D01*
X74301095Y37264855D01*
X74375000Y37257576D01*
X74488656Y37257576D01*
X74300426Y37135483D01*
X74089127Y36929868D01*
X73922002Y36686981D01*
X73805473Y36416157D01*
X73783642Y36319026D01*
X64852000Y36319026D01*
X64852000Y43548000D01*
X77548000Y43548000D01*
X77548000Y24367716D01*
G36*
X53648000Y29187035D02*
G01*
X53648001Y28796846D01*
X53596464Y28745309D01*
X53511431Y28618048D01*
X53452859Y28476643D01*
X53423000Y28326528D01*
X53423000Y28173472D01*
X53452859Y28023357D01*
X53511431Y27881952D01*
X53596464Y27754691D01*
X53704691Y27646464D01*
X53831952Y27561431D01*
X53973357Y27502859D01*
X54123472Y27473000D01*
X54276528Y27473000D01*
X54426643Y27502859D01*
X54450057Y27512558D01*
X54423000Y27376528D01*
X54423000Y27223472D01*
X54452859Y27073357D01*
X54511431Y26931952D01*
X54596464Y26804691D01*
X54704691Y26696464D01*
X54831952Y26611431D01*
X54973357Y26552859D01*
X55123472Y26523000D01*
X55276528Y26523000D01*
X55426643Y26552859D01*
X55568048Y26611431D01*
X55695309Y26696464D01*
X55803536Y26804691D01*
X55888569Y26931952D01*
X55947141Y27073357D01*
X55977000Y27223472D01*
X55977000Y27296356D01*
X55998998Y27318354D01*
X55998998Y27303440D01*
X56028857Y27153325D01*
X56087429Y27011920D01*
X56172462Y26884659D01*
X56280689Y26776432D01*
X56407950Y26691399D01*
X56549355Y26632827D01*
X56699470Y26602968D01*
X56852526Y26602968D01*
X57002641Y26632827D01*
X57144046Y26691399D01*
X57271307Y26776432D01*
X57379534Y26884659D01*
X57464567Y27011920D01*
X57523139Y27153325D01*
X57552998Y27303440D01*
X57552998Y27376323D01*
X57824676Y27648000D01*
X58967354Y27648000D01*
X56641504Y25322148D01*
X56620442Y25304863D01*
X56565168Y25237511D01*
X56551461Y25220809D01*
X56500204Y25124914D01*
X56478347Y25052859D01*
X56469290Y25023000D01*
X56468641Y25020862D01*
X56457982Y24912652D01*
X56460653Y24885536D01*
X56460653Y24619993D01*
X52159501Y28921143D01*
X52142211Y28942211D01*
X52058158Y29011191D01*
X51962263Y29062448D01*
X51858211Y29094012D01*
X51777109Y29102000D01*
X51777106Y29102000D01*
X51750000Y29104670D01*
X51722894Y29102000D01*
X35382645Y29102000D01*
X36128646Y29848000D01*
X52987037Y29848000D01*
X53648000Y29187035D01*
G37*
X53648000Y29187035D02*
X53648001Y28796846D01*
X53596464Y28745309D01*
X53511431Y28618048D01*
X53452859Y28476643D01*
X53423000Y28326528D01*
X53423000Y28173472D01*
X53452859Y28023357D01*
X53511431Y27881952D01*
X53596464Y27754691D01*
X53704691Y27646464D01*
X53831952Y27561431D01*
X53973357Y27502859D01*
X54123472Y27473000D01*
X54276528Y27473000D01*
X54426643Y27502859D01*
X54450057Y27512558D01*
X54423000Y27376528D01*
X54423000Y27223472D01*
X54452859Y27073357D01*
X54511431Y26931952D01*
X54596464Y26804691D01*
X54704691Y26696464D01*
X54831952Y26611431D01*
X54973357Y26552859D01*
X55123472Y26523000D01*
X55276528Y26523000D01*
X55426643Y26552859D01*
X55568048Y26611431D01*
X55695309Y26696464D01*
X55803536Y26804691D01*
X55888569Y26931952D01*
X55947141Y27073357D01*
X55977000Y27223472D01*
X55977000Y27296356D01*
X55998998Y27318354D01*
X55998998Y27303440D01*
X56028857Y27153325D01*
X56087429Y27011920D01*
X56172462Y26884659D01*
X56280689Y26776432D01*
X56407950Y26691399D01*
X56549355Y26632827D01*
X56699470Y26602968D01*
X56852526Y26602968D01*
X57002641Y26632827D01*
X57144046Y26691399D01*
X57271307Y26776432D01*
X57379534Y26884659D01*
X57464567Y27011920D01*
X57523139Y27153325D01*
X57552998Y27303440D01*
X57552998Y27376323D01*
X57824676Y27648000D01*
X58967354Y27648000D01*
X56641504Y25322148D01*
X56620442Y25304863D01*
X56565168Y25237511D01*
X56551461Y25220809D01*
X56500204Y25124914D01*
X56478347Y25052859D01*
X56469290Y25023000D01*
X56468641Y25020862D01*
X56457982Y24912652D01*
X56460653Y24885536D01*
X56460653Y24619993D01*
X52159501Y28921143D01*
X52142211Y28942211D01*
X52058158Y29011191D01*
X51962263Y29062448D01*
X51858211Y29094012D01*
X51777109Y29102000D01*
X51777106Y29102000D01*
X51750000Y29104670D01*
X51722894Y29102000D01*
X35382645Y29102000D01*
X36128646Y29848000D01*
X52987037Y29848000D01*
X53648000Y29187035D01*
G36*
X35148001Y30822215D02*
G01*
X35145813Y30800000D01*
X35154540Y30711393D01*
X35180386Y30626190D01*
X35222357Y30547667D01*
X35242490Y30523135D01*
X34446392Y29727036D01*
X32605649Y29727036D01*
X32641600Y29770843D01*
X32746250Y29966629D01*
X32810693Y30179069D01*
X32827000Y30344635D01*
X32827000Y42055365D01*
X32810693Y42220931D01*
X32746250Y42433371D01*
X32641600Y42629157D01*
X32500765Y42800765D01*
X32329157Y42941600D01*
X32133371Y43046250D01*
X31920931Y43110693D01*
X31700000Y43132453D01*
X31479070Y43110693D01*
X31266630Y43046250D01*
X31070844Y42941600D01*
X30899236Y42800765D01*
X30758401Y42629157D01*
X30653751Y42433371D01*
X30589308Y42220931D01*
X30573001Y42055365D01*
X30573000Y30344636D01*
X30589307Y30179070D01*
X30653750Y29966630D01*
X30758400Y29770843D01*
X30794351Y29727036D01*
X23971630Y29727036D01*
X23944532Y29729705D01*
X23917434Y29727036D01*
X23917424Y29727036D01*
X23836322Y29719048D01*
X23780123Y29702000D01*
X14514290Y29702000D01*
X14572699Y29756906D01*
X14787878Y30058347D01*
X14940114Y30395975D01*
X14987695Y30580355D01*
X14871572Y30873000D01*
X12027000Y30873000D01*
X12027000Y30853000D01*
X11773000Y30853000D01*
X11773000Y30873000D01*
X8928428Y30873000D01*
X8812305Y30580355D01*
X8859886Y30395975D01*
X9012122Y30058347D01*
X9227301Y29756906D01*
X9285710Y29702000D01*
X2277097Y29702000D01*
X2249999Y29704669D01*
X2222901Y29702000D01*
X2222891Y29702000D01*
X2141789Y29694012D01*
X2037737Y29662448D01*
X1994617Y29639400D01*
X1941841Y29611191D01*
X1904566Y29580600D01*
X1857789Y29542211D01*
X1840508Y29521154D01*
X528852Y28209496D01*
X507790Y28192211D01*
X466410Y28141789D01*
X452000Y28124230D01*
X452000Y34400000D01*
X8215128Y34400000D01*
X8246542Y34081052D01*
X8339575Y33774362D01*
X8490654Y33491714D01*
X8693971Y33243971D01*
X8941714Y33040654D01*
X9224362Y32889575D01*
X9531052Y32796542D01*
X9770075Y32773000D01*
X10022927Y32773000D01*
X9811309Y32692912D01*
X9497153Y32496763D01*
X9227301Y32243094D01*
X9012122Y31941653D01*
X8859886Y31604025D01*
X8812305Y31419645D01*
X8928428Y31127000D01*
X11773000Y31127000D01*
X11773000Y31147000D01*
X12027000Y31147000D01*
X12027000Y31127000D01*
X14871572Y31127000D01*
X14987695Y31419645D01*
X14940114Y31604025D01*
X14787878Y31941653D01*
X14572699Y32243094D01*
X14302847Y32496763D01*
X13988691Y32692912D01*
X13642305Y32824004D01*
X13277000Y32885000D01*
X12960556Y32885000D01*
X12975638Y32889575D01*
X13258286Y33040654D01*
X13506029Y33243971D01*
X13709346Y33491714D01*
X13860425Y33774362D01*
X13953458Y34081052D01*
X13984872Y34400000D01*
X13953458Y34718948D01*
X13860425Y35025638D01*
X13709346Y35308286D01*
X13506029Y35556029D01*
X13258286Y35759346D01*
X13173834Y35804487D01*
X16073000Y35804487D01*
X16073000Y34095514D01*
X16103776Y33783036D01*
X16225401Y33382095D01*
X16422907Y33012585D01*
X16688707Y32688707D01*
X17012585Y32422907D01*
X17382094Y32225401D01*
X17783035Y32103776D01*
X18200000Y32062709D01*
X18616964Y32103776D01*
X19017905Y32225401D01*
X19387415Y32422907D01*
X19711293Y32688707D01*
X19977093Y33012585D01*
X20174599Y33382094D01*
X20296224Y33783035D01*
X20326159Y34086975D01*
X20487237Y34135838D01*
X20639592Y34217273D01*
X20773133Y34326867D01*
X20800597Y34360332D01*
X21289664Y34849400D01*
X21323133Y34876867D01*
X21432727Y35010408D01*
X21514162Y35162763D01*
X21564310Y35328078D01*
X21577000Y35456921D01*
X21577000Y35456930D01*
X21581242Y35499999D01*
X21577000Y35543069D01*
X21577000Y36193079D01*
X21564310Y36321922D01*
X21514162Y36487237D01*
X21432727Y36639592D01*
X21323133Y36773133D01*
X21189592Y36882727D01*
X21037237Y36964162D01*
X20871922Y37014310D01*
X20700000Y37031243D01*
X20528079Y37014310D01*
X20362764Y36964162D01*
X20210409Y36882727D01*
X20076868Y36773133D01*
X20053438Y36744583D01*
X19977093Y36887415D01*
X19711293Y37211293D01*
X19387415Y37477093D01*
X19017906Y37674599D01*
X18616965Y37796224D01*
X18200000Y37837291D01*
X17783036Y37796224D01*
X17382095Y37674599D01*
X17012586Y37477093D01*
X16688708Y37211293D01*
X16422908Y36887415D01*
X16225402Y36517906D01*
X16103777Y36116965D01*
X16073000Y35804487D01*
X13173834Y35804487D01*
X12975638Y35910425D01*
X12668948Y36003458D01*
X12429925Y36027000D01*
X9770075Y36027000D01*
X9531052Y36003458D01*
X9224362Y35910425D01*
X8941714Y35759346D01*
X8693971Y35556029D01*
X8490654Y35308286D01*
X8339575Y35025638D01*
X8246542Y34718948D01*
X8215128Y34400000D01*
X452000Y34400000D01*
X452000Y43548000D01*
X35148000Y43548000D01*
X35148001Y30822215D01*
G37*
X35148001Y30822215D02*
X35145813Y30800000D01*
X35154540Y30711393D01*
X35180386Y30626190D01*
X35222357Y30547667D01*
X35242490Y30523135D01*
X34446392Y29727036D01*
X32605649Y29727036D01*
X32641600Y29770843D01*
X32746250Y29966629D01*
X32810693Y30179069D01*
X32827000Y30344635D01*
X32827000Y42055365D01*
X32810693Y42220931D01*
X32746250Y42433371D01*
X32641600Y42629157D01*
X32500765Y42800765D01*
X32329157Y42941600D01*
X32133371Y43046250D01*
X31920931Y43110693D01*
X31700000Y43132453D01*
X31479070Y43110693D01*
X31266630Y43046250D01*
X31070844Y42941600D01*
X30899236Y42800765D01*
X30758401Y42629157D01*
X30653751Y42433371D01*
X30589308Y42220931D01*
X30573001Y42055365D01*
X30573000Y30344636D01*
X30589307Y30179070D01*
X30653750Y29966630D01*
X30758400Y29770843D01*
X30794351Y29727036D01*
X23971630Y29727036D01*
X23944532Y29729705D01*
X23917434Y29727036D01*
X23917424Y29727036D01*
X23836322Y29719048D01*
X23780123Y29702000D01*
X14514290Y29702000D01*
X14572699Y29756906D01*
X14787878Y30058347D01*
X14940114Y30395975D01*
X14987695Y30580355D01*
X14871572Y30873000D01*
X12027000Y30873000D01*
X12027000Y30853000D01*
X11773000Y30853000D01*
X11773000Y30873000D01*
X8928428Y30873000D01*
X8812305Y30580355D01*
X8859886Y30395975D01*
X9012122Y30058347D01*
X9227301Y29756906D01*
X9285710Y29702000D01*
X2277097Y29702000D01*
X2249999Y29704669D01*
X2222901Y29702000D01*
X2222891Y29702000D01*
X2141789Y29694012D01*
X2037737Y29662448D01*
X1994617Y29639400D01*
X1941841Y29611191D01*
X1904566Y29580600D01*
X1857789Y29542211D01*
X1840508Y29521154D01*
X528852Y28209496D01*
X507790Y28192211D01*
X466410Y28141789D01*
X452000Y28124230D01*
X452000Y34400000D01*
X8215128Y34400000D01*
X8246542Y34081052D01*
X8339575Y33774362D01*
X8490654Y33491714D01*
X8693971Y33243971D01*
X8941714Y33040654D01*
X9224362Y32889575D01*
X9531052Y32796542D01*
X9770075Y32773000D01*
X10022927Y32773000D01*
X9811309Y32692912D01*
X9497153Y32496763D01*
X9227301Y32243094D01*
X9012122Y31941653D01*
X8859886Y31604025D01*
X8812305Y31419645D01*
X8928428Y31127000D01*
X11773000Y31127000D01*
X11773000Y31147000D01*
X12027000Y31147000D01*
X12027000Y31127000D01*
X14871572Y31127000D01*
X14987695Y31419645D01*
X14940114Y31604025D01*
X14787878Y31941653D01*
X14572699Y32243094D01*
X14302847Y32496763D01*
X13988691Y32692912D01*
X13642305Y32824004D01*
X13277000Y32885000D01*
X12960556Y32885000D01*
X12975638Y32889575D01*
X13258286Y33040654D01*
X13506029Y33243971D01*
X13709346Y33491714D01*
X13860425Y33774362D01*
X13953458Y34081052D01*
X13984872Y34400000D01*
X13953458Y34718948D01*
X13860425Y35025638D01*
X13709346Y35308286D01*
X13506029Y35556029D01*
X13258286Y35759346D01*
X13173834Y35804487D01*
X16073000Y35804487D01*
X16073000Y34095514D01*
X16103776Y33783036D01*
X16225401Y33382095D01*
X16422907Y33012585D01*
X16688707Y32688707D01*
X17012585Y32422907D01*
X17382094Y32225401D01*
X17783035Y32103776D01*
X18200000Y32062709D01*
X18616964Y32103776D01*
X19017905Y32225401D01*
X19387415Y32422907D01*
X19711293Y32688707D01*
X19977093Y33012585D01*
X20174599Y33382094D01*
X20296224Y33783035D01*
X20326159Y34086975D01*
X20487237Y34135838D01*
X20639592Y34217273D01*
X20773133Y34326867D01*
X20800597Y34360332D01*
X21289664Y34849400D01*
X21323133Y34876867D01*
X21432727Y35010408D01*
X21514162Y35162763D01*
X21564310Y35328078D01*
X21577000Y35456921D01*
X21577000Y35456930D01*
X21581242Y35499999D01*
X21577000Y35543069D01*
X21577000Y36193079D01*
X21564310Y36321922D01*
X21514162Y36487237D01*
X21432727Y36639592D01*
X21323133Y36773133D01*
X21189592Y36882727D01*
X21037237Y36964162D01*
X20871922Y37014310D01*
X20700000Y37031243D01*
X20528079Y37014310D01*
X20362764Y36964162D01*
X20210409Y36882727D01*
X20076868Y36773133D01*
X20053438Y36744583D01*
X19977093Y36887415D01*
X19711293Y37211293D01*
X19387415Y37477093D01*
X19017906Y37674599D01*
X18616965Y37796224D01*
X18200000Y37837291D01*
X17783036Y37796224D01*
X17382095Y37674599D01*
X17012586Y37477093D01*
X16688708Y37211293D01*
X16422908Y36887415D01*
X16225402Y36517906D01*
X16103777Y36116965D01*
X16073000Y35804487D01*
X13173834Y35804487D01*
X12975638Y35910425D01*
X12668948Y36003458D01*
X12429925Y36027000D01*
X9770075Y36027000D01*
X9531052Y36003458D01*
X9224362Y35910425D01*
X8941714Y35759346D01*
X8693971Y35556029D01*
X8490654Y35308286D01*
X8339575Y35025638D01*
X8246542Y34718948D01*
X8215128Y34400000D01*
X452000Y34400000D01*
X452000Y43548000D01*
X35148000Y43548000D01*
X35148001Y30822215D01*
%TD*%
M02*
